<svg xmlns="http://www.w3.org/2000/svg" width="437.832" height="346.636" viewBox="0 0 115.843 91.714" fill="none" stroke="#000"
   xmlns:v="https://vecta.io/nano">
   <path d="M78.591 2.045L65.366 73.413c.092-.005-9.071.147-22.598-1.111C17.338 64.627 1.63 55.55 2.039 35.887c0-13.382 20.506-29.582 40.852-32.586l22.52-1.185 13.18-.071z" stroke-width="4.064"/>
   <path d="M61.292 72.111L61.308.579" stroke-width="4.106"/>
   <path d="M39.789 71.651v18.032c-.072.01 20.95-.169 20.95-.169l.338-14.699h0-.338" stroke-width="4.064"/>
   <ellipse ry="4.628" rx="4.546" cy="80.727" cx="50.778" stroke-width="1.841"/>
   <path d="M85.412 14.558l29.71-5.366M85.694 30.598l29.71-1.628M85.856 45.715l29.71 1.461M86.019 61.644l29.547 4.061" stroke-width="4.064"/>
</svg>