<svg width="78" height="88" viewBox="0 0 78 88" fill="none"
    xmlns="http://www.w3.org/2000/svg">
    <path d="M76.6903 61.3648C77.1839 61.3648 77.1839 60.4497 76.6903 60.4497C76.1967 60.4497 76.1967 61.3648 76.6903 61.3648Z" fill="currentColor"/>
    <path d="M77.7323 60.123C76.7999 55.7766 74.4141 52.28 72.2203 48.7506C69.6699 44.6657 67.6954 40.1559 65.529 35.7769C63.3626 31.3979 60.6752 27.3783 58.6459 22.9012C56.6166 18.4242 54.505 14.6007 51.982 10.6465C49.9802 7.47659 48.3073 3.4897 45.4554 1.23482C42.8227 -0.856653 39.4497 0.319803 36.488 0.417841C32.8408 0.548558 29.1387 0.908048 25.6011 2.01915C22.0635 3.13024 19.4583 5.09101 17.0725 8.26091C14.6867 11.4308 12.7945 14.764 10.2442 17.6071C8.10519 20.0254 5.36289 22.9666 5.19835 26.7247C5.11609 28.5547 5.77423 30.1887 6.65177 31.6593C7.80354 33.62 9.11986 35.4828 10.3539 37.3455C11.4234 38.9795 12.8768 40.1232 14.1657 41.4631C15.7562 43.1297 17.0999 45.1558 18.6082 46.9205C21.6522 50.4172 24.6962 53.9466 27.7127 57.476C30.7292 61.0053 33.9377 63.8157 36.7074 67.4431C38.0786 69.2405 39.532 70.9725 41.15 72.4758C42.6856 73.881 43.8648 75.4822 45.1263 77.2142C47.1007 79.9266 49.1301 81.6913 52.2563 81.2338C55.3825 80.7763 58.4813 79.077 61.7172 78.6521C62.3754 78.5541 62.9787 78.4234 63.5546 78.8156C64.1305 79.2077 64.5418 79.7633 65.1725 80.09C66.4066 80.6456 68.1342 80.8743 69.3408 80.09C70.4652 79.3711 71.5621 77.2469 71.8637 75.8091C72.0009 75.1555 72.0831 74.077 71.8363 73.4561L71.7815 73.1293C71.7266 72.4757 71.5347 72.7372 71.1782 73.9463C71.233 73.979 71.8089 73.6522 71.8363 73.6522C73.2623 72.966 74.6061 71.8548 75.7853 70.6784C77.2935 69.1751 77.7597 67.1163 77.9791 64.8615C78.1436 63.0968 75.8127 63.0968 75.6481 64.8615C75.4288 67.2797 74.5512 68.4562 72.9332 69.796C72.0557 70.515 71.0136 70.8418 70.1635 71.4954C69.5328 71.9856 69.4231 72.6065 69.478 73.4561C69.5602 74.894 69.5328 76.6914 68.2987 77.6064C67.3389 78.3253 66.0501 77.7044 65.2274 76.9528C64.295 76.1031 63.5546 75.8091 62.3479 75.9071C59.8525 76.0705 57.6038 77.1162 55.218 77.8352C52.3934 78.6848 49.9253 79.3711 47.7041 76.5933C46.6894 75.3188 45.8393 73.9137 44.8246 72.6392C43.5083 71.0052 41.8904 69.796 40.5192 68.2274C37.8866 65.1883 35.5008 62.0183 32.7311 59.1752C29.7694 56.1361 27.1916 52.7375 24.3396 49.5676C21.6796 46.5938 19.1567 43.5545 16.5789 40.45C15.482 39.1102 14.1383 38.0971 13.0139 36.8226C11.6976 35.3194 10.683 33.3913 9.5312 31.7246C8.4617 30.156 7.17283 28.3914 7.61159 26.2345C7.99552 24.4045 9.22954 22.8359 10.299 21.5287C12.4106 18.947 14.4674 16.5287 16.3595 13.6856C18.2517 10.8425 20.4182 7.50926 23.3798 5.94065C26.5609 4.30669 30.1259 3.75116 33.5538 3.45704C35.1169 3.32633 36.68 3.3263 38.2157 3.22826C39.7514 3.13023 41.3693 2.50933 42.8502 2.93416C45.8393 3.75115 47.6218 8.45695 49.2946 11.1367C51.7352 15.0582 54.121 18.849 56.0406 23.1627C57.9603 27.4763 60.6477 31.6266 62.8416 35.973C65.0354 40.3193 66.9824 44.9924 69.5054 49.1427C71.7266 52.8682 74.4964 56.4302 75.4287 60.94C75.7852 62.672 78.0339 61.953 77.6774 60.1883L77.7323 60.123Z" fill="currentColor"/>
    <path d="M21.0489 4.37194C19.7875 6.65949 21.7071 10.3849 22.5572 12.4437C23.2428 14.045 24.0381 15.5809 24.6688 17.2149C25.4915 19.3064 26.0673 21.5286 26.8626 23.6201C30.2631 32.5415 35.0621 40.7767 39.203 49.208C41.15 53.1949 43.097 57.1817 45.1264 61.1359C46.141 63.0967 46.9637 65.0901 47.759 67.1816C48.4446 68.979 49.185 71.0704 50.4464 72.4103C52.6403 74.7305 54.8341 72.5737 56.9731 71.3972C59.2218 70.1554 62.4303 69.6325 64.0757 67.2469C64.4596 66.6914 64.5145 66.1358 65.1178 65.809C65.8856 65.3842 66.7906 65.809 67.5584 65.809C68.6828 65.809 69.8619 65.4169 70.9588 65.1228C73.1801 64.4692 76.2241 63.6195 77.5952 61.2339C78.4453 59.7634 76.416 58.3582 75.5933 59.8288C74.6061 61.5608 71.5347 62.1163 69.9716 62.5411C69.1763 62.7699 68.2988 63.0313 67.4762 63.0313C66.1873 63.0313 65.0903 62.7045 63.8563 63.4562C62.9788 63.979 62.8691 64.6326 62.2932 65.4496C61.5254 66.5607 60.0445 67.0509 58.9476 67.5411C57.8507 68.0313 56.6989 68.5214 55.602 69.1423C54.6147 69.6979 53.271 71.2665 52.1466 70.5476C51.0223 69.8286 50.2819 67.1816 49.7609 65.8417C48.993 63.881 48.2252 61.9856 47.2928 60.1229C45.5377 56.6589 43.81 53.1948 42.0824 49.6981C38.4351 42.2473 34.5411 34.9598 31.0583 27.4435C29.221 23.4893 28.0692 19.241 26.3964 15.2542C25.656 13.4895 24.8059 11.8228 24.0929 10.0254C23.7638 9.24114 22.5298 6.72484 23.0234 5.8425C23.8461 4.33925 21.8442 2.93401 21.0215 4.43726L21.0489 4.37194Z" fill="currentColor"/>
    <path d="M69.4231 73.8809C68.4359 74.3384 67.1745 74.7633 66.1872 74.077C65.3371 73.4888 64.7886 72.0836 64.9532 70.9071C65.0354 70.3842 65.2823 69.894 65.6662 69.5999C66.1324 69.2404 66.7631 69.2078 67.3116 69.2731C67.9149 69.3385 68.4908 69.5673 69.0118 69.9267C69.5329 70.2862 70.0264 70.9398 70.191 71.6261C70.3281 72.247 70.0264 72.7698 69.6699 73.1619C69.1763 73.7175 68.5182 74.0443 67.8875 74.3384C67.4213 74.5345 67.6132 75.4495 68.1069 75.2208C69.286 74.6979 70.9314 73.7502 71.0137 72.0182C71.0685 71.0705 70.5475 70.2535 70.0265 69.6653C69.5054 69.0771 68.8473 68.6522 68.1343 68.4562C66.818 68.0967 65.0903 68.2928 64.4596 69.9267C63.8837 71.3973 64.3225 73.1293 65.2274 74.2404C66.4066 75.7109 68.2439 75.3842 69.6699 74.7306C69.8619 74.6326 69.999 74.4038 69.9442 74.175C69.8893 73.9463 69.67 73.7502 69.478 73.8482L69.4231 73.8809Z" fill="currentColor"/>
    <path d="M70.4927 74.2077C69.8894 75.2534 68.957 75.8417 67.9149 75.8417C66.8728 75.8417 66.2147 75.2535 65.5291 74.3711C65.0081 73.7175 64.487 73.0639 63.7192 72.9006C62.9513 72.7372 62.1835 73.0639 61.4705 73.26C58.262 74.175 53.8743 77.5083 51.2965 73.4234L51.1594 74.0443C51.9547 73.3907 53.4629 72.9986 52.5306 71.5933C52.2289 71.1358 51.6805 71.7894 51.9821 72.2469C52.2015 72.5737 50.9949 73.0639 50.7755 73.26C50.611 73.3907 50.5013 73.6848 50.6384 73.8809C53.4356 78.2926 57.6038 75.4495 61.1688 74.2731C62.4029 73.8809 63.6095 73.3254 64.6515 74.5672C65.2823 75.3188 65.7759 76.1685 66.6535 76.4952C68.3537 77.1815 70.191 76.3646 71.1782 74.6326C71.4525 74.1424 70.7943 73.6849 70.5201 74.175L70.4927 74.2077Z" fill="currentColor"/>
    <path d="M77.1564 64.5019C77.0741 64.1424 76.8822 63.8156 76.7176 63.5215C76.5257 63.1621 76.3337 62.8026 76.1692 62.4431C76.1418 62.3777 76.1143 62.2797 76.0595 62.2144C76.0046 62.1163 76.0595 62.2797 76.0595 62.2144V62.149C76.0595 62.0836 76.0595 62.149 76.0595 62.1817C76.0595 62.2471 76.0595 62.2798 76.0595 62.1817C76.0595 62.2144 76.0595 62.2144 76.0595 62.1817C76.0869 62.0837 76.1417 62.0183 76.1966 61.9203C76.4434 61.5281 76.7999 61.1686 77.0193 60.7111C77.2661 60.1882 76.6079 59.7307 76.3611 60.2536C76.1417 60.7111 75.7852 61.0706 75.511 61.4954C75.4013 61.6915 75.2916 61.9203 75.2916 62.1817C75.2916 62.3778 75.3739 62.5739 75.4562 62.7373C75.6207 63.1294 75.8127 63.4889 76.0047 63.881C76.0869 64.0771 76.1966 64.2405 76.2789 64.4365C76.3063 64.5019 76.3337 64.5673 76.3886 64.6653C76.3886 64.6653 76.3886 64.7307 76.416 64.7634C76.5531 65.3516 77.2935 65.0901 77.1564 64.5019Z" fill="currentColor"/>
    <path d="M51.7078 74.1424C52.8596 73.9463 53.8468 73.3254 54.8615 72.6718C56.0681 71.8875 57.3021 71.3973 58.5636 70.8418C59.825 70.2862 61.0865 69.8941 62.3205 69.3058C63.39 68.8156 64.103 67.9006 65.0354 67.2144C66.8728 65.9072 69.4779 65.8418 71.5621 65.3516C73.0703 64.9921 75.0997 64.8941 76.2788 63.5216C76.6353 63.0967 76.0869 62.4432 75.7304 62.868C74.5786 64.2079 72.2751 64.2078 70.7668 64.6C68.7649 65.1229 66.4614 65.0902 64.6515 66.3974C63.6368 67.1163 62.869 68.064 61.7446 68.5542C60.538 69.0771 59.3314 69.4692 58.1522 70.0248C57.1376 70.4823 56.1229 70.8417 55.1357 71.43C53.9565 72.1489 52.8322 73.0313 51.4884 73.2601C50.9948 73.3581 51.2142 74.2404 51.7078 74.1424Z" fill="currentColor"/>
    <path d="M76.3886 64.4039C75.9499 65.8744 74.8255 66.9855 73.756 67.8025C72.6317 68.6522 71.3702 69.3384 70.0539 69.6979C69.5603 69.8286 69.7796 70.711 70.2733 70.5803C71.6993 70.1881 73.0978 69.4365 74.3045 68.4888C75.5111 67.5411 76.6629 66.2993 77.1565 64.6327C77.321 64.0771 76.5806 63.8157 76.416 64.3712L76.3886 64.4039Z" fill="currentColor"/>
    <path d="M69.9442 73.6521C69.8345 72.3449 69.2586 71.2338 68.2714 70.6129C67.2841 69.992 66.1872 69.9267 65.2 70.3515C65.008 70.4495 64.8709 70.6783 64.9258 70.907C64.9806 71.1358 65.2 71.2992 65.3919 71.2338C66.1872 70.907 67.0648 70.907 67.8052 71.3646C68.5456 71.8221 69.0392 72.6391 69.1215 73.6194C69.1215 73.8809 69.286 74.0769 69.5054 74.0769C69.6974 74.0769 69.9167 73.8482 69.8893 73.6194L69.9442 73.6521Z" fill="currentColor"/>
    <path d="M69.0666 73.0966C68.5182 73.26 67.9971 73.4234 67.4213 73.4234C67.1745 73.4234 67.0373 73.4234 66.8454 73.358C66.626 73.2927 66.5437 73.26 66.3518 73.1293C66.0501 72.9005 65.8033 72.5411 65.6113 72.0836C65.3371 71.4626 65.1726 70.7764 65.008 70.0901C64.8709 69.5019 64.1305 69.7633 64.2676 70.3516C64.5144 71.43 64.8161 72.6064 65.4742 73.4561C66.0227 74.1423 66.7905 74.4037 67.5584 74.3384C68.1343 74.3384 68.7101 74.1423 69.2586 73.9789C69.7522 73.8155 69.5328 72.9332 69.0392 73.0966H69.0666Z" fill="currentColor"/>
    <path d="M69.0392 78.456C67.9148 79.5344 67.2293 81.3644 65.9404 82.2141C63.7191 83.652 61.9092 80.5148 60.73 78.7501C59.2766 76.5932 55.8213 79.5017 54.2308 80.2206C52.1192 81.1683 50.1173 81.3317 48.1977 79.6978C46.2781 78.0638 44.5778 75.7436 42.8502 73.7828C39.6143 70.0247 35.8848 66.8875 32.7585 63.0313C32.402 62.6065 31.8536 63.2601 32.2101 63.6849C34.02 65.9071 36.0219 67.7372 37.9963 69.7306C39.9708 71.724 41.7807 73.8482 43.618 75.9723C46.4426 79.2402 49.1849 83.0638 53.4629 81.5278C55.1906 80.9069 56.9182 79.4037 58.6733 79.0442C60.2364 78.7501 61.635 81.8546 62.9513 82.7696C66.1598 85.0245 67.4761 81.1684 69.6151 79.1096C69.999 78.7501 69.4505 78.0965 69.0666 78.456H69.0392Z" fill="currentColor"/>
    <path d="M33.1425 63.783C31.4148 60.5477 28.5902 58.5869 26.2593 56.0706C23.2976 52.8681 20.5005 49.4694 17.4291 46.3976C14.3577 43.3257 11.2863 40.5153 9.257 36.6264C8.32461 34.8291 7.41967 32.9663 6.56955 31.1036C5.39036 28.4893 5.14356 26.2344 7.39225 24.3717C7.8036 24.0449 7.39225 23.2279 7.00833 23.5874C4.29345 25.8422 4.54023 28.6527 5.99365 31.8552C7.03573 34.1101 8.10524 36.3977 9.31186 38.5545C10.4362 40.5153 11.8896 41.9859 13.4253 43.4891C16.8532 46.8878 20.2262 50.4825 23.4073 54.1752C24.8607 55.8745 26.3415 57.5085 27.9321 59.0118C29.5226 60.515 31.2777 62.149 32.4295 64.3058C32.7037 64.796 33.3618 64.3385 33.0876 63.8483L33.1425 63.783Z" fill="currentColor"/>
    <path d="M9.09246 19.2083C7.74873 19.3064 6.32274 19.3064 5.03386 19.8946C3.63529 20.5482 2.67547 21.79 1.77051 23.1626C0.865553 24.5351 -0.231382 26.3324 0.0428485 28.2278C0.317079 30.1232 1.74308 31.6265 2.70289 33.0317C3.27877 33.914 4.04661 34.4696 4.92414 34.8618C5.71941 35.2212 6.59697 35.3519 7.39224 35.7441C7.88586 35.9728 8.43431 35.9075 8.70854 35.3193C8.95534 34.8291 8.84564 33.9794 8.35202 33.7506C7.52933 33.3258 6.67922 33.0971 5.82911 32.7703C5.06126 32.4762 4.54026 32.0513 4.01922 31.3324C3.44334 30.4827 2.78517 29.6984 2.29156 28.7507C1.90763 27.9991 1.85278 27.4762 2.15443 26.6592C2.48351 25.7769 3.00456 25.0253 3.49818 24.2736C3.96437 23.5874 4.43054 22.9011 5.06127 22.4436C6.24046 21.5613 7.74873 21.6266 9.09246 21.5286C10.3265 21.4306 10.3539 19.1103 9.09246 19.2083Z" fill="currentColor"/>
    <path d="M5.52744 26.6593C5.14352 25.777 4.7322 24.9273 4.48539 23.9796C4.3757 23.5548 4.26597 23.0319 4.32082 22.6071C4.37566 22.2149 4.54024 21.9208 4.86931 21.7247C5.30808 21.4633 4.92416 20.6463 4.48539 20.9404C2.42866 22.1822 4.15629 25.5156 4.84186 27.1495C5.06125 27.6724 5.74684 27.2149 5.50003 26.692L5.52744 26.6593Z" fill="currentColor"/>
    <path d="M4.67731 28.6854C4.23854 30.0579 3.85464 31.3978 3.71753 32.8683C3.71753 33.1298 3.90949 33.3258 4.10145 33.3258C4.32083 33.3258 4.45795 33.0971 4.48537 32.8683C4.62249 31.4958 5.0064 30.2213 5.41774 28.9468C5.50001 28.718 5.33546 28.4239 5.1435 28.3912C4.92411 28.3259 4.73216 28.4893 4.67731 28.718V28.6854Z" fill="currentColor"/>
    <path d="M69.5877 77.0834C69.8893 79.5997 67.0099 82.1487 65.392 83.0964C63.6369 84.1095 63.3353 82.3775 62.1561 81.2664C60.9769 80.1553 59.688 80.4494 58.5362 81.4624C56.7263 83.0964 53.6823 86.0375 51.2417 84.8611C50.2544 84.3709 49.4866 83.2271 48.7188 82.3774C47.7589 81.299 46.6895 80.3186 45.7022 79.2402C43.5633 76.9527 41.6162 74.469 39.5046 72.1488C37.393 69.8286 35.2266 67.6391 33.307 65.1228C32.3198 63.8156 31.36 62.4757 30.3179 61.2013C29.4678 60.1228 28.3709 59.5346 27.4659 58.5869C26.5609 57.6392 25.1349 59.2405 26.0948 60.2209C26.8352 60.9725 27.7127 61.4627 28.4257 62.2143C29.4952 63.2927 30.3727 64.6979 31.2777 65.9071C33.0876 68.2927 35.0347 70.4495 37.0366 72.6063C39.0384 74.7631 40.8484 76.9527 42.768 79.1422C44.523 81.1356 46.4152 82.9656 48.1977 84.9591C49.3221 86.2336 50.5835 87.4101 52.2015 87.4427C54.0937 87.4427 56.6715 86.0702 58.1797 84.7957C58.8105 84.2729 59.7428 82.6716 60.5655 82.8023C61.0317 82.9003 61.4156 83.6846 61.7173 84.0768C62.5126 85.1225 63.3627 85.9068 64.6241 85.7761C66.4066 85.58 68.2165 83.8154 69.4232 82.3448C70.7669 80.7108 71.7267 78.75 71.4525 76.4298C71.2605 74.9592 69.3957 75.5801 69.5877 77.0507V77.0834Z" fill="currentColor"/>
    <path d="M27.603 58.7831C26.4787 57.5086 25.4914 56.1034 24.4219 54.7962C23.3524 53.489 22.0636 52.2799 20.9118 51.0054C18.6083 48.4237 16.3322 45.8748 14.1932 43.0643C12.4107 40.7114 10.5185 37.8683 7.94071 36.7245C7.3374 36.4631 6.70668 36.3978 6.10337 36.169C5.33552 35.8749 5.00644 35.2867 4.67736 34.437C4.45797 33.8161 4.32086 33.1625 4.07405 32.5743C3.74497 31.8226 3.14169 31.2017 2.89488 30.3847C2.45611 29.0122 0.591322 29.6005 1.03009 31.0057C1.46886 32.4109 2.34641 33.5873 2.84002 35.0579C3.27879 36.3978 3.82725 37.5416 4.97901 38.1298C5.5549 38.4239 6.15821 38.5546 6.78894 38.7506C7.50194 38.9794 8.07783 39.4043 8.68114 39.8944C10.0523 41.0055 11.1218 42.5088 12.2461 43.9467C14.4948 46.8552 16.8258 49.5675 19.239 52.3126C20.3908 53.6198 21.6248 54.7962 22.7491 56.1034C23.9557 57.5086 25.0252 59.0772 26.2593 60.4497C27.1642 61.4628 28.5354 59.8288 27.6304 58.8158L27.603 58.7831Z" fill="currentColor"/>
    <path d="M34.3217 4.37198C37.7221 4.76413 40.3274 7.57453 42.4115 10.581C43.7552 12.5091 45.5651 15.6137 44.3037 18.1953C43.6455 19.5352 42.247 20.058 41.0404 20.1888C39.4498 20.3522 37.8867 19.8293 36.4881 18.9143C33.8007 17.1823 31.168 13.8489 30.3728 10.2542C29.9888 8.52221 30.0437 6.33271 31.1132 4.96018C31.6891 4.20856 32.3472 3.68568 33.2248 3.88176C34.1023 4.07783 35.0073 4.63342 35.8574 4.99289C37.0366 5.51576 37.5302 3.26086 36.3784 2.77067C34.5959 1.98637 32.786 0.842616 30.9487 2.18247C29.221 3.42428 28.3435 5.61376 28.2338 7.96667C28.0144 12.6398 30.9761 17.1169 33.9652 19.7966C36.9543 22.4763 41.5888 23.9796 44.7973 21.0057C47.4573 18.5548 46.7992 14.045 45.099 11.1039C42.5486 6.6922 38.9562 2.63996 34.2943 2.1171C33.0602 1.98638 33.0602 4.30658 34.2943 4.4373L34.3217 4.37198Z" fill="currentColor"/>
    <path d="M53.6549 16.0385C53.2161 17.1169 51.6256 16.8882 50.8029 16.8882C49.2124 16.8882 47.6493 17.4763 46.1136 17.9665C45.62 18.1299 45.8393 19.0123 46.333 18.8489C47.2928 18.5548 48.2526 18.228 49.2398 18.0319C49.9254 17.8685 50.5835 17.8358 51.2691 17.8358C52.3112 17.8358 53.792 17.8359 54.3405 16.5287C54.5599 16.0058 53.9017 15.5156 53.6823 16.0712L53.6549 16.0385Z" fill="currentColor"/>
    <path d="M35.117 19.6986C32.7037 20.7117 29.9614 20.8424 27.7676 22.509C26.6432 23.3587 25.9302 24.6986 25.0253 25.8097C23.9009 27.2149 22.6395 28.4893 21.1861 29.4044C20.7473 29.6985 21.1312 30.4828 21.57 30.1887C22.8589 29.3717 24.0106 28.2606 25.0527 27.0515C26.0948 25.8424 26.8352 24.3718 27.987 23.4241C30.126 21.6594 32.9231 21.5613 35.3089 20.581C35.7751 20.3849 35.5831 19.5026 35.0895 19.6986H35.117Z" fill="currentColor"/>
    <path d="M23.2702 30.352C24.2026 29.8291 25.135 29.2082 26.1222 28.8815C27.5756 28.4239 28.2612 29.3063 29.0016 30.6461C30.0711 32.6069 30.9487 34.7637 31.9359 36.7898C33.3619 39.6983 34.6508 42.7048 36.0219 45.6786C37.3931 48.6524 38.9836 51.4628 40.4919 54.3386C42.0001 57.2144 43.3987 60.4497 44.7698 63.5542C45.949 66.2666 47.8686 68.2927 49.1027 70.9071C49.9254 72.6391 49.1027 72.8351 48.28 73.9462C47.8961 74.4364 47.6493 75.09 47.6493 75.7763C47.6493 77.5083 49.0753 77.4102 50.0351 78.1945C50.4464 78.5213 50.8304 77.737 50.419 77.4102C49.5415 76.724 47.5396 76.4626 48.8285 74.6325C49.185 74.1096 49.8157 73.8809 50.1174 73.2926C50.9949 71.6587 49.2672 69.4692 48.4994 68.2927C47.5396 66.8221 46.4975 65.4169 45.7297 63.783C45.0167 62.247 44.3859 60.6457 43.6729 59.0771C42.1372 55.6785 40.3547 52.5413 38.6545 49.2733C35.8025 43.7178 33.1425 37.9009 30.5921 32.1494C29.934 30.6788 29.1113 28.3586 27.6304 27.8357C26.1496 27.3128 24.2026 28.7834 22.8589 29.535C22.3927 29.7965 22.804 30.5808 23.2428 30.3194L23.2702 30.352Z" fill="currentColor"/>
    <path d="M53.4903 18.6855C55.1357 23.1952 57.5489 27.1821 59.5782 31.4631C60.5381 33.4892 61.3608 35.548 62.4577 37.4761C63.4997 39.2735 64.6515 40.9728 65.721 42.7702C66.7905 44.5675 67.5584 46.2015 68.3262 48.0642C69.1489 50.0903 70.4104 51.8223 71.3702 53.7177C71.8363 54.6327 72.5768 55.8419 72.4397 56.9203C72.33 57.9007 71.6444 58.1294 70.904 58.3582C69.6151 58.783 68.2439 58.783 66.9825 59.3059C63.4175 60.7438 60.4558 63.6522 56.8359 64.9921C55.9858 65.3189 55.1083 65.613 54.2308 65.9071C53.5452 66.1359 52.5579 66.8222 51.8449 66.8222C50.7206 66.8222 49.7882 64.4692 49.2672 63.5215C48.6913 62.4431 48.1154 61.3647 47.5395 60.2863C45.2908 55.9399 43.097 51.5282 40.958 47.1165C39.9708 45.0577 38.9287 43.0316 38.1334 40.8748C37.4204 38.914 36.872 36.8879 36.159 34.9598C35.5282 33.2605 34.7878 31.6265 33.7183 30.2213C32.7311 28.9468 31.6342 27.8031 30.8389 26.3325C30.263 25.2541 29.9888 24.339 31.0035 23.5874C31.5793 23.1626 32.3197 22.9011 32.9505 22.6724C34.1845 22.2149 35.5008 21.9207 36.6526 21.2345C37.0914 20.973 36.7074 20.1888 36.2687 20.4502C34.5684 21.4306 30.4001 21.5613 29.5774 24.0122C28.8096 26.3325 31.7987 29.2736 32.9779 30.6788C35.7751 34.1428 36.4058 39.2081 38.2705 43.3584C40.6289 48.6198 43.2615 53.7504 45.8667 58.8811C47.0733 61.2993 48.3348 63.6849 49.6511 66.0052C50.3093 67.149 50.7755 68.1293 52.0369 67.8025C56.2326 66.6914 60.209 64.6326 63.9385 62.1163C65.6661 60.9726 67.339 60.0576 69.3134 59.7308C70.4104 59.5347 71.8363 59.4039 72.6865 58.4889C74.7706 56.2667 70.9314 51.4629 69.9167 49.5675C68.6553 47.2146 67.7777 44.6655 66.4066 42.378C65.0354 40.0904 63.4997 37.9009 62.2657 35.45C60.922 32.803 59.7702 30.0252 58.4265 27.3782C56.9182 24.4371 55.3551 21.4959 54.1759 18.2933C53.9839 17.7378 53.2984 18.228 53.5177 18.7509L53.4903 18.6855Z" fill="currentColor"/>
    <path d="M35.7751 23.8161C34.7604 25.7115 33.4715 27.3782 32.3198 29.1429C32.1827 29.3389 32.1552 29.6004 32.3198 29.7964C32.4569 29.9598 32.7311 29.9925 32.8682 29.7964C34.0748 27.9664 35.3912 26.2671 36.4332 24.2736C36.7075 23.7834 36.0219 23.2933 35.7751 23.8161Z" fill="currentColor"/>
    <path d="M38.2157 23.4566C38.0238 24.7311 37.4753 25.973 36.8994 27.0514C36.3236 28.1298 35.6106 29.3716 34.6782 30.0905C34.2668 30.4173 34.6508 31.2017 35.0621 30.8749C36.1042 30.0906 36.8994 28.8161 37.5302 27.6069C38.1609 26.3978 38.7642 25.0906 38.9836 23.6854C39.0659 23.0971 38.3255 22.8684 38.2432 23.424L38.2157 23.4566Z" fill="currentColor"/>
    <path d="M42.3018 22.4109C40.7387 26.2997 37.969 29.2409 36.2413 33.0317C35.9945 33.5546 36.6801 34.0121 36.8995 33.4892C38.5997 29.6984 41.3968 26.7573 42.96 22.8684C43.1793 22.3455 42.4938 21.8554 42.3018 22.4109Z" fill="currentColor"/>
    <path d="M44.7698 21.8554C42.2194 26.6593 39.4497 31.2998 36.8445 36.071C36.5703 36.5611 37.2559 37.0513 37.5027 36.5285C40.1079 31.7573 42.8776 27.1168 45.428 22.3129C45.7022 21.8228 45.0166 21.3326 44.7698 21.8554Z" fill="currentColor"/>
    <path d="M46.9363 21.5939C45.5377 24.4697 44.2214 27.4436 42.7131 30.254C41.9727 31.6265 41.2049 32.9337 40.5193 34.3389C39.8337 35.7441 39.2579 37.084 38.4077 38.3258C38.1061 38.7833 38.6545 39.4369 38.9562 38.9794C39.7515 37.8029 40.3822 36.4957 40.9855 35.1885C41.6711 33.7507 42.4663 32.3781 43.2068 31.0056C44.7699 28.0971 46.1136 25.058 47.567 22.0842C47.8138 21.5613 47.1557 21.1038 46.9089 21.6266L46.9363 21.5939Z" fill="currentColor"/>
    <path d="M49.4866 20.2215C47.8412 24.1103 45.8942 27.7704 44.1117 31.5612C43.2067 33.4239 42.4389 35.3847 41.5065 37.2147C40.7113 38.7506 39.6143 40.1232 39.1755 41.8879C39.0384 42.4761 39.7789 42.7049 39.916 42.1493C40.3547 40.3193 41.6162 38.7833 42.4115 37.182C43.289 35.3847 44.0569 33.522 44.9344 31.6919C46.6895 28.0318 48.5816 24.4698 50.1448 20.7117C50.3641 20.1888 49.706 19.6986 49.4866 20.2542V20.2215Z" fill="currentColor"/>
    <path d="M52.0369 20.4174C50.9948 22.3782 49.7608 24.2083 48.6913 26.169C47.6766 27.9991 47.0185 30.0579 46.3055 32.084C44.7972 36.3977 42.7679 40.2865 40.6838 44.208C40.4095 44.6982 41.0951 45.1884 41.3419 44.6655C43.3712 40.8094 45.3731 37.0186 46.854 32.8029C47.5944 30.6788 48.28 28.5546 49.3495 26.6265C50.419 24.6985 51.653 22.8684 52.6951 20.875C52.9693 20.3848 52.2837 19.8946 52.0369 20.4174Z" fill="currentColor"/>
    <path d="M54.0389 21.1038C52.2015 25.7442 49.9802 30.1233 47.8138 34.5676C46.7717 36.6918 45.812 38.8813 44.8247 41.0382C44.3311 42.1166 43.8101 43.2277 43.2068 44.2407C42.6857 45.1231 42.055 45.842 41.6436 46.8224C41.4243 47.3453 42.1098 47.8354 42.3018 47.2799C42.6857 46.2995 43.3439 45.5806 43.8649 44.6983C44.4683 43.6852 44.9893 42.5741 45.4829 41.4957C46.4701 39.3389 47.4573 37.1493 48.472 35.0251C50.611 30.5808 52.8597 26.2017 54.697 21.5613C54.9164 21.0384 54.2308 20.5482 54.0389 21.1038Z" fill="currentColor"/>
    <path d="M54.5598 23.6855C54.2856 25.9076 53.1338 27.8684 52.2014 29.7638C51.1319 31.986 50.0625 34.1755 48.9107 36.365C46.8265 40.3519 44.3859 44.7636 43.7551 49.5021C43.6729 50.0904 44.4133 50.3518 44.4956 49.7636C45.1812 44.829 47.8138 40.2212 50.0076 36.0383C51.0771 33.9795 52.0643 31.8553 53.1064 29.7638C54.0114 27.9664 55.0535 26.071 55.3003 23.9469C55.3825 23.3587 54.6147 23.0972 54.5598 23.6855Z" fill="currentColor"/>
    <path d="M56.0407 25.875C54.6147 30.6135 52.174 34.7311 49.9253 38.9467C47.6767 43.1624 45.5925 47.7375 43.81 52.3779C43.5906 52.9008 44.2762 53.391 44.4682 52.8354C46.3055 48.0643 48.4171 43.4238 50.8029 39.012C53.0516 34.8618 55.3826 30.7769 56.8086 26.1037C56.9731 25.5482 56.2327 25.2867 56.0681 25.8423L56.0407 25.875Z" fill="currentColor"/>
    <path d="M57.165 28.4893C55.2454 33.0971 53.2984 37.6722 51.1594 42.1493C50.1721 44.2407 49.2946 46.3976 48.3074 48.5217C47.3202 50.6459 46.0038 52.1491 44.9892 54.0772C44.715 54.6001 45.4006 55.0576 45.6474 54.5347C46.662 52.5739 48.0332 51.0053 48.9656 48.9792C49.8979 46.9531 50.8029 44.6982 51.8175 42.6068C53.9291 38.1297 55.9036 33.5546 57.8232 28.9468C58.0426 28.4239 57.3844 27.9337 57.165 28.4893Z" fill="currentColor"/>
    <path d="M58.1796 30.6462C56.973 32.0841 56.2326 33.9142 55.4648 35.6788C54.5598 37.8684 53.6274 39.9925 52.8047 42.2474C51.9272 44.633 50.9674 46.9859 49.8704 49.2407C48.7735 51.4956 47.5121 53.7178 46.5797 56.1361C46.3603 56.659 47.0459 57.1491 47.2378 56.5936C48.1154 54.3387 49.2672 52.2472 50.3367 50.0904C51.4062 47.9336 52.4482 45.548 53.3258 43.1624C54.121 41.0056 54.9985 38.9468 55.8761 36.8553C56.6714 34.9272 57.4392 32.8684 58.7281 31.2998C59.0846 30.8749 58.5361 30.2214 58.1796 30.6462Z" fill="currentColor"/>
    <path d="M59.0299 32.1821C57.4668 37.5088 55.2729 42.5087 53.1339 47.5087C52.1467 49.8616 51.2966 52.2798 50.3093 54.6327C49.3221 56.9857 48.0058 58.8157 47.1283 61.1033C46.9089 61.6262 47.5945 62.1164 47.7864 61.5608C48.6914 59.2079 50.1174 57.2144 51.0498 54.8615C51.9822 52.5086 52.9419 49.927 53.984 47.5087C56.0956 42.5741 58.2346 37.6722 59.7703 32.4108C59.9348 31.8553 59.1944 31.5939 59.0299 32.1494V32.1821Z" fill="currentColor"/>
    <path d="M60.3461 34.9271C57.6587 38.8159 56.1504 43.5218 54.4776 48.0969C53.6823 50.2537 52.7225 52.2798 51.9821 54.4367C51.1046 56.953 50.419 59.6 49.1575 61.9202C48.8833 62.4104 49.5689 62.9006 49.8157 62.3778C50.9126 60.3516 51.5982 58.1294 52.3112 55.9072C53.079 53.5216 54.1211 51.2994 54.9986 48.9792C56.6989 44.3714 58.1523 39.5349 60.8672 35.6134C61.1962 35.1559 60.6478 34.5023 60.3187 34.9598L60.3461 34.9271Z" fill="currentColor"/>
    <path d="M61.827 36.1689C59.496 40.1884 57.8781 44.6982 56.0681 49.0772C55.1632 51.2994 54.0937 53.4236 53.1613 55.6458C52.1467 58.064 51.2691 60.515 50.3093 62.9659C50.0899 63.4888 50.7755 63.979 50.9675 63.4234C51.9273 61.0052 52.8048 58.5216 53.8194 56.1033C54.7518 53.8811 55.8213 51.7569 56.7263 49.5347C58.5362 45.1557 60.1542 40.6459 62.4851 36.6264C62.7594 36.1362 62.1012 35.6787 61.827 36.1689Z" fill="currentColor"/>
    <path d="M62.019 39.0774C61.8819 41.2016 60.7575 43.097 59.8251 44.8617C58.8379 46.7244 58.0427 48.5871 57.2748 50.5478C55.4375 55.221 54.0937 60.1556 52.3387 64.8614C52.1467 65.4169 52.8048 65.8744 52.9968 65.3189C54.8616 60.319 56.315 55.1229 58.2895 50.1557C59.0847 48.1623 59.9897 46.3322 60.9495 44.4695C61.7996 42.8028 62.6771 41.0382 62.7868 39.0774C62.8143 38.4892 62.0464 38.4892 62.019 39.0774Z" fill="currentColor"/>
    <path d="M63.3078 41.4303C62.7319 43.3911 61.7173 45.0578 60.7575 46.7571C59.7977 48.4564 58.9476 50.2537 58.1797 52.0838C56.5069 55.9726 55.1632 60.0249 53.9566 64.1425C53.792 64.698 54.5325 64.9595 54.697 64.4039C55.9585 60.0902 57.3844 55.8746 59.1669 51.8223C59.9622 50.025 60.8123 48.3257 61.7721 46.6591C62.6771 45.0905 63.5272 43.5218 64.0483 41.7244C64.2128 41.1689 63.4724 40.9075 63.3078 41.463V41.4303Z" fill="currentColor"/>
    <path d="M64.3498 43.3258C63.9933 46.8552 62.4302 50.0904 61.1687 53.2603C60.5106 54.8943 59.8799 56.5283 59.1394 58.0969C58.3442 59.7635 57.494 61.3648 56.7262 63.0314C56.4794 63.5543 57.165 64.0118 57.3844 63.4889C58.207 61.7243 59.112 59.9923 59.9621 58.2276C60.7574 56.5609 61.3881 54.8289 62.0737 53.1296C63.3352 49.9924 64.7612 46.7898 65.1177 43.2931C65.1725 42.7049 64.4047 42.7049 64.3498 43.2931V43.3258Z" fill="currentColor"/>
    <path d="M65.4741 45.4826C65.1176 51.5936 61.4704 56.5609 59.9073 62.2471C59.7427 62.8026 60.5106 63.0641 60.6477 62.5085C62.2382 56.7243 65.8855 51.757 66.242 45.5153C66.2694 44.927 65.5016 44.927 65.4741 45.5153V45.4826Z" fill="currentColor"/>
    <path d="M66.6534 47.8682C66.7631 50.1231 65.5565 52.0512 64.7064 53.9466C63.774 56.1034 62.8965 58.2929 62.1012 60.5478C61.9092 61.1034 62.6497 61.3321 62.8416 60.8092C63.6643 58.4563 64.5693 56.1361 65.6113 53.9139C66.4615 52.0185 67.531 50.1231 67.4213 47.9009C67.3938 47.3127 66.626 47.3127 66.6534 47.9009V47.8682Z" fill="currentColor"/>
    <path d="M68.0519 49.8616C67.6406 51.5936 66.8453 53.1295 66.242 54.7635C65.6387 56.3974 65.4193 58.2275 64.7063 59.7634C64.4595 60.2863 65.1451 60.7438 65.3645 60.2209C66.1323 58.6196 66.3243 56.7242 66.9824 55.0576C67.6406 53.3909 68.4084 51.855 68.8197 50.0903C68.9569 49.5021 68.2164 49.2733 68.0793 49.8289L68.0519 49.8616Z" fill="currentColor"/>
    <path d="M68.8473 51.6917C68.3537 54.1426 66.8728 56.038 66.1873 58.3909C66.0227 58.9465 66.7631 59.2079 66.9277 58.6524C67.6407 56.2995 69.1215 54.4041 69.5877 51.9531C69.6974 51.3649 68.957 51.1361 68.8473 51.6917Z" fill="currentColor"/>
    <path d="M70.7943 53.9465C69.999 55.6131 69.3409 57.3451 68.4908 58.9791C68.2165 59.4693 68.9021 59.9594 69.1489 59.4366C69.9991 57.8353 70.6572 56.0706 71.4525 54.404C71.6993 53.8811 71.0411 53.4236 70.7943 53.9465Z" fill="currentColor"/>
    <path d="M56.0407 25.4828C54.8066 25.1887 53.8743 24.2737 52.8596 23.4567C52.3386 23.0319 51.7901 22.6724 51.1868 22.4109C50.4738 22.0841 49.7334 21.8881 49.0478 21.4633C48.6091 21.2018 48.1977 21.9861 48.6639 22.2476C49.3221 22.6397 50.0351 22.8685 50.7481 23.1626C51.4062 23.424 52.0095 23.8162 52.5854 24.2737C53.6275 25.1233 54.6147 26.0384 55.8761 26.3325C56.3698 26.4305 56.5617 25.5482 56.0955 25.4501L56.0407 25.4828Z" fill="currentColor"/>
    <path d="M57.686 29.1755C55.7939 29.9925 53.5177 28.9141 51.7627 28.1298C49.5414 27.1167 47.375 25.8749 45.0166 25.3194C44.523 25.2213 44.331 26.1037 44.7972 26.2017C47.2653 26.7573 49.5414 28.0971 51.8998 29.1429C53.7097 29.9599 55.9858 30.9076 57.9054 30.0579C58.3716 29.8618 58.1797 28.9468 57.686 29.1755Z" fill="currentColor"/>
    <path d="M59.9073 33.7833C58.7281 34.0121 57.6038 33.3258 56.5617 32.8356C55.4648 32.3128 54.313 31.986 53.1338 31.6592C50.748 31.0056 48.2251 30.7768 45.949 29.6657C45.4828 29.437 45.2908 30.352 45.7296 30.5481C46.9362 31.1363 48.1977 31.4304 49.4866 31.6919C50.7754 31.9533 52.0918 32.2801 53.4081 32.6722C54.5873 32.999 55.7116 33.4239 56.8634 33.9794C57.9054 34.4696 58.9475 34.8944 60.0993 34.6657C60.5929 34.5676 60.3735 33.6853 59.8799 33.7833H59.9073Z" fill="currentColor"/>
    <path d="M62.4303 38.7506C60.3461 37.4435 57.9603 37.1821 55.6568 36.6919C53.0242 36.1363 50.7206 34.6004 48.1703 33.6854C47.7041 33.522 47.4847 34.4043 47.9509 34.5677C50.419 35.45 52.6677 36.9533 55.218 37.5088C57.4941 37.999 59.9348 38.1951 62.0189 39.5023C62.4577 39.7964 62.8416 38.9794 62.4029 38.718L62.4303 38.7506Z" fill="currentColor"/>
    <path d="M65.1451 43.0969C60.3187 41.6263 55.218 41.2342 50.6658 38.7179C50.227 38.4565 49.8156 39.2735 50.2818 39.5022C54.9163 42.0512 60.0718 42.476 64.9531 43.9793C65.4467 44.1427 65.6387 43.2276 65.1725 43.0969H65.1451Z" fill="currentColor"/>
    <path d="M67.2292 47.0184C61.8543 47.0838 57.0279 43.7506 51.8449 42.6721C51.3513 42.5741 51.1319 43.4564 51.6255 43.5544C56.8908 44.6329 61.7721 47.9989 67.2292 47.9335C67.7229 47.9335 67.7229 46.9858 67.2292 47.0184Z" fill="currentColor"/>
    <path d="M69.1214 49.2734C66.4888 49.2734 64.0756 47.8355 61.6623 46.7898C60.4831 46.2996 59.2491 45.9401 58.0151 45.7114C57.4666 45.6133 56.9181 45.5153 56.3423 45.4826C55.5744 45.45 54.7792 45.646 54.0662 45.2212C53.6274 44.9598 53.216 45.744 53.6822 46.0055C54.8066 46.6591 56.1503 46.3323 57.3843 46.5284C58.7829 46.7244 60.1267 47.1166 61.4704 47.6721C63.9659 48.7179 66.434 50.1557 69.1488 50.1884C69.6425 50.1884 69.6425 49.2734 69.1488 49.2734H69.1214Z" fill="currentColor"/>
    <path d="M70.9863 53.8812C68.6279 53.6197 66.5437 52.2145 64.2676 51.5936C63.0884 51.2668 61.8818 51.2995 60.7027 51.0054C59.5235 50.7112 58.3442 50.2538 57.1651 49.927C56.6714 49.7963 56.4795 50.6786 56.9457 50.8093C58.2071 51.1361 59.4412 51.6263 60.7301 51.9204C61.9092 52.1818 63.1158 52.1492 64.2676 52.5086C66.5437 53.1949 68.6279 54.5021 70.9863 54.7635C71.4799 54.8289 71.4799 53.8812 70.9863 53.8485V53.8812Z" fill="currentColor"/>
    <path d="M69.6974 57.2472C67.7504 57.2798 65.7759 57.0838 63.9111 56.2995C62.2109 55.5805 60.6752 54.306 58.8379 54.1753C58.3442 54.1426 58.3442 55.0576 58.8379 55.0903C60.7026 55.221 62.3206 56.6589 64.0757 57.3125C65.8307 57.9661 67.8052 58.1949 69.6974 58.1622C70.191 58.1622 70.191 57.2145 69.6974 57.2472Z" fill="currentColor"/>
    <path d="M66.3243 59.1426C64.816 58.8811 63.2529 58.9138 61.7446 58.489C61.251 58.3583 61.0591 59.2406 61.5253 59.3714C63.0335 59.7962 64.5967 59.7308 66.1049 60.0249C66.3243 60.0576 66.5163 59.9596 66.5711 59.6981C66.626 59.4694 66.5163 59.1753 66.2969 59.1426H66.3243Z" fill="currentColor"/>
</svg>
