<svg width="86" height="78" viewBox="0 0 86 78" fill="none"
    xmlns="http://www.w3.org/2000/svg">
    <path d="M4.21482 39.1907C1.85644 32.949 2.35006 25.7922 5.58597 20.1387C9.0687 14.1257 14.3613 11.2826 19.9008 8.83165C24.9741 6.57678 30.2119 4.77942 35.5594 3.83172C40.139 3.01473 45.2122 2.7533 49.6274 4.77942C54.3441 6.96893 57.1413 12.0342 58.8964 17.4263C59.2529 18.5047 59.8288 19.9426 59.7739 21.1518C59.7191 22.3609 58.7867 23.2432 58.1285 24.0275C56.4283 25.9229 54.4538 27.4915 52.5068 28.9621C45.1574 34.4196 36.6289 37.0666 28.3471 39.7463C24.4256 41.0208 20.4219 41.7724 16.3632 42.1646C14.1146 42.3933 11.8933 42.1646 9.64459 41.9358C8.1089 41.8051 4.98267 41.6417 4.32452 39.5829C3.72121 37.6548 1.0886 38.4718 1.69191 40.4326C3.14533 45.1057 8.08149 44.975 11.5368 45.3345C14.6356 45.6613 17.6247 45.2037 20.7235 44.7462C22.5883 44.4848 24.4256 44.2234 26.263 43.7005C30.541 42.4914 34.7641 40.9554 38.9598 39.3868C43.8137 37.5895 48.4756 35.5633 52.8633 32.4588C55.2491 30.7595 57.6349 28.8968 59.6916 26.6746C61.3644 24.8772 62.7904 22.8838 62.4065 20.0407C62.0226 17.1976 60.9257 14.4198 59.8836 11.9362C58.5673 8.86433 56.5106 6.18463 54.2344 4.12583C49.9839 0.269671 44.225 -0.285878 39.0695 0.106274C33.201 0.563785 27.4147 2.26311 21.8753 4.51798C14.9921 7.3284 8.19116 10.4656 3.72121 17.6551C-0.501941 24.4524 -1.02298 33.1451 1.85644 40.7594C2.56944 42.6548 4.92782 41.0208 4.21482 39.1254V39.1907Z" fill="currentColor"/>
    <path d="M2.54201 42.23C3.61151 48.0142 6.29896 53.537 10.385 57.001C14.8275 60.7591 20.5864 62.2951 25.9613 61.8049C32.0766 61.2493 38.3017 59.3212 44.0879 56.903C49.3257 54.7135 54.5909 51.8377 58.5398 47.0992C62.4888 42.3607 64.4084 35.4653 63.8325 29.0929C63.7502 28.2759 63.2841 27.8511 62.5985 27.9818C61.2273 28.2105 60.432 29.2563 59.5271 30.4C58.3479 31.8706 57.0042 33.0144 55.6056 34.1908L57.0316 34.8771C56.6751 33.5373 56.4283 29.3543 54.5086 29.9099C53.7682 30.1386 53.0004 31.021 52.3422 31.4458C51.4373 32.0013 50.5323 32.4915 49.5999 32.9817C44.0605 35.8575 38.2742 38.047 32.488 40.0078C27.3324 41.7724 22.0124 42.9162 16.6649 43.4064C12.6063 43.7986 7.50559 43.8312 3.99545 40.9228C2.98079 40.0731 1.99356 42.0666 3.00821 42.9162C5.88763 45.3018 10.0011 45.8574 13.3741 45.8574C18.0909 45.8574 22.9722 44.975 27.5793 43.8312C32.8993 42.5241 38.1645 40.498 43.2926 38.3411C45.7607 37.2954 48.2014 36.1516 50.5872 34.9425C52.26 34.0601 53.7682 32.8837 55.3862 31.936H54.399C54.6458 32.1321 55.0571 35.0078 55.1668 35.4653C55.3314 36.1189 56.0718 36.6091 56.5928 36.1516C57.7172 35.2039 58.8689 34.2889 59.911 33.1778C60.9531 32.0667 61.7209 30.4 63.1195 30.1713L61.8855 29.0602C62.3516 34.3216 60.8708 40.2365 58.0188 44.3214C54.7006 49.0273 49.7645 51.8704 45.0477 53.9945C39.9744 56.2821 34.5995 57.9487 29.2521 58.9945C23.9046 60.0402 18.6119 59.5827 13.7032 56.6089C8.79448 53.635 5.61339 47.9488 4.4342 41.5764C4.15997 40.1385 2.29521 40.7267 2.56944 42.1973L2.54201 42.23Z" fill="currentColor"/>
    <path d="M59.7191 27.2628C61.6661 26.8379 63.8874 27.1647 65.7247 26.1844C66.4926 25.7595 67.0136 25.1386 67.5072 24.3543C68.3025 23.0798 69.0977 22.3282 70.3318 21.6419C72.6627 20.4001 75.2131 20.3021 77.6811 20.5635C79.4911 20.7596 81.6849 21.1844 83.1383 22.655C86.0451 25.5635 80.6977 28.0144 78.9974 28.4719C77.7086 28.7987 76.3648 28.9948 75.0211 28.9621C73.266 28.9294 71.5384 28.2432 69.7833 27.949C67.4249 27.5569 65.0665 27.3608 62.7356 27.851C61.5564 28.0798 60.5143 28.668 59.4448 29.2235C58.0737 29.9098 56.7574 30.2693 55.3039 30.4327C54.0699 30.5634 54.0699 32.8836 55.3039 32.7529C56.538 32.6222 57.7446 32.4588 58.8964 31.9686C60.0481 31.4784 61.145 30.7268 62.3242 30.302C65.0391 29.3869 68.0282 29.8771 70.7431 30.4327C72.4434 30.7921 74.0887 31.315 75.8438 31.217C77.4617 31.1516 79.1071 30.8575 80.6702 30.302C83.2754 29.3543 86.7581 26.8379 85.6612 22.9164C84.3449 18.2433 77.544 17.8185 74.2258 18.1452C71.6481 18.4067 68.3847 19.3544 66.6571 21.8053C66.3006 22.3282 66.0264 22.9818 65.6424 23.4393C65.0117 24.1582 64.2164 24.3216 63.3663 24.4524C61.9677 24.6811 60.5692 24.6811 59.198 24.9752C57.964 25.2367 58.485 27.4589 59.7191 27.1974V27.2628Z" fill="currentColor"/>
    <path d="M54.8378 30.4981C56.1541 30.2693 57.4978 30.0079 58.7867 29.583C60.0756 29.1582 61.6113 28.6027 62.4614 27.2628C62.7631 26.7726 62.0775 26.3151 61.8032 26.8053C61.4742 27.3282 60.8983 27.6876 60.4047 27.9491C59.7465 28.3085 59.0335 28.57 58.3479 28.7661C57.1413 29.1255 55.9073 29.387 54.6733 29.6157C54.1797 29.7138 54.399 30.5961 54.8926 30.4981H54.8378Z" fill="currentColor"/>
    <path d="M63.0646 28.668C62.8453 28.4719 62.6533 28.1451 62.5984 27.851C62.5984 27.8183 62.5984 27.753 62.571 27.7203C62.571 27.7203 62.571 27.5896 62.571 27.6549C62.571 27.5569 62.571 27.4589 62.571 27.3608C62.571 27.3281 62.571 27.2955 62.571 27.2301C62.571 27.1321 62.571 27.3608 62.571 27.2301C62.5984 27.0013 62.6533 26.7726 62.7355 26.5438C62.7355 26.5438 62.7355 26.4785 62.7904 26.4458C62.8452 26.4131 62.8178 26.3804 62.8452 26.3478C62.8452 26.3151 62.9001 26.2497 62.8452 26.3478C62.8727 26.2824 62.9275 26.2497 62.9824 26.1844C62.9275 26.2497 62.9824 26.1844 63.0098 26.1844C63.0372 26.1844 63.0646 26.1517 63.1195 26.119C63.3114 26.021 63.3663 25.6942 63.2566 25.4981C63.1469 25.2693 62.9275 25.2367 62.7355 25.3347C62.1871 25.6288 61.9403 26.4131 61.858 27.0667C61.8032 27.4589 61.858 27.851 61.9403 28.2105C62.0774 28.7334 62.379 29.1582 62.7355 29.485C62.9001 29.6484 63.1743 29.485 63.2566 29.3216C63.3663 29.0928 63.284 28.8314 63.1195 28.7007L63.0646 28.668Z" fill="currentColor"/>
    <path d="M60.8983 25.9229C61.3919 25.3674 61.7484 24.6484 61.8855 23.8314C61.9404 23.5046 61.9404 23.1778 61.9678 22.8184C61.9678 22.655 61.9678 22.5243 61.9678 22.3609C61.9678 22.2955 61.9678 22.2301 61.9678 22.1648C61.9678 22.0994 61.9678 22.2301 61.9678 22.1648C61.9678 22.1321 61.9678 22.0994 61.9678 22.0341L61.2548 22.1321C61.3645 22.3609 61.4468 22.5896 61.5291 22.8511C61.5291 22.8511 61.529 22.9164 61.5565 22.9491C61.5565 23.0145 61.6113 23.0798 61.6387 23.1778C61.6936 23.3086 61.721 23.472 61.7759 23.6027C61.9678 24.2889 62.0501 24.9752 62.1049 25.6615C62.1049 25.9229 62.2695 26.119 62.4888 26.119C62.6808 26.119 62.9002 25.9229 62.8728 25.6615C62.8179 24.2236 62.4614 22.9164 61.9404 21.6419C61.8033 21.2824 61.2823 21.3805 61.2274 21.74C61.1726 22.0341 61.1726 22.3282 61.1451 22.6223C61.1451 22.753 61.1451 22.9164 61.1451 23.0471C61.1451 23.1125 61.1451 23.1778 61.1451 23.2759C61.1451 23.3086 61.1451 23.3412 61.1451 23.4066C61.1451 23.4066 61.1451 23.5373 61.1451 23.4393C61.0629 24.1582 60.816 24.7138 60.3498 25.2366C59.9933 25.6288 60.5418 26.2824 60.8983 25.8902V25.9229Z" fill="currentColor"/>
    <path d="M65.6699 26.7399C67.5347 26.2497 68.2751 23.7661 69.9205 22.7857C71.6756 21.74 73.9243 20.7923 75.9262 20.8903C77.3796 20.9557 78.8604 21.2171 80.2864 21.6419C81.6027 22.0341 83.7417 22.6877 83.9885 24.5831C84.0708 25.1713 84.8112 24.9099 84.7289 24.3217C84.4821 22.4916 82.8093 21.6093 81.493 21.0864C79.8751 20.4328 78.1474 20.1714 76.4472 20.008C74.4453 19.8119 72.4434 20.5309 70.6061 21.4459C69.6737 21.9034 68.851 22.3936 68.138 23.2432C67.3427 24.2236 66.6571 25.5635 65.4779 25.8903C64.9843 26.021 65.2037 26.9033 65.6973 26.7726L65.6699 26.7399Z" fill="currentColor"/>
    <path d="M55.0845 30.7268C55.0845 30.7268 55.1667 31.0209 55.1941 31.1843V31.0536C55.1941 31.217 55.1941 31.3804 55.1941 31.5438V31.4131C55.1941 31.4784 55.1941 31.5438 55.1941 31.6091C55.1941 31.6745 55.1942 31.7399 55.249 31.7725C55.3039 31.8706 55.3861 31.9686 55.4684 32.0013C55.5781 32.0013 55.6878 32.0013 55.77 31.9686C55.8523 31.9033 55.9346 31.8052 55.962 31.7072C55.962 31.5111 55.9894 31.2823 55.962 31.0863C55.9346 30.8902 55.9072 30.6941 55.8523 30.498C55.8523 30.4327 55.8249 30.4 55.77 30.3346C55.77 30.2693 55.7152 30.2366 55.6604 30.2039C55.5781 30.1386 55.441 30.1059 55.3587 30.1712C55.2765 30.2366 55.1668 30.2693 55.1393 30.4C55.1119 30.5307 55.057 30.6288 55.1119 30.7595L55.0845 30.7268Z" fill="currentColor"/>
    <path d="M55.7976 30.6287C55.8799 30.9882 56.017 31.2823 56.1815 31.5764C56.2364 31.6745 56.3186 31.7725 56.4009 31.8052C56.4832 31.8379 56.6203 31.8052 56.7026 31.7725C56.7848 31.7398 56.8671 31.6091 56.8946 31.5111C56.922 31.4131 56.8945 31.2497 56.8671 31.1516C56.7574 30.9555 56.6752 30.7595 56.5929 30.5634V30.6614C56.5929 30.6614 56.5929 30.498 56.5654 30.4327C56.5654 30.3346 56.4832 30.2039 56.3735 30.1712C56.2638 30.1386 56.1541 30.0732 56.0719 30.1386C55.9896 30.2039 55.8799 30.2366 55.8525 30.3673C55.825 30.498 55.7976 30.5961 55.8251 30.7268L55.7976 30.6287Z" fill="currentColor"/>
    <path d="M56.5654 30.4654C56.6203 30.7595 56.73 31.0536 56.8945 31.315C56.9494 31.4131 57.0317 31.5111 57.1139 31.5438C57.1962 31.5438 57.3333 31.5438 57.4156 31.5111C57.4978 31.4784 57.5801 31.3477 57.6075 31.2497C57.6349 31.1517 57.6075 30.9883 57.5801 30.8902C57.4978 30.7595 57.443 30.6288 57.3881 30.4654V30.5634C57.3881 30.5634 57.3881 30.3673 57.3333 30.2366C57.2784 30.1059 57.251 30.0079 57.1413 29.9752C57.0316 29.9425 56.9219 29.8772 56.8397 29.9425C56.7574 30.0079 56.6477 30.0406 56.6203 30.1713C56.5929 30.302 56.5655 30.4 56.5929 30.5307L56.5654 30.4654Z" fill="currentColor"/>
    <path d="M57.4705 30.302C57.5527 30.4981 57.635 30.6941 57.7173 30.9229V30.8248C57.7173 30.8248 57.7721 31.0536 57.7996 31.1843C57.7996 31.2497 57.827 31.2824 57.8818 31.3477C57.8818 31.4131 57.9367 31.4458 57.9915 31.4784C58.0738 31.5438 58.2109 31.5765 58.2932 31.5111C58.3754 31.4458 58.4851 31.4131 58.5125 31.2824C58.54 31.1516 58.5948 31.0536 58.54 30.9229C58.4028 30.5634 58.2932 30.1713 58.1286 29.8445C58.0738 29.7464 57.9915 29.6484 57.9092 29.6157C57.827 29.583 57.6898 29.6157 57.6076 29.6484C57.4156 29.7791 57.3608 30.0405 57.4705 30.2693V30.302Z" fill="currentColor"/>
    <path d="M58.4302 30.1386C58.4302 30.1386 58.4577 30.2366 58.4851 30.2693V30.1713C58.4851 30.3674 58.5674 30.5308 58.6496 30.7268C58.6496 30.7922 58.7045 30.8249 58.7593 30.8575C58.7867 30.8902 58.8416 30.9229 58.8964 30.9556C58.9513 30.9556 59.0061 30.9556 59.061 30.9556C59.1158 30.9556 59.1707 30.9556 59.1981 30.8902C59.2804 30.8249 59.3626 30.7268 59.39 30.6288V30.4981C59.39 30.4981 59.39 30.3347 59.3626 30.2693C59.3626 30.2366 59.3352 30.1713 59.3078 30.1386V30.2366C59.3078 30.0406 59.2255 29.8772 59.1432 29.6811C59.1432 29.6157 59.0884 29.583 59.0336 29.5504C59.0061 29.5177 58.9513 29.485 58.8964 29.4523C58.8416 29.4523 58.7867 29.4523 58.7319 29.4523C58.677 29.4523 58.6222 29.4523 58.5948 29.5177C58.5125 29.5831 58.4303 29.6811 58.4028 29.7791V29.9098C58.4028 29.9098 58.4028 30.0732 58.4302 30.1386Z" fill="currentColor"/>
    <path d="M59.2528 29.485L59.4173 30.2039C59.4173 30.2039 59.4996 30.4327 59.6093 30.4653C59.719 30.498 59.8287 30.5634 59.9109 30.498C59.9932 30.4327 60.1029 30.4 60.1303 30.2693C60.1578 30.1386 60.1852 30.0405 60.1578 29.9098L59.9932 29.1909C59.9932 29.1909 59.911 28.9621 59.8013 28.9294C59.6916 28.8967 59.5819 28.8314 59.4996 28.8967C59.4173 28.9621 59.3076 28.9948 59.2802 29.1255C59.2528 29.2562 59.2254 29.3543 59.2528 29.485Z" fill="currentColor"/>
    <path d="M60.1577 29.1909C60.1577 29.1909 60.1577 29.2236 60.1577 29.2563V29.1582C60.1852 29.3543 60.24 29.5504 60.2948 29.7791C60.2948 29.8772 60.3771 30.0079 60.4868 30.0406C60.5417 30.0732 60.5691 30.1059 60.6239 30.1059C60.6788 30.1059 60.7336 30.1059 60.7885 30.1059C60.8707 30.0732 60.9804 30.0079 61.0079 29.8772C61.0353 29.7465 61.0627 29.6484 61.0353 29.5177C61.0353 29.4197 60.9804 29.2889 60.953 29.1909C60.8982 29.0275 60.8707 28.8968 60.8159 28.7334C60.8159 28.668 60.761 28.6354 60.7062 28.6027C60.6788 28.57 60.6239 28.5373 60.5691 28.5046C60.5142 28.5046 60.4594 28.5046 60.4045 28.5046C60.3497 28.5046 60.2948 28.5046 60.2674 28.57C60.1852 28.6354 60.1029 28.7334 60.0754 28.8314V28.9622C60.0754 28.9622 60.0755 29.1255 60.1029 29.1909H60.1577Z" fill="currentColor"/>
    <path d="M60.953 28.7334L61.1175 29.4523C61.1175 29.4523 61.1998 29.6811 61.3095 29.7138C61.4192 29.7464 61.5289 29.8118 61.6112 29.7464C61.6934 29.6811 61.8031 29.6484 61.8306 29.5177C61.858 29.387 61.8854 29.2889 61.858 29.1582L61.6934 28.4393C61.6934 28.4393 61.6112 28.2105 61.5015 28.1778C61.3918 28.1452 61.2821 28.0798 61.1998 28.1452C61.1175 28.2105 61.0078 28.2432 60.9804 28.3739C60.953 28.5046 60.9256 28.6027 60.953 28.7334Z" fill="currentColor"/>
    <path d="M24.3161 67.2623C23.5208 68.2427 22.5884 70.0073 23.8225 71.0858C25.0565 72.1642 27.1955 71.3799 28.5666 70.8897C30.1023 70.3341 31.6106 69.4518 32.8995 68.3407C33.8593 67.491 34.1609 66.3473 34.0787 64.942C34.0238 63.8636 33.8044 62.8506 33.9964 61.8048C34.1884 60.7591 34.6546 59.8768 35.4773 59.4192C36.1354 59.0271 35.5595 57.818 34.9014 58.2101C33.6399 58.9617 32.9817 60.4977 32.7898 62.0989C32.7075 62.9159 32.7898 63.7002 32.8995 64.5172C32.9543 65.1054 33.0092 65.7917 32.8446 66.3799C32.543 67.295 31.5009 67.7525 30.8702 68.21C29.4167 69.223 27.6342 70.0073 25.934 70.2034C25.5775 70.2361 24.6451 70.3668 24.4257 69.8766C24.2064 69.3864 24.892 68.5694 25.1388 68.2753C25.6598 67.6544 24.8371 66.6414 24.3161 67.295V67.2623Z" fill="currentColor"/>
    <path d="M29.8553 64.125C29.9649 63.4388 29.8552 62.7525 29.7181 62.0662C29.7181 62.0009 29.7181 61.9028 29.6907 61.8375C29.6907 61.8048 29.6907 61.7721 29.6907 61.7394C29.6907 61.8048 29.6907 61.8375 29.6907 61.7394C29.6907 61.576 29.6907 61.4453 29.6907 61.2819C29.6907 61.2493 29.6907 61.2166 29.6907 61.1839C29.6907 61.2492 29.6907 61.2819 29.6907 61.1839C29.6907 61.0859 29.7181 61.0205 29.7455 60.9225C29.7455 60.9225 29.773 60.7917 29.7455 60.8571C29.7181 60.9225 29.7455 60.8244 29.7455 60.7917C29.773 60.6937 29.8278 60.6283 29.8827 60.5303C30.0472 60.2362 29.9375 59.746 29.6633 59.5826C29.3616 59.3865 29.06 59.5172 28.868 59.844C28.4841 60.5303 28.4292 61.3146 28.5389 62.0989C28.5938 62.393 28.6486 62.7198 28.7035 63.0139C28.7035 63.0466 28.7035 63.112 28.7035 63.1447C28.7035 63.1447 28.7035 63.308 28.7035 63.3734C28.7035 63.4388 28.7035 63.5368 28.7035 63.6022C28.7035 63.6348 28.7035 63.6675 28.7035 63.7002C28.7035 63.5368 28.7035 63.7982 28.7035 63.7002C28.6486 64.0597 28.7857 64.4518 29.1148 64.5499C29.4165 64.6152 29.773 64.4518 29.8278 64.0597L29.8553 64.125Z" fill="currentColor"/>
    <path d="M25.0564 67.9813C25.0564 67.9813 25.0563 67.9159 25.1112 67.9159L25.0564 68.0139C25.0564 68.0139 25.2757 67.7525 25.3854 67.6545L25.3032 67.7198C25.4677 67.5891 25.6322 67.4257 25.7694 67.295C25.8516 67.2296 25.8791 67.0662 25.8791 66.9682C25.8791 66.8702 25.8242 66.7068 25.7694 66.6414C25.7145 66.576 25.6048 66.5107 25.4952 66.5107C25.3855 66.5107 25.3032 66.576 25.2209 66.6414C25.1935 66.6741 25.166 66.7068 25.1112 66.7394L25.1935 66.6741C25.0564 66.8048 24.8918 66.9355 24.7547 67.0662C24.6176 67.1969 24.4805 67.3603 24.3982 67.5237C24.3434 67.6218 24.3434 67.7525 24.3708 67.8832C24.3708 67.9813 24.453 68.112 24.5627 68.1446C24.645 68.21 24.7547 68.2427 24.8644 68.1773C24.9741 68.112 25.0564 68.0793 25.0838 67.9486L25.0564 67.9813Z" fill="currentColor"/>
    <path d="M29.3893 65.2361C30.0201 65.3995 30.4862 65.9224 31.0895 66.2165C31.446 66.4126 31.8026 66.5433 32.2139 66.576C32.5978 66.6087 32.9543 66.6087 33.3108 66.7067C33.8044 66.8374 33.9964 65.9551 33.5302 65.8244C33.1463 65.7263 32.7624 65.6936 32.3784 65.661C32.0219 65.661 31.6929 65.5303 31.3912 65.3342C31.117 65.1708 30.8702 64.9747 30.6234 64.7786C30.3217 64.5499 29.9926 64.3865 29.6361 64.2884C29.1425 64.1577 28.9505 65.0401 29.4167 65.1708L29.3893 65.2361Z" fill="currentColor"/>
    <path d="M23.5754 70.6283C24.8368 73.5041 28.6212 71.8047 30.4311 70.8244C31.6926 70.1381 33.2283 69.2231 34.0784 67.8832C34.9285 66.5434 34.5446 64.9748 34.4898 63.5042C34.4623 62.6219 34.4898 61.7395 34.8188 60.9552C35.2576 59.9421 36.0803 59.2886 36.903 58.7657C37.3417 58.4716 36.9578 57.6873 36.519 57.9814C35.0382 58.9291 33.9139 60.2363 33.7219 62.2951C33.5574 64.1251 34.3801 66.3473 33.146 67.7852C31.912 69.2231 29.965 70.2688 28.2647 70.8897C27.0581 71.3146 24.974 71.9028 24.2061 70.2361C23.9867 69.7133 23.3012 70.1708 23.548 70.6936L23.5754 70.6283Z" fill="currentColor"/>
    <path d="M44.3073 56.282C44.9929 56.282 45.5687 56.9683 45.9801 57.5565C46.3914 58.1448 46.8028 58.8637 47.1044 59.6153C47.3238 60.1382 47.5158 60.7591 47.8723 61.1839C48.2288 61.6088 48.7773 61.7722 49.2983 61.7395C50.3404 61.6741 51.4647 61.4127 52.4794 61.0532C52.8907 60.9225 53.3569 60.7591 53.6311 60.3343C53.9054 59.9094 54.0425 59.2558 53.8231 58.7657C53.3569 57.7526 52.1777 57.818 51.3824 57.4912C50.9162 57.2951 50.6969 58.1774 51.163 58.3735C51.7389 58.6023 52.6165 58.5369 53.0552 59.0925C53.2472 59.3539 53.0827 59.746 52.8633 59.9094C52.5068 60.2036 51.9584 60.2689 51.547 60.3996C51.0808 60.5303 50.5872 60.6284 50.0935 60.7264C49.6822 60.7918 49.216 60.9552 48.7773 60.8245C48.3933 60.7264 48.2014 60.3016 48.0368 59.9094C47.79 59.3539 47.5981 58.7657 47.2964 58.2428C46.6383 57.001 45.651 55.4651 44.2799 55.4324C43.7863 55.4324 43.7863 56.3474 44.2799 56.3474L44.3073 56.282Z" fill="currentColor"/>
    <path d="M44.9928 55.6611C45.9526 56.4127 46.885 57.3604 47.4335 58.5696C47.8174 59.4192 48.2013 60.5303 49.0514 60.8571C49.7918 61.1186 50.6968 60.8571 51.4098 60.5957C52.1228 60.3343 52.8906 59.9748 53.5762 59.5499C54.015 59.2558 53.6311 58.4715 53.1923 58.7656C52.5616 59.1578 51.9034 59.4846 51.2178 59.7133C50.6419 59.9094 49.7644 60.2689 49.1885 59.9421C48.832 59.746 48.6401 59.2232 48.4481 58.8637C48.2287 58.4062 48.0642 57.9487 47.8174 57.5565C47.1867 56.5108 46.3091 55.6284 45.4042 54.9095C44.9928 54.5827 44.6089 55.367 45.0202 55.6938L44.9928 55.6611Z" fill="currentColor"/>
    <path d="M41.7845 56.903C42.2507 58.3735 42.9089 59.9421 44.1977 60.5957C44.9107 60.9552 45.7608 61.0206 46.5561 61.184C47.4062 61.3474 48.2837 61.4781 49.1064 61.7395C49.6001 61.8702 49.792 60.9879 49.3258 60.8572C48.5854 60.6284 47.845 60.4977 47.0772 60.367C46.3093 60.2363 45.5141 60.1382 44.7736 59.9095C43.567 59.4846 42.9363 57.9814 42.5249 56.6742C42.3604 56.1187 41.5925 56.3474 41.7845 56.9356V56.903Z" fill="currentColor"/>
    <path d="M23.3012 70.2361C24.0416 74.2557 28.2373 73.3406 30.6231 72.3276C31.391 72.0008 32.0765 71.576 32.817 71.1184C33.6397 70.6283 34.4075 70.2034 35.285 70.857C35.6964 71.1511 36.0529 71.6413 36.4094 72.0008C37.8902 73.406 39.7001 73.8962 41.5649 73.6021C43.4296 73.308 45.1848 72.2949 46.4462 70.7263C47.7077 69.1577 47.8448 67.0989 48.6126 65.2688C49.5724 63.014 51.2727 63.21 52.9455 62.295C54.0972 61.6741 54.4537 60.6284 54.0972 59.1905C53.8778 58.3408 52.7535 58.7003 52.9729 59.55C53.4391 61.38 51.2452 61.4127 50.2032 61.8375C49.1062 62.3277 48.2835 63.1447 47.7076 64.3538C46.9946 65.8571 46.8575 67.7198 46.0074 69.1577C44.8831 71.0858 42.607 72.1969 40.7148 72.2949C38.658 72.3929 37.5611 71.1184 36.0255 69.8113C34.9011 68.8636 33.8042 68.9943 32.5976 69.6806C30.7602 70.7263 25.1659 74.0596 24.3981 69.8766C24.2335 68.9943 23.1092 69.3864 23.2737 70.2361H23.3012Z" fill="currentColor"/>
    <path d="M26.7016 72.0988C27.9905 72.2296 29.252 71.6087 30.4312 71.0858C31.8846 70.4322 33.2284 69.027 34.8737 69.6479C36.2723 70.1708 37.3144 71.5433 38.6581 72.1642C39.7002 72.6544 40.8519 72.7198 41.9214 72.3603C44.4718 71.5433 46.2269 69.027 47.3238 66.3146C48.6127 63.2428 50.2581 61.7722 53.0278 60.8245C53.5214 60.6611 53.302 59.7787 52.8084 59.9421C50.8065 60.6284 48.9417 61.5761 47.7077 63.6676C46.9947 64.844 46.6108 66.2166 45.98 67.4257C45.0751 69.125 43.7039 70.661 42.086 71.3472C40.468 72.0335 38.9049 71.4453 37.4789 70.3342C36.5465 69.6152 35.6142 68.7982 34.4898 68.5695C33.2558 68.3407 32.2411 69.0597 31.1716 69.6806C29.8827 70.4322 28.1825 71.2819 26.7291 71.1512C26.2355 71.1185 26.2355 72.0335 26.7291 72.0662L26.7016 72.0988Z" fill="currentColor"/>
    <path d="M44.9106 59.9095C43.8411 60.269 43.0184 61.1186 42.5248 62.2951C42.0586 63.4062 41.8118 64.648 41.373 65.7918C40.9891 66.7395 40.5229 67.6872 39.8099 68.3081C38.9598 69.0597 37.8903 69.3865 36.903 69.7133C36.19 69.942 36.4917 71.2819 37.2047 71.0531C38.2468 70.7263 39.3437 70.3669 40.2761 69.6479C41.0714 69.027 41.6472 68.1447 42.1134 67.1643C42.6345 66.0205 42.9361 64.8114 43.3475 63.6023C43.7314 62.4912 44.2524 61.6088 45.2671 61.282C45.9801 61.0533 45.6784 59.7134 44.9654 59.9422L44.9106 59.9095Z" fill="currentColor"/>
    <path d="M46.2817 62.197C44.6637 63.2427 44.938 65.6283 44.033 67.2623C43.512 68.1773 42.8813 69.0597 42.1134 69.7132C41.3456 70.3668 40.4955 70.7917 39.5905 71.0858C39.0969 71.2492 39.3162 72.1315 39.8099 71.9681C41.6746 71.3472 43.2103 70.1381 44.3895 68.2753C44.938 67.393 45.2397 66.5433 45.459 65.4976C45.651 64.5172 45.8703 63.5369 46.6656 63.014C47.1044 62.7199 46.7205 61.9356 46.2817 62.2297V62.197Z" fill="currentColor"/>
    <path d="M25.6598 69.7786C26.2082 69.9093 26.8115 69.8113 27.36 69.7459C28.0455 69.6479 28.7311 69.4845 29.3893 69.2231C30.0474 68.9616 30.7056 68.4388 30.7878 67.5237C30.8427 66.6741 30.1571 66.1185 29.9103 65.4323C29.7458 64.9748 29.6635 64.4519 29.499 63.9944C29.3344 63.5695 29.1151 63.2428 28.786 62.9813C28.2101 62.5238 27.4971 62.4911 26.8389 62.6545C26.1808 62.8179 25.5775 63.3081 25.2484 63.9617C24.9742 64.5172 24.9742 65.1055 25.0016 65.7591C25.0564 66.5761 25.1113 67.4257 25.2758 68.2427C25.3581 68.7656 25.5226 69.7133 26.0437 69.844C26.5373 69.9747 26.7293 69.0597 26.2631 68.9616C26.1808 68.9616 26.3179 68.9616 26.2631 68.9616C26.2631 68.9616 26.3453 69.027 26.2905 68.9616C26.2905 69.027 26.2631 68.8963 26.2631 68.8963C26.2631 68.8963 26.2082 68.7329 26.2356 68.7982C26.1533 68.5695 26.0985 68.3081 26.0437 68.0466C25.934 67.4257 25.8517 66.8048 25.8243 66.1839C25.7969 65.7591 25.7146 65.2035 25.7968 64.8114C25.8791 64.2885 26.2905 63.8637 26.7018 63.6349C27.1131 63.4062 27.689 63.3408 28.1552 63.5696C28.7585 63.8637 28.8956 64.5826 29.0602 65.2362C29.1699 65.6284 29.307 66.0205 29.499 66.3473C29.6635 66.6087 29.8829 66.8702 29.9926 67.1643C30.02 67.2623 30.0474 67.3277 30.02 67.4257C30.02 67.5891 29.8829 67.7525 29.8006 67.8505C29.8006 67.8505 29.6635 68.0139 29.7184 67.9486C29.6909 67.9486 29.6361 68.0139 29.6087 68.0466C29.499 68.112 29.4441 68.1447 29.3618 68.1773C28.7585 68.4715 28.073 68.6022 27.4422 68.7329C27.1406 68.7982 26.8389 68.8309 26.5373 68.8309C26.4002 68.8309 26.2631 68.8309 26.1259 68.8309C26.0711 68.8309 26.0163 68.8309 25.9614 68.8309C25.8517 68.8309 25.9614 68.8309 25.8791 68.8309C25.3855 68.7329 25.1936 69.6152 25.6598 69.7133V69.7786Z" fill="currentColor"/>
    <path d="M47.5981 57.2624C47.461 56.8376 47.2964 56.2494 47.3787 55.8246C47.3787 55.7919 47.4335 55.6285 47.4061 55.6612C47.4061 55.6612 47.4884 55.4651 47.461 55.5304C47.5707 55.367 47.5981 55.367 47.7352 55.269C47.7352 55.269 47.79 55.269 47.79 55.2363C47.8997 55.171 47.7352 55.2363 47.8449 55.2363C47.8997 55.2363 47.9546 55.171 48.0368 55.171C48.2014 55.1056 48.366 55.0729 48.5031 55.0402C48.8047 54.9749 49.1338 54.8442 49.4354 54.7788C49.5177 54.7788 49.5725 54.7788 49.6274 54.7788C49.6822 54.7788 49.6822 54.7788 49.7096 54.8442C49.7096 54.8442 49.7371 54.9095 49.7919 54.9749C49.7919 55.0402 49.8468 55.1383 49.8742 55.2363C50.0113 55.7265 50.121 56.184 50.313 56.6415C50.5049 57.099 50.7243 57.5892 50.8889 58.0794C50.9437 58.2755 50.9985 58.4716 50.9985 58.6677C50.9985 58.7657 50.9985 58.8637 50.9711 58.9291C50.9985 58.8311 50.9437 58.9618 50.9163 58.9945C50.6969 59.2232 50.2033 59.4193 49.8468 59.4846C49.6548 59.55 49.4629 59.5827 49.2709 59.5827C49.1886 59.5827 49.0789 59.5827 48.9967 59.5827C48.8595 59.5827 49.0515 59.5827 48.9418 59.5827C48.9418 59.5827 48.7773 59.5173 48.887 59.5827C48.695 59.4846 48.4756 59.5173 48.3659 59.7461C48.2837 59.9421 48.3111 60.2689 48.5031 60.367C48.9144 60.5957 49.3806 60.5304 49.8194 60.4323C50.2856 60.3343 50.7792 60.1709 51.1905 59.9095C51.6019 59.648 51.8487 59.1578 51.8212 58.5696C51.7664 57.916 51.5196 57.2624 51.2728 56.6742C51.0534 56.1513 50.8889 55.7265 50.7243 55.1383C50.5872 54.6154 50.4227 54.0599 49.9565 53.8638C49.5177 53.6677 49.0515 53.8965 48.6127 53.9945C48.2562 54.0925 47.8997 54.1579 47.5432 54.354C47.1319 54.5501 46.8028 54.9095 46.6657 55.3997C46.4737 56.0533 46.6657 56.8376 46.8577 57.4585C46.9399 57.6873 47.1319 57.8507 47.3239 57.7853C47.5158 57.72 47.6804 57.4585 47.5981 57.2298V57.2624Z" fill="currentColor"/>
    <path d="M32.0765 70.9877C34.9011 75.6936 41.181 75.1707 44.7186 72.0008C45.1025 71.6413 44.7186 70.857 44.3346 71.2165C41.1536 74.0269 35.3125 74.8112 32.7347 70.5302C32.4331 70.04 31.7749 70.5302 32.0765 70.9877Z" fill="currentColor"/>
    <path d="M27.1954 72.7197C27.3051 73.2426 27.3874 73.7982 27.6068 74.2557C27.8261 74.7132 28.2101 74.9419 28.6488 74.9746C28.9231 74.9746 29.1699 74.9746 29.4441 74.8766C29.7732 74.8112 30.1297 74.7132 30.4313 74.5825C30.9249 74.3864 31.446 74.0269 31.5831 73.3733C31.7202 72.7197 31.4734 72.0008 31.3089 71.3799C31.254 71.1511 31.0347 70.9877 30.8427 71.0531C30.6507 71.1185 30.5136 71.3799 30.5684 71.6086C30.6507 71.9028 30.733 72.1642 30.7878 72.4583C30.7878 72.5563 30.8427 72.6871 30.8427 72.7851C30.8427 72.6871 30.8427 72.8505 30.8427 72.7851C30.8427 72.7851 30.8427 72.8178 30.8427 72.8505C30.8427 72.9158 30.8427 72.9485 30.8427 73.0139C30.8427 73.1446 30.8427 72.9485 30.8427 73.0792C30.8427 73.1119 30.8427 73.1446 30.8152 73.2099C30.8152 73.2099 30.8153 73.2426 30.7878 73.2753C30.7604 73.308 30.7879 73.308 30.7604 73.3407C30.7879 73.2753 30.7879 73.308 30.7604 73.3407C30.7604 73.3407 30.7056 73.406 30.6782 73.4387C30.6782 73.4387 30.6233 73.4714 30.6233 73.504C30.5685 73.5367 30.541 73.5694 30.4862 73.6021C30.4039 73.6348 30.4039 73.6348 30.3491 73.6674C30.0474 73.7982 29.7458 73.8962 29.4167 73.9616C29.307 73.9616 29.1699 74.0269 29.0602 74.0269C28.9779 74.0269 29.1425 74.0269 29.0328 74.0269C29.0328 74.0269 28.9779 74.0269 28.9505 74.0269C28.8957 74.0269 28.8408 74.0269 28.786 74.0269C28.7311 74.0269 28.7037 74.0269 28.6488 74.0269C28.6488 74.0269 28.594 74.0269 28.5666 74.0269C28.5392 74.0269 28.4843 74.0269 28.4569 74.0269C28.4569 74.0269 28.4295 74.0269 28.402 74.0269C28.3472 74.0269 28.4569 74.0596 28.402 74.0269C28.402 74.0269 28.3472 73.9942 28.3198 73.9616C28.2375 73.8962 28.3472 74.0269 28.3198 73.9616L28.2649 73.8962C28.2101 73.8635 28.2649 73.8962 28.2649 73.9289C28.2649 73.9289 28.2649 73.8962 28.2375 73.8635C28.2375 73.8308 28.2101 73.7982 28.1827 73.7328C28.1827 73.7328 28.1827 73.7001 28.1827 73.6674C28.1827 73.6348 28.2101 73.7655 28.1827 73.6674C28.1552 73.5694 28.1278 73.4387 28.1004 73.3407C28.0181 73.0465 27.9633 72.7851 27.9084 72.491C27.7713 71.9028 27.0309 72.1642 27.168 72.7524L27.1954 72.7197Z" fill="currentColor"/>
    <path d="M27.5793 73.0465C27.0856 73.2753 26.6469 73.6021 26.4 74.1576C26.1807 74.6151 26.1258 75.1707 26.2355 75.6609C26.4823 76.8046 27.4147 77.1968 28.2922 77.3275C28.8133 77.4255 29.3617 77.4582 29.8828 77.3929C30.4038 77.3275 30.9248 77.0987 31.4185 76.8046C32.296 76.2491 33.2284 75.236 33.2284 73.9615C33.2284 73.3733 33.0638 72.7851 32.7073 72.3602C32.2686 71.8374 31.6379 71.772 31.062 71.9027C30.7603 71.9681 30.5684 72.4256 30.6506 72.7524C30.7329 73.1446 31.062 73.3079 31.3636 73.2426C31.4459 73.2426 31.4733 73.2426 31.5556 73.2426C31.583 73.2426 31.6379 73.2426 31.6927 73.2426C31.7201 73.2426 31.775 73.2426 31.8024 73.2753C31.8298 73.2753 31.8572 73.3079 31.8846 73.3406C31.9669 73.4387 31.8847 73.3079 31.9395 73.4387C31.9395 73.4713 31.9669 73.504 31.9944 73.5367C31.9944 73.4387 32.0492 73.6347 31.9944 73.5367C31.9944 73.6021 32.0218 73.6674 32.0492 73.7328C32.0492 73.7981 32.0492 73.8635 32.0492 73.9289C32.0492 73.9942 32.0218 74.1903 32.0492 74.0269C32.0492 74.0596 31.9944 74.2556 32.0492 74.1576C31.9944 74.3537 31.8847 74.5498 31.775 74.6805C31.583 74.9419 31.2814 75.2687 30.9797 75.4648C30.2667 75.955 29.7183 76.053 28.923 75.9877C28.5665 75.9877 28.2374 75.9223 27.8809 75.7916C27.7986 75.7916 27.7438 75.7262 27.6615 75.7262C27.5793 75.6935 27.7438 75.7589 27.6615 75.7262C27.6341 75.7262 27.6067 75.6935 27.5793 75.6609C27.4696 75.5955 27.5792 75.6609 27.5244 75.6282C27.5244 75.6282 27.4696 75.5628 27.4421 75.5628C27.3599 75.4648 27.4696 75.6609 27.4421 75.5301C27.4421 75.5301 27.4147 75.4648 27.3873 75.4321C27.3873 75.4321 27.3324 75.2687 27.3599 75.3667C27.3873 75.4648 27.3599 75.3667 27.3599 75.3341C27.3599 75.3014 27.3599 75.236 27.3599 75.2033C27.3873 75.3667 27.3599 75.138 27.3599 75.0726C27.3599 74.9746 27.3599 75.2033 27.3599 75.0726C27.3599 75.0399 27.3599 74.9746 27.3873 74.9419C27.3873 74.8439 27.3873 74.9092 27.3873 74.9419C27.3873 74.8766 27.4421 74.8439 27.4695 74.7785C27.497 74.7458 27.5244 74.7132 27.5518 74.6478C27.6341 74.5498 27.5518 74.6151 27.6889 74.5171C27.7712 74.4517 27.8535 74.3864 27.9083 74.3864C28.21 74.2556 28.402 73.9289 28.3197 73.5367C28.2374 73.2099 27.9083 72.9158 27.6067 73.0465H27.5793Z" fill="currentColor"/>
    <path d="M51.026 61.8049C50.8341 62.3277 50.7244 62.8833 50.834 63.4388C50.9163 63.8637 51.1083 64.2231 51.3551 64.5499C51.547 64.8114 51.7664 65.0074 51.9858 65.2362C52.0681 65.3342 52.1778 65.4323 52.2601 65.5303C52.2601 65.5303 52.2875 65.5957 52.3149 65.6283C52.2601 65.4976 52.3972 65.7264 52.3149 65.6283C52.3149 65.6937 52.3698 65.7591 52.3972 65.7918C52.3149 65.661 52.3698 65.661 52.3972 65.7591C52.4246 65.8898 52.3972 65.6937 52.3972 65.6937C52.3149 65.9878 52.452 65.6937 52.3972 65.6937C52.3972 65.6937 52.3972 65.7591 52.3972 65.7918C52.3423 65.9225 52.4794 65.661 52.3972 65.7918C52.3972 65.8244 52.2326 66.0532 52.3423 65.9225C52.2875 66.0205 52.2326 66.0859 52.1503 66.1512C52.1229 66.1839 51.9584 66.3146 52.1229 66.1839C51.9858 66.2819 51.8487 66.4127 51.7116 66.478C51.5745 66.5761 51.41 66.6741 51.2454 66.7394C51.3825 66.6741 51.218 66.7394 51.1906 66.7394C51.1357 66.7394 51.1083 66.7721 51.0534 66.8048C50.9437 66.8375 50.8341 66.9028 50.7244 66.9355C50.5324 67.0009 50.3404 67.0662 50.1211 67.1316C50.0388 67.1316 49.9565 67.1643 49.8468 67.197C49.8468 67.197 49.6548 67.197 49.792 67.197C49.7097 67.197 49.6549 67.197 49.5726 67.197C49.3532 67.197 49.1338 67.197 48.9144 67.197C48.8047 67.197 48.887 67.197 48.9144 67.197C48.8596 67.197 48.8047 67.197 48.7225 67.1643C48.6128 67.1643 48.5305 67.0989 48.4208 67.0662C48.5579 67.1316 48.3386 67.0009 48.3111 66.9682C48.2014 66.8375 48.2837 66.9682 48.3111 66.9682C48.2837 66.9355 48.2563 66.9028 48.2015 66.8375C48.1192 66.7068 48.174 66.8375 48.2015 66.8375C48.174 66.7721 48.1466 66.7394 48.1192 66.6741C48.0643 66.478 48.1192 66.6414 48.1192 66.6741C48.1192 66.6087 48.0918 66.5434 48.0643 66.478C47.8998 65.5957 46.7754 65.9878 46.94 66.8375C47.4336 69.2884 50.1759 68.7329 51.6019 68.0139C52.3423 67.6545 53.1924 67.0989 53.4667 66.1512C53.7135 65.2689 53.1924 64.6153 52.6988 64.0924C52.5617 63.9617 52.4246 63.831 52.3149 63.6676C52.2601 63.6022 52.2052 63.5042 52.1503 63.4388C52.1503 63.4715 52.26 63.5696 52.1503 63.4388C52.1503 63.3735 52.0955 63.3408 52.0681 63.2754C52.0681 63.2428 52.0407 63.2101 52.0133 63.1447C51.9584 63.0467 52.0133 63.2754 52.0133 63.112C52.0133 63.0794 52.0132 63.014 51.9858 62.9813C51.9584 62.8833 51.9858 63.112 51.9858 62.9486C51.9858 62.916 51.9858 62.8506 51.9858 62.7853C51.9858 62.5892 51.9858 62.7853 51.9858 62.7199C51.9858 62.6545 51.9858 62.6219 52.0133 62.5565C52.0133 62.5565 52.0955 62.2951 52.0407 62.4258C52.1504 62.0663 52.1229 61.6742 51.8213 61.4781C51.5745 61.3147 51.1357 61.38 51.026 61.7395V61.8049Z" fill="currentColor"/>
    <path d="M47.7899 66.38C49.2708 66.2166 51.4098 66.2493 52.1502 64.3539C52.2324 64.1251 52.2051 63.8637 52.0131 63.7329C51.8486 63.6022 51.5743 63.6676 51.4921 63.8963C51.1904 64.648 50.5871 64.9748 49.9289 65.1708C49.2433 65.3669 48.5029 65.3996 47.7899 65.4649C47.5705 65.4649 47.406 65.661 47.406 65.9225C47.406 66.1512 47.598 66.4126 47.7899 66.38Z" fill="currentColor"/>
    <path d="M25.2484 65.6283C26.6195 66.1512 28.2649 65.563 29.3618 64.5499C29.5264 64.3865 29.499 64.0597 29.3618 63.8963C29.1973 63.7002 28.9779 63.7329 28.8134 63.8963C28.3472 64.3211 27.7713 64.5826 27.2229 64.746C26.6744 64.9094 26.0437 64.942 25.4678 64.746C25.0016 64.5826 24.7822 65.4649 25.2484 65.6283Z" fill="currentColor"/>
    <path d="M25.3032 66.4453C26.0436 66.7067 26.8938 66.674 27.6342 66.4453C28.3746 66.2165 29.1973 65.7917 29.6635 65.0074C29.7732 64.8113 29.6909 64.4845 29.5263 64.3865C29.3344 64.2558 29.115 64.3538 29.0053 64.5499C28.8682 64.8113 28.6214 65.0401 28.3472 65.2035C28.0455 65.3995 27.7164 65.5303 27.3873 65.5956C27.0583 65.661 26.7292 65.7263 26.4001 65.6937C26.071 65.661 25.8243 65.661 25.5226 65.5303C25.029 65.3669 24.837 66.2492 25.3032 66.4126V66.4453Z" fill="currentColor"/>
    <path d="M25.4676 67.1642C26.1806 67.4256 27.0033 67.3276 27.7163 67.1315C28.4293 66.9355 29.1972 66.5433 29.7182 65.857C30.0473 65.3995 29.4988 64.7459 29.1698 65.2035C28.7584 65.759 28.1277 66.0531 27.5244 66.2492C26.9211 66.4453 26.2629 66.5106 25.687 66.2819C25.2208 66.0858 25.0014 67.0008 25.4676 67.1642Z" fill="currentColor"/>
    <path d="M25.358 68.0139C26.1259 68.2753 26.976 68.1773 27.7438 67.9812C28.5939 67.7525 29.3343 67.3276 29.9102 66.5107C30.0473 66.3146 30.0747 66.0531 29.9102 65.8571C29.7731 65.6937 29.4989 65.661 29.3618 65.8571C29.1149 66.2165 28.8407 66.5433 28.4842 66.7394C28.1826 66.9028 27.8535 67.0008 27.5519 67.0989C26.9211 67.2623 26.2081 67.3603 25.5774 67.1316C25.1112 66.9682 24.8918 67.8505 25.358 68.0139Z" fill="currentColor"/>
    <path d="M25.9065 68.8963C25.9065 68.8963 26.1807 68.8963 26.3178 68.9616C26.5098 69.027 26.7292 69.0597 26.9486 69.0923C27.4148 69.125 27.9632 68.9616 28.4294 68.8309C29.2247 68.5695 30.1845 68.1446 30.5135 67.1316C30.5958 66.9028 30.5684 66.6414 30.3765 66.5107C30.2119 66.4126 29.9377 66.4453 29.8554 66.6741C29.5538 67.5237 28.6762 67.8178 27.9906 68.0139C27.6067 68.112 27.1954 68.2427 26.8115 68.1773C26.455 68.0793 26.071 67.9159 25.7145 68.0466C25.2209 68.21 25.4403 69.0923 25.9339 68.9289L25.9065 68.8963Z" fill="currentColor"/>
    <path d="M27.6614 73.2753C28.2922 73.5694 29.06 73.504 29.6908 73.308C30.3215 73.1119 31.0893 72.6871 31.3636 71.9028C31.4458 71.674 31.4184 71.4126 31.2264 71.2818C31.0619 71.1838 30.7877 71.2165 30.7054 71.4452C30.7054 71.5106 30.6505 71.576 30.6231 71.6413C30.6231 71.674 30.5957 71.7067 30.5683 71.7394C30.6231 71.674 30.5683 71.7394 30.5409 71.772C30.486 71.8374 30.4312 71.9028 30.4037 71.9354C30.4037 71.9354 30.3763 71.9354 30.3489 71.9681C30.3215 71.9681 30.294 72.0008 30.2666 72.0335C30.2118 72.0988 30.1295 72.1315 30.0472 72.1642C30.0198 72.1642 29.9924 72.1969 29.9375 72.2295C29.9924 72.2295 29.9101 72.2295 29.8827 72.2295C29.7456 72.2949 29.581 72.3603 29.4439 72.3929C29.1423 72.491 28.9229 72.491 28.5938 72.491C28.5115 72.491 28.4567 72.491 28.3744 72.491C28.347 72.491 28.2922 72.491 28.2647 72.491C28.347 72.491 28.2648 72.491 28.2373 72.491C28.1002 72.491 27.9905 72.4256 27.8534 72.3603C27.6614 72.2622 27.4146 72.4583 27.3872 72.6871C27.3323 72.9485 27.4695 73.1772 27.6614 73.2426V73.2753Z" fill="currentColor"/>
    <path d="M27.8809 74.223C28.2922 74.223 28.7036 74.223 29.1149 74.1903C29.4714 74.1576 29.8279 74.0596 30.1844 73.9289C30.7055 73.7328 31.4185 73.4387 31.5282 72.7197C31.5556 72.4583 31.4733 72.2295 31.2539 72.1642C31.0619 72.0988 30.8151 72.2295 30.7877 72.491C30.7877 72.491 30.7877 72.6217 30.7877 72.5563C30.7329 72.6217 30.7877 72.589 30.7877 72.5563C30.7877 72.5563 30.7603 72.589 30.7329 72.6217C30.7329 72.6217 30.6506 72.687 30.678 72.6544C30.7055 72.6217 30.6232 72.687 30.6232 72.687C30.5683 72.7197 30.5135 72.7524 30.4861 72.7851C30.4586 72.7851 30.4312 72.8178 30.4038 72.8178C30.349 72.8178 30.2941 72.8504 30.2393 72.8831C30.1296 72.9158 30.0199 72.9485 29.9376 73.0138C29.2795 73.2753 28.6213 73.2426 27.9083 73.2426C27.4147 73.2426 27.4147 74.1903 27.9083 74.1576L27.8809 74.223Z" fill="currentColor"/>
    <path d="M47.1594 56.184C47.7627 56.2167 48.366 56.0533 48.9419 55.8572C49.5177 55.6611 50.1485 55.367 50.6147 54.8768C50.7792 54.7134 50.7518 54.3866 50.6147 54.2232C50.4501 54.0271 50.2308 54.0598 50.0662 54.2232C50.0662 54.2232 49.984 54.2886 50.0388 54.2559C50.0937 54.2232 50.0114 54.2559 50.0114 54.2886C49.9565 54.3213 49.9017 54.3539 49.8743 54.4193C49.7646 54.5173 49.6275 54.5827 49.5178 54.648C49.4081 54.7134 49.3258 54.7461 49.1887 54.8114C49.0516 54.8768 48.887 54.9422 48.7499 54.9748C48.4757 55.0729 48.2015 55.1382 47.8998 55.2036C47.8998 55.2036 47.7627 55.2036 47.845 55.2036C47.845 55.2036 47.7901 55.2036 47.7627 55.2036C47.7078 55.2036 47.6256 55.2036 47.5707 55.2036C47.461 55.2036 47.3514 55.2036 47.2142 55.2036C46.9949 55.2036 46.8303 55.4324 46.8303 55.6611C46.8303 55.9225 47.0223 56.1186 47.2142 56.1186L47.1594 56.184Z" fill="currentColor"/>
    <path d="M47.1867 57.0337C47.8997 57.001 48.5578 56.8049 49.2434 56.5762C49.737 56.4128 50.2855 56.3147 50.6694 55.8572C51.0259 55.4324 50.4774 54.7788 50.1209 55.2036C50.0661 55.269 50.0113 55.3344 49.8741 55.3997C49.8193 55.4324 49.7096 55.4651 49.6273 55.4977C49.4079 55.5631 49.1886 55.6285 48.9692 55.6938C48.3933 55.8899 47.79 56.0533 47.1867 56.086C46.9673 56.086 46.8027 56.2821 46.8027 56.5435C46.8027 56.7722 46.9673 57.0337 47.1867 57.001V57.0337Z" fill="currentColor"/>
    <path d="M47.5158 58.1121C48.5579 57.5892 49.7645 57.5565 50.6969 56.7395C50.8614 56.6088 50.9437 56.3474 50.834 56.1186C50.7243 55.9226 50.4775 55.7918 50.313 55.9552C49.4354 56.7069 48.2837 56.7395 47.2964 57.2297C47.1045 57.3278 46.9673 57.5238 47.0222 57.7853C47.077 58.014 47.2964 58.2101 47.4884 58.1121H47.5158Z" fill="currentColor"/>
    <path d="M47.7899 58.7003C48.4207 58.9944 49.1611 58.6023 49.7644 58.3735C50.3128 58.1448 51.0807 58.0794 51.3549 57.3932C51.4372 57.1644 51.4098 56.903 51.2178 56.7723C51.0533 56.6415 50.779 56.7069 50.6968 56.9356C50.6968 56.9683 50.6968 57.001 50.6419 57.0337C50.6419 57.0664 50.6694 57.0337 50.6419 57.0337C50.6419 57.0337 50.5871 57.0664 50.5597 57.099C50.45 57.1644 50.4226 57.1971 50.258 57.2298C50.0112 57.3278 49.7918 57.3605 49.545 57.4585C49.2708 57.5566 48.9965 57.6873 48.7223 57.7526C48.5578 57.7853 48.4755 57.818 48.3384 57.818C48.3384 57.818 48.2835 57.818 48.2561 57.818C48.2561 57.818 48.1464 57.818 48.2013 57.818C48.2561 57.818 48.1464 57.818 48.1464 57.818C48.119 57.818 48.0641 57.818 48.0367 57.7853C47.8448 57.6873 47.598 57.8833 47.5705 58.1121C47.5157 58.3735 47.6528 58.6023 47.8448 58.6677L47.7899 58.7003Z" fill="currentColor"/>
    <path d="M48.1466 59.4519C49.2983 59.4193 50.6695 59.3866 51.547 58.3735C51.9035 57.9487 51.3551 57.2951 50.9986 57.7199C50.6695 58.1121 50.1759 58.2755 49.6549 58.3735C49.1887 58.4716 48.6402 58.4716 48.1466 58.5042C47.653 58.5369 47.653 59.4519 48.1466 59.4193V59.4519Z" fill="currentColor"/>
    <path d="M48.5578 60.1055C49.1337 60.1055 49.737 60.1055 50.3129 59.9421C50.9436 59.7787 51.5743 59.4193 51.7937 58.635C51.8486 58.4062 51.7114 58.1448 51.5195 58.0794C51.3001 58.014 51.1081 58.1774 51.0533 58.4062C51.0533 58.4062 51.0533 58.4389 51.0533 58.4716C51.0533 58.4062 51.0533 58.4062 51.0533 58.4389C51.0533 58.4389 51.0259 58.5042 50.9984 58.5369C50.9984 58.5369 50.971 58.6023 50.9436 58.6023L50.8888 58.6676C50.8065 58.733 50.9436 58.6676 50.8888 58.6676C50.8339 58.7003 50.8065 58.733 50.7516 58.7657C50.7516 58.7657 50.6968 58.7983 50.6694 58.7983C50.6694 58.7983 50.5597 58.8637 50.6145 58.831C50.6694 58.7983 50.5597 58.831 50.5597 58.831C50.5323 58.831 50.5048 58.831 50.4774 58.8637C50.3403 58.9291 50.2032 58.9617 50.0661 58.9944C50.0112 58.9944 49.929 58.9944 49.8741 59.0271C49.7919 59.0271 49.929 59.0271 49.8193 59.0271C49.7918 59.0271 49.737 59.0271 49.7095 59.0271C49.5724 59.0271 49.4353 59.0271 49.2982 59.0598C49.0788 59.0598 48.832 59.0598 48.6126 59.0598C48.119 59.0598 48.119 59.9748 48.6126 59.9748L48.5578 60.1055Z" fill="currentColor"/>
    <path d="M49.5177 63.7002C49.8742 63.6349 50.2307 63.5695 50.5598 63.4715C50.9437 63.3407 51.355 63.1773 51.6293 62.8506C51.7664 62.6872 51.7938 62.3604 51.6293 62.197C51.4647 62.0336 51.2453 62.0009 51.0808 62.197C51.0808 62.197 51.0259 62.2623 50.9985 62.295C51.0533 62.2296 51.0533 62.2623 50.9985 62.295C50.9985 62.295 50.9711 62.295 50.9437 62.3277C50.9163 62.3277 50.8888 62.3604 50.834 62.393C50.834 62.393 50.7243 62.4257 50.7243 62.4584C50.7243 62.4584 50.6694 62.4584 50.642 62.4584C50.6146 62.4584 50.5597 62.4911 50.5049 62.5238C50.4226 62.5564 50.3129 62.5891 50.2307 62.6218C49.9016 62.7198 49.5725 62.7852 49.2434 62.8506C49.0515 62.8832 48.9144 63.21 48.9692 63.4061C49.0515 63.6675 49.2434 63.7656 49.4354 63.7329L49.5177 63.7002Z" fill="currentColor"/>
    <path d="M48.7498 64.5172C49.7096 64.2231 50.7791 64.1251 51.547 63.2754C51.7115 63.112 51.6841 62.7852 51.547 62.6218C51.3824 62.4258 51.163 62.4584 50.9985 62.6218C50.9985 62.6218 50.9711 62.6545 50.9436 62.6872C50.9436 62.6872 50.8614 62.7526 50.8888 62.7526H50.8614C50.8614 62.7526 50.8065 62.7852 50.7791 62.8179C50.6968 62.8833 50.5871 62.9486 50.5049 63.014C50.4774 63.014 50.45 63.014 50.4226 63.0467C50.3678 63.0467 50.3129 63.112 50.2581 63.112C50.1484 63.1447 50.0387 63.2101 49.929 63.2427C49.4902 63.3735 49.024 63.4715 48.5853 63.6022C48.3933 63.6676 48.2562 63.929 48.311 64.1578C48.3659 64.3865 48.5852 64.5499 48.7772 64.4846L48.7498 64.5172Z" fill="currentColor"/>
    <path d="M48.2838 65.1708C49.5452 65.3342 50.7518 64.8767 51.7939 64.0271C51.9584 63.8963 52.0407 63.6349 51.931 63.4061C51.8213 63.2101 51.5745 63.112 51.41 63.2427C50.4776 64.0271 49.4355 64.3865 48.3112 64.2558C48.0918 64.2558 47.9272 64.4846 47.9272 64.7133C47.9272 64.9748 48.1192 65.1381 48.3112 65.1708H48.2838Z" fill="currentColor"/>
    <path d="M48.2013 65.759C48.8595 65.4649 49.5725 65.3015 50.258 65.1055C50.8339 64.9421 51.5195 64.844 52.0131 64.3865C52.1777 64.2231 52.2599 63.9944 52.1502 63.7656C52.0679 63.5695 51.7937 63.4388 51.6292 63.6022C51.4098 63.7983 51.163 63.8963 50.8888 63.9944C50.5871 64.0924 50.2854 64.1578 49.9838 64.2558C49.3256 64.4519 48.6401 64.6153 48.0093 64.8767C47.8174 64.9747 47.6802 65.2035 47.7351 65.4323C47.7899 65.661 48.0094 65.8571 48.2013 65.759Z" fill="currentColor"/>
    <path d="M11.3449 14.1911C16.5005 18.7989 24.1241 13.995 29.499 12.4264C34.5448 10.9558 42.0039 9.87741 44.3622 3.37422C44.5542 2.81867 43.8961 2.36116 43.7041 2.91671C41.4554 9.15846 34.1883 10.1388 29.307 11.5441C24.1241 13.0473 16.665 17.8185 11.7289 13.4068C11.3175 13.0473 10.9336 13.8643 11.3449 14.1911Z" fill="currentColor"/>
</svg>
