<svg width="76" height="68" viewBox="0 0 76 68" fill="none"
    xmlns="http://www.w3.org/2000/svg">
    <path d="M17.0749 16.4546C16.1974 20.7356 18.2815 23.546 21.5723 24.8205C23.0257 25.376 24.5339 25.6047 26.0422 25.8662C29.1684 26.4217 32.185 27.4675 35.2564 28.2845C38.3277 29.1014 41.4265 29.5263 44.4979 30.2779C47.3499 30.9642 50.1471 31.9446 52.9716 32.7942C58.0723 34.3628 63.4198 36.1602 68.685 36.7811C73.2373 37.3367 76.8022 31.9772 75.1569 26.8139C74.389 24.363 72.6065 22.925 70.6595 21.8793C68.4931 20.7028 66.2718 19.4284 63.9957 18.5787C61.4454 17.631 58.7579 17.0755 56.235 16.0297C55.0832 15.5722 53.9589 15.0167 52.9991 14.1343C52.0392 13.252 51.2988 12.2389 50.3664 11.3893C45.6771 7.07559 39.836 10.899 34.6805 10.801C32.4866 10.7683 30.3751 9.98403 28.1812 9.98403C26.3165 9.98403 24.4243 10.1801 22.5869 10.703C19.4058 11.618 16.1699 13.8075 16.7184 18.2519C16.9104 19.7225 18.7751 19.1016 18.5832 17.631C18.1718 14.2324 22.011 13.1212 24.0952 12.6964C27.002 12.0755 29.6072 12.4677 32.4866 12.9579C34.845 13.35 37.0937 13.0886 39.3972 12.435C41.8653 11.7487 44.9641 11.0952 47.4596 12.1082C49.2421 12.8272 50.3939 14.7552 51.8473 16.0624C53.383 17.4349 55.3026 18.1866 57.1399 18.8075C59.2241 19.5264 61.3631 20.0166 63.4472 20.8009C65.5314 21.5852 67.6155 22.7943 69.6449 23.8727C71.6742 24.9512 73.4566 26.4544 73.6212 29.2975C73.7857 32.5981 71.1531 34.7876 68.6302 34.4609C63.9957 33.9053 59.3338 32.2713 54.809 30.9641C50.2842 29.657 45.5126 28.0884 40.741 27.108C35.5306 26.0623 30.4025 24.3956 25.1921 23.4152C22.203 22.8597 17.925 21.7486 18.8848 17.0428C19.1865 15.6049 17.3217 14.984 17.02 16.4219L17.0749 16.4546Z" fill="currentColor"/>
    <path d="M19.4332 14.2651C30.8138 12.0102 41.8105 15.1147 52.7797 18.546C58.3465 20.2781 64.2151 22.01 69.1238 25.7355C71.6741 27.6636 74.1148 30.7027 72.3049 34.3955C72.058 34.9184 72.7162 35.3759 72.963 34.853C76.2812 28.0557 68.1091 23.644 63.9957 21.7159C60.9243 20.2454 57.7158 19.1342 54.5073 18.1539C49.9551 16.716 45.4303 15.2454 40.8232 14.167C33.6658 12.533 26.3987 11.9775 19.1864 13.4154C18.6928 13.5134 18.9122 14.3958 19.4058 14.2977L19.4332 14.2651Z" fill="currentColor"/>
    <path d="M57.3045 20.3107C56.3173 21.7813 55.1655 23.1865 55.1381 25.1799C55.1381 26.4218 55.3849 27.6309 55.6865 28.7746C56.0704 30.2452 56.5092 31.6504 56.9205 33.0883C57.0851 33.6439 57.8255 33.4151 57.661 32.8269C57.2771 31.5851 56.8931 30.3106 56.564 29.0688C56.2624 27.8923 55.9059 26.6832 55.8785 25.4414C55.8236 23.5787 56.8931 22.2715 57.8255 20.9316C58.1272 20.4741 57.5787 19.8205 57.2771 20.278L57.3045 20.3107Z" fill="currentColor"/>
    <path d="M55.0283 18.6113C52.7796 19.2649 52.3682 22.0427 52.5602 24.4282C52.7522 27.0426 53.4652 29.657 54.3153 32.0752C54.5072 32.6308 55.1928 32.1406 54.9734 31.6177C54.2056 29.4936 53.5749 27.1734 53.3555 24.8858C53.1635 22.8597 53.2184 20.1473 55.2202 19.5591C55.7138 19.4283 55.4945 18.5133 55.0008 18.6767L55.0283 18.6113Z" fill="currentColor"/>
    <path d="M44.6899 16.1279C40.028 19.2651 44.8544 25.7683 45.9239 29.7225C46.0885 30.278 46.8289 30.0493 46.6643 29.461C46.0336 27.1408 44.827 25.1147 44.0592 22.8598C43.7027 21.8141 43.3736 20.6703 43.4558 19.5592C43.5381 18.3501 44.1963 17.5004 45.0738 16.9122C45.5126 16.6181 45.1286 15.8338 44.6899 16.1279Z" fill="currentColor"/>
    <path d="M42.9896 14.8534C41.8378 15.3436 40.6312 16.0299 40.0005 17.337C39.5068 18.3501 39.4794 19.5266 39.644 20.6703C40.0553 23.3501 41.4264 25.6376 41.9475 28.2846C42.0572 28.8729 42.825 28.6114 42.6879 28.0232C42.2217 25.6376 41.0974 23.5461 40.5489 21.1932C40.3295 20.2129 40.165 19.1017 40.5489 18.1214C41.0151 16.8469 42.1669 16.1606 43.2089 15.7358C43.6751 15.5397 43.4832 14.6574 42.9896 14.8534Z" fill="currentColor"/>
    <path d="M32.9802 12.6311C27.8795 14.3304 30.9783 22.5656 32.5963 26.1603C32.8431 26.6832 33.5012 26.2257 33.2544 25.7028C31.9107 22.729 28.7845 15.0167 33.1722 13.5461C33.6658 13.3827 33.4464 12.5004 32.9528 12.6638L32.9802 12.6311Z" fill="currentColor"/>
    <path d="M30.4025 13.0886C28.7845 14.2977 27.6053 16.0297 27.7698 18.4153C27.9344 20.6048 28.8119 22.6309 29.2233 24.7551C29.333 25.3433 30.0734 25.0818 29.9637 24.4936C29.5798 22.5655 28.8393 20.7355 28.5651 18.7421C28.4554 17.9251 28.4828 17.0427 28.7845 16.2584C29.1958 15.2127 29.9637 14.4611 30.759 13.8728C31.1703 13.546 30.7864 12.7618 30.375 13.0886H30.4025Z" fill="currentColor"/>
    <path d="M18.7477 16.6506C21.7368 16.0623 24.8356 16.5198 27.7698 17.3368C28.2635 17.4675 28.4554 16.5852 27.9892 16.4545C24.9179 15.6048 21.7094 15.1473 18.5557 15.7682C18.0621 15.8663 18.2815 16.7486 18.7751 16.6506H18.7477Z" fill="currentColor"/>
    <path d="M30.8686 17.8599C32.3769 17.8599 33.9125 17.9253 35.4208 18.2194C36.1064 18.3501 36.7371 18.5788 37.3678 18.8729C37.9711 19.1671 38.547 19.3632 39.2052 19.3632C39.6988 19.3632 39.6988 18.4481 39.2052 18.4481C38.547 18.4481 37.9711 18.154 37.3404 17.8926C36.6823 17.5984 36.0241 17.4024 35.3111 17.3044C33.8303 17.0429 32.322 16.9775 30.8412 16.9775C30.3475 16.9775 30.3475 17.8926 30.8412 17.8926L30.8686 17.8599Z" fill="currentColor"/>
    <path d="M43.1816 20.0168C46.2256 21.2913 49.5163 22.2063 52.7523 22.4351C53.2459 22.4678 53.2459 21.5527 52.7523 21.52C49.5986 21.2586 46.3901 20.3763 43.401 19.1344C42.9348 18.9384 42.7154 19.8207 43.1816 20.0168Z" fill="currentColor"/>
    <path d="M56.3172 24.1996C59.1966 24.2977 62.1857 24.8206 64.7909 26.3565C66.6282 27.4676 68.7398 29.5263 68.3559 32.3041C68.1639 33.7747 67.0944 34.3956 65.9153 34.4609C65.4216 34.4609 65.4216 35.4086 65.9153 35.376C67.067 35.3106 68.2462 34.8531 68.8221 33.5459C69.3157 32.4021 69.206 30.9969 68.8221 29.8205C67.78 26.5525 64.5441 24.9512 61.9115 24.1343C60.0741 23.5787 58.182 23.3173 56.2898 23.252C55.7962 23.252 55.7962 24.167 56.2898 24.167L56.3172 24.1996Z" fill="currentColor"/>
    <path d="M46.253 10.6378C47.0483 9.69006 47.8709 8.77503 48.7211 7.92537C49.4889 7.17374 50.3664 6.32406 51.2714 5.86655C52.0941 5.44172 52.8894 5.73582 53.6572 6.16066C54.4799 6.61817 55.3026 7.10838 56.0704 7.66393C57.1125 8.41555 58.8676 9.98413 58.0175 11.6181C57.2222 13.1867 55.6865 14.1018 54.6993 15.4743C54.0411 16.3566 55.1381 17.6965 55.7962 16.7814C56.7834 15.4416 58.0997 14.4939 59.0321 13.0887C59.9645 11.6835 60.0468 9.88609 59.1144 8.35016C58.182 6.81424 56.756 5.93189 55.3574 5.08223C53.8217 4.13453 52.2861 3.31758 50.5858 4.19993C49.5712 4.72279 48.6662 5.60511 47.7887 6.4221C46.8563 7.30444 45.9788 8.28483 45.1287 9.29789C44.4157 10.1476 45.5126 11.4547 46.2256 10.605L46.253 10.6378Z" fill="currentColor"/>
    <path d="M53.4104 5.04966C54.5347 4.46143 55.522 3.61178 56.5915 2.86015C57.4142 2.27193 58.2094 1.87978 59.1418 2.20658C59.7725 2.43533 60.3484 2.86013 60.8694 3.35032C61.0888 3.5464 61.3082 3.77515 61.4728 4.0039C61.5276 4.06926 61.555 4.16732 61.6099 4.23268C61.6922 4.42876 61.6647 4.36339 61.7196 4.52678C61.7744 4.72286 61.7196 4.52679 61.747 4.69019C61.747 4.72287 61.747 5.04965 61.747 4.88626C61.6921 5.18037 61.6921 5.21304 61.5825 5.4418C61.3631 5.93199 61.0614 6.29148 60.7323 6.68363C59.8274 7.79473 58.7853 8.74243 57.99 9.95156C57.7432 10.3437 57.661 10.8666 57.99 11.2587C58.2643 11.5855 58.8401 11.6509 59.0869 11.2587C59.8822 10.0496 60.9243 9.0692 61.8292 7.99078C62.5971 7.07576 63.4198 5.89933 63.2827 4.49412C63.1181 2.76212 61.6099 1.48761 60.3758 0.801341C59.1418 0.115075 57.8529 0.0824138 56.5915 0.768679C55.1929 1.5203 54.0137 2.69673 52.6425 3.44836C52.2586 3.64443 52.1764 4.3307 52.3683 4.72285C52.5877 5.18036 53.0539 5.27842 53.4378 5.04966H53.4104Z" fill="currentColor"/>
    <path d="M48.9679 8.64425C51.2988 9.29784 53.191 11.5527 53.9589 14.2324C54.1234 14.7879 54.8638 14.5592 54.6993 13.9709C53.8492 10.9971 51.765 8.48086 49.1873 7.72923C48.6936 7.59852 48.5017 8.48082 48.9679 8.61154V8.64425Z" fill="currentColor"/>
    <path d="M49.434 7.6966C50.531 8.61162 51.765 9.19984 52.9168 9.98414C54.0685 10.7684 54.9187 11.8796 55.4397 13.3828C55.522 13.6116 55.6865 13.7749 55.9059 13.7096C56.0978 13.6442 56.2624 13.3828 56.1801 13.154C55.6317 11.5201 54.7541 10.2456 53.4926 9.33056C52.286 8.4809 50.9697 7.89271 49.818 6.91233C49.4066 6.55285 49.0227 7.3698 49.434 7.6966Z" fill="currentColor"/>
    <path d="M50.7229 6.29144C52.1763 6.55288 53.5475 7.2718 54.5895 8.51361C55.6316 9.75543 56.2623 11.3567 56.564 13.0234C56.6737 13.6116 57.4141 13.3502 57.3044 12.7619C56.9479 10.9319 56.2623 9.16723 55.138 7.82738C54.0137 6.48752 52.5054 5.63786 50.9149 5.37643C50.6955 5.34375 50.5035 5.44176 50.4487 5.70319C50.3938 5.93195 50.5035 6.22605 50.7229 6.25873V6.29144Z" fill="currentColor"/>
    <path d="M4.13118 39.4935C1.71795 37.1733 2.86972 32.6635 5.00871 30.5721C6.46213 29.1342 8.73825 28.4479 10.5482 29.1669C12.0564 29.7878 13.7567 30.0492 15.3472 30.3106C16.9377 30.5721 18.6928 30.6047 20.3656 30.9315C22.2852 31.3237 24.2048 31.8466 26.097 32.4348C27.523 32.8596 28.9216 33.5459 30.3476 33.938C32.1575 34.4282 33.9674 34.2975 35.7773 34.9838C37.2308 35.5393 38.8213 35.8007 39.8908 37.206C40.7683 38.3497 41.2894 39.2975 42.6331 39.6242C43.9768 39.951 45.4851 39.7223 46.8837 39.8203C48.7759 39.951 50.7778 40.768 52.5602 41.5197C55.5768 42.7615 58.2094 44.7549 58.5385 48.9378C58.6756 50.7679 58.3465 52.7614 57.4415 54.2973C56.2349 56.2907 54.8089 56.356 52.9716 55.8985C48.7485 54.7874 44.4705 53.8724 40.3844 52.1404C38.5745 51.3561 36.8194 50.3431 34.8998 50.049C32.9802 49.7548 31.1977 50.6372 29.3329 50.2124L29.9088 51.9117C31.5816 48.2516 31.1154 44.7549 28.3457 42.1406C26.4809 40.3759 22.8337 37.3367 20.3382 39.0033C19.1316 39.8203 18.5008 41.4543 17.4588 42.5C16.1973 43.7745 14.8262 43.2843 13.3453 42.8268C10.1642 41.7811 6.27017 41.8465 3.41817 39.6896C2.34867 38.8726 1.38888 40.8988 2.43095 41.6831C4.78933 43.4804 7.77844 43.7418 10.4659 44.3627C12.6323 44.8529 15.073 46.3889 17.2668 45.3431C18.3912 44.8203 19.1864 43.7418 19.9268 42.6634C21.0238 41.0948 21.6271 40.572 23.3547 41.3236C24.9178 41.9772 26.5906 43.2516 27.7424 44.6568C29.2781 46.5196 29.1684 48.5784 28.1537 50.7679C27.8795 51.3888 28.0989 52.3038 28.7296 52.4672C30.7864 52.9574 32.7608 52.0097 34.7901 52.4019C36.8194 52.794 38.8487 54.0685 40.8506 54.8201C45.0189 56.4214 49.5437 57.892 53.904 58.5129C57.1947 58.9704 59.608 55.8005 60.2387 52.1731C60.8694 48.5457 59.9096 44.232 57.3318 41.8791C56.0978 40.7354 54.4799 39.9837 52.999 39.3628C51.0245 38.5458 48.913 37.7289 46.8014 37.5981C45.1012 37.5001 42.9073 38.1537 41.7007 36.4543C40.4941 34.755 39.4795 34.0034 37.6147 33.3825C35.7499 32.7616 33.9674 32.1407 31.9655 31.9446C29.9637 31.7485 27.9344 30.7355 25.9325 30.1146C21.7642 28.8727 17.541 28.3172 13.3179 27.5656C11.1789 27.2061 9.3964 26.193 7.20255 26.814C5.36521 27.3368 3.71983 28.4152 2.56807 30.2126C0.511338 33.3825 -0.229087 38.3824 2.65033 41.1602C3.61014 42.0752 5.00871 40.4739 4.02148 39.5262L4.13118 39.4935Z" fill="currentColor"/>
    <path d="M31.4445 50.8333C31.8559 47.0752 31.2252 43.1864 28.4006 41.0295C27.4408 40.2779 26.3164 39.7877 25.2469 39.3302C24.0678 38.84 22.8063 38.4152 21.5448 38.4805C20.3656 38.5132 19.2687 39.1668 19.1042 40.7028C19.0219 41.291 19.7898 41.5524 19.8446 40.9642C20.1737 38.3172 23.629 39.6897 24.9179 40.2125C27.1117 41.0949 29.3604 42.3694 30.2928 45.0818C30.9235 46.9118 30.8961 48.938 30.6767 50.866C30.6219 51.4543 31.3897 51.4543 31.4445 50.866V50.8333Z" fill="currentColor"/>
    <path d="M32.9528 51.0295C33.1996 48.8726 33.2544 46.5851 32.6237 44.4936C32.1027 42.7289 31.1429 41.2257 29.9362 40.0492C27.2214 37.4675 22.9982 35.7682 19.68 37.729C18.1169 38.644 18.1992 40.5394 18.3363 42.3368C18.3912 42.925 19.159 42.925 19.1041 42.3368C19.0219 41.0296 18.7751 39.3956 19.872 38.644C21.298 37.6636 23.1079 37.729 24.671 38.0884C27.5504 38.7747 30.567 40.9642 31.7188 44.2975C32.4317 46.3236 32.4317 48.6112 32.1849 50.768C32.1301 51.3562 32.8705 51.6177 32.9254 51.0295H32.9528Z" fill="currentColor"/>
    <path d="M8.27202 36.1276C7.83325 36.2257 7.36706 36.4218 7.06541 36.8466C6.8186 37.2061 6.68148 37.6636 6.7089 38.1211C6.76375 39.1015 7.28479 39.9838 7.8881 40.6374C8.43656 41.2256 9.25925 41.8139 9.99967 41.389C10.411 41.1276 10.7675 40.6701 10.8498 40.1145C10.9321 39.5263 10.8224 38.9381 10.603 38.3825C10.1094 37.2388 9.03987 36.193 7.91552 36.4218C7.69614 36.4545 7.58644 36.7813 7.64129 36.9773C7.69613 37.2388 7.91552 37.3368 8.10749 37.3041C8.02522 37.3041 8.16233 37.3041 8.18975 37.3041C8.21717 37.3041 8.27202 37.3041 8.29945 37.3041C8.29945 37.3041 8.43656 37.3041 8.35429 37.3041C8.40914 37.3041 8.46398 37.3041 8.51882 37.3368C8.54625 37.3368 8.6011 37.3368 8.62852 37.3695C8.62852 37.3695 8.76563 37.4348 8.71078 37.4021C8.79305 37.4348 8.90275 37.5002 8.98502 37.5655C9.28667 37.7943 9.58833 38.1538 9.78029 38.4806C9.83514 38.5786 9.88998 38.6767 9.9174 38.7747C9.9174 38.8074 9.94483 38.8727 9.97225 38.9054C9.97225 38.9381 9.97225 38.9708 9.99967 39.0034C10.0271 39.1015 10.0545 39.1995 10.0819 39.3303C10.0819 39.3303 10.0819 39.4936 10.0819 39.4283C10.0819 39.4283 10.0819 39.5263 10.0819 39.559C10.0819 39.5917 10.0819 39.6571 10.0819 39.6897C10.0819 39.8204 10.0819 39.6897 10.0819 39.7551C10.0819 39.8204 10.0819 39.8531 10.0545 39.9185C10.0545 39.9511 9.99967 40.0819 10.0545 39.9838C10.0545 40.0165 9.99967 40.0818 9.99967 40.1145C9.99967 40.1145 9.99968 40.1472 9.97225 40.1799C9.94483 40.2126 9.9174 40.2779 9.86256 40.3106C9.86256 40.3106 9.86256 40.3106 9.80771 40.3433C9.72544 40.4413 9.86256 40.3106 9.75286 40.376C9.72544 40.376 9.67059 40.4413 9.64317 40.474C9.5609 40.5394 9.69801 40.474 9.64317 40.474C9.64317 40.474 9.58833 40.474 9.5609 40.474C9.47863 40.474 9.61575 40.474 9.5609 40.474C9.50606 40.474 9.45121 40.474 9.39636 40.474C9.34151 40.474 9.47864 40.474 9.42379 40.474C9.42379 40.474 9.42378 40.474 9.39636 40.474C9.36894 40.474 9.3141 40.474 9.28668 40.4413C9.25925 40.4413 9.23183 40.4414 9.17698 40.4087C9.09471 40.376 9.14956 40.4087 9.17698 40.4087C9.09471 40.376 9.03986 40.3433 8.95759 40.2779C8.87532 40.2126 8.82048 40.1799 8.76563 40.1472C8.73821 40.1472 8.71079 40.0819 8.68337 40.0819C8.68337 40.0819 8.65594 40.0819 8.62852 40.0492C8.4914 39.9185 8.38171 39.7878 8.2446 39.6244C8.18975 39.559 8.1349 39.4609 8.08006 39.3956C8.08006 39.3956 7.99779 39.2649 8.05264 39.3629C8.02521 39.3302 7.99778 39.2649 7.97036 39.2322C7.86067 39.0688 7.77841 38.9054 7.72356 38.7093C7.72356 38.6767 7.69614 38.644 7.66872 38.5786C7.66872 38.5132 7.66872 38.644 7.66872 38.5786C7.66872 38.5786 7.66872 38.546 7.66872 38.5133C7.66872 38.4152 7.61386 38.3172 7.58644 38.2518C7.58644 38.1865 7.58644 38.1538 7.58644 38.0884C7.58644 37.9904 7.58644 38.1538 7.58644 38.0231C7.58644 37.925 7.58644 37.827 7.58644 37.7616C7.58644 37.6963 7.58644 37.8597 7.58644 37.7616V37.6963C7.58644 37.6636 7.58645 37.6309 7.61387 37.5655C7.64129 37.4348 7.58645 37.5982 7.61387 37.5329C7.61387 37.5002 7.64129 37.4675 7.66872 37.4021C7.66872 37.3368 7.61387 37.4348 7.66872 37.3695C7.69614 37.3368 7.72356 37.3041 7.75098 37.2714C7.69614 37.3041 7.7784 37.2714 7.7784 37.2714C7.80582 37.2714 7.86067 37.2061 7.8881 37.2061C7.8881 37.2061 8.02521 37.1407 7.99779 37.1407C7.94294 37.1407 8.02521 37.1407 8.02521 37.1407C8.05263 37.1407 8.08006 37.1407 8.10749 37.108C8.21718 37.0754 8.35429 37.0427 8.49141 37.01C8.71079 36.9773 8.82048 36.6505 8.76563 36.4545C8.71079 36.193 8.49141 36.095 8.29945 36.1276H8.27202Z" fill="currentColor"/>
    <path d="M44.635 47.5327C44.1414 47.4673 43.5929 47.5327 43.209 47.9575C42.8799 48.317 42.7428 48.8725 42.7428 49.3627C42.7428 50.5065 43.2638 51.7156 43.9768 52.4346C44.3882 52.8594 44.8544 53.0555 45.4028 53.1535C45.8964 53.2189 46.4723 53.2189 46.8837 52.8921C47.6789 52.3039 47.5418 51.062 47.2402 50.1797C46.8837 49.134 46.2255 47.9902 45.3206 47.5327C45.1286 47.4346 44.8818 47.6307 44.8544 47.8595C44.7995 48.1209 44.9366 48.317 45.1286 48.415C45.156 48.415 45.1835 48.4477 45.2109 48.4804C45.2383 48.4804 45.2657 48.5131 45.2931 48.5457C45.2931 48.5457 45.4303 48.6765 45.348 48.5784C45.4851 48.7092 45.5948 48.8398 45.7319 49.0032C45.7868 49.0686 45.8416 49.1667 45.8965 49.232C45.8965 49.232 45.8965 49.2647 45.9239 49.2973C45.9513 49.3627 45.9787 49.3954 46.0336 49.4607C46.1433 49.6568 46.2529 49.8529 46.3626 50.0817C46.4175 50.1797 46.4449 50.2777 46.4998 50.3758C46.4998 50.3758 46.4998 50.4085 46.4998 50.4411C46.4723 50.3431 46.4998 50.5065 46.4998 50.4411C46.4998 50.5065 46.5272 50.5719 46.5546 50.6045C46.6094 50.8006 46.6643 50.9967 46.6917 51.1927C46.6917 51.1274 46.6917 51.2908 46.6917 51.1927C46.6917 51.1927 46.6917 51.2254 46.6917 51.2581C46.6917 51.2908 46.6917 51.3561 46.6917 51.3888C46.6917 51.4215 46.6917 51.4869 46.6917 51.5196C46.6917 51.5196 46.6917 51.5523 46.6917 51.5849C46.6917 51.4869 46.6917 51.683 46.6917 51.5849C46.6917 51.6176 46.6917 51.6503 46.6917 51.683C46.6917 51.683 46.6369 51.8463 46.6917 51.7483C46.7466 51.6503 46.6917 51.8137 46.6643 51.8137C46.6643 51.8463 46.582 51.9444 46.6643 51.8464C46.6643 51.8464 46.6095 51.9117 46.6095 51.9444C46.5272 52.0098 46.582 51.9771 46.6095 51.9444C46.582 51.9444 46.5546 52.0097 46.4998 52.0097C46.4998 52.0097 46.4723 52.0097 46.4449 52.0097C46.3626 52.0097 46.2804 52.0751 46.1981 52.0751C46.1981 52.0751 46.1433 52.0751 46.1158 52.0751C46.061 52.0751 45.9787 52.0751 45.9239 52.0751C45.6771 52.0751 45.4577 52.0751 45.2383 51.9771C45.2109 51.9771 45.156 51.9771 45.1286 51.9444C45.1286 51.9444 44.9915 51.8791 45.0738 51.9444C44.9915 51.9117 44.8818 51.8464 44.7995 51.781C44.7447 51.781 44.7173 51.7156 44.6898 51.683C44.6898 51.683 44.6624 51.6503 44.635 51.6176C44.5527 51.5522 44.4705 51.4542 44.4156 51.3562C44.3882 51.3235 44.3333 51.2581 44.3059 51.2255C44.3059 51.2255 44.1962 51.0621 44.2511 51.1274C44.1962 51.0294 44.114 50.9313 44.0591 50.8006C44.0043 50.7026 43.9494 50.6045 43.922 50.4738C43.922 50.4084 43.8672 50.3758 43.8672 50.3104C43.8672 50.3104 43.8671 50.2451 43.8397 50.2124C43.7575 49.9837 43.7026 49.7549 43.6752 49.5261C43.6752 49.5261 43.6752 49.4608 43.6752 49.4281C43.6752 49.3627 43.6752 49.5261 43.6752 49.4281C43.6752 49.3627 43.6752 49.2974 43.6752 49.232C43.6752 49.1667 43.6752 49.1013 43.6752 49.0686C43.6752 49.0359 43.6752 48.8725 43.6752 48.9706C43.6752 48.8725 43.7026 48.7418 43.73 48.6438C43.73 48.6438 43.73 48.5784 43.7575 48.5457C43.7575 48.5131 43.8123 48.4477 43.8397 48.415C43.7849 48.5131 43.8397 48.415 43.8672 48.3823C43.8672 48.3823 43.8671 48.3823 43.8946 48.3497C43.8123 48.415 43.9494 48.2843 43.8946 48.3497C43.922 48.3497 43.9768 48.2843 44.0043 48.2516C44.0317 48.2516 44.0591 48.2516 44.0865 48.219C44.1414 48.219 44.1688 48.2189 44.2236 48.1863C44.2511 48.1863 44.2785 48.1863 44.3059 48.1863C44.443 48.1863 44.5801 48.1863 44.7173 48.1863C44.9366 48.1863 45.1012 47.9575 45.1012 47.7287C45.1012 47.4673 44.9092 47.3039 44.7173 47.2712L44.635 47.5327Z" fill="currentColor"/>
    <path d="M56.1253 57.0749C55.7962 53.8724 55.2203 50.6371 53.5475 48.0228C51.6004 44.9836 48.5016 43.1863 45.6771 41.6176C44.1962 40.8007 42.6605 40.049 41.1249 39.3628C39.6989 38.7092 38.2729 38.0229 36.7372 37.6961C35.8322 37.5001 34.5982 37.304 33.8029 38.0883C33.1447 38.7419 33.2819 39.8529 33.3093 40.7353C33.3367 42.5653 33.3093 44.232 33.8852 45.964C34.5433 47.8594 35.5854 49.4933 36.2161 51.3887C36.3807 51.9443 37.1485 51.7156 36.9565 51.1273C36.4081 49.428 35.5854 47.9574 34.8998 46.3235C34.1045 44.4608 34.132 42.7287 34.0771 40.7026C34.0771 40.1798 33.9126 39.2321 34.2417 38.8072C34.7901 38.121 36.0516 38.4477 36.6823 38.5784C38.2454 38.9379 39.7263 39.6895 41.2071 40.3758C44.635 41.9444 48.3645 43.7418 51.2439 46.5195C53.9588 49.1666 54.9186 53.0554 55.33 57.0423C55.3848 57.6305 56.1527 57.6305 56.0978 57.0423L56.1253 57.0749Z" fill="currentColor"/>
    <path d="M3.19884 31.6831C5.00876 31.1276 6.65414 31.1603 8.49149 31.389C10.5208 31.6178 12.5775 31.6504 14.6342 31.7811C15.7037 31.8465 17.0475 31.8465 17.4314 33.2518C17.9799 35.3106 18.1444 37.5327 18.2267 39.6569C18.2267 40.2451 19.0219 40.2451 18.9945 39.6569C18.9122 37.402 18.7751 35.0164 18.1444 32.8596C17.7605 31.5197 16.8555 31.1602 15.7586 30.9642C13.5099 30.572 11.1789 30.7028 8.93025 30.474C6.87353 30.2779 5.03618 30.1472 3.00688 30.7681C2.51326 30.9315 2.73264 31.8139 3.22626 31.6505L3.19884 31.6831Z" fill="currentColor"/>
    <path d="M17.8976 39.3629C15.7037 38.2191 13.2082 38.4805 10.8773 38.0884C10.3836 37.9904 10.1643 38.9054 10.6579 38.9708C11.8371 39.1668 12.9888 39.2322 14.168 39.3302C15.3472 39.4283 16.4441 39.5917 17.4862 40.1472C17.9524 40.376 18.3363 39.5916 17.8701 39.3629H17.8976Z" fill="currentColor"/>
    <path d="M6.76385 37.6963C5.14589 37.6963 3.58277 37.2388 1.96482 37.2388C1.4712 37.2388 1.4712 38.1538 1.96482 38.1538C3.58277 38.1538 5.14589 38.644 6.76385 38.6113C7.25746 38.6113 7.25746 37.6636 6.76385 37.6963Z" fill="currentColor"/>
    <path d="M33.8029 44.7222C37.2033 46.6177 40.9054 47.4673 44.5527 48.415C45.0463 48.5457 45.2383 47.6634 44.7721 47.5327C41.2071 46.585 37.5598 45.768 34.2142 43.9053C33.7755 43.6438 33.3641 44.4608 33.8303 44.6896L33.8029 44.7222Z" fill="currentColor"/>
    <path d="M46.4724 49.8529C47.7613 49.951 48.9953 50.4411 50.2019 50.9967C51.4085 51.5522 52.5877 52.1731 53.7669 52.8267C54.2057 53.0881 54.617 52.2712 54.1508 52.0424C51.7376 50.7026 49.1598 49.1666 46.4724 48.9379C45.9788 48.9052 45.9788 49.8203 46.4724 49.8529Z" fill="currentColor"/>
    <path d="M59.7726 53.7745C59.8823 51.7484 59.8548 49.6242 59.2241 47.6961C58.6756 46.0621 57.7433 44.7876 56.5641 43.7419C52.7797 40.4086 47.9532 39.1668 43.4833 37.8596C42.9897 37.7289 42.7977 38.6112 43.2639 38.742C47.5693 39.9838 51.9844 41.1929 55.714 44.1667C56.8932 45.1144 57.9352 46.3236 58.4837 47.9248C59.1144 49.7549 59.1144 51.8137 59.0047 53.7745C58.9773 54.3627 59.7451 54.3627 59.7726 53.7745Z" fill="currentColor"/>
    <path d="M18.2266 41.9772C15.7311 46.0294 12.8517 49.6568 10.2191 53.5784C8.68341 55.8659 6.5444 58.8397 6.81863 61.9769C7.09287 65.3429 10.4933 67.3363 12.9888 67.6958C16.3344 68.186 18.6105 64.4932 20.9963 62.3037C24.5065 59.1012 28.0441 56.16 30.0459 51.2908C30.5944 49.9509 28.9216 48.7745 28.3731 50.1143C26.81 53.9378 24.2597 56.5195 21.4625 59.0031C20.0914 60.2449 18.7202 61.454 17.4313 62.8266C16.5538 63.7743 15.6489 64.9181 14.4697 65.3102C13.0162 65.8004 11.3434 64.8854 10.1368 63.9704C9.47867 63.4802 8.84794 62.7612 8.73825 61.8135C8.62856 60.7024 9.12216 59.526 9.58836 58.611C10.2465 57.2384 11.0966 55.9639 11.9467 54.7221C14.6068 50.8659 17.4313 47.1732 19.9268 43.1536C20.6673 41.9445 18.9945 40.8007 18.254 41.9772H18.2266Z" fill="currentColor"/>
    <path d="M8.6286 61.4868C8.9851 61.4214 9.47872 61.4867 9.86264 61.6174C10.4111 61.7808 10.9321 62.0423 11.4258 62.3691C12.3581 62.99 13.3454 63.8723 13.8116 65.0488C14.0035 65.5717 14.0858 66.1925 13.8938 66.7154C13.8116 66.9442 13.839 67.2056 14.0309 67.3363C14.1955 67.467 14.4697 67.4017 14.552 67.1729C15.073 65.735 14.552 64.2972 13.6744 63.2188C12.7695 62.075 11.5354 61.2253 10.274 60.7678C9.67067 60.539 9.03995 60.441 8.40922 60.5717C7.91561 60.6698 8.13499 61.5848 8.6286 61.454V61.4868Z" fill="currentColor"/>
    <path d="M12.8243 51.7157C14.4971 52.8594 16.2796 53.7418 17.8702 55.049C19.4607 56.3561 20.9141 58.0555 20.7222 60.4737C20.6673 61.062 21.4626 61.062 21.49 60.4737C21.8191 56.3235 18.0347 53.9052 15.4021 52.3039C14.6617 51.8464 13.9212 51.4215 13.1808 50.9313C12.7421 50.6372 12.3581 51.4215 12.7969 51.7157H12.8243Z" fill="currentColor"/>
    <path d="M14.168 49.6895C15.5392 50.8333 17.0749 51.6502 18.5009 52.696C19.7897 53.6437 21.3803 54.8855 21.8465 56.7155C22.1207 57.7939 21.8739 58.905 21.4351 59.8854C21.1883 60.4083 21.8739 60.8658 22.0933 60.3429C22.532 59.3625 22.8063 58.2841 22.6966 57.173C22.5869 56.1926 22.203 55.3103 21.6819 54.5587C20.5027 52.8267 18.7202 51.7483 17.1023 50.6699C16.2247 50.1143 15.3472 49.5588 14.5245 48.8725C14.1132 48.5457 13.7292 49.33 14.1406 49.6568L14.168 49.6895Z" fill="currentColor"/>
    <path d="M16.3344 47.4345C18.2266 48.3822 20.2011 49.2646 21.8465 50.7351C23.4918 52.2057 24.5339 54.4279 25.0275 56.8789C25.1372 57.4671 25.9051 57.2056 25.768 56.6174C25.2469 54.0357 24.1774 51.7155 22.3949 50.0816C20.6124 48.4476 18.5283 47.5326 16.5264 46.5522C16.0602 46.3234 15.8682 47.2058 16.307 47.4345H16.3344Z" fill="currentColor"/>
    <path d="M17.3765 46.0293C19.5155 46.4868 21.5997 47.4018 23.1354 49.2972C24.6711 51.1926 25.3292 53.5129 25.8777 55.8985C26.0148 56.4867 26.7552 56.2253 26.6181 55.637C26.0422 53.088 25.2195 50.5391 23.6838 48.6437C22.1481 46.7483 19.8446 45.6372 17.5685 45.147C17.0749 45.049 16.8829 45.9313 17.3491 46.0293H17.3765Z" fill="currentColor"/>
    <path d="M19.1041 44.4608C21.1334 44.5915 23.1079 45.866 24.5613 47.5327C26.0147 49.1993 27.0294 51.5849 26.4535 54.0359C26.3164 54.6241 27.0568 54.8529 27.1939 54.2973C28.5376 48.7745 23.2998 43.8399 19.1041 43.5458C18.6105 43.5131 18.6105 44.4281 19.1041 44.4608Z" fill="currentColor"/>
</svg>
