<svg width="183" height="147" viewBox="0 0 183 147" fill="none"
    xmlns="http://www.w3.org/2000/svg">
    <path d="M3.0992 94.4123C1.26186 93.0397 2.0297 89.8371 2.57816 87.8437C3.4557 84.7065 4.85427 81.7327 6.30769 78.9222C9.48877 72.7785 13.3555 67.2557 16.372 60.9813C17.4963 58.6284 18.5658 56.1774 20.1289 54.1513C21.5275 52.354 23.118 50.818 24.7086 49.2821C27.9719 46.1776 30.961 43.0403 33.7033 39.2822C39.2976 31.5699 43.9869 22.0276 51.254 16.3414C57.6162 11.3741 65.1301 11.2107 72.4795 11.8643C76.1816 12.1911 80.4322 12.1911 83.0922 15.7204C84.9021 18.1387 85.2586 21.7988 87.6444 23.6942C90.7706 26.1451 95.6794 25.7203 99.2444 25.5569C103.659 25.3608 108.075 24.7072 112.49 24.3151C121.292 23.4981 130.178 24.0863 138.98 23.9883C142.052 23.9556 144.163 22.0275 144.163 18.2367C144.163 14.2172 147.18 12.1257 150.114 11.178C153.213 10.1976 156.504 10.165 159.685 10.165C161.988 10.165 164.319 10.0996 166.623 10.165C169.31 10.263 172.025 10.4917 174.685 11.1126C176.495 11.5375 179.868 12.2891 180.252 14.9361C180.691 17.91 177.702 21.4066 176.248 23.4001C174.466 25.851 172.382 28.2039 171.093 31.1124C169.091 35.6548 167.747 40.6221 166.239 45.4259C164.731 50.2298 162.811 55.1317 161.248 60.0663C159.685 65.0009 157.436 69.9354 155.078 74.6413C152.856 79.053 150.663 83.5627 149.483 88.5627C148.249 93.9221 147.865 99.5102 146.494 104.804C145.562 108.432 144.218 111.732 140.79 112.353C137.911 112.876 134.867 111.961 131.987 111.471C128.23 110.817 124.446 110.883 120.662 110.589C115.918 110.229 111.283 109.445 106.594 108.497C101.904 107.549 97.2699 107.223 92.5806 107.092C87.8912 106.961 82.9003 107.059 78.0738 106.83C73.2474 106.602 67.9821 105.85 62.9637 104.968C53.5302 103.301 44.0966 101.079 34.5534 100.523C29.8367 100.262 25.0925 100.687 20.3757 100.066C17.0301 99.6409 13.6571 98.6932 10.3937 97.6148C7.65144 96.6998 4.25099 95.7521 2.08457 93.3992C1.15218 92.3861 -0.21897 94.0201 0.713414 95.0331C2.93468 97.4514 6.19803 98.5625 8.99518 99.5429C12.2037 100.654 15.5219 101.569 18.84 102.157C23.831 103.04 28.8494 102.582 33.8679 102.811C38.8863 103.04 44.1515 103.857 49.2248 104.739C59.2342 106.504 69.2161 108.824 79.3627 109.183C84.4085 109.379 89.4818 109.249 94.5276 109.445C99.93 109.641 105.113 110.621 110.433 111.569C115.095 112.386 119.784 112.876 124.474 113.072C128.093 113.203 131.576 113.726 135.169 114.314C137.829 114.771 140.708 115.164 143.231 113.824C145.946 112.386 147.262 109.281 148.14 106.079C149.675 100.393 150.059 94.4449 151.43 88.726C152.802 83.0072 155.516 78.2033 157.985 73.236C160.315 68.5302 162.153 63.661 163.743 58.5303C165.334 53.3997 167.473 48.0076 169.118 42.6155C170.462 38.2365 171.669 33.3673 174.137 29.6745C176.084 26.766 178.305 24.1844 180.115 21.1779C181.486 18.923 182.939 15.8512 181.76 13.0734C180.746 10.6878 178.305 9.67476 176.248 9.05385C171.093 7.51792 165.718 7.74669 160.453 7.71401C154.886 7.71401 147.152 7.32186 143.423 13.3022C142.6 14.642 142.189 16.0145 142.189 17.6812C142.189 18.7596 142.244 19.6746 141.586 20.557C140.763 21.6681 139.584 21.5374 138.459 21.5374C133.66 21.472 128.861 21.5047 124.062 21.5047C119.263 21.5047 114.738 21.6354 110.049 22.1256C105.36 22.6158 100.89 23.2694 96.2827 23.1713C94.034 23.1386 91.374 23.1713 89.2898 22.0275C87.809 21.2106 87.2057 19.6093 86.5475 17.9753C85.0941 14.3152 82.9277 11.6029 79.6095 10.5244C75.88 9.28262 71.6294 9.24992 67.7902 9.15189C64.1978 9.05385 60.5231 9.31529 57.0678 10.4917C48.8683 13.3022 43.3562 21.1452 38.2281 28.7922C35.431 32.9751 32.6887 37.2561 29.5625 41.0796C26.4362 44.9031 22.8164 47.5828 19.7176 51.1775C16.4268 55.001 14.6169 60.1316 12.1762 64.6741C10.668 67.4845 8.85805 70.0662 7.26752 72.8112C4.27841 77.9092 0.521452 84.1836 0.0278378 90.5888C-0.1367 92.8763 0.411745 95.0005 2.11197 96.275C3.18147 97.0593 4.14128 95.0658 3.0992 94.2815V94.4123Z" fill="currentColor"/>
    <path d="M19.0868 111.994C16.8107 111.667 15.8783 110.294 16.7284 107.68C17.4689 105.458 18.7852 103.464 20.1015 101.7C24.3246 96.0789 29.1785 91.1443 33.429 85.5561C38.1732 79.3471 42.1496 72.419 47.0035 66.3407C51.8574 60.2623 56.6838 54.8049 60.9344 48.3997C62.854 45.4913 64.7187 43.4652 67.9821 43.1711C71.3825 42.8769 74.7556 43.9554 78.1286 44.3475C81.8033 44.7723 85.6425 44.5436 89.3447 44.6089C93.0468 44.6743 96.886 44.4782 100.67 44.4782C115.918 44.4782 131.192 44.0534 146.439 44.4782C152.116 44.6416 157.738 45.0664 163.414 44.8704C166.924 44.7723 172.683 44.1187 175.288 47.6481C178.168 51.6023 173.972 58.661 172.299 62.1577C171.202 64.478 169.996 66.7655 169.091 69.2491C167.829 72.7131 166.65 76.2099 165.224 79.6085C162.235 86.7326 158.835 93.6279 156.257 100.981C154.228 106.7 153.076 112.811 151.046 118.497C149.237 123.562 146.302 128.17 141.284 128.366C134.209 128.66 127.024 126.83 120.086 125.392C105.305 122.386 90.3593 120.654 75.4412 118.66C60.523 116.667 45.1661 114.673 30.056 112.288C26.162 111.667 22.2679 111.046 18.3738 110.36C17.1398 110.131 16.6187 112.386 17.8528 112.582C33.8953 115.36 49.9926 117.582 66.0899 119.706C74.3168 120.817 82.5437 121.863 90.7706 123.072C98.9975 124.281 107.06 125.033 115.122 126.667C122.609 128.203 130.123 130.033 137.719 130.523C140.434 130.719 143.149 130.85 145.672 129.477C147.646 128.431 149.209 126.634 150.443 124.543C153.323 119.739 154.474 113.758 156.01 108.236C158.259 100.164 161.659 92.7456 164.977 85.2293C167.857 78.6935 169.941 71.7328 172.985 65.3603C174.329 62.5172 175.755 59.7068 176.824 56.7003C177.619 54.5108 178.36 52.0925 178.086 49.6742C177.482 44.6743 173.149 43.1384 169.502 42.6809C164.868 42.0926 160.123 42.7135 155.462 42.4848C139.09 41.6024 122.718 41.9946 106.347 42.0926C98.2297 42.1253 90.1125 42.2233 81.9953 42.0926C78.156 42.0273 74.4539 41.1776 70.6421 40.8508C67.7627 40.6221 64.7462 40.9488 62.3878 43.1057C60.0294 45.2625 58.4663 48.4324 56.5741 51.0141C54.106 54.3801 51.446 57.5826 48.8134 60.7852C46.1808 63.9878 43.5756 67.1904 41.1898 70.6217C38.804 74.053 36.6101 77.7131 34.1421 81.0791C29.4527 87.5169 24.1601 93.1704 19.2513 99.3468C17.0849 102.059 13.3554 106.994 14.6169 111.144C15.3025 113.366 17.3043 113.987 19.0594 114.249C20.2934 114.445 20.2934 112.124 19.0594 111.928L19.0868 111.994Z" fill="currentColor"/>
    <path d="M26.6281 65.9812C29.8366 65.5564 34.5808 63.1381 32.5789 58.3016C31.5917 55.916 29.5624 54.3147 27.4782 53.6612C26.1345 53.2363 24.9553 52.9095 23.9407 51.7004C23.0632 50.6547 22.5421 49.3148 22.1856 47.9096C21.4452 45.1972 21.1984 42.3541 20.4854 39.6417C19.9369 37.5502 19.0045 35.6222 18.0173 33.7921C15.5492 29.2497 12.5875 25.0994 10.2566 20.4263C9.15966 18.2368 8.14503 15.9165 7.70626 13.4002C7.5143 12.2564 7.26748 10.8512 7.95306 9.93622C9.21452 8.26958 11.902 7.84475 13.6296 7.48528C20.266 6.04739 27.204 6.17809 33.9227 6.24344C39.133 6.3088 44.3709 6.76631 49.5812 6.57023C62.141 6.08004 74.7007 5.49182 87.2879 5.19771C94.034 5.03431 100.753 4.87092 107.499 4.64217C114.245 4.41341 120.525 3.92322 127.051 3.82518C130.232 3.75982 133.331 3.66178 136.485 3.20427C139.638 2.74676 142.628 2.2239 145.726 2.45266C150.388 2.81213 153.377 6.0147 155.379 10.8512C157.217 15.3283 158.122 20.2956 159.328 25.0341C160.809 30.9163 163.085 36.4392 164.237 42.4848C165.389 48.5305 165.855 55.2298 164.045 61.4062C163.195 64.2493 161.111 70.2949 164.347 72.2557C165.882 73.1707 167.829 72.6152 169.392 72.1576C170.599 71.7982 170.078 69.5433 168.871 69.9354C167.583 70.3276 164.95 71.2753 164.621 68.9878C164.237 66.4388 165.498 63.5303 166.184 61.2101C167.829 55.4912 167.363 49.3475 166.403 43.4652C165.416 37.2888 163.167 31.7006 161.577 25.753C160.315 21.0799 159.465 16.276 157.875 11.7336C156.476 7.7467 154.474 3.7925 151.156 1.73371C146.439 -1.17475 140.626 0.295813 135.607 1.01476C129.327 1.8971 122.91 1.53762 116.576 1.89709C109.857 2.25656 103.138 2.48533 96.4197 2.64872C83.1196 3.0082 69.8468 3.23694 56.5467 3.89053C50.5684 4.18464 44.7273 4.18465 38.7491 4.02125C31.8111 3.85785 24.8182 3.72714 17.9076 4.51145C15.2202 4.80556 12.4779 5.1977 9.90011 6.21076C8.337 6.83167 6.41736 7.77938 5.84148 9.77282C4.77198 13.3349 6.96583 18.1714 8.41925 21.1452C10.7502 25.9164 13.7667 30.1647 16.2896 34.7725C17.3866 36.7659 18.3464 38.7594 18.8674 41.0796C19.4707 43.7266 19.745 46.5044 20.5402 49.086C21.2532 51.439 22.405 53.6938 24.3246 54.8703C26.6281 56.2755 29.343 56.0467 30.8239 59.0859C32.3047 62.1251 28.6575 63.4649 26.7379 63.6937C25.5038 63.8571 25.5038 66.1773 26.7379 66.0139L26.6281 65.9812Z" fill="currentColor"/>
    <path d="M59.5632 12.6814C63.2104 26.9622 67.7627 40.8836 71.9035 54.9684C73.7409 61.2429 75.4959 69.0859 73.0553 75.4584C70.9711 80.8831 66.9674 84.87 63.9234 89.4778C60.6875 94.3797 57.1774 99.0855 54.106 104.118C51.7476 107.974 49.9651 112.157 47.9906 116.275C45.4403 121.602 38.8039 135.882 32.6886 128.072C28.5751 122.843 26.1619 116.079 22.7614 110.262C21.1709 107.549 19.3061 105.425 17.1123 103.399C14.7813 101.242 12.4504 99.1509 10.9147 96.1117C10.6679 95.5888 9.98229 96.079 10.2565 96.5692C13.0537 102.059 18.3463 104.576 21.5 109.706C24.8182 115.066 27.1217 121.242 30.577 126.503C32.5789 129.543 35.047 132.484 38.5023 130.882C41.6011 129.445 43.8497 125.752 45.6871 122.582C47.8261 118.856 49.5537 114.902 51.3911 110.981C54.2431 104.902 58.1097 99.7718 61.7844 94.3797C63.4572 91.9287 64.9929 89.3798 66.748 87.0268C68.5031 84.6739 70.2581 82.4191 71.7938 79.9027C74.92 74.7721 75.5234 69.1512 74.6184 62.9422C73.4392 54.7723 70.2307 46.962 67.9546 39.1516C65.3768 30.2628 62.6894 21.4394 60.3858 12.4199C60.2487 11.8644 59.4809 12.0932 59.6454 12.6814H59.5632Z" fill="currentColor"/>
    <path d="M68.5853 11.374C71.9035 27.3869 76.8945 42.8442 79.5545 59.0532C80.6789 65.9812 82.4065 74.1837 78.9512 80.5561C75.8524 86.2423 70.9985 90.3273 67.0222 95.0984C61.8118 101.373 58.905 109.51 55.2029 117.026C53.2833 120.98 51.254 125.033 48.6762 128.431C47.8261 129.542 46.8114 130.817 45.5774 131.34C43.8772 132.059 42.698 130.261 41.8205 128.725C40.3122 126.111 39.2975 123.137 37.8441 120.458C36.1713 117.451 33.5113 115.196 31.2626 112.843C28.7945 110.262 26.4635 107.549 23.8858 105.131C21.0612 102.484 18.2366 99.837 16.0428 96.3729C15.7411 95.9154 15.083 96.3729 15.3847 96.8305C19.0868 102.713 24.5439 106.602 28.9865 111.601C31.3723 114.314 34.0871 116.634 36.281 119.575C37.9812 121.83 38.941 124.837 40.2299 127.418C41.5188 130 43.4384 133.693 46.3726 131.895C49.1424 130.196 51.1443 126.373 52.8171 123.366C55.2303 119.052 57.3145 114.477 59.426 109.935C60.9617 106.602 62.4151 103.203 64.3073 100.131C67.9546 94.2815 73.1101 90.0985 77.1687 84.7064C78.8415 82.4842 80.4595 80.0006 81.1725 77.0921C81.9952 73.7588 81.8032 70.1641 81.4193 66.7655C79.3077 47.6808 73.165 29.7071 69.3258 11.1126C69.2161 10.5243 68.4482 10.7858 68.5853 11.374Z" fill="currentColor"/>
    <path d="M77.3881 12.0276C81.3371 23.9883 83.5309 36.5371 84.9843 49.2494C85.3408 52.2886 85.5602 55.3277 85.9715 58.3669C86.4377 61.5695 87.0685 64.7721 87.2879 68.04C87.6992 74.3144 86.1086 79.3797 82.7904 84.1509C79.8836 88.3339 77.3058 92.4841 74.92 97.1246C72.3971 102.059 70.0113 107.059 67.4336 111.928C66.1447 114.379 64.8284 116.798 63.4298 119.15C61.9215 121.667 60.2213 123.987 58.713 126.503C57.6161 128.366 56.574 131.242 54.8464 132.386C52.4606 133.922 49.9376 129.739 48.8133 127.712C47.4696 125.294 46.4824 122.647 45.3306 120.098C44.1788 117.549 42.5334 115.36 40.8606 113.203C37.0214 108.236 32.7708 103.726 29.3155 98.3337C29.0139 97.8762 28.3283 98.3337 28.6574 98.7912C31.811 103.66 35.568 107.843 39.1056 112.288C40.9429 114.608 42.9174 116.994 44.2885 119.739C45.4677 122.124 46.4001 124.673 47.6067 127.059C48.9504 129.706 52.1041 135.294 55.2303 133.105C56.7112 132.059 57.671 129.902 58.6033 128.268C60.0842 125.654 61.8393 123.268 63.4024 120.686C66.6109 115.425 69.408 109.87 72.2052 104.281C75.0023 98.6932 77.6075 92.9416 81.0628 87.9744C83.7777 84.0529 86.7942 80.3274 87.754 75.1968C88.8784 69.1838 87.3975 63.2688 86.6571 57.3212C85.6973 49.7396 85.0391 42.158 83.7503 34.6417C82.4614 27.1255 80.5966 19.1517 78.156 11.7335C77.964 11.178 77.2236 11.4394 77.4155 11.995L77.3881 12.0276Z" fill="currentColor"/>
    <path d="M88.9334 24.8381C92.4984 36.3085 94.5825 48.3345 96.0359 60.3932C96.6666 65.5892 97.791 71.2427 96.4198 76.4061C95.2681 80.7851 92.8 84.4778 90.2222 87.8111C84.9296 94.6411 79.0062 100.491 75.167 108.759C72.9183 113.628 71.1906 118.791 68.9968 123.693C67.6257 126.732 63.5397 136.765 60.0295 132.484C58.3293 130.392 57.0129 127.647 55.5869 125.294C53.8319 122.386 52.1591 119.412 50.4863 116.406C48.978 113.693 47.4972 111.079 45.6324 108.693C43.7676 106.308 41.7109 103.955 39.9558 101.34C39.6542 100.883 39.1057 101.536 39.4074 101.994C41.1076 104.51 43.0272 106.765 44.892 109.085C46.9487 111.667 48.5392 114.543 50.1846 117.484C52.9818 122.517 55.7515 127.778 58.9874 132.418C59.7278 133.497 60.7151 134.673 61.9765 134.608C63.5945 134.543 64.8559 132.68 65.7609 131.307C68.75 126.896 70.7519 121.732 72.7538 116.602C74.7557 111.471 76.9769 106.177 80.0757 101.667C82.7083 97.8437 85.7797 94.5104 88.6866 91.0137C91.4014 87.7458 94.1163 84.2491 95.9262 80.1315C97.7362 76.0139 98.0378 71.9944 97.599 67.4519C96.1731 52.9096 94.0066 38.3346 89.7012 24.544C89.5367 23.9884 88.7688 24.2172 88.9608 24.8054L88.9334 24.8381Z" fill="currentColor"/>
    <path d="M99.0798 24.2825C100.286 29.8053 100.753 35.4588 101.137 41.145C101.438 45.5894 101.52 50.1972 102.508 54.5435C103.358 58.2689 104.647 61.831 105.579 65.4911C106.457 68.8244 107.691 73.6609 105.908 76.8962C105.031 78.4648 103.55 79.4452 102.371 80.6543C101.191 81.8634 100.204 83.5628 99.2992 85.0987C98.2297 86.9614 97.2699 88.8895 96.2279 90.7522C94.8567 93.2032 93.2113 95.3927 91.6208 97.6149C88.8511 101.471 85.8345 105.196 83.3939 109.379C81.2 113.138 79.6369 117.386 77.7722 121.373C76.6478 123.824 75.6606 126.373 74.5636 128.856C73.6587 130.915 72.5069 134.837 70.5873 135.784C70.4776 135.85 70.368 136.046 70.3954 136.176V136.503C70.6148 136.373 70.8067 136.242 71.0261 136.111C66.1722 132.909 64.0881 125.752 60.9893 120.588C57.4517 114.673 54.6546 107.811 49.9104 103.072C49.5264 102.68 48.978 103.334 49.3619 103.726C51.9397 106.275 53.9141 109.477 55.724 112.811C57.534 116.144 59.289 119.118 61.0441 122.288C63.8413 127.32 66.0077 133.824 70.6148 136.895C70.8342 137.059 71.2455 136.863 71.1906 136.503C71.1906 136.503 72.2876 135.261 72.315 135.196C73.0006 134.118 73.5765 132.909 74.1249 131.699C75.3864 128.987 76.4833 126.209 77.6625 123.464C79.1159 120.033 80.6516 116.602 82.2147 113.268C84.5182 108.366 87.7816 104.281 90.8255 100.033C93.5678 96.2097 96.173 92.4515 98.4491 88.2032C99.6009 86.0464 100.78 83.8569 102.234 81.9941C103.358 80.5889 104.839 79.6739 105.936 78.2034C107.663 75.9158 107.636 72.6479 107.224 69.8048C106.649 65.7525 105.332 61.929 104.208 58.0729C101.027 47.158 102.179 35.1974 99.738 24.021C99.6009 23.4328 98.8605 23.6942 98.9976 24.2825H99.0798Z" fill="currentColor"/>
    <path d="M108.13 24.4785C109.528 30.7529 111.009 37.1908 111.283 43.7266C111.53 49.6089 110.598 55.5239 111.283 61.3735C111.969 67.2231 114.382 73.0727 111.941 79.151C110.022 83.9549 106.566 88.1378 103.605 92.092C102.179 94.0201 100.753 95.9809 99.4364 98.0397C97.8185 100.556 96.5296 103.334 94.9665 105.915C93.5679 108.236 92.0048 110.458 90.4691 112.647C88.9334 114.837 87.2332 116.961 86.0814 119.379C84.3812 123.007 84.5457 127.484 83.4488 131.373C82.9278 133.17 81.6663 136.078 79.7741 136.078C78.1287 136.078 77.1689 133.497 76.593 132.026C75.8526 130.196 75.3042 128.268 74.4815 126.471C73.2748 123.856 71.9037 121.307 70.56 118.791C67.9 113.824 64.9931 108.857 61.291 104.87C60.9071 104.477 60.3586 105.131 60.7425 105.523C64.5543 109.608 67.4612 114.706 70.2035 119.804C71.4375 122.124 72.699 124.477 73.8233 126.896C74.6186 128.595 75.167 130.49 75.8526 132.255C76.7576 134.575 78.403 138.039 80.9807 136.601C84.107 134.869 84.6829 130.033 85.2313 126.471C85.5878 124.15 85.8894 121.667 86.9041 119.608C88.3027 116.732 90.4417 114.151 92.2242 111.569C95.7069 106.504 98.3943 100.817 101.904 95.8175C104.921 91.5365 108.184 87.5169 110.927 82.9745C113.669 78.4321 114.437 73.5302 113.367 68.0074C112.682 64.38 111.887 60.9813 111.832 57.2232C111.777 53.4651 112.106 49.9357 112.106 46.3083C112.133 38.7921 110.488 31.4392 108.897 24.2171C108.76 23.6288 108.02 23.8903 108.157 24.4785H108.13Z" fill="currentColor"/>
    <path d="M118.139 24.7399C120.689 36.5045 120.086 48.5958 121.649 60.4911C122.334 65.6217 123.651 71.5694 121.567 76.4713C119.702 80.8176 116.411 83.8568 114.738 88.4319C112.846 93.6279 110.762 98.7586 107.883 103.301C106.566 105.36 105.195 107.255 104.098 109.51C102.946 111.896 102.041 114.477 100.972 116.928C99.8476 119.51 98.5039 121.667 96.8859 123.856C95.6519 125.523 94.5823 127.222 93.8968 129.314C93.1289 131.569 92.8273 134.052 91.6481 136.078C91.0174 137.157 89.701 138.921 88.467 138.889C87.4249 138.889 86.9313 137.68 86.5199 136.699C85.6698 134.64 85.1214 132.418 84.2164 130.392C82.955 127.582 81.6935 124.771 80.4321 121.961C77.9092 116.438 75.2491 110.981 71.8487 106.144C71.5196 105.687 70.9711 106.34 71.3002 106.798C74.7281 111.667 77.3881 117.19 79.911 122.745C81.0902 125.36 82.242 127.974 83.4212 130.556C84.381 132.68 84.9569 135 85.8618 137.157C86.328 138.268 86.9861 139.575 88.1105 139.771C89.5091 140.033 90.9351 138.529 91.7852 137.418C93.0192 135.719 93.5677 133.627 94.1161 131.536C94.9114 128.464 96.2551 126.177 98.0102 123.791C101.164 119.51 102.645 114.249 105.058 109.412C106.429 106.667 108.266 104.379 109.775 101.732C111.146 99.3141 112.352 96.7651 113.422 94.1508C114.491 91.5364 115.259 88.7914 116.466 86.3077C117.673 83.8241 119.236 81.9614 120.634 79.8046C123.349 75.6216 123.706 71.3406 123.185 66.1773C122.883 63.3015 122.362 60.4911 122.115 57.6153C121.786 53.8899 121.649 50.0991 121.43 46.3409C121.018 38.9554 120.442 31.6026 118.879 24.4131C118.742 23.8249 118.002 24.0863 118.139 24.6745V24.7399Z" fill="currentColor"/>
    <path d="M128.806 23.5636C129.766 32.0929 130.15 40.7202 130.534 49.3149C130.726 53.6612 130.534 57.9422 130.507 62.2886C130.507 64.38 130.534 66.5042 130.808 68.563C131.028 70.393 131.549 72.2231 131.549 74.0858C131.576 78.2034 129.053 82.2556 127.326 85.6216C125.488 89.1836 123.486 92.6476 121.43 96.079C119.373 99.5103 117.261 103.007 115.259 106.536C113.258 110.066 111.365 113.987 109.336 117.68C107.307 121.373 105.387 125.621 103.111 129.347C101.109 132.647 99.1073 135.915 98.2572 139.935L98.9153 139.739C95.46 136.046 94.6922 130.098 92.9371 125.229C90.7433 119.118 86.6846 114.053 83.3939 108.791C83.0922 108.334 82.4341 108.791 82.7357 109.249C86.2185 114.772 90.4416 120.066 92.5806 126.569C94.1437 131.307 95.0761 136.863 98.3668 140.392C98.5862 140.621 98.9427 140.556 99.025 140.196C99.8477 136.34 101.74 133.235 103.659 130.098C105.744 126.7 107.416 122.974 109.336 119.445C113.312 112.157 117.179 104.837 121.402 97.7456C123.569 94.1509 125.708 90.5235 127.655 86.7327C129.355 83.4975 131.466 79.9354 132.125 76.1446C132.728 72.8113 131.521 69.4453 131.329 66.1447C131.083 61.7003 131.549 57.2559 131.439 52.8442C131.192 43.1058 130.644 33.2693 129.547 23.6289C129.492 23.0407 128.697 23.0407 128.779 23.6289L128.806 23.5636Z" fill="currentColor"/>
    <path d="M138.322 24.4785C141.86 40.8508 137.033 57.4193 138.322 73.955C138.624 77.7458 138.734 80.9157 136.924 84.2163C135.114 87.5169 133.03 90.6215 131.384 94.1181C127.874 101.602 124.528 109.085 120.552 116.209C116 124.314 111.228 132.255 107.608 141.046L108.13 140.882C103.961 137.288 101.987 130.588 100.341 125.033C98.696 119.477 97.462 113.758 95.5149 108.334C95.323 107.778 94.6374 108.268 94.8568 108.791C97.0232 114.804 98.3121 121.209 100.232 127.32C101.877 132.484 103.852 138.301 107.746 141.667C107.91 141.797 108.184 141.699 108.267 141.503C111.557 133.497 115.835 126.177 120.004 118.824C124.172 111.471 127.792 103.922 131.329 96.177C133.112 92.2554 135.251 88.7914 137.335 85.1313C138.734 82.6804 139.447 80.1314 139.337 77.1576C139.2 73.1707 138.816 69.2819 138.953 65.2623C139.09 61.0467 139.447 56.831 139.748 52.6154C140.461 43.1711 141.065 33.5307 139.063 24.2171C138.926 23.6288 138.185 23.8903 138.322 24.4785Z" fill="currentColor"/>
    <path d="M149.895 11.5049C150.279 21.5048 150.745 31.5373 150.251 41.5372C149.758 51.5371 147.509 61.2428 148.414 71.3081C148.606 73.3342 148.88 75.393 148.798 77.4518C148.688 80.0988 147.865 82.3863 146.878 84.7066C145.288 88.4974 143.505 92.1575 141.64 95.7522C137.774 103.203 133.523 110.36 129.656 117.811C125.543 125.817 121.868 134.216 119.894 143.366L120.36 143.039C118.248 142.386 117.316 139.314 116.685 137.124C115.945 134.575 115.479 131.928 114.958 129.314C113.532 122.255 110.543 115.817 107.608 109.478C107.362 108.955 106.703 109.412 106.95 109.935C110.186 116.928 113.093 123.856 114.656 131.667C115.424 135.458 116.356 142.745 120.196 143.922C120.387 143.987 120.607 143.856 120.662 143.595C124.364 126.471 133.797 112.321 141.585 97.5822C143.532 93.8895 145.397 90.164 147.07 86.2752C148.743 82.3863 149.785 79.1838 149.511 74.9681C149.182 70.1316 148.77 65.4911 149.127 60.6219C149.483 55.7527 150.333 50.9162 150.745 46.0469C151.705 34.5765 151.129 22.9753 150.69 11.5049C150.69 10.9167 149.895 10.9167 149.922 11.5049H149.895Z" fill="currentColor"/>
    <path d="M161.275 10.4592C159.164 19.3479 159.438 28.6616 159.41 37.8118C159.41 42.583 159.356 47.3541 158.862 52.06C158.368 56.7658 157.71 61.7004 157.518 66.6349C157.326 71.5695 157.299 76.8636 156.668 81.9289C156.037 86.9942 154.666 91.8634 152.829 96.5365C149.483 105.066 145.013 112.615 140.132 120C135.251 127.386 135.717 137.288 131.165 144.64L131.768 144.542C124.72 135.262 126.475 121.079 120.497 111.112C120.195 110.621 119.537 111.112 119.839 111.569C125.845 121.602 124.09 135.817 131.22 145.196C131.412 145.425 131.686 145.327 131.823 145.098C135.909 138.464 135.991 129.706 139.474 122.713C141.394 118.856 144.136 115.523 146.275 111.83C148.551 107.876 150.608 103.791 152.418 99.5103C154.227 95.2293 155.736 91.1117 156.641 86.6347C157.546 82.1576 157.902 77.223 158.067 72.4519C158.259 67.3212 158.286 62.1906 158.917 57.0926C159.493 52.5828 159.959 48.1384 160.069 43.5307C160.343 32.5831 159.41 21.3414 161.961 10.6552C162.098 10.067 161.357 9.83827 161.22 10.3938L161.275 10.4592Z" fill="currentColor"/>
    <path d="M172.82 11.2434C171.34 12.714 170.846 15.4264 170.462 17.5505C169.804 21.0472 169.53 24.6746 169.31 28.2367C168.844 35.8183 168.872 43.3672 168.844 50.9488C168.817 57.0272 168.542 63.0075 167.775 69.0205C167.007 75.0335 166.349 80.687 164.347 86.1771C160.754 96.1443 154.831 104.576 151.348 114.641C149.291 120.621 146.165 125.981 144.136 131.961C143.313 134.314 142.929 136.569 142.628 139.085C142.299 141.765 141.805 144.379 139.611 145.719L140.132 145.882C136.841 140.294 138.267 133.464 137.856 127.124C137.5 121.732 136.046 117.288 133.715 112.713C133.468 112.19 132.783 112.68 133.057 113.17C135.69 118.366 137.253 123.595 137.198 129.739C137.143 135.392 136.622 141.471 139.501 146.34C139.639 146.569 139.831 146.634 140.023 146.503C143.149 144.608 143.176 140.49 143.67 136.863C144.438 131.34 147.29 126.242 149.483 121.373C151.677 116.504 153.268 111.177 155.571 106.308C157.875 101.438 160.508 96.8633 162.756 92.0267C170.928 74.4779 169.146 53.7592 169.804 34.4131C169.941 30.0014 170.16 25.557 170.681 21.1779C171.038 18.3348 171.34 13.8905 173.341 11.8643C173.725 11.4722 173.177 10.8186 172.793 11.2108L172.82 11.2434Z" fill="currentColor"/>
    <path d="M49.3345 18.5962C51.8848 27.2235 55.7515 35.1646 58.5486 43.6613C60.5779 49.8703 61.2909 56.4389 62.8815 62.7787C64.2526 68.2361 66.5013 73.6936 70.9987 76.3406C76.2365 79.4124 82.626 77.2556 88.1929 77.6804C96.2553 78.3013 104.29 79.4124 112.38 79.9353C120.47 80.4582 128.423 81.1118 136.457 82.0595C144.492 83.0072 152.363 83.7915 160.288 82.9418C163.085 82.6477 166.074 82.4843 168.844 81.8307C170.928 81.3405 172.738 80.0333 173.561 77.5824C174.548 74.6086 174.603 71.0792 174.767 67.942C174.987 63.8244 175.316 59.7395 175.672 55.6219C176.66 44.3475 177.647 33.0405 178.963 21.7988C179.045 21.2106 178.278 20.9491 178.223 21.5373C176.276 37.9424 175.042 54.4128 173.808 70.9158C173.588 73.857 173.479 77.8112 171.257 79.7066C169.036 81.602 166.019 81.1444 163.524 81.5366C156.037 82.6804 148.551 82.3863 141.037 81.602C133.523 80.8177 125.927 79.6412 118.331 79.3144C110.735 78.9876 102.672 78.334 94.8841 77.5171C91.6756 77.1576 88.4672 76.6347 85.2313 76.7327C82.1873 76.8308 79.1159 77.1903 76.0719 76.8961C70.0389 76.3079 66.3642 71.504 64.3623 65.0009C62.3604 58.4977 61.8942 51.8311 59.9746 45.4913C57.1775 36.2104 52.8721 27.6811 50.1298 18.3674C49.9652 17.8119 49.2248 18.0407 49.3893 18.6289L49.3345 18.5962Z" fill="currentColor"/>
    <path d="M42.2868 25.9492C46.5923 33.6942 49.8007 42.1581 52.8721 50.6874C54.4078 54.9684 56.108 59.2167 57.4792 63.5631C58.5487 66.8964 59.1794 70.3604 60.2489 73.6937C62.3331 80.1642 66.1449 84.5105 72.0682 85.4256C75.1396 85.9157 78.2659 85.5889 81.3647 85.2621C84.6006 84.9027 87.809 84.772 91.0724 84.8046C99.409 84.9027 107.718 85.2622 116.027 85.785C124.337 86.3079 132.783 86.8634 141.092 88.2033C148.633 89.4451 156.284 91.3405 163.963 90.8503C167.281 90.6542 170.435 89.6412 171.367 85.4256C171.97 82.6805 171.916 79.7394 171.998 76.9289C172.162 71.7002 172.601 66.4716 173.04 61.2755C173.972 50.2626 174.932 39.217 174.329 28.1387C174.301 27.5505 173.506 27.5505 173.561 28.1387C174.082 37.5177 173.479 46.8966 172.711 56.2429C172.025 64.4454 171.504 72.6479 171.093 80.8504C170.983 82.9092 170.928 85.2948 169.968 87.0922C168.926 89.0529 166.952 89.5758 165.142 89.8046C157.902 90.7523 150.388 88.8569 143.231 87.6151C127.956 84.968 112.325 84.3471 96.9135 83.955C93.4034 83.8569 89.8658 83.6935 86.3282 83.8569C83.394 83.9877 80.4597 84.4778 77.5254 84.6412C74.5911 84.8046 71.3278 84.7393 68.4484 83.3994C65.3222 81.9289 63.1283 79.0204 61.7023 75.4584C60.2763 71.8963 59.5633 67.8441 58.439 64.086C57.205 59.8377 55.4773 55.7201 53.9964 51.5698C50.7879 42.583 47.4698 33.6288 42.945 25.459C42.6707 24.9688 41.9852 25.459 42.2868 25.9165V25.9492Z" fill="currentColor"/>
    <path d="M36.9667 33.7595C40.5592 41.864 44.2338 49.9685 48.3473 57.7461C51.8574 64.4127 53.6674 71.929 56.5194 78.955C57.8083 82.0922 59.3439 85.3602 61.4555 87.8111C63.238 89.8699 65.4593 90.8176 67.8725 91.2424C69.1888 91.4712 70.5325 91.5692 71.8762 91.7326C73.8233 91.9941 75.6606 92.5823 77.5528 93.0398C80.6242 93.7914 83.723 94.1836 86.8766 94.2162C90.6062 94.2162 94.3083 93.628 98.0104 93.3993C101.712 93.1705 105.771 93.2359 109.665 93.4973C117.481 93.9875 125.241 95.2293 133.002 96.177C140.763 97.1247 148.085 97.7456 155.626 97.909C159.685 98.0071 165.087 98.4972 167.391 93.5627C168.46 91.2751 168.707 88.5301 168.899 85.9811C169.255 81.1445 169.447 76.308 169.557 71.4714C169.804 60.7853 169.667 50.0992 170.352 39.4457C170.38 38.8575 169.612 38.8575 169.585 39.4457C169.009 48.4979 169.009 57.6154 168.872 66.6676C168.817 71.0793 168.707 75.491 168.46 79.9027C168.296 83.2033 168.268 86.5693 167.692 89.8045C167.308 91.9941 166.568 94.1509 164.95 95.4581C162.811 97.1574 160.014 97.0594 157.546 97.0267C150.224 96.9613 142.929 96.3731 135.662 95.5888C128.395 94.8045 121.347 93.6607 114.163 92.9744C106.978 92.2882 99.4912 92.3209 92.1145 93.1052C88.8237 93.4646 85.4506 93.432 82.1599 93.0071C78.8691 92.5823 75.88 91.4385 72.6989 90.9483C70.0115 90.5235 67.1595 90.6215 64.6366 89.2817C61.7297 87.7458 59.8375 84.2817 58.3293 81.0792C54.9288 73.8897 53.3383 65.6872 49.7184 58.6285C45.4679 50.3279 41.4641 41.9294 37.6523 33.3674C37.4055 32.8445 36.7473 33.302 36.9941 33.8249L36.9667 33.7595Z" fill="currentColor"/>
    <path d="M30.1108 41.9293C33.2096 51.3736 37.4602 60.1317 41.9027 68.759C44.1788 73.2034 46.5097 77.5824 48.7859 82.0268C50.678 85.7523 52.2686 89.8045 54.9286 92.811C59.0969 97.5822 64.8009 98.7586 70.3678 98.8567C73.494 98.922 76.6477 98.6606 79.7739 98.5625C83.476 98.4318 87.0958 98.7259 90.7705 99.1508C100.067 100.197 109.363 101.21 118.687 101.7C128.011 102.19 137.088 101.634 146.247 102.876C149.949 103.366 153.487 104.706 157.162 105.229C159.273 105.523 161.467 105.425 163.14 103.693C165.937 100.785 166.486 95.5234 166.787 91.4058C167.281 84.3144 166.732 77.1576 166.239 70.0989C165.855 64.6741 165.005 58.9552 165.526 53.4977C165.581 52.9095 164.813 52.9095 164.758 53.4977C164.347 57.9421 164.922 62.5826 165.251 66.9943C165.69 73.0073 166.156 79.053 166.211 85.0987C166.239 90.1313 166.239 95.9155 164.237 100.491C161.33 107.125 154.721 103.399 149.949 102.517C141.585 100.915 133.167 101.177 124.748 100.981C115.863 100.785 106.978 99.9678 98.1199 99.0201C93.979 98.5625 89.8107 97.909 85.6424 97.6802C82.6259 97.4841 79.5819 97.6475 76.5379 97.7782C70.6694 98.0397 64.225 98.4972 58.8776 95.0659C55.3948 92.8437 53.3107 89.2816 51.3636 85.3274C49.0601 80.6543 46.6468 76.0465 44.2336 71.4387C39.2426 61.8637 34.3339 52.1906 30.8786 41.6678C30.6867 41.1123 29.9462 41.3737 30.1382 41.9293H30.1108Z" fill="currentColor"/>
    <path d="M23.2277 51.3737C25.9426 59.7396 31.9208 65.7199 36.0068 73.0728C38.2829 77.1904 39.9832 81.7001 42.0399 85.9484C43.6853 89.3797 45.6872 92.517 47.7165 95.6542C49.499 98.3992 51.5557 101.765 54.3254 103.203C57.6436 104.935 61.3183 103.693 64.7736 103.759C69.1339 103.857 73.4393 105.131 77.7447 105.621C82.0501 106.112 86.8492 106.242 91.4014 106.34C100.369 106.536 109.336 106.275 118.303 106.536C125.68 106.765 133.112 107.125 140.297 109.216C145.507 110.752 151.211 112.844 156.641 112.125C158.259 111.896 160.096 111.373 161.193 109.804C162.208 108.334 162.564 106.177 162.811 104.347C163.716 97.7783 163.359 90.9484 163.113 84.3471C162.784 76.1446 163.113 67.9748 162.125 59.8049C162.043 59.2167 161.303 59.4782 161.385 60.0664C162.235 67.4192 161.961 74.6741 162.235 82.0269C162.454 87.7458 162.729 93.4647 162.482 99.1835C162.372 101.765 162.208 104.445 161.549 106.896C160.946 109.183 159.849 110.393 157.875 110.948C152.747 112.419 146.851 110.164 141.915 108.726C127.655 104.576 112.736 105.491 98.1474 105.458C89.5914 105.458 80.9806 105.36 72.5069 103.824C68.7499 103.17 65.1575 102.68 61.3457 102.974C59.3713 103.138 57.3694 103.301 55.4498 102.615C53.7496 101.994 52.4606 100.589 51.254 99.0855C48.7037 95.9156 46.4002 92.1902 44.3434 88.5628C41.9302 84.2818 40.1751 79.4779 37.9813 75.0335C33.8678 66.6676 26.9572 60.1971 23.9956 51.0469C23.8036 50.4913 23.0632 50.7201 23.2551 51.3083L23.2277 51.3737Z" fill="currentColor"/>
    <path d="M15.3299 61.7657C26.4637 72.9747 34.7729 87.2556 43.3288 101.144C46.647 106.504 50.2669 111.536 55.6967 113.824C62.2508 116.602 69.4904 115.621 76.2913 116.013C80.1854 116.242 84.0521 117.059 87.9187 117.745C91.7854 118.432 95.3229 118.758 99.1073 118.824C107.06 118.955 115.04 119.379 122.993 119.968C129.986 120.49 137.006 121.144 143.999 121.863C147.756 122.255 154.063 123.268 156.723 119.151C158.149 116.961 158.039 113.497 158.039 110.915C158.039 107.255 157.957 103.661 158.286 100.001C158.698 95.1967 159.465 90.3274 159.411 85.4909C159.356 80.6544 158.368 75.9485 158.259 71.1447C158.259 70.5565 157.464 70.5565 157.491 71.1447C157.573 75.1316 158.259 79.0531 158.533 83.0073C158.835 87.1902 158.341 91.3405 157.93 95.4908C157.601 98.9221 157.217 102.386 157.217 105.85C157.217 109.085 157.436 112.386 156.997 115.589C156.092 122.157 149.264 121.406 145.013 121.046C138.432 120.458 131.85 119.739 125.269 119.216C117.892 118.628 110.515 118.203 103.139 117.974C99.3815 117.876 95.652 117.941 91.9225 117.451C88.1929 116.961 84.5457 116.144 80.8436 115.589C73.9055 114.543 66.8304 115.589 59.9472 114.151C53.0641 112.713 48.7586 108.203 44.8371 101.929C35.8698 87.6151 27.5058 72.746 15.9607 61.1121C15.5767 60.72 15.0283 61.3736 15.4122 61.7657H15.3299Z" fill="currentColor"/>
    <path d="M9.29694 72.3537C13.5475 79.2164 19.0595 84.7065 24.2425 90.5234C26.9848 93.5953 29.6174 96.8305 32.0032 100.327C34.389 103.824 36.3634 107.321 38.7492 110.589C41.0254 113.693 43.466 116.209 46.702 117.745C49.9379 119.281 53.3657 119.804 56.7662 120.327C61.0168 120.981 65.1576 122.157 69.3534 123.105C73.5491 124.052 77.6625 124.869 81.8583 125.588C90.0577 127.026 98.2847 128.235 106.484 129.444C114.684 130.654 123.322 130.686 131.686 131.765C136.704 132.418 141.695 133.889 146.769 133.954C148.441 133.954 150.663 133.987 152.061 132.68C153.158 131.634 153.432 129.739 153.652 128.203C154.474 122.19 153.981 115.948 153.816 109.87C153.679 105.033 154.063 100.164 154.063 95.3273C154.063 92.4515 154.008 89.5757 153.789 86.7326C153.597 84.4451 153.57 82.0921 153.131 79.8699C153.021 79.2817 152.253 79.5431 152.39 80.1314C153.24 84.4777 153.268 89.3469 153.323 93.7913C153.35 98.5625 153.131 103.301 153.048 108.072C152.966 113.17 153.432 118.235 153.268 123.333C153.186 125.719 153.158 128.399 152.39 130.621C151.622 132.843 149.401 133.007 147.591 133.072C143.149 133.17 138.788 131.961 134.428 131.275C126.503 130.033 118.495 129.967 110.543 129.085C102.59 128.203 94.1986 126.765 86.054 125.392C77.9093 124.02 70.2583 122.386 62.4153 120.425C55.4225 118.693 47.5246 119.249 41.9303 113.072C38.9961 109.837 36.6925 105.915 34.2793 102.157C32.0306 98.6605 29.59 95.3273 26.9299 92.2227C21.1985 85.5235 14.7815 79.5758 9.98251 71.8308C9.68086 71.3406 9.02269 71.8308 9.32435 72.2883L9.29694 72.3537Z" fill="currentColor"/>
    <path d="M3.23643 83.9548C8.61135 89.1508 12.8893 95.6213 17.4141 101.798C21.9389 107.974 26.6008 112.843 31.2079 118.333C33.4018 120.948 35.6779 123.562 38.2008 125.752C40.7237 127.941 43.5483 129.346 46.51 130.555C50.1024 131.993 53.7771 133.072 57.5615 133.66C61.3458 134.248 64.664 133.889 68.229 134.085C72.0134 134.281 75.7155 135.229 79.4451 135.915C83.1746 136.601 86.6299 136.634 90.2772 136.765C98.3121 137.059 106.347 137.549 114.355 138.3C122.362 139.052 130.424 139.542 138.295 141.078C140.79 141.568 143.313 142.287 145.864 142.157C146.988 142.124 148.167 141.895 148.908 140.784C149.813 139.412 149.73 137.32 149.675 135.686C149.566 131.601 149.292 127.549 149.237 123.464C149.1 113.497 149.346 103.464 150.334 93.5625C150.388 92.9743 149.621 92.9743 149.566 93.5625C148.743 101.896 148.441 110.294 148.441 118.693C148.441 122.81 148.496 126.895 148.661 131.013C148.77 133.431 149.127 135.98 148.825 138.399C148.195 143.496 141.065 140.686 138.487 140.196C131.412 138.823 124.172 138.333 117.015 137.647C109.446 136.895 101.877 136.372 94.2809 136.046C90.4691 135.882 86.6025 135.948 82.8181 135.523C79.3628 135.131 75.9623 134.248 72.507 133.693C69.0517 133.137 65.7336 133.366 62.3057 133.235C58.4664 133.104 54.6546 132.386 50.9525 131.209C47.6343 130.163 44.1242 128.954 41.1076 126.961C38.3653 125.131 35.9795 122.614 33.7308 120.033C31.3176 117.288 29.0415 114.347 26.6009 111.634C24.0231 108.758 21.4728 105.915 19.1144 102.745C14.1508 96.1115 9.62599 88.9547 3.78488 83.3339C3.40096 82.9744 2.85251 83.628 3.23643 83.9874V83.9548Z" fill="currentColor"/>
</svg>
