<svg width="85" height="142" viewBox="0 0 85 142" fill="none"
    xmlns="http://www.w3.org/2000/svg">
    <path d="M45.9522 68.7735C46.0619 62.6624 45.5957 55.6364 42.3324 50.6037C40.7967 48.2508 38.4932 46.813 36.9026 44.4927C34.9282 41.5516 35.0104 37.6954 35.0653 34.1334C35.0927 30.8981 34.8185 27.9243 34.3797 24.7544C34.2152 23.5126 34.2426 21.846 33.5844 20.7675C32.9263 19.6891 31.8568 19.6891 30.8421 19.6564C29.1419 19.6237 27.4417 19.6564 25.7689 19.6891C23.3282 19.7218 20.8876 19.7871 18.4469 19.9179C16.4451 20.0159 14.3883 19.7545 12.6607 21.0616C11.6186 21.8786 12.5784 23.8721 13.6479 23.0551C14.9916 22.0094 16.8564 22.2708 18.4469 22.2054C20.4762 22.1074 22.5055 22.0747 24.5623 22.0093C26.1528 21.9766 27.7433 21.944 29.3339 21.944C29.9098 21.944 31.5826 21.6172 32.0213 22.1074C32.5698 22.7283 32.5149 25.4407 32.6521 26.2577C33.1457 29.4602 33.1183 32.5648 33.1183 35.8C33.1183 38.6104 33.3102 41.4862 34.3797 44.0352C35.3944 46.3881 37.122 47.9568 38.7948 49.6234C43.4842 54.3292 44.1423 61.8128 44.0326 68.7408C44.0326 70.244 45.9522 70.244 45.9797 68.7408L45.9522 68.7735Z" fill="currentColor"/>
    <path d="M11.7831 22.0747C11.7831 27.4341 12.1122 32.9243 11.2895 38.2183C10.4668 43.5124 8.54722 47.0417 5.3113 50.4077C2.45931 53.3815 0.978461 56.4534 0.7865 61.0612C0.484847 67.6951 0.649377 74.3616 0.649377 80.9955C0.649377 87.6294 0.649389 93.9692 0.512274 100.44C0.457428 103.316 0.155774 106.159 0.0186586 109.002C-0.0910335 110.963 0.265459 112.531 1.55434 113.773C3.85788 115.962 7.34061 115.962 10.1378 115.864C13.2914 115.734 16.4176 115.08 19.5713 114.917C24.9736 114.623 30.4582 114.525 35.8606 114.753C39.7272 114.917 45.2941 114.917 45.9797 109.067C46.2265 107.041 43.5938 106.159 43.347 108.217C42.7712 112.989 36.5461 111.485 33.6667 111.42C29.0871 111.355 24.4526 111.42 19.8729 111.649C16.9661 111.779 14.0867 112.335 11.1798 112.531C8.98599 112.695 4.8451 113.283 3.11745 111.126C2.1028 109.851 2.95292 107.041 3.06262 105.472C3.25458 102.531 3.25458 99.5574 3.28201 96.6162C3.33685 90.6033 3.39169 84.5903 3.36427 78.5773C3.33685 72.5643 3.22714 66.8454 3.50137 61.0285C3.61107 58.9043 3.94015 56.8782 5.09192 55.1462C6.05172 53.7083 7.31318 52.6299 8.43753 51.3881C15.3207 43.7738 14.5529 32.2053 14.5254 22.0093C14.5254 19.9179 11.8105 19.9179 11.8105 22.0093L11.7831 22.0747Z" fill="currentColor"/>
    <path d="M12.3041 5.34295C18.5565 1.81358 26.1253 -0.735423 32.2406 4.55863C25.6591 4.95078 18.7485 5.53902 12.1395 5.53902" fill="currentColor"/>
    <path d="M12.9897 6.74805C18.8033 3.48012 25.8236 1.12724 31.5551 5.96378L32.2406 2.95724C25.5494 3.34939 18.8582 3.93763 12.1395 3.93763C10.3845 3.93763 10.3845 7.1729 12.1395 7.1729C18.8582 7.1729 25.5494 6.58466 32.2406 6.19251C33.6392 6.09447 34.0231 4.10104 32.9262 3.18602C26.3995 -2.33679 18.2823 0.244895 11.6185 3.97034C10.028 4.85268 11.4265 7.6631 12.9897 6.78076V6.74805Z" fill="currentColor"/>
    <path d="M11.646 4.72199C10.1104 5.53897 9.72643 7.9899 9.58932 9.75458C9.39736 12.2055 9.58932 14.7872 10.0829 17.2055C10.4943 19.2643 11.1799 21.0943 13.0721 21.6172C14.2512 21.9113 15.5127 21.8133 16.7193 21.6172C18.255 21.4211 19.8181 21.2577 21.3538 21.1923C24.5074 21.0289 27.6337 21.6172 30.7873 21.4538C33.2006 21.3231 35.3121 19.9506 35.7509 16.9767C35.9703 15.5388 35.9428 14.1009 35.9977 12.663C36.0525 11.3232 36.1897 9.95069 36.1897 8.61083C36.1897 7.36902 36.08 5.89843 35.367 4.91805C34.7637 4.06839 33.8313 3.77428 32.9263 3.64356C30.2663 3.21873 27.4691 3.80695 24.7817 3.83963C20.3391 3.87231 15.8966 4.13376 11.4815 4.82002C10.2475 5.0161 10.2475 7.33635 11.4815 7.14028C14.7449 6.65009 18.0082 6.35596 21.299 6.25792C23.767 6.15988 26.2351 6.25791 28.7032 5.99648C29.6904 5.89844 30.7051 5.8331 31.7197 5.86578C32.3779 5.86578 33.5022 5.86576 33.941 6.55202C34.3797 7.23829 34.27 8.8396 34.2426 9.68926C34.2152 10.8004 34.1055 11.9114 34.0781 13.0225C33.9958 15.3427 34.27 18.1859 31.9939 18.9702C29.7178 19.7545 27.1401 18.9702 24.9188 18.8721C22.2039 18.7414 19.4616 18.9702 16.7467 19.3296C15.3482 19.5257 13.0446 20.0486 12.3865 18.1859C11.6735 16.1924 11.5089 13.8068 11.5089 11.65C11.5089 10.3428 11.3992 7.40168 12.6607 6.74809C13.8125 6.15986 12.8252 4.16642 11.6735 4.75465L11.646 4.72199Z" fill="currentColor"/>
    <path d="M39.3981 69.8192C42.0033 70.3747 46.4733 71.5839 48.6397 69.1656C49.8737 67.7931 49.8463 65.7343 50.3674 63.9696C51.2723 60.8651 53.8775 60.9304 56.2085 60.9958C57.9087 61.0611 59.5266 60.8977 61.2269 60.7017C62.5432 60.5383 65.2032 59.8847 65.9985 61.4533C66.876 63.1526 67.1228 65.963 67.5342 67.8911C68.2472 71.0937 67.9181 74.3616 67.8632 77.6295C67.8084 80.8975 67.8907 84.2308 68.0826 87.5314C68.2746 90.832 67.8358 93.9365 67.8084 97.1718C67.8084 99.2306 68.1375 101.257 68.1649 103.283C68.1923 105.603 67.6713 106.355 65.6968 106.485C63.9966 106.583 62.3238 106.289 60.651 106.126C58.4846 105.897 56.2633 105.963 54.0695 105.93C51.4369 105.864 48.6945 105.668 46.0893 106.061C45.2392 106.191 42.4969 107.335 42.0033 106.257C41.6742 105.57 42.2501 103.904 42.2775 103.119C42.305 101.91 42.0033 100.701 41.6468 99.5574C41.2355 98.2829 40.7144 97.0411 40.4676 95.7012C40.1386 93.9038 40.2208 91.9431 40.2208 90.1457C40.2208 86.5837 40.4402 83.0216 40.6047 79.4596C40.7693 75.8975 41.0435 72.3028 40.6047 68.8388C40.4128 67.3682 38.548 67.9891 38.74 69.4597C39.2062 73.0544 38.7948 76.976 38.6303 80.6034C38.4658 84.2308 38.2738 87.9889 38.3012 91.7143C38.3286 94.8842 38.8497 97.2698 39.7821 100.211C40.1386 101.355 40.4128 102.466 40.3031 103.675C40.2208 104.688 39.9466 105.766 40.1386 106.812C40.4676 108.642 41.8936 109.002 43.2648 108.936C45.3764 108.806 47.4057 108.25 49.5447 108.217C54.426 108.119 59.2524 108.544 64.1063 108.838C65.6145 108.936 67.4519 109.002 68.7682 107.923C70.0845 106.845 70.1668 105.015 70.1394 103.348C70.1119 101.028 69.728 98.773 69.8103 96.4528C69.92 92.7927 70.1119 89.2634 69.9748 85.6033C69.8377 81.9432 69.8103 77.9236 69.9474 74.1002C70.0571 70.8649 69.6183 68.2179 68.9327 65.1134C68.5214 63.2833 68.3843 60.7016 67.1228 59.3291C65.9711 58.0873 64.024 58.218 62.598 58.316C60.3768 58.4794 58.2378 58.8063 55.9891 58.7409C53.7404 58.6755 51.4094 58.7409 49.7915 60.767C49.0236 61.7147 48.6123 62.9239 48.338 64.1657C48.0638 65.4075 48.0364 67.0741 47.0217 67.7931C45.2667 69.0349 41.8388 68.0545 39.9466 67.6623C38.7126 67.4009 38.1915 69.6231 39.4256 69.8846L39.3981 69.8192Z" fill="currentColor"/>
    <path d="M50.7513 106.78C50.7513 100.865 50.8335 94.9823 50.8884 89.0674C50.8884 86.2569 50.9706 83.4138 50.8335 80.6034C50.669 77.3682 50.3948 74.1003 50.7513 70.865C50.8061 70.2768 50.0383 70.2768 49.9834 70.865C49.6269 74.0022 49.9012 77.1394 50.0657 80.2766C50.2028 83.2177 50.148 86.1262 50.1205 89.0674C50.0657 94.9823 49.9834 100.865 49.9834 106.78C49.9834 107.368 50.7513 107.368 50.7513 106.78Z" fill="currentColor"/>
    <path d="M49.4349 70.3421C52.6159 71.3879 56.0164 71.4859 59.3072 71.2898C62.406 71.1264 65.6145 70.7343 68.5762 69.5578C69.0424 69.3617 68.8504 68.4794 68.3568 68.6755C65.4499 69.8192 62.3237 70.2114 59.2798 70.3748C56.0713 70.5382 52.7256 70.4728 49.6268 69.4598C49.1332 69.2964 48.9413 70.1787 49.4075 70.3421H49.4349Z" fill="currentColor"/>
    <path d="M4.98218 114.426C5.20156 116.289 5.47579 117.858 6.73725 119.1C7.69706 120.047 8.79397 120.799 9.75378 121.714C10.5765 122.498 11.3992 123.315 12.3316 123.903C14.3609 125.178 16.8563 125.113 19.0776 125.015C21.8199 124.916 24.5622 124.492 27.3045 124.361L26.7286 123.675C26.7561 127.76 31.4728 126.583 33.6393 126.518C36.7655 126.452 40.5773 127.76 43.5664 126.289C44.6359 125.766 44.8004 124.786 44.9375 123.479C45.1569 121.322 45.0747 119.067 44.9375 116.91C44.8553 115.538 44.8553 113.577 44.06 112.466C43.2647 111.355 41.5645 112.139 40.495 112.172C39.7546 112.172 39.7546 113.577 40.495 113.577C41.1257 113.577 41.7565 113.381 42.3872 113.348C43.1825 113.348 43.2647 113.283 43.5115 114.394C43.7858 115.636 43.8132 116.975 43.868 118.217C43.9229 119.786 43.9503 121.354 43.868 122.923C43.7583 124.59 43.4841 125.08 42.0581 125.309C39.5626 125.701 37.0123 125.243 34.5168 125.145C33.036 125.08 27.9901 126.42 27.9901 123.675C27.9901 123.315 27.7159 122.956 27.4142 122.988C23.1911 123.217 18.3921 124.59 14.2512 123.283C12.167 122.629 10.6588 120.537 8.95853 119.165C7.2583 117.792 6.57272 116.975 6.27106 114.459C6.16137 113.577 5.0096 113.577 5.09187 114.459L4.98218 114.426Z" fill="currentColor"/>
    <path d="M6.38076 118.479C8.60202 118.806 10.8507 118.904 13.072 118.904C15.2932 118.904 17.4597 118.969 19.6261 118.74C21.3537 118.544 23.6573 117.858 25.3575 118.577C26.8109 119.23 26.5367 121.975 26.7012 123.446C26.8109 124.328 27.9627 124.328 27.8804 123.446C27.6884 121.747 27.8804 119.492 26.8383 118.119C25.6591 116.551 23.3556 116.91 21.7925 117.074C16.7192 117.629 11.4814 117.825 6.38076 117.074C5.64033 116.975 5.64033 118.348 6.38076 118.479Z" fill="currentColor"/>
    <path d="M31.3632 113.969C31.8294 117.989 31.1986 122.008 31.1986 126.028C31.1986 126.616 31.9665 126.616 31.9665 126.028C31.9665 121.91 32.5972 117.825 32.1036 113.74C32.0487 113.152 31.2809 113.413 31.3632 114.002V113.969Z" fill="currentColor"/>
    <path d="M32.3504 113.969C32.7069 115.962 32.7618 117.956 32.6521 119.982C32.5424 121.877 32.3504 123.74 32.3504 125.635C32.3504 126.224 33.1182 126.224 33.1182 125.635C33.1182 123.675 33.3376 121.747 33.4199 119.786C33.5022 117.825 33.4199 115.734 33.0908 113.708C32.9811 113.119 32.2407 113.381 32.3504 113.969Z" fill="currentColor"/>
    <path d="M11.1249 6.38861C9.94572 10.5716 10.933 15.114 11.9476 19.1989C12.0847 19.7544 12.8526 19.5257 12.688 18.9375C11.7008 15.016 10.7136 10.6369 11.8653 6.61739C12.0299 6.06184 11.262 5.8004 11.1249 6.35595V6.38861Z" fill="currentColor"/>
    <path d="M11.9202 6.12721C12.1122 10.7677 12.551 15.4082 12.9075 20.0486C12.9623 20.6369 13.7302 20.6369 13.6753 20.0486C13.3188 15.4082 12.8801 10.7677 12.6881 6.12721C12.6881 5.53898 11.8928 5.53898 11.9202 6.12721Z" fill="currentColor"/>
    <path d="M13.4011 5.53901C13.785 10.2448 13.7576 14.9506 14.0593 19.6565C14.0867 20.2447 14.882 20.2447 14.8271 19.6565C14.5255 14.9506 14.5529 10.2122 14.169 5.53901C14.1141 4.95078 13.3463 4.95078 13.4011 5.53901Z" fill="currentColor"/>
    <path d="M15.3755 5.53901C15.3755 10.2448 15.4029 14.9506 15.3755 19.6565C15.3755 20.2447 16.1433 20.2447 16.1433 19.6565C16.1708 14.9506 16.1433 10.2448 16.1433 5.53901C16.1433 4.95078 15.3755 4.95078 15.3755 5.53901Z" fill="currentColor"/>
    <path d="M16.3628 5.3429C16.3628 10.1141 16.5548 14.9179 16.8564 19.6564C16.8838 20.2446 17.6791 20.2446 17.6242 19.6564C17.3226 14.8852 17.1306 10.1141 17.1306 5.3429C17.1306 4.75468 16.3628 4.75468 16.3628 5.3429Z" fill="currentColor"/>
    <path d="M18.5018 5.53896C18.1453 10.1794 17.9533 14.9833 18.5018 19.5911C18.5841 20.1793 19.3245 19.9179 19.2422 19.3296C18.6938 14.7872 18.8857 10.0487 19.2422 5.5063C19.2971 4.91807 18.5018 4.91807 18.4744 5.5063L18.5018 5.53896Z" fill="currentColor"/>
    <path d="M20.3117 5.3429C20.3117 10.1141 19.7907 14.8852 19.9827 19.6564C19.9827 20.2446 20.7779 20.2446 20.7505 19.6564C20.5585 14.8852 21.0796 10.1141 21.0796 5.3429C21.0796 4.75468 20.3117 4.75468 20.3117 5.3429Z" fill="currentColor"/>
    <path d="M22.1216 5.14685C21.628 9.91803 22.0667 14.7872 21.4634 19.5584C21.3812 20.1466 22.149 20.4081 22.2038 19.8198C22.8072 14.9833 22.3684 10.0487 22.8894 5.17951C22.9443 4.59129 22.1764 4.59129 22.1216 5.17951V5.14685Z" fill="currentColor"/>
    <path d="M23.4653 5.3429C23.9315 10.1468 23.9589 15.0487 23.9589 19.8525C23.9589 20.4408 24.7268 20.4408 24.7268 19.8525C24.7268 15.016 24.6994 10.1468 24.2332 5.3429C24.1783 4.75468 23.4105 4.75468 23.4653 5.3429Z" fill="currentColor"/>
    <path d="M25.4398 5.14686C25.3575 9.9834 25.4398 14.8199 25.4398 19.6564C25.4398 20.2447 26.2076 20.2447 26.2076 19.6564C26.2076 14.8199 26.1253 9.9834 26.2076 5.14686C26.2076 4.55863 25.4398 4.55863 25.4398 5.14686Z" fill="currentColor"/>
    <path d="M27.0852 4.95069C26.8658 9.91795 27.0852 14.8853 27.0852 19.8525C27.0852 20.4407 27.853 20.4407 27.853 19.8525C27.853 14.8853 27.6337 9.88527 27.853 4.95069C27.8805 4.36246 27.1126 4.36246 27.0852 4.95069Z" fill="currentColor"/>
    <path d="M28.5659 5.14686C28.5659 10.0488 28.9499 14.9833 28.5659 19.8526C28.5111 20.4408 29.3064 20.4408 29.3338 19.8526C29.7177 14.9507 29.3338 10.0161 29.3338 5.14686C29.3338 4.55863 28.5659 4.55863 28.5659 5.14686Z" fill="currentColor"/>
    <path d="M30.7051 4.75465C30.1566 9.75458 30.376 14.8526 30.376 19.8525C30.376 20.4408 31.1438 20.4408 31.1438 19.8525C31.1438 14.8199 30.9244 9.7219 31.4729 4.75465C31.5277 4.16642 30.7599 4.16642 30.7051 4.75465Z" fill="currentColor"/>
    <path d="M31.6923 4.95069C31.6923 9.78723 32.0213 14.6238 32.0213 19.4603C32.0213 20.0485 32.7892 20.0485 32.7892 19.4603C32.7892 14.6238 32.4601 9.78723 32.4601 4.95069C32.4601 4.36246 31.6923 4.36246 31.6923 4.95069Z" fill="currentColor"/>
    <path d="M33.0085 5.3429C33.365 9.81997 33.3376 14.3624 33.3376 18.8721C33.3376 19.4604 34.1055 19.4604 34.1055 18.8721C34.1055 14.3624 34.1329 9.81997 33.7764 5.3429C33.7215 4.75468 32.9537 4.75468 33.0085 5.3429Z" fill="currentColor"/>
    <path d="M32.9537 32.2054C32.9537 29.3296 33.6118 26.4538 33.4473 23.578C33.4198 22.9898 32.6246 22.9898 32.6794 23.578C32.8439 26.4865 32.1858 29.3296 32.1858 32.2054C32.1858 32.7936 32.9537 32.7936 32.9537 32.2054Z" fill="currentColor"/>
    <path d="M31.6373 31.6171C31.8019 28.0877 31.3083 24.5584 31.4728 21.029C31.4728 20.4408 30.7324 20.4408 30.705 21.029C30.5404 24.5584 31.034 28.0877 30.8695 31.6171C30.8695 32.2053 31.6099 32.2053 31.6373 31.6171Z" fill="currentColor"/>
    <path d="M29.4984 31.0289C29.4984 27.6956 29.663 24.3623 29.663 21.029C29.663 20.4408 28.8951 20.4408 28.8951 21.029C28.8951 24.3623 28.7306 27.6956 28.7306 31.0289C28.7306 31.6171 29.4984 31.6171 29.4984 31.0289Z" fill="currentColor"/>
    <path d="M27.6885 30.8328C27.6885 27.5649 27.853 24.2643 27.5239 21.029C27.4691 20.4408 26.6738 20.4408 26.7561 21.029C27.0852 24.2969 26.9206 27.5649 26.9206 30.8328C26.9206 31.421 27.6885 31.421 27.6885 30.8328Z" fill="currentColor"/>
    <path d="M25.6866 30.5386C25.193 27.4994 25.3576 24.3296 25.3576 21.2577C25.3576 20.6695 24.5897 20.6695 24.5897 21.2577C24.5897 24.4276 24.4252 27.6628 24.9462 30.8001C25.0285 31.3883 25.7963 31.1268 25.6866 30.5386Z" fill="currentColor"/>
    <path d="M23.2186 30.5714C23.7122 27.3688 23.8767 24.1008 23.9042 20.8329C23.9042 20.2447 23.1363 20.2447 23.1363 20.8329C23.1363 24.0028 22.9718 27.2054 22.4782 30.3099C22.3959 30.8982 23.1363 31.1269 23.2186 30.5714Z" fill="currentColor"/>
    <path d="M21.2715 30.8328C21.628 27.6629 21.4635 24.395 21.107 21.2251C21.0521 20.6369 20.2568 20.6369 20.3391 21.2251C20.6956 24.395 20.8601 27.6629 20.5036 30.8328C20.4488 31.4211 21.2166 31.4211 21.2715 30.8328Z" fill="currentColor"/>
    <path d="M19.4615 30.8328C19.5712 29.1008 19.7083 27.4014 19.7632 25.6694C19.818 23.9374 19.7632 22.2708 19.297 20.7022C19.1325 20.1466 18.3646 20.3754 18.5566 20.9636C19.0502 22.4995 19.0228 24.2315 18.9953 25.8328C18.9679 27.4341 18.8034 29.1661 18.7211 30.8328C18.6937 31.421 19.4615 31.421 19.489 30.8328H19.4615Z" fill="currentColor"/>
    <path d="M17.8162 31.6171C18.0081 28.1204 18.1178 24.5583 17.6242 21.0943C17.542 20.5061 16.8015 20.7675 16.8838 21.3558C17.35 24.7217 17.2129 28.2511 17.0483 31.6171C17.0209 32.2053 17.7888 32.2053 17.8162 31.6171Z" fill="currentColor"/>
    <path d="M16.1708 31.8131C16.1708 28.2511 16.5821 24.6237 16.1708 21.0943C16.0885 20.5061 15.3481 20.7675 15.4303 21.3558C15.6497 23.1204 15.5674 24.9832 15.54 26.7479C15.5126 28.5126 15.4303 30.1465 15.4303 31.8131C15.4303 32.4014 16.1982 32.4014 16.1982 31.8131H16.1708Z" fill="currentColor"/>
    <path d="M15.0191 32.2054C15.3756 28.5453 14.8545 24.8852 14.8545 21.2251C14.8545 20.6369 14.0867 20.6369 14.0867 21.2251C14.0867 24.8852 14.6077 28.5453 14.2512 32.2054C14.1964 32.7936 14.9642 32.7936 15.0191 32.2054Z" fill="currentColor"/>
    <path d="M3.7482 55.0481C11.3718 55.1788 18.8583 52.7932 26.4819 52.6952C29.1419 52.6625 31.802 52.2704 34.4894 52.107C37.314 51.9436 40.5225 51.7802 43.1002 53.4141C43.539 53.7083 43.9229 52.8913 43.4842 52.6299C38.7126 49.558 32.4875 51.6168 27.3868 51.7802C19.489 52.0416 11.6734 54.2638 3.77561 54.1331C3.28199 54.1331 3.28199 55.0481 3.77561 55.0481H3.7482Z" fill="currentColor"/>
    <path d="M55.1389 107.172C55.2211 108.087 55.1663 108.904 55.0017 109.819L56.6197 109.296C55.2486 107.727 53.2193 106.42 51.711 108.512C50.3398 110.407 50.2027 113.544 50.093 115.897C49.7365 123.185 51.2722 130.211 56.3181 134.916C59.6088 137.988 63.1738 138.544 67.2324 138.609C69.9747 138.642 72.717 138.707 75.4045 139.459C77.0499 139.916 78.7227 141.093 80.4503 141.027C81.9038 140.995 83.0555 139.72 83.412 138.054C83.604 137.237 83.4669 136.42 83.2201 135.635C82.8087 134.296 82.699 133.642 83.4394 132.4C85.4962 128.871 85.4413 123.642 83.3846 120.113C80.9988 116.028 76.8579 114.198 72.9638 113.054C70.4135 112.302 67.7809 112.172 65.2305 111.518C64.7369 111.387 64.0513 111.322 63.9142 110.832C63.7223 110.211 64.3256 108.642 64.4627 108.054C64.7644 106.616 62.8996 105.995 62.5979 107.433C62.1592 109.459 61.2542 112.041 63.2835 113.25C64.545 113.969 66.1081 114.034 67.4518 114.263C69.6182 114.59 71.7298 115.047 73.8139 115.734C76.9402 116.779 80.3406 118.446 82.0683 121.943C83.0007 123.838 83.1926 126.191 82.8361 128.315C82.5345 130.276 81.1359 131.55 80.8617 133.479C80.6697 134.949 82.0409 136.975 81.2182 138.152C80.2584 139.59 77.6532 137.792 76.5014 137.4C72.2783 136.028 68.0003 136.648 63.7223 136.158C57.3876 135.439 52.424 128.283 52.0401 120.93C51.903 118.315 51.903 115.57 52.2869 112.956C52.424 112.106 52.5885 110.57 53.1918 109.949C53.9323 109.23 54.7001 110.244 55.2486 110.897C55.7422 111.485 56.702 111.257 56.8665 110.374C57.0585 109.296 57.1682 108.25 57.0585 107.106C56.9214 105.636 54.9743 105.636 55.1114 107.106L55.1389 107.172Z" fill="currentColor"/>
    <path d="M57.1134 120.832C55.7148 121.06 55.0018 122.792 54.6453 124.23C54.2614 125.799 54.1243 127.76 54.7825 129.263C55.468 130.864 57.1957 131.06 58.3749 130.047C59.1701 129.328 59.6363 128.184 59.938 127.073C60.2396 125.962 60.3493 124.622 60.1574 123.446C59.9654 122.27 59.1701 120.962 58.1281 120.57C56.7295 120.08 55.5503 121.387 54.8373 122.629C54.5631 123.119 55.2212 123.577 55.4954 123.086C56.0165 122.171 56.894 121.093 57.9087 121.453C58.6491 121.714 59.1976 122.629 59.3621 123.511C59.5541 124.459 59.4444 125.537 59.2524 126.485C59.0604 127.433 58.704 128.413 58.1006 129.099C57.6893 129.557 57.0037 129.851 56.4553 129.753C55.9891 129.688 55.6874 129.361 55.468 128.903C54.9196 127.76 55.0293 126.158 55.2486 124.917C55.3858 124.165 55.6326 123.413 55.9891 122.76C56.1262 122.531 56.3181 122.237 56.4827 122.073C56.6746 121.91 56.894 121.779 57.0586 121.747C57.5522 121.681 57.5522 120.734 57.0586 120.832H57.1134Z" fill="currentColor"/>
    <path d="M75.3497 121.943C73.8689 122.858 72.9365 124.917 72.6074 126.779C72.3057 128.479 72.4154 130.766 73.9785 131.518C74.8012 131.91 75.8433 131.779 76.6386 131.42C77.4338 131.06 78.092 130.341 78.4759 129.426C79.2438 127.662 79.1066 125.439 78.3662 123.707C78.0097 122.825 77.4064 122.041 76.6386 121.714C75.7885 121.354 74.9109 121.681 74.1979 122.269C73.7866 122.629 74.1979 123.413 74.5819 123.054C75.0755 122.629 75.6788 122.302 76.2546 122.498C76.7757 122.662 77.187 123.184 77.4887 123.74C78.2017 125.113 78.3936 126.943 77.9549 128.479C77.4887 130.112 76.0078 131.158 74.5544 130.766C73.2655 130.439 73.101 128.707 73.2655 127.4C73.5123 125.635 74.3076 123.609 75.7062 122.727C76.145 122.466 75.761 121.649 75.3223 121.943H75.3497Z" fill="currentColor"/>
    <path d="M66.3275 118.675C65.9162 118.675 65.5048 118.806 65.1209 118.969C64.6547 119.198 64.216 119.459 63.8595 119.851C63.5304 120.178 63.2287 120.603 63.1465 121.126C63.0368 121.747 63.2287 122.302 63.5578 122.76C63.8046 123.119 64.1611 123.381 64.545 123.413C64.9015 123.446 65.2581 123.315 65.5597 123.119C66.1904 122.694 66.684 121.91 66.8486 121.093C66.9308 120.57 66.9034 120.047 66.684 119.59C66.4098 119.034 65.9436 118.708 65.45 118.479C65.258 118.381 65.0112 118.577 64.9838 118.806C64.929 119.067 65.0661 119.296 65.2581 119.361C65.2855 119.361 65.3129 119.361 65.3403 119.394C65.3403 119.394 65.4226 119.426 65.3677 119.394C65.3677 119.394 65.45 119.426 65.4774 119.459C65.5597 119.525 65.642 119.557 65.7242 119.623C65.7242 119.623 65.7517 119.623 65.7791 119.655C65.8065 119.688 65.8339 119.721 65.8614 119.753C65.8614 119.753 65.9162 119.819 65.9436 119.851C65.9436 119.851 65.9436 119.851 65.971 119.884C65.9985 119.949 66.0259 120.015 66.0807 120.113C66.0533 120.015 66.0807 120.178 66.0807 120.113C66.0807 120.113 66.0807 120.145 66.0807 120.178C66.0807 120.211 66.0807 120.276 66.1082 120.309C66.1082 120.341 66.1082 120.374 66.1082 120.407C66.1082 120.505 66.1082 120.57 66.1082 120.668C66.1082 120.636 66.1082 120.799 66.1082 120.668C66.1082 120.701 66.1082 120.734 66.1082 120.766C66.1082 120.864 66.0807 120.93 66.0533 121.028C66.0533 121.06 66.0533 121.126 66.0259 121.158C65.9985 121.257 65.9436 121.322 65.9162 121.42C65.8888 121.485 65.8339 121.551 65.8065 121.616C65.8065 121.616 65.8065 121.649 65.7791 121.681C65.7791 121.714 65.7242 121.747 65.6968 121.779C65.642 121.845 65.5871 121.91 65.5597 121.943C65.5597 121.943 65.5048 122.008 65.4774 122.008C65.3951 122.073 65.5323 121.975 65.45 122.041C65.3952 122.106 65.3403 122.139 65.2581 122.172C65.2581 122.172 65.2032 122.204 65.1758 122.237C65.1484 122.237 65.0387 122.302 65.1484 122.237C65.0935 122.237 65.0112 122.302 64.9564 122.302C64.929 122.302 64.9016 122.302 64.8741 122.302C64.7644 122.302 64.9564 122.302 64.8741 122.302C64.8193 122.302 64.737 122.302 64.6822 122.302C64.6273 122.302 64.7919 122.302 64.6822 122.302C64.6547 122.302 64.5999 122.302 64.5725 122.302C64.4902 122.27 64.5176 122.302 64.5725 122.302C64.5451 122.302 64.5176 122.27 64.4902 122.237C64.4628 122.204 64.4353 122.204 64.4079 122.172C64.4079 122.172 64.3805 122.139 64.3531 122.106C64.2982 122.041 64.2434 121.975 64.1886 121.91C64.1886 121.91 64.1611 121.877 64.1337 121.845C64.0788 121.779 64.1885 121.943 64.1337 121.845C64.1063 121.779 64.0789 121.747 64.0514 121.681C64.0514 121.681 63.9966 121.518 64.0514 121.616C64.0514 121.583 64.0514 121.518 64.024 121.485C64.024 121.485 64.024 121.42 64.024 121.387C64.024 121.453 64.024 121.387 64.024 121.355V121.289V121.224C64.024 121.191 64.024 121.126 64.024 121.093C64.024 121.093 64.0788 120.93 64.024 120.995C64.024 120.995 64.024 120.93 64.0514 120.897C64.0514 120.864 64.1063 120.799 64.1063 120.766C64.1063 120.766 64.1885 120.636 64.1063 120.734C64.1611 120.636 64.2434 120.57 64.2982 120.472C64.3257 120.44 64.3805 120.374 64.4079 120.342C64.4079 120.342 64.4354 120.341 64.4628 120.309C64.4628 120.309 64.4628 120.309 64.4902 120.276C64.5725 120.211 64.6822 120.113 64.7644 120.047C64.8467 119.982 64.9564 119.917 65.0661 119.851C65.1209 119.851 65.1758 119.786 65.2306 119.753C65.2306 119.753 65.258 119.753 65.2855 119.753C65.2855 119.753 65.3129 119.753 65.3403 119.753C65.5323 119.655 65.7242 119.59 65.9436 119.525C65.9985 119.525 66.0259 119.524 66.0807 119.492C66.0807 119.492 66.1082 119.492 66.1356 119.492C66.1356 119.492 66.2453 119.492 66.1904 119.492C66.1904 119.492 66.2453 119.492 66.2727 119.492C66.3275 119.492 66.355 119.492 66.4098 119.492C66.9034 119.492 66.9034 118.577 66.4098 118.577L66.3275 118.675Z" fill="currentColor"/>
    <path d="M65.3951 125.962C64.4901 126.42 63.7772 127.433 63.3658 128.479C62.9545 129.459 62.6528 130.766 63.311 131.681C63.9691 132.596 65.4774 132.531 66.2726 131.812C67.0953 131.06 67.1228 129.753 66.876 128.642C66.5743 127.4 65.9436 126.126 65.066 125.407C64.6547 125.08 64.2708 125.864 64.6821 126.191C64.7918 126.289 64.9015 126.387 65.0386 126.55C65.1757 126.714 65.2854 126.877 65.3951 127.041C65.6419 127.433 65.8339 127.89 65.9984 128.315C66.163 128.74 66.2726 129.23 66.2726 129.688C66.2726 130.145 66.2727 130.472 66.0533 130.799C65.9984 130.897 65.8613 131.028 65.7516 131.126C65.5871 131.256 65.3951 131.322 65.1757 131.354C64.7918 131.42 64.3256 131.354 64.024 131.126C63.9691 131.06 63.8594 130.929 63.832 130.831C63.7771 130.701 63.7497 130.505 63.7497 130.374C63.7497 129.982 63.832 129.557 63.9691 129.165C64.1611 128.642 64.4079 128.152 64.7095 127.727C64.8466 127.531 65.0112 127.335 65.2031 127.139C65.2306 127.139 65.3403 127.008 65.4225 126.975C65.4774 126.943 65.5048 126.91 65.5597 126.877C65.5597 126.877 65.6968 126.812 65.6419 126.845C65.8339 126.747 65.971 126.55 65.9161 126.289C65.8613 126.06 65.6419 125.864 65.45 125.962H65.3951Z" fill="currentColor"/>
    <path d="M13.2366 33.7085C16.5547 32.8262 19.9278 32.1399 23.3282 31.9112C26.7287 31.6824 30.184 31.7478 33.2554 33.4144C34.3797 34.0354 35.3669 32.0419 34.2426 31.421C30.9518 29.6236 27.2223 29.3622 23.6573 29.591C20.0923 29.8197 16.3354 30.5713 12.7429 31.519C11.5089 31.8458 12.03 34.068 13.264 33.7413L13.2366 33.7085Z" fill="currentColor"/>
    <path d="M62.3786 110.505C62.3786 114.884 61.6931 119.198 61.1994 123.511C60.7058 127.825 60.7058 131.877 60.2122 136.028C60.1299 136.616 60.8978 136.877 60.9526 136.289C61.4737 131.975 61.4737 127.629 61.9947 123.283C62.5158 118.936 63.1191 114.819 63.1465 110.505C63.1465 109.917 62.3786 109.917 62.3786 110.505Z" fill="currentColor"/>
    <path d="M74.1706 131.518C75.5143 131.681 76.7757 131.191 77.571 129.851C78.284 128.642 78.476 127.073 78.3937 125.636C78.3389 124.753 78.2017 123.904 77.9549 123.087C77.7904 122.531 77.0226 122.76 77.2145 123.348C77.7081 124.917 77.8452 126.747 77.3791 128.348C77.1871 129.034 76.8306 129.72 76.3096 130.113C75.6788 130.603 74.9384 130.701 74.198 130.603C73.7044 130.537 73.7044 131.452 74.198 131.518H74.1706Z" fill="currentColor"/>
    <path d="M55.0841 129.622C55.6874 129.982 56.3455 130.211 57.0037 130.08C57.5521 129.982 58.0183 129.655 58.4022 129.198C59.2524 128.185 59.6088 126.681 59.8282 125.309C59.9379 124.524 59.9928 123.74 60.0202 122.956C60.0202 122.368 59.2523 122.368 59.2523 122.956C59.2523 124.198 59.1152 125.439 58.7862 126.616C58.5119 127.629 58.0183 128.773 57.1682 129.1C56.6197 129.296 56.0439 129.1 55.5228 128.805C55.084 128.544 54.6727 129.328 55.1389 129.59L55.0841 129.622Z" fill="currentColor"/>
    <path d="M39.1512 94.4921C35.3669 94.296 32.8439 97.5313 31.8841 101.649C31.6373 102.695 31.6373 103.773 31.6099 104.819C31.5276 106.485 31.4728 108.152 31.4454 109.819C31.418 110.995 31.2534 112.335 31.4454 113.511C31.5277 114.1 32.2955 113.838 32.1858 113.25C32.0213 112.27 32.1858 110.472 32.2407 109.263C32.2955 107.433 32.3503 105.603 32.4326 103.773C32.5149 102.041 32.8714 100.505 33.6941 98.9365C34.9007 96.5509 36.8477 95.3091 39.1787 95.4071C39.6723 95.4071 39.6723 94.4921 39.1787 94.4921H39.1512Z" fill="currentColor"/>
    <path d="M32.9536 112.727C33.2553 109.427 33.0907 105.995 33.7489 102.727C34.0506 101.257 34.5442 99.8189 35.4491 98.7405C36.5186 97.4333 37.9995 96.8124 39.5078 96.551C40.0014 96.4529 39.782 95.5706 39.2884 95.6686C37.7527 95.9627 36.2444 96.5836 35.0926 97.8581C34.1054 98.9692 33.4747 100.44 33.1182 101.976C32.2955 105.44 32.5423 109.165 32.1858 112.727C32.1309 113.315 32.8988 113.315 32.9536 112.727Z" fill="currentColor"/>
    <path d="M10.2749 46.8783C14.4158 46.6822 18.4744 45.277 22.533 44.4273C26.8932 43.545 31.802 42.9241 35.7509 45.7672C36.1896 46.0613 36.5736 45.277 36.1348 44.9828C32.4327 42.3358 27.9627 42.5319 23.8493 43.2508C19.3245 44.0352 14.8545 45.7345 10.2749 45.9632C9.78126 45.9632 9.78126 46.9109 10.2749 46.8783Z" fill="currentColor"/>
</svg>
