<svg version="1.1" id="Ebene_1"
	xmlns="http://www.w3.org/2000/svg"
	xmlns:xlink="http://www.w3.org/1999/xlink" x="0px" y="0px" width="566.93px" height="566.93px" viewBox="0 0 566.93 566.93" enable-background="new 0 0 566.93 566.93" xml:space="preserve">
	<g>
		<g>
			<path fill="currentColor" d="M306.107,464.936c-1.971-3.406-3.9-4.842-7.74-4.834c-3.84,0.011-5.41-0.72-8.182-4.205    c-2.83-3.557,0.271-10.792,7.457-10.836c1.957-0.012,3.969,0.545,5.82-0.548c0.891-0.526,1.584-1.257,1.637-2.316    c0.053-1.069-0.521-1.864-1.518-2.276c-5.436-2.236-14.359,0.797-17.672,5.739c-3.167,4.73-5.972,10.176,0.539,15.082    c0.305,0.229,0.477,0.981,0.357,1.383c-1.713,5.836,2.939,9.002,5.422,13.077c2.428,3.991,5.752,4.886,9.496,3.242    c2.098-0.922,1.74-3.121,3.479-0.603c1,1.456,2.309,3.062,4.174,1.532c1.854-1.516,0.982-3.666,0.316-5.526    C308.611,470.836,307.766,467.791,306.107,464.936z M291.955,465.488c7.783-1.505,13.186,1.524,6.316,7.95    C295.203,471.61,293.246,467.612,291.955,465.488z"/>
			<path fill="currentColor" d="M261.972,446.852c0.028-8.553-4.737-13.566-13.279-14.316c-3.353-0.294-6.871,0.352-9.87-2.318    c-1.784-1.586-3.669-0.041-3.586,1.895c0.229,5.401-1.369,10.754,0.343,16.243c1.492,4.776,3.466,9.681,0.505,14.935    c-1.803,3.199,0.766,4.564,3.598,4.572c4.552,0.007,8.684-1.878,12.762-3.644c5.917-2.558,10.021-6.5,9.257-13.268    C261.813,449.331,261.968,448.093,261.972,446.852z M256.662,449.097c-0.335,5.689-4.733,11.343-11.802,12.354    c-2.506,0.357-2.241-1.061-2.221-2.461c0.061-4.462-0.912-8.708-2.119-12.985c-0.839-2.969-1.789-6.482,1.373-8.745    c2.065-1.48,10.525,0.844,12.188,2.843C256.417,442.911,257,443.407,256.662,449.097z"/>
			<path fill="currentColor" d="M189.768,457.202c-2.472-2.739-4.155-6.101-7.738-8.815c5.839-3.012,8.533-8.854,6.989-14.435    c-1.313-4.749-5.602-2.926-8.714-3.527c-3.195-0.614-7.249,0.613-7.71-4.694c-0.129-1.481-1.569-2.551-3.356-1.896    c-1.644,0.603-2.171,2.088-1.972,3.61c1.002,7.688-0.564,15.286-0.651,22.933c-0.019,1.552,0.087,3.23,1.913,3.459    c1.691,0.208,2.649-1.064,2.833-2.743c0.47-4.265,2.284-2.412,4.296-1.091c4.227,2.785,7.08,6.82,10.158,10.662    c1.183,1.48,2.128,4.045,4.498,2.261C192.71,461.122,191.312,458.91,189.768,457.202z M178.236,441.765    c-2.459-0.26-6.395,0.347-5.844-3.966c0.546-4.273,4.023-2.501,6.384-2.461c2.248,0.032,5.307-0.479,5.108,3.408    C183.654,443.286,180.695,442.025,178.236,441.765z"/>
			<path fill="currentColor" d="M337.338,444.212c-0.996-5.811-3.791-7.244-9.65-5.913c-2.609,0.593-4.98,2.451-7.84,1.687    c-3.342-0.892-4.211,1.284-3.945,3.647c0.83,7.355,0.586,14.885,3.32,21.967c0.541,1.388,0.596,3.134,2.543,3.106    c1.877-0.024,2.592-1.56,2.428-3.1c-0.652-6.117,4.436-4.027,7.096-4.729c4.191-1.104,3.006,2.572,3.414,4.76    c0.178,0.958,0.529,1.911,0.957,2.788c0.594,1.214,1.59,1.926,3.002,1.499c1.4-0.423,1.783-1.55,1.551-2.877    C339.285,459.433,338.635,451.767,337.338,444.212z M326.055,455.898c-4.836,0.224-4.281-3.403-4.215-6.648    c0.064-3.179,3.592-6.209,7.619-5.868c4.264,0.36,3.359,4.133,3.416,6.817C332.967,454.671,331.035,456.189,326.055,455.898z"/>
			<path fill="currentColor" d="M142.098,420.665c-0.729-0.091-1.465-0.28-2.182-0.224c-1.376,0.113-2.431,0.889-2.351,2.319    c0.441,7.955-1.006,15.593-3.58,23.08c-0.405,1.178-0.182,2.534,1.161,3.158c1.303,0.605,2.51,0.12,3.153-1.071    c1.049-1.942,1.991-3.959,2.804-6.012c1.094-2.766,3.256-2.515,5.545-2.274c2.857,0.297,2.745,2.292,2.628,4.34    c-0.071,1.232-0.135,2.465-0.185,3.697c-0.058,1.386,0.541,2.554,1.841,2.864c1.765,0.414,2.939-0.751,3.118-2.352    c0.414-3.666,0.555-7.362,0.807-11.049C155.335,420.004,158.904,422.787,142.098,420.665z M145.885,434.432    c-2.24-0.216-3.763-0.751-3.28-3.533c0.449-2.58,0.164-4.644,4.021-4.196s3.731,1.87,3.604,4.365    C150.076,434.06,148.483,434.681,145.885,434.432z"/>
			<path fill="currentColor" d="M368.047,434.05c-1.195,0.099-1.838,1.064-1.832,1.989c0.012,2.215,0.336,4.424,0.525,6.637    c0.307,3.594,2.363,7.019,1.127,11.272c-4.697-3.188-7.418-7.585-10.361-11.803c-1.174-1.684-2.762-3.185-4.984-2.067    c-1.906,0.962-1.418,2.998-1.197,4.674c0.551,4.162,1.383,8.352,2.447,12.336c0.691,2.586-1.615,8.871,3.928,7.509    c4.703-1.154,1.072-5.727,0.455-9.521c4.561,0.537,6.127,4.279,9.17,5.791c2.76,1.371,4.867,1.425,5.631-1.998    c1.799-8.068-0.793-15.712-2.562-23.41C370.182,434.53,369.15,433.954,368.047,434.05z"/>
			<path fill="currentColor" d="M211.115,430.925c-0.416-1.396-1.52-2.672-3.362-2.148c-1.333,0.381-2.238,1.557-1.997,2.785    c0.979,4.969-1.84,8.388-4.355,12.065c-1.818,2.665-3.237,6.738-3.527,8.672c-0.29,1.935-0.551,3.964,1.663,4.644    c1.838,0.564,2.625-0.825,3.037-2.369c0.354-1.324,1.06-1.953,2.531-2.176c7.53-1.135,11.556,1.259,14.007,8.828    c0.495,1.525,0.894,3.174,2.545,3.122c2.092-0.068,2.537-1.926,2.699-3.771c0.136-1.568-0.472-2.883-1.025-4.27    C219.851,447.562,213.825,440.051,211.115,430.925z M209.738,447.921c-1.28-0.224-3.366,0.437-3.474-1.586    c-0.094-1.802,1.539-3.424,3.058-3.636c2.103-0.291,2.333,1.897,2.767,3.501C212.525,447.803,210.91,448.125,209.738,447.921z"/>
			<path fill="currentColor" d="M406.684,448.892c0.115-0.967-0.105-1.975-0.174-2.966c-0.285-4.419-3.381-5.008-6.854-4.926    c-3.855,0.087-6.299,1.512-5.137,5.973c0.459,0.687,1.932,0.353,2.906,0.438c1.533,0.134,3.1,0.311,3.146,2.27    c0.029,1.169-0.037,2.607-1.32,3.201c-1.729,0.798-2.783-0.588-3.656-1.675c-1.057-1.319-1.811-2.88-2.693-4.336    c-3.961-5.985-3.582-10.061,1.66-16.196c1.025-1.196,2.131-2.241,0.9-3.787c-1.145-1.437-2.756-1.179-4.012-0.343    c-2.693,1.794-4.938,3.858-5.639,7.415c-1.602,8.161,0.117,15.135,6.174,21.01c3.031,2.938,11.584,4.936,14.939,2.652    C410.875,454.932,406.336,451.855,406.684,448.892z"/>
			<path fill="currentColor" d="M125.809,416.032c-2.807-1.158-10.874-1.31-11.741-1.694c-5.028-2.238-6.763,0.576-7.517,4.826    c-1.299,7.311-2.57,14.63-3.733,21.964c-0.292,1.846-0.964,4.406,1.946,4.683c2.193,0.205,2.661-1.966,2.831-3.71    c0.529-5.428,3.521-5.871,7.754-3.993c1.804,0.805,3.556,1.746,5.414,2.393c1.438,0.505,3.121,0.515,3.917-1.068    c0.816-1.624-0.199-2.701-1.625-3.582c-2.777-1.71-5.645-3.267-8.924-3.531c-5.414-0.437-3.554-4.319-3.519-7.228    c0.039-3.419,1.354-5.835,5.39-5.276c2.938,0.404,5.859,0.929,8.804,1.285c1.303,0.155,2.515-0.316,2.988-1.68    C128.428,417.596,127.246,416.624,125.809,416.032z"/>
		</g>
		<path fill="currentColor" d="M297.949,90.817c1.605-1.137,4.055,1.95,5.461,2.949c0.592,0.419,1.268,0.774,1.943,1.073   c3.15,1.4,5.498-0.248,5.021-3.05c-1.344-7.901-0.82-15.771-0.787-23.667c0.006-1.414-0.879-2.308-2.316-2.291   c-1.047,0.011-1.961,0.684-2.176,1.696c-0.352,1.684-0.572,3.419-0.625,5.14c-0.105,3.461-0.084,6.928-0.072,10.393   c0.012,2.544-0.023,5.028-3.367,2.15c-0.469-0.404-1.195-0.939-2.154-1.562c-4.373-2.835-7.084-1.25-7.209,4.422   c-0.076,3.44-0.16,6.308,0.398,10.352c0.412,2.985,0.541,4.259-3.232,4.842c-3.848,0.595-4.615,2.608-1.77,5.396   c4.93,4.832,10.355,9.172,14.633,14.643c2.412,3.082,5.959,1.615,5.922-0.647c-0.041-2.262-0.07-3.98-0.102-5.971   c-0.125-2.959,0.303-6.283-0.045-9.113c-0.467-3.833-1.373-5.467-5.148-5.38c-4.438,0.103-4.707-0.311-5.111-3.831   C296.912,95.764,295.723,92.393,297.949,90.817z M299.99,107.205c4.041,0.342,2.773,3.549,2.211,5.445   c-0.762,2.573-2.617,1.036-3.979,0.114c-1.426-0.97-2.805-2.018-4.201-3.031C292.232,108.304,298.648,107.09,299.99,107.205z"/>
		<path fill="currentColor" d="M418.34,297.621c-3.562-14.185-11.348-25.059-26.359-29.531c-5.379-1.603-10.303-2.574-15.943-1.089   c-4.934,1.301-8.604,3.841-14.51,3.694c-3.127-11.251-6.582-24.175-4.963-35.81c3.385,0.489,5.801,1.077,8.236,1.147   c8.309,0.242,12.348-3.797,12.389-12.134c0.018-3.239-0.16-6.436-1.135-9.574c-2.336-7.501-5.918-9.517-12.715-5.886   c-5.324,2.845-10.707,3.562-16.498,3.388c-4.717-0.141-9.443-0.125-14.158,0c-5.838,0.156-7.791,1.401-8.678,5.144   c-1.461,6.193-0.02,11.784,4.391,13.579c3.309,1.347,4.93,3.888,6.025,5.362c4.982,3.04,9.006,0.219,13.57,0.316   c-0.176,12.089,3.705,23.332,6.111,35.555c-12.955,0.653-17.072,9.391-25.781,13.283c-25.775-10.624-54.573-12.734-80.743-25.185   c-9.284-10.37-17.168-22.772-27.88-32.696c1.872-7.098,6.53-14.245,6.646-13.804c3.519,13.362,10.884,19.905,24.596,19.854   c2.205-0.008,3.935-0.687,4.4-3.08c0.398-2.039-0.698-3.494-2.432-4.104c-2.318-0.817-4.762-1.357-7.192-1.763   c-7.195-1.206-10.809-4.585-11.077-11.634c-0.207-5.403-0.373-13.264,0.466-15.879c0.838-2.615,17.02-14.247,29.634-12.145   c2.609,0.434,4.636-0.163,5.344-0.373c2.53-0.753,4.048-2.562,1.305-4.853c-4.014-3.278-20.303-3.789-26.794,1.417   c-5.505,4.416-11.839,3.482-17.095,8.014c-5.255,4.532-6.77,10.067-7.696,16.137c-0.457,2.983-1.763,5.657-3.078,8.348   c-6.774,13.859-12.666,28.032-14.894,43.451c-0.35,2.418-1.008,4.667-2.572,6.528c-3.343-0.954-5.172-3.523-7.694-5.054   c-2.104-1.276-3.929-3.173-6.594-3.206c-14.486-0.177-28.39,1.652-38.936,13.015c-1.289,1.388-3.242,4.022-3.486,4.315   c-0.246,0.292-2.487-0.171-3.314,0.683c-0.972,1.004-0.962,2.625,0.02,3.622c-0.277,0.523-1.402,2.149-2.034,2.897   c-9.004,10.664-8.262,22.199-1.516,33.468c2.931,4.896,6.66,9.486,8.644,14.736c3.539,9.361,9.733,16.193,18.072,20.965   c8.411,4.816,17.486,6.965,26.858,2.197c4.236-2.16,8.717-3.814,13.332-4.471c12.181-1.727,21.604-8.289,30.228-16.365   c3.433-3.215,5.021-7.211,4.195-12.107c-0.779-4.631-1.268-10.029-1.846-14.801c0.862-0.955,2.988-1.375,2.33-3.445   c-1.184-2.57-3.868-2.986-5.889-3.197c-6.136-11.268-16.036-19.676-24.47-30.021c4.034-9.653,2.925-21.123,8.792-30.864   c3.646,1.412,5.592,3.931,7.51,6.534c2.353,3.194,4.582,6.524,7.275,9.413c10.748,11.536,14.375,24.436,24.562,36.28   c1.237,1.439,3.177,4.947,3.733,7.525c2.23,10.352,7.959,15.006,14.882,22.475c6.705,7.234,14.604,12.641,25.208,12.434   c3.412-0.068,6.922-0.367,10.959,0.787c0.66,7.748,2.621,14.65,4.357,21.631c1.182,4.752,3.48,8.127,7.586,10.406   c12.18,6.764,24.904,12.303,38.395,15.793c5.902,1.527,11.914,0.58,17.318-2.447c2.396-1.342,4.881-2.361,7.367-3.465   c6.172-2.736,12.451-6.555,16.219-11.494c6.646-8.717,11.646-18.846,16.348-28.846C423.004,321.338,421.252,309.217,418.34,297.621   z M178.812,262.599c-2.49,11.18-5.26,20.911-3.003,32.421c-10.988-4.738-18.04-12.319-26.843-18.065   C156.071,266.2,166.4,264.181,178.812,262.599z M139.603,303.445c-3.55-8.697-0.469-15.84,6.462-22.298   c9.799,7.494,19.693,14.707,30.164,21.669c-6.358,10.121-15.414,15.176-25.743,19.148   C146.022,316.166,142.301,310.055,139.603,303.445z M176.069,344.209c-9.345,0.449-18.564-6.279-22.918-17.41   c9.186-4.217,17.623-8.789,24.757-17.1C181.171,322.111,178.983,333.174,176.069,344.209z M184.547,263.163   c4.057,1.612,7.032,4.835,10.934,7.786c-5.111,8.347-7.815,17.407-8.628,27.194c-1.816,0.846-2.821,1.637-4.979,1.318   C178.084,287.322,180.578,275.376,184.547,263.163z M208.685,337.084c-8.535,2.109-17.509,3.699-26.862,8.631   c1.766-12.004,4.607-22.836,1.935-33.693c2.472-2.186,5.111-0.539,7.162-1.625c7.141,4.984,11.675,11.883,16.784,18.213   C209.474,330.805,209.413,333.666,208.685,337.084z M214.836,333.154c-2.666-10.77-11.619-17.08-18.392-26.016   c10.127-3.285,19.779-4.275,29.423-4.059C232.386,321.734,229.386,326.266,214.836,333.154z M223.85,297.232   c-10.121,2.082-19.369,0.838-28.231,5.297c-1.209-11.986,1.65-21.25,8.186-27.157C210.588,281.804,216.54,289.041,223.85,297.232z    M382.305,273.849c5.82-0.553,11.371,2.6,16.578,6.161c-3.727,5.952-10.256,8.795-13.844,14.59   c-3.402,5.496-5.023,12.24-10.432,16.664c-1.646-1.914-1.059-3.73-0.945-5.297c0.395-5.49-1.258-10.244-4.518-14.555   c-3.076-4.066-5.129-7.435-5.904-13.198C370.137,277.935,376.541,274.397,382.305,273.849z M355.877,278.424   c1.279,4.14,2.008,10.441,4.273,14.076s6.824,7.631,5.314,14.18c-3.605-3.916-5.801-8.318-7.203-12.432   c-1.4-4.113-4.926-7.984-7.312-11.857C352.074,279.751,352.859,278.36,355.877,278.424z M344.83,283.417   c3.662,3.691,5.904,8.023,8.205,14.562c-5.93-3.391-10.4-5.943-15.701-8.975C340.154,286.902,342.303,285.299,344.83,283.417z    M331.303,295.23c11.303,4.516,20.953,10.48,30.184,20.357c-13.994-1.729-26.07,3.053-39.672,2.033   C324.764,309.576,326.133,301.857,331.303,295.23z M311.857,322.207c-11.039,1.477-21.648,1.135-29.945-7.094   c-5.759-5.713-11.8-11.801-14.124-19.736c-2.664-9.098-8.699-15.924-14.555-25.328c12.649,5.59,24.05,9.377,36.008,11.293   c11.785,1.889,22.682,6.708,34.469,10.197C318.4,301.5,316.193,312.211,311.857,322.207z M385.039,364.031   c-4.762,2.562-9.762,4.684-14.678,6.957c-2.357,1.094-4.879,0.953-7.332,0.584c-6.154-0.924-11.797-3.35-18.129-5.84   c5.172-6.352,12.787-8.789,16.578-15.492c3.51-6.205,6.768-12.652,12.236-18.58c4.865,9.938,12.195,17.705,18.873,26.072   C390.619,360.826,387.805,362.543,385.039,364.031z M408.674,332.863c-3.408,6.535-10.428,19.846-11.953,20.836   c-8.617-7.99-18.883-27.164-20.543-28.133c-1.664-0.967-6.059,0.023-7.861,3.539c-2.135,4.166-5.176,7.875-7.205,12.078   c-4.779,9.908-13.578,15.336-22.268,21.211c-1.996-0.605-3.934-1.033-5.742-1.775c-5.92-2.436-10.771-5.809-12.01-12.811   c-0.975-5.498-3.533-10.758-2.371-17.428c9.373,1.613,17.113-2.924,25.371-5.951c6.602-2.424,13.734-0.99,20.633-0.537   c3.467,0.23,8.068,0.559,9.947-1.523c1.877-2.082,10.432-17.92,16.039-26.627c2.939-4.57,7.926-7.197,12.012-11.094   c4.227,4.33,7.121,8.766,8.051,14.328c0.857,5.127,2.154,10.23,2.438,15.391C413.566,320.873,411.527,327.389,408.674,332.863z"/>
	</g>
	<path fill-rule="evenodd" clip-rule="evenodd" fill="currentColor" d="M435.553,444.64c-0.107,0.163-0.117,0.388-0.043,0.712  c0.133,0.596,0.4,1.215,0.721,1.735c0.492,0.805,1.301,1.255,2.24,1.235c0.641-0.016,1.277-0.188,1.873-0.413  c1.596-0.601,3.23-1.22,4.896-1.457c0.545-0.076,1.32-0.021,1.705,0.415c0.475,0.533,0.438,1.587,0.242,2.222  c-0.32,1.041-1.795,1.177-2.656,1.46c-1.381,0.457-2.797,0.833-4.215,1.156c-0.799,0.182-1.609,0.339-2.42,0.477  c-2.199,0.373-4.166-0.347-5.021-2.829c-1.049-3.057-4.705-4.902-4.193-8.632c0.273-2.002,0.957-3.176,2.883-3.964  c2.297-0.942,4.707-1.787,7.08-2.52c1.361-0.417,2.742-0.8,4.127-1.134c2.213-0.537,3.928,1.113,4.773,3.329  c0.875,2.283-0.262,3.686-2.111,4.665c-1.23,0.652-2.553,1.162-3.875,1.602c-1.787,0.593-3.605,1.13-5.43,1.608  C435.84,444.382,435.652,444.483,435.553,444.64z"/>
	<path fill-rule="evenodd" clip-rule="evenodd" fill="currentColor" d="M464.684,435.665c0.143-0.305-0.074-0.885-0.125-1.209  c-0.322-2.084-1.395-3.936-2.012-5.935c-0.682-2.223-0.697-4.622-0.625-6.926c0.041-1.316,0.125-2.631,0.184-3.946  c0.061-1.294,0.396-2.91,1.502-3.735c0.658-0.494,1.801,0.803,2.168,1.362c1.004,1.535,0.678,3.627,0.209,5.292  c-0.918,3.246,0.152,6.032,1.057,9.055c0.992,3.312,1.404,6.842,1.676,10.309c0.201,2.587-2.115,3.751-3.996,1.796  c-3.844-4.001-7.279-8.411-10.682-12.805c-1.92-2.488-3.482-5.257-5.113-7.956c-0.338-0.558-0.67-1.424-0.607-2.08  c0.037-0.402-0.049-0.258,0.252-0.45c2.01-1.273,3.531,1.03,4.646,2.274c1.191,1.325,2.32,2.787,3.049,4.424  c1.545,3.472,3.771,6.598,6.277,9.437c0.373,0.426,1.439,2.301,2.125,1.123C464.674,435.683,464.68,435.675,464.684,435.665z"/>
	<path fill-rule="evenodd" clip-rule="evenodd" d="M433.58,439.457c0.189-0.253,0.646-0.324,0.924-0.402  c1.193-0.332,2.395-0.665,3.582-1.021c1.174-0.353,2.344-0.704,3.516-1.058c0.365-0.109,0.955-0.479,1.158-0.073  c0.178,0.354,0.268,0.829-0.072,1.111c-0.369,0.304-0.877,0.562-1.301,0.786c-0.879,0.467-1.844,0.796-2.803,1.05  c-0.793,0.208-1.613,0.299-2.412,0.485c-0.574,0.134-1.693,0.626-2.26,0.269c-0.172-0.108-0.412-0.679-0.418-0.87  C433.492,439.624,433.523,439.532,433.58,439.457z"/>
	<line x1="437.055" y1="438.645" x2="438.588" y2="439.606"/>
	<path fill-rule="evenodd" clip-rule="evenodd" fill="currentColor" d="M453.4,446.42c-0.947-0.864-2.168-0.31-2.084,0.984  c0.121,1.924,2.75,0.755,2.281-0.684C453.559,446.604,453.49,446.504,453.4,446.42z"/>
	<path fill-rule="evenodd" clip-rule="evenodd" fill="currentColor" d="M474.227,439.659c0.848-0.96,0.275-2.167-1.02-2.062  c-1.922,0.154-0.709,2.761,0.725,2.268C474.049,439.823,474.145,439.754,474.227,439.659z"/>
</svg>