<svg version="1.1" x="0px" y="0px" width="100%" height="100%" viewBox="0 0 370 390" xml:space="preserve"
  xmlns="http://www.w3.org/2000/svg"
  xmlns:svg="http://www.w3.org/2000/svg">
  <g transform="translate(-102.53786,-65.830761)" id="g2">
    <g id="g1">
      <path fill="currentColor" d="m 324.92128,438.45506 c -1.971,-3.406 -3.9,-4.842 -7.74,-4.834 -3.84,0.011 -5.41,-0.72 -8.182,-4.205 -2.83,-3.557 0.271,-10.792 7.457,-10.836 1.957,-0.012 3.969,0.545 5.82,-0.548 0.891,-0.526 1.584,-1.257 1.637,-2.316 0.053,-1.069 -0.521,-1.864 -1.518,-2.276 -5.436,-2.236 -14.359,0.797 -17.672,5.739 -3.167,4.73 -5.972,10.176 0.539,15.082 0.305,0.229 0.477,0.981 0.357,1.383 -1.713,5.836 2.939,9.002 5.422,13.077 2.428,3.991 5.752,4.886 9.496,3.242 2.098,-0.922 1.74,-3.121 3.479,-0.603 1,1.456 2.309,3.062 4.174,1.532 1.854,-1.516 0.982,-3.666 0.316,-5.526 -1.081,-3.011 -1.926,-6.056 -3.585,-8.911 z m -14.152,0.552 c 7.783,-1.505 13.186,1.524 6.316,7.95 -3.068,-1.828 -5.025,-5.826 -6.316,-7.95 z" id="path2" />
      <path fill="currentColor" d="m 280.29003,430.92027 c 0.028,-8.553 -4.737,-13.566 -13.279,-14.316 -3.353,-0.294 -6.871,0.352 -9.87,-2.318 -1.784,-1.586 -3.669,-0.041 -3.586,1.895 0.229,5.401 -1.369,10.754 0.343,16.243 1.492,4.776 3.466,9.681 0.505,14.935 -1.803,3.199 0.766,4.564 3.598,4.572 4.552,0.007 8.684,-1.878 12.762,-3.644 5.917,-2.558 10.021,-6.5 9.257,-13.268 0.111,-1.62 0.266,-2.858 0.27,-4.099 z m -5.31,2.245 c -0.335,5.689 -4.733,11.343 -11.802,12.354 -2.506,0.357 -2.241,-1.061 -2.221,-2.461 0.061,-4.462 -0.912,-8.708 -2.119,-12.985 -0.839,-2.969 -1.789,-6.482 1.373,-8.745 2.065,-1.48 10.525,0.844 12.188,2.843 2.336,2.808 2.919,3.304 2.581,8.994 z" id="path4" />
      <path fill="currentColor" d="m 213.46445,445.56402 c -2.70131,-2.51313 -4.67093,-5.71565 -8.47683,-8.10704 5.55427,-3.50944 7.72885,-9.56401 5.70431,-14.9892 -1.72191,-4.6165 -5.8357,-2.42662 -8.98824,-2.75411 -3.23636,-0.3332 -7.16799,1.24246 -8.08977,-4.00417 -0.25759,-1.46412 -1.78536,-2.40454 -3.50848,-1.59629 -1.58519,0.74399 -1.98075,2.26927 -1.64986,3.76814 1.66824,7.57141 0.77041,15.27699 1.35022,22.90247 0.11634,1.54775 0.36818,3.21013 2.20719,3.27911 1.7027,0.0598 2.54619,-1.29083 2.58315,-2.97948 0.0965,-4.28973 2.06509,-2.60188 4.18457,-1.46127 4.45364,2.406 7.64746,6.17699 11.0486,9.7361 1.30749,1.37127 2.47245,3.84414 4.67794,1.86037 2.22966,-2.00596 0.64419,-4.0877 -1.0428,-5.65463 z m -12.83354,-14.37318 c -2.4723,-0.0447 -6.34042,0.90305 -6.16742,-3.44157 0.1715,-4.30432 3.78971,-2.84211 6.14521,-3.00803 2.24224,-0.16405 5.24506,-0.93972 5.38559,2.94984 0.16657,4.54277 -2.89108,3.54446 -5.36338,3.49976 z" id="path6" />
      <path fill="currentColor" d="m 356.66528,424.44419 c -0.996,-5.811 -3.791,-7.244 -9.65,-5.913 -2.609,0.593 -4.98,2.451 -7.84,1.687 -3.342,-0.892 -4.211,1.284 -3.945,3.647 0.83,7.355 0.586,14.885 3.32,21.967 0.541,1.388 0.596,3.134 2.543,3.106 1.877,-0.024 2.592,-1.56 2.428,-3.1 -0.652,-6.117 4.436,-4.027 7.096,-4.729 4.191,-1.104 3.006,2.572 3.414,4.76 0.178,0.958 0.529,1.911 0.957,2.788 0.594,1.214 1.59,1.926 3.002,1.499 1.4,-0.423 1.783,-1.55 1.551,-2.877 -0.929,-7.614 -1.579,-15.28 -2.876,-22.835 z m -11.283,11.686 c -4.836,0.224 -4.281,-3.403 -4.215,-6.648 0.064,-3.179 3.592,-6.209 7.619,-5.868 4.264,0.36 3.359,4.133 3.416,6.817 0.092,4.472 -1.84,5.99 -6.82,5.699 z" id="path8" />
      <path fill="currentColor" d="m 165.93605,415.98189 c -0.73416,-0.0271 -1.48382,-0.1513 -2.19322,-0.033 -1.36091,0.23248 -2.34426,1.09748 -2.13994,2.51508 1.13265,7.88628 0.35685,15.62134 -1.55482,23.30418 -0.30079,1.20882 0.0396,2.54022 1.43182,3.0448 1.35077,0.48912 2.51091,-0.0992 3.04766,-1.34174 0.87575,-2.02603 1.63837,-4.11745 2.26935,-6.23349 0.84876,-2.85084 3.02441,-2.78921 5.3257,-2.74864 2.87201,0.0469 2.93432,2.04404 2.99626,4.09446 0.0366,1.23348 0.0804,2.46738 0.13792,3.69905 0.063,1.38577 0.76155,2.49712 2.08361,2.69264 1.79436,0.25859 2.86236,-1.00429 2.90114,-2.6148 0.0929,-3.68813 -0.0888,-7.38236 -0.15905,-11.0773 -1.01741,-17.11343 2.78056,-14.65208 -14.14643,-15.30127 z m 4.97246,13.38456 c -2.25029,-0.02 -3.81413,-0.42023 -3.57543,-3.23369 0.22226,-2.60934 -0.24138,-4.64063 3.63999,-4.53049 3.88137,0.11014 3.87978,1.5377 3.97073,4.03428 0.10734,2.99403 -1.42547,3.75151 -4.03529,3.7299 z" id="path10" />
      <path fill="currentColor" d="m 387.31085,417.41012 c -1.194,-0.11049 -1.99483,0.72867 -2.14955,1.64065 -0.37281,2.18344 -0.43727,4.41514 -0.63543,6.62734 -0.32135,3.59275 1.10826,7.3227 -0.84749,11.29646 -4.07205,-3.95519 -5.98818,-8.75789 -8.15402,-13.42285 -0.86374,-1.86228 -2.16697,-3.61624 -4.54935,-2.90106 -2.04409,0.61641 -1.91705,2.70621 -1.99044,4.39513 -0.1801,4.19445 -0.0883,8.46527 0.26769,12.57351 0.23146,2.6667 -3.13089,8.45578 2.5644,8.07701 4.83194,-0.31981 2.0502,-5.45385 2.1014,-9.29734 4.39846,1.32084 5.29088,5.27793 8.02509,7.29537 2.47999,1.82944 4.54561,2.24849 5.8924,-0.98984 3.17266,-7.63303 1.9474,-15.611 1.54203,-23.49924 -0.0475,-0.95169 -0.96377,-1.69814 -2.06668,-1.79514 z" id="path12" />
      <path fill="currentColor" d="m 231.82777,417.4922 c -0.53608,-1.35443 -1.74709,-2.52935 -3.53641,-1.84681 -1.29472,0.49573 -2.09379,1.74613 -1.74668,2.94846 1.40836,4.86476 -1.10193,8.51644 -3.28689,12.39865 -1.57881,2.81331 -2.63743,6.99448 -2.75776,8.9464 -0.12025,1.95291 -0.20342,3.99693 2.06142,4.48138 1.88016,0.40167 2.54311,-1.05064 2.81897,-2.62467 0.23726,-1.34982 0.88575,-2.03796 2.33172,-2.38831 7.40242,-1.78697 11.62175,0.24703 14.72311,7.57361 0.62603,1.47606 1.16723,3.08401 2.80741,2.88831 2.07812,-0.25007 2.35949,-2.13978 2.36007,-3.99188 -0.001,-1.57389 -0.72147,-2.83089 -1.39325,-4.16442 -4.22894,-8.40842 -10.88664,-15.36564 -14.38171,-24.22072 z m 0.10954,17.05134 c -1.29465,-0.11159 -3.3151,0.7287 -3.59901,-1.27719 -0.25069,-1.78695 1.23473,-3.5451 2.72947,-3.88868 2.06963,-0.47318 2.48945,1.68645 3.0616,3.24652 0.57405,1.5589 -1.00674,2.02043 -2.19206,1.91935 z" id="path14" />
      <path fill="currentColor" d="m 418.8305,438.81723 c 0.28117,-0.93234 0.23952,-1.96323 0.34372,-2.95115 0.48669,-4.40136 -2.46001,-5.51903 -5.89448,-6.04135 -3.81154,-0.58374 -6.46586,0.39522 -6.09616,4.99023 0.33274,0.75626 1.84135,0.68312 2.7858,0.93597 1.48643,0.39816 2.99889,0.84458 2.70402,2.7818 -0.17444,1.15628 -0.48914,2.56098 -1.85579,2.92315 -1.84131,0.48565 -2.63862,-1.06232 -3.3096,-2.2844 -0.8119,-1.48251 -1.28338,-3.15072 -1.89915,-4.73776 -2.86154,-6.5819 -1.7805,-10.53016 4.44719,-15.66169 1.21711,-0.99985 2.48777,-1.83692 1.54393,-3.57318 -0.87808,-1.61401 -2.5094,-1.63967 -3.89149,-1.03448 -2.96361,1.29912 -5.53291,2.94192 -6.84093,6.32316 -2.99481,7.75883 -2.51294,14.92538 2.43186,21.76291 2.47477,3.41969 10.55088,6.87255 14.25152,5.20584 4.3581,-1.96305 0.4224,-5.78149 1.2796,-8.63904 z" id="path16" />
      <path fill="currentColor" d="m 148.06801,413.72583 c -3.01104,-0.39204 -10.84251,1.54906 -11.77935,1.40253 -5.43592,-0.86039 -6.38348,2.3068 -6.01181,6.6071 0.63721,7.39811 1.30457,14.79662 2.07889,22.18176 0.19574,1.85869 0.20921,4.50536 3.09175,4.01977 2.17133,-0.36957 2.06148,-2.58773 1.77432,-4.31628 -0.89391,-5.37998 1.88149,-6.58228 6.45632,-5.86385 1.95089,0.31065 3.88675,0.76614 5.84887,0.91021 1.51972,0.11564 3.14795,-0.31034 3.50713,-2.04539 0.36785,-1.77987 -0.89125,-2.55748 -2.49672,-3.03937 -3.12498,-0.933 -6.29823,-1.69464 -9.53382,-1.10097 -5.34262,0.9791 -4.55074,-3.25201 -5.26984,-6.07094 -0.84721,-3.3126 -0.20234,-5.98663 3.84081,-6.49126 2.94246,-0.37018 5.89982,-0.61907 8.83659,-1.03743 1.29872,-0.1876 2.34751,-0.95615 2.45137,-2.39611 0.14004,-1.9269 -1.25325,-2.55986 -2.79451,-2.75977 z" id="path18" />
    </g>
    <path fill="currentColor" d="m 297.949,90.817 c 1.605,-1.137 4.055,1.95 5.461,2.949 0.592,0.419 1.268,0.774 1.943,1.073 3.15,1.4 5.498,-0.248 5.021,-3.05 -1.344,-7.901 -0.82,-15.771 -0.787,-23.667 0.006,-1.414 -0.879,-2.308 -2.316,-2.291 -1.047,0.011 -1.961,0.684 -2.176,1.696 -0.352,1.684 -0.572,3.419 -0.625,5.14 -0.105,3.461 -0.084,6.928 -0.072,10.393 0.012,2.544 -0.023,5.028 -3.367,2.15 -0.469,-0.404 -1.195,-0.939 -2.154,-1.562 -4.373,-2.835 -7.084,-1.25 -7.209,4.422 -0.076,3.44 -0.16,6.308 0.398,10.352 0.412,2.985 0.541,4.259 -3.232,4.842 -3.848,0.595 -4.615,2.608 -1.77,5.396 4.93,4.832 10.355,9.172 14.633,14.643 2.412,3.082 5.959,1.615 5.922,-0.647 -0.041,-2.262 -0.07,-3.98 -0.102,-5.971 -0.125,-2.959 0.303,-6.283 -0.045,-9.113 -0.467,-3.833 -1.373,-5.467 -5.148,-5.38 -4.438,0.103 -4.707,-0.311 -5.111,-3.831 -0.301,-2.597 -1.49,-5.968 0.736,-7.544 z m 2.041,16.388 c 4.041,0.342 2.773,3.549 2.211,5.445 -0.762,2.573 -2.617,1.036 -3.979,0.114 -1.426,-0.97 -2.805,-2.018 -4.201,-3.031 -1.789,-1.429 4.627,-2.643 5.969,-2.528 z" id="path22" />
    <path fill="currentColor" d="m 418.34,297.621 c -3.562,-14.185 -11.348,-25.059 -26.359,-29.531 -5.379,-1.603 -10.303,-2.574 -15.943,-1.089 -4.934,1.301 -8.604,3.841 -14.51,3.694 -3.127,-11.251 -6.582,-24.175 -4.963,-35.81 3.385,0.489 5.801,1.077 8.236,1.147 8.309,0.242 12.348,-3.797 12.389,-12.134 0.018,-3.239 -0.16,-6.436 -1.135,-9.574 -2.336,-7.501 -5.918,-9.517 -12.715,-5.886 -5.324,2.845 -10.707,3.562 -16.498,3.388 -4.717,-0.141 -9.443,-0.125 -14.158,0 -5.838,0.156 -7.791,1.401 -8.678,5.144 -1.461,6.193 -0.02,11.784 4.391,13.579 3.309,1.347 4.93,3.888 6.025,5.362 4.982,3.04 9.006,0.219 13.57,0.316 -0.176,12.089 3.705,23.332 6.111,35.555 -12.955,0.653 -17.072,9.391 -25.781,13.283 -25.775,-10.624 -54.573,-12.734 -80.743,-25.185 -9.284,-10.37 -17.168,-22.772 -27.88,-32.696 1.872,-7.098 6.53,-14.245 6.646,-13.804 3.519,13.362 10.884,19.905 24.596,19.854 2.205,-0.008 3.935,-0.687 4.4,-3.08 0.398,-2.039 -0.698,-3.494 -2.432,-4.104 -2.318,-0.817 -4.762,-1.357 -7.192,-1.763 -7.195,-1.206 -10.809,-4.585 -11.077,-11.634 -0.207,-5.403 -0.373,-13.264 0.466,-15.879 0.838,-2.615 17.02,-14.247 29.634,-12.145 2.609,0.434 4.636,-0.163 5.344,-0.373 2.53,-0.753 4.048,-2.562 1.305,-4.853 -4.014,-3.278 -20.303,-3.789 -26.794,1.417 -5.505,4.416 -11.839,3.482 -17.095,8.014 -5.255,4.532 -6.77,10.067 -7.696,16.137 -0.457,2.983 -1.763,5.657 -3.078,8.348 -6.774,13.859 -12.666,28.032 -14.894,43.451 -0.35,2.418 -1.008,4.667 -2.572,6.528 -3.343,-0.954 -5.172,-3.523 -7.694,-5.054 -2.104,-1.276 -3.929,-3.173 -6.594,-3.206 -14.486,-0.177 -28.39,1.652 -38.936,13.015 -1.289,1.388 -3.242,4.022 -3.486,4.315 -0.246,0.292 -2.487,-0.171 -3.314,0.683 -0.972,1.004 -0.962,2.625 0.02,3.622 -0.277,0.523 -1.402,2.149 -2.034,2.897 -9.004,10.664 -8.262,22.199 -1.516,33.468 2.931,4.896 6.66,9.486 8.644,14.736 3.539,9.361 9.733,16.193 18.072,20.965 8.411,4.816 17.486,6.965 26.858,2.197 4.236,-2.16 8.717,-3.814 13.332,-4.471 12.181,-1.727 21.604,-8.289 30.228,-16.365 3.433,-3.215 5.021,-7.211 4.195,-12.107 -0.779,-4.631 -1.268,-10.029 -1.846,-14.801 0.862,-0.955 2.988,-1.375 2.33,-3.445 -1.184,-2.57 -3.868,-2.986 -5.889,-3.197 -6.136,-11.268 -16.036,-19.676 -24.47,-30.021 4.034,-9.653 2.925,-21.123 8.792,-30.864 3.646,1.412 5.592,3.931 7.51,6.534 2.353,3.194 4.582,6.524 7.275,9.413 10.748,11.536 14.375,24.436 24.562,36.28 1.237,1.439 3.177,4.947 3.733,7.525 2.23,10.352 7.959,15.006 14.882,22.475 6.705,7.234 14.604,12.641 25.208,12.434 3.412,-0.068 6.922,-0.367 10.959,0.787 0.66,7.748 2.621,14.65 4.357,21.631 1.182,4.752 3.48,8.127 7.586,10.406 12.18,6.764 24.904,12.303 38.395,15.793 5.902,1.527 11.914,0.58 17.318,-2.447 2.396,-1.342 4.881,-2.361 7.367,-3.465 6.172,-2.736 12.451,-6.555 16.219,-11.494 6.646,-8.717 11.646,-18.846 16.348,-28.846 5.333,-11.353 3.581,-23.474 0.669,-35.07 z M 178.812,262.599 c -2.49,11.18 -5.26,20.911 -3.003,32.421 -10.988,-4.738 -18.04,-12.319 -26.843,-18.065 7.105,-10.755 17.434,-12.774 29.846,-14.356 z m -39.209,40.846 c -3.55,-8.697 -0.469,-15.84 6.462,-22.298 9.799,7.494 19.693,14.707 30.164,21.669 -6.358,10.121 -15.414,15.176 -25.743,19.148 -4.464,-5.798 -8.185,-11.909 -10.883,-18.519 z m 36.466,40.764 c -9.345,0.449 -18.564,-6.279 -22.918,-17.41 9.186,-4.217 17.623,-8.789 24.757,-17.1 3.263,12.412 1.075,23.475 -1.839,34.51 z m 8.478,-81.046 c 4.057,1.612 7.032,4.835 10.934,7.786 -5.111,8.347 -7.815,17.407 -8.628,27.194 -1.816,0.846 -2.821,1.637 -4.979,1.318 -3.79,-12.139 -1.296,-24.085 2.673,-36.298 z m 24.138,73.921 c -8.535,2.109 -17.509,3.699 -26.862,8.631 1.766,-12.004 4.607,-22.836 1.935,-33.693 2.472,-2.186 5.111,-0.539 7.162,-1.625 7.141,4.984 11.675,11.883 16.784,18.213 1.77,2.195 1.709,5.056 0.981,8.474 z m 6.151,-3.93 c -2.666,-10.77 -11.619,-17.08 -18.392,-26.016 10.127,-3.285 19.779,-4.275 29.423,-4.059 6.519,18.655 3.519,23.187 -11.031,30.075 z m 9.014,-35.922 c -10.121,2.082 -19.369,0.838 -28.231,5.297 -1.209,-11.986 1.65,-21.25 8.186,-27.157 6.783,6.432 12.735,13.669 20.045,21.86 z m 158.455,-23.383 c 5.82,-0.553 11.371,2.6 16.578,6.161 -3.727,5.952 -10.256,8.795 -13.844,14.59 -3.402,5.496 -5.023,12.24 -10.432,16.664 -1.646,-1.914 -1.059,-3.73 -0.945,-5.297 0.395,-5.49 -1.258,-10.244 -4.518,-14.555 -3.076,-4.066 -5.129,-7.435 -5.904,-13.198 6.897,-0.279 13.301,-3.817 19.065,-4.365 z m -26.428,4.575 c 1.279,4.14 2.008,10.441 4.273,14.076 2.265,3.635 6.824,7.631 5.314,14.18 -3.605,-3.916 -5.801,-8.318 -7.203,-12.432 -1.4,-4.113 -4.926,-7.984 -7.312,-11.857 1.125,-2.64 1.91,-4.031 4.928,-3.967 z m -11.047,4.993 c 3.662,3.691 5.904,8.023 8.205,14.562 -5.93,-3.391 -10.4,-5.943 -15.701,-8.975 2.82,-2.102 4.969,-3.705 7.496,-5.587 z m -13.527,11.813 c 11.303,4.516 20.953,10.48 30.184,20.357 -13.994,-1.729 -26.07,3.053 -39.672,2.033 2.949,-8.044 4.318,-15.763 9.488,-22.39 z m -19.446,26.977 c -11.039,1.477 -21.648,1.135 -29.945,-7.094 -5.759,-5.713 -11.8,-11.801 -14.124,-19.736 -2.664,-9.098 -8.699,-15.924 -14.555,-25.328 12.649,5.59 24.05,9.377 36.008,11.293 11.785,1.889 22.682,6.708 34.469,10.197 -5.31,9.961 -7.517,20.672 -11.853,30.668 z m 73.182,41.824 c -4.762,2.562 -9.762,4.684 -14.678,6.957 -2.357,1.094 -4.879,0.953 -7.332,0.584 -6.154,-0.924 -11.797,-3.35 -18.129,-5.84 5.172,-6.352 12.787,-8.789 16.578,-15.492 3.51,-6.205 6.768,-12.652 12.236,-18.58 4.865,9.938 12.195,17.705 18.873,26.072 -1.968,3.094 -4.782,4.811 -7.548,6.299 z m 23.635,-31.168 c -3.408,6.535 -10.428,19.846 -11.953,20.836 -8.617,-7.99 -18.883,-27.164 -20.543,-28.133 -1.664,-0.967 -6.059,0.023 -7.861,3.539 -2.135,4.166 -5.176,7.875 -7.205,12.078 -4.779,9.908 -13.578,15.336 -22.268,21.211 -1.996,-0.605 -3.934,-1.033 -5.742,-1.775 -5.92,-2.436 -10.771,-5.809 -12.01,-12.811 -0.975,-5.498 -3.533,-10.758 -2.371,-17.428 9.373,1.613 17.113,-2.924 25.371,-5.951 6.602,-2.424 13.734,-0.99 20.633,-0.537 3.467,0.23 8.068,0.559 9.947,-1.523 1.877,-2.082 10.432,-17.92 16.039,-26.627 2.939,-4.57 7.926,-7.197 12.012,-11.094 4.227,4.33 7.121,8.766 8.051,14.328 0.857,5.127 2.154,10.23 2.438,15.391 0.354,6.506 -1.685,13.022 -4.538,18.496 z" id="path24" />
  </g>
</svg>
