<svg height="100%" width="100%" viewBox="0 0 76.877274 53.643665" version="1.1" id="svg1"
   xmlns="http://www.w3.org/2000/svg"
   xmlns:svg="http://www.w3.org/2000/svg">
   <defs id="defs1" />
   <g id="layer1" transform="translate(-66.558801,-121.78299)">
      <path id="logoPath" d="m 142.70122,153.71764 c -0.94199,-3.75299 -3.00197,-6.62997 -6.97394,-7.81297 -1.42298,-0.424 -2.72597,-0.681 -4.21796,-0.288 -1.30499,0.344 -2.27598,1.016 -3.83897,0.977 -0.82699,-2.97699 -1.74098,-6.39598 -1.31299,-9.47496 0.896,0.129 1.53499,0.285 2.17899,0.303 2.19798,0.064 3.26697,-1.005 3.27797,-3.20999 0.005,-0.857 -0.042,-1.70299 -0.3,-2.53299 -0.618,-1.98499 -1.56599,-2.51799 -3.36397,-1.55699 -1.40899,0.75299 -2.83298,0.94199 -4.36496,0.89599 -1.24799,-0.037 -2.49798,-0.033 -3.74597,0 -1.54499,0.041 -2.06098,0.371 -2.29598,1.361 -0.387,1.63899 -0.005,3.11798 1.16199,3.59298 0.87499,0.356 1.30399,1.029 1.59398,1.419 1.31799,0.80399 2.38298,0.058 3.58997,0.084 -0.047,3.19898 0.97999,6.17297 1.61699,9.40696 -3.42797,0.173 -4.51696,2.48499 -6.82094,3.51398 -6.81994,-2.81099 -14.43888,-3.36898 -21.362819,-6.66397 -2.455979,-2.74399 -4.541961,-6.02497 -7.376937,-8.65096 0.494996,-1.878 1.727985,-3.76899 1.757985,-3.65199 0.930992,3.53499 2.879975,5.26698 6.507944,5.25298 0.582995,-0.002 1.040991,-0.182 1.163991,-0.815 0.104998,-0.539 -0.185,-0.92399 -0.642996,-1.08599 -0.612994,-0.216 -1.259988,-0.359 -1.902983,-0.466 -1.903984,-0.319 -2.859975,-1.213 -2.930975,-3.07799 -0.055,-1.42999 -0.099,-3.50898 0.122999,-4.20098 0.221998,-0.692 4.502961,-3.76999 7.840931,-3.21299 0.47264,0.077 0.9567,0.0431 1.41399,-0.099 0.66899,-0.199 1.07099,-0.67799 0.345,-1.28399 -1.06199,-0.867 -5.371957,-1.003 -7.088943,0.375 -1.456987,1.16799 -3.131973,0.92099 -4.522961,2.11999 -1.390987,1.19899 -1.790985,2.66399 -2.035983,4.26998 -0.120998,0.789 -0.465996,1.49699 -0.813992,2.20899 -1.791985,3.66699 -3.350971,7.41697 -3.940967,11.49595 -0.093,0.64 -0.266997,1.235 -0.680993,1.727 -0.884994,-0.252 -1.367989,-0.932 -2.035983,-1.337 -0.556995,-0.338 -1.039991,-0.83999 -1.744986,-0.84799 -3.832967,-0.047 -7.511935,0.43699 -10.301911,3.44398 -0.340997,0.367 -0.857993,1.064 -0.921992,1.142 -0.064,0.078 -0.657995,-0.045 -0.876993,0.181 -0.256411,0.26864 -0.254201,0.69204 0.005,0.95799 -0.073,0.138 -0.370996,0.569 -0.537996,0.766 -2.381979,2.82199 -2.185981,5.87297 -0.400996,8.85496 0.774994,1.295 1.761985,2.50999 2.286981,3.89899 0.935992,2.47699 2.574978,4.28398 4.781959,5.54697 2.224981,1.274 4.62696,1.843 7.105939,0.581 1.12099,-0.572 2.30598,-1.00899 3.52697,-1.18299 3.222972,-0.457 5.715951,-2.19299 7.997931,-4.32999 0.907992,-0.85099 1.327989,-1.90799 1.109991,-3.20298 -0.205998,-1.225 -0.334997,-2.65399 -0.487996,-3.91599 0.227998,-0.253 0.790993,-0.364 0.615995,-0.91099 -0.312998,-0.68 -1.022992,-0.79 -1.557987,-0.846 -1.622986,-2.98099 -4.242964,-5.20598 -6.473945,-7.94297 1.066991,-2.55399 0.773994,-5.58897 2.325981,-8.16596 0.964992,0.374 1.479987,1.03999 1.986982,1.72899 0.622995,0.845 1.21199,1.72599 1.924985,2.49099 2.843975,3.05199 3.802967,6.46497 6.498944,9.59896 0.326996,0.381 0.840996,1.30899 0.987986,1.99099 0.59,2.73899 2.10599,3.96999 3.93797,5.94698 1.77399,1.91399 3.86397,3.34498 6.66994,3.28998 0.903,-0.018 1.83099,-0.097 2.89998,0.208 0.175,2.04999 0.69299,3.87599 1.15299,5.72298 0.313,1.25699 0.92099,2.14999 2.00698,2.75299 3.22297,1.78999 6.58895,3.25498 10.15892,4.17898 1.56198,0.404 3.15197,0.153 4.58196,-0.647 0.63399,-0.355 1.29098,-0.62499 1.94898,-0.91699 1.63299,-0.724 3.29397,-1.734 4.29096,-3.04099 1.75799,-2.30599 3.08098,-4.98598 4.32497,-7.63197 1.41098,-3.00399 0.94699,-6.21097 0.17699,-9.27896 z m -63.374453,-9.26596 c -0.658995,2.95799 -1.391988,5.53297 -0.794994,8.57796 -2.906975,-1.25399 -4.772959,-3.25898 -7.101938,-4.77998 1.879983,-2.84599 4.61296,-3.37998 7.896932,-3.79798 z m -10.373911,10.80695 c -0.938992,-2.30099 -0.124,-4.19098 1.709985,-5.89997 2.592978,1.98299 5.209955,3.89098 7.980932,5.73297 -1.681986,2.67799 -4.077965,4.01499 -6.810942,5.06598 -1.18099,-1.53399 -2.165982,-3.15098 -2.878975,-4.89998 z m 9.647917,10.78496 c -2.472979,0.119 -4.911958,-1.66099 -6.063948,-4.60598 2.429979,-1.116 4.66296,-2.32499 6.549944,-4.52398 0.862993,3.28398 0.283997,6.21097 -0.486996,9.13096 z m 2.242981,-21.44291 c 1.07299,0.426 1.860984,1.27899 2.892975,2.05999 -1.351988,2.20799 -2.067983,4.60598 -2.282981,7.19497 -0.479996,0.224 -0.745994,0.433 -1.316988,0.349 -1.002992,-3.21199 -0.342998,-6.37198 0.706994,-9.60396 z m 6.386945,19.55792 c -2.257981,0.55799 -4.63296,0.97899 -7.106939,2.28399 0.466996,-3.17599 1.21899,-6.04198 0.511996,-8.91497 0.653994,-0.57799 1.351988,-0.143 1.894983,-0.42999 1.888984,1.31899 3.088974,3.14398 4.440963,4.81898 0.467996,0.58099 0.451996,1.33799 0.259997,2.24199 z m 1.626986,-1.04 c -0.704994,-2.84999 -3.073973,-4.51898 -4.865958,-6.88297 2.678977,-0.869 5.232955,-1.131 7.784933,-1.074 1.724986,4.93598 0.930992,6.13498 -2.918975,7.95697 z m 2.38498,-9.50396 c -2.677977,0.551 -5.124957,0.222 -7.468936,1.40099 -0.319998,-3.17098 0.436996,-5.62197 2.165981,-7.18497 1.794984,1.702 3.368971,3.61699 5.303955,5.78398 z m 41.924645,-6.18697 c 1.53998,-0.146 3.00897,0.68799 4.38596,1.62999 -0.98599,1.57499 -2.71398,2.32699 -3.66297,3.85998 -0.89999,1.454 -1.32899,3.23899 -2.75998,4.40898 -0.43599,-0.50599 -0.27999,-0.98699 -0.24999,-1.40099 0.10499,-1.45299 -0.333,-2.70999 -1.19499,-3.85098 -0.814,-1.076 -1.35699,-1.967 -1.56199,-3.49199 1.82498,-0.074 3.51897,-1.01 5.04396,-1.15499 z m -6.99194,1.20999 c 0.33799,1.095 0.53099,2.76299 1.13099,3.72398 0.59999,0.961 1.80598,2.019 1.40598,3.75199 -0.95399,-1.036 -1.53498,-2.20099 -1.90598,-3.28899 -0.371,-1.08799 -1.30299,-2.11199 -1.93498,-3.13698 0.29799,-0.699 0.50499,-1.067 1.30399,-1.05 z m -2.92298,1.32099 c 0.96899,0.977 1.56199,2.123 2.17098,3.85299 l -4.15396,-2.37499 z m -3.57897,3.12599 c 2.99098,1.195 5.54395,2.77299 7.98593,5.38598 -3.70297,-0.457 -6.89794,0.808 -10.49691,0.538 0.78,-2.12799 1.14199,-4.17099 2.50998,-5.92398 z m -5.14495,7.13797 c -2.92098,0.391 -5.72796,0.3 -7.92294,-1.87699 -1.52398,-1.51199 -3.12197,-3.12199 -3.73696,-5.22198 -0.705,-2.40699 -2.30199,-4.21298 -3.850972,-6.70097 3.346972,1.47899 6.362942,2.48099 9.526922,2.98799 3.11797,0.49999 6.00095,1.77499 9.11992,2.69799 -1.40499,2.63598 -1.98898,5.46897 -3.13597,8.11396 z m 19.36283,11.06596 c -1.25999,0.67799 -2.58298,1.23899 -3.88397,1.84099 -0.62399,0.289 -1.29099,0.252 -1.93998,0.155 -1.62799,-0.244 -3.12097,-0.886 -4.79696,-1.545 1.36799,-1.68099 3.38297,-2.32499 4.38596,-4.09898 0.929,-1.64199 1.79099,-3.34798 3.23698,-4.91598 1.28698,2.62899 3.22697,4.68398 4.99295,6.89797 -0.52099,0.819 -1.26499,1.273 -1.99698,1.667 z m 6.25295,-8.24697 c -0.902,1.72899 -2.75898,5.25098 -3.16298,5.51298 -2.27998,-2.11399 -4.99595,-7.18697 -5.43495,-7.44397 -0.439,-0.257 -1.60299,0.006 -2.07998,0.93599 -0.565,1.102 -1.36899,2.084 -1.90599,3.19599 -1.26399,2.62099 -3.59297,4.05799 -5.89195,5.61198 -0.52799,-0.16 -1.04099,-0.273 -1.51898,-0.47 -1.56599,-0.645 -2.84998,-1.53699 -3.17798,-3.38999 -0.25799,-1.45499 -0.93499,-2.84598 -0.62699,-4.61098 2.47998,0.427 4.52796,-0.77399 6.71294,-1.57499 1.74699,-0.641 3.63397,-0.262 5.45896,-0.142 0.91699,0.061 2.13498,0.148 2.63197,-0.403 0.497,-0.551 2.75998,-4.74098 4.24397,-7.04497 0.77799,-1.20899 2.09698,-1.90399 3.17797,-2.93499 1.11799,1.146 1.88398,2.31899 2.12998,3.79099 0.227,1.35699 0.57,2.70699 0.645,4.07198 0.094,1.72099 -0.446,3.44499 -1.20099,4.89398 z" fill="currentColor" />
   </g>
</svg>
