<svg width="363" height="277" viewBox="0 0 363 277" fill="none"
    xmlns="http://www.w3.org/2000/svg">
    <path d="M185.03 246.531C191.309 219.897 200.88 194.571 207.873 168.198C211.411 154.865 215.469 141.761 219.665 128.722C221.804 122.12 223.943 115.519 226.109 108.951C228.056 102.938 229.619 96.4999 231.978 90.683C232.334 89.8333 230.799 89.5392 230.47 90.3235C228.139 96.1077 226.576 102.578 224.601 108.591C222.544 114.931 220.46 121.271 218.403 127.643C214.125 140.911 209.985 154.277 206.365 167.839C199.372 194.211 189.774 219.538 183.521 246.171C183.302 247.119 184.81 247.38 185.03 246.531Z" fill="currentColor"/>
    <path d="M194.792 251.138C198.933 237.609 202.526 223.917 206.529 210.322C210.533 196.727 214.976 183.982 218.979 170.715C222.709 158.395 228.002 146.728 231.649 134.343C233.568 127.807 234.83 121.009 236.749 114.474C238.532 108.395 240.836 102.644 241.686 96.2711C241.795 95.3888 240.26 95.3561 240.123 96.2711C239.163 103.461 236.338 109.996 234.473 116.859C232.746 123.199 231.567 129.767 229.537 136.009C225.671 147.904 220.872 159.408 217.169 171.401C213.193 184.309 208.86 197.054 205.021 210.028C201.182 223.002 197.425 237.315 193.284 250.844C193.01 251.759 194.518 252.021 194.792 251.204V251.138Z" fill="currentColor"/>
    <path d="M211.877 60.8468C219.199 63.0363 226.438 65.3892 233.925 66.729C234.775 66.8924 235.351 65.5853 234.336 65.4219C226.85 64.082 219.61 61.6964 212.288 59.5396C211.438 59.2782 210.89 60.5526 211.877 60.8468Z" fill="currentColor"/>
    <path d="M61.2969 19.344C73.1163 22.3832 84.8259 26.3047 96.5629 29.7033C108.3 33.102 120.997 36.4026 133.282 39.4091C157.661 45.3894 181.931 51.8926 206.036 59.1147C206.886 59.3762 207.434 58.1017 206.447 57.8075C182.315 50.5854 158.045 44.0822 133.694 38.1019C121.408 35.0954 109.15 31.9255 96.9743 28.3962C84.7985 24.8668 73.5276 21.076 61.7083 18.0368C60.8582 17.8081 60.3097 19.1152 61.2969 19.344Z" fill="currentColor"/>
    <path d="M33.106 11.1088C40.236 13.8539 47.558 15.8147 54.8799 17.7101C55.7301 17.9388 56.2785 16.6316 55.2913 16.4029C48.1065 14.5402 40.8942 12.6448 33.8739 9.93239C33.1335 9.63828 32.1188 10.7494 33.0786 11.1088H33.106Z" fill="currentColor"/>
    <path d="M27.2375 28.6249C40.0441 29.9648 52.4119 34.5726 64.8894 37.8732C77.3668 41.1738 90.667 44.9319 103.446 48.8207C116.225 52.7096 130.074 57.3828 143.566 60.9448C157.058 64.5068 171.181 68.0362 184.947 71.7616C199.646 75.7485 214.427 79.1799 229.181 82.938C230.031 83.1667 230.579 81.8596 229.592 81.6308C202.58 74.7355 175.541 67.9382 148.557 60.8467C134.818 57.2193 121.299 52.9384 107.697 48.6901C100.951 46.5986 94.1497 44.8666 87.3488 43.0038C80.9318 41.2391 74.6245 38.9189 68.1801 37.3176C54.5509 33.919 41.1684 28.7557 27.265 27.3178C26.3052 27.2197 26.3052 28.5923 27.265 28.6903L27.2375 28.6249Z" fill="currentColor"/>
    <path d="M28.3344 53.7226C29.2942 53.7226 29.2942 52.3501 28.3344 52.3501C27.3746 52.3501 27.3746 53.7226 28.3344 53.7226Z" fill="currentColor"/>
    <path d="M28.3344 53.3959C33.1609 59.5069 38.289 65.2912 43.1155 71.4022C47.9419 77.5132 52.1376 83.7876 56.9367 89.6699C66.8364 101.761 75.3649 115.094 85.2098 127.251C95.0547 139.408 105.092 153.493 115.046 166.532C125.001 179.571 135.668 193.231 146.007 206.597C151.491 213.688 156.948 220.714 162.762 227.413C168.274 233.753 173.649 240.191 178.53 247.25C178.997 247.903 180.45 247.38 179.874 246.563C171.126 233.884 160.541 223.296 151.327 211.106C141.043 197.512 130.238 184.473 120.092 170.747C115.238 164.179 110.165 157.839 105.201 151.368C100.238 144.898 95.4386 137.807 90.3105 131.271C85.484 125.127 80.4382 119.277 75.8586 112.872C71.2789 106.467 67.0283 99.7025 62.0373 93.5914C56.4979 86.8268 51.3149 79.8008 46.0223 72.7747C43.5542 69.5068 40.8668 66.5983 38.2067 63.5591C35.2176 60.1278 32.5302 56.337 29.6782 52.7096C29.1846 52.0887 27.7311 52.6442 28.3344 53.3959Z" fill="currentColor"/>
    <path d="M15.9667 63.984C21.0673 70.3238 26.6616 76.0099 31.7623 82.3497C36.863 88.6895 41.4152 94.7679 46.2417 100.944C56.114 113.558 65.1087 126.99 74.5971 139.963C94.1223 166.63 115.732 190.943 135.723 217.087C146.583 231.269 157.223 245.812 168.521 259.504C169.015 260.093 170.468 259.537 169.865 258.818C159.883 246.759 150.504 233.982 140.933 221.466C130.842 208.263 120.531 195.42 110.028 182.708C99.5247 169.996 89.4878 157.512 79.6978 144.375C70.0723 131.467 61.1598 117.872 51.3698 105.127C46.0223 98.1665 40.5651 91.3366 35.2176 84.3759C29.5685 76.9903 23.0967 70.5198 17.283 63.2977C16.7894 62.6768 15.3359 63.2323 15.9392 63.984H15.9667Z" fill="currentColor"/>
    <path d="M239.437 258.524C252.655 257.74 265.79 256.008 278.981 254.995C292.171 253.982 306.76 253.753 320.39 251.073C321.404 250.877 320.828 249.57 319.978 249.766C306.075 252.511 291.76 252.642 277.692 253.753C264.94 254.766 252.216 256.433 239.437 257.184C238.477 257.249 238.477 258.622 239.437 258.557V258.524Z" fill="currentColor"/>
    <path d="M240.534 268.23C254.273 268.164 267.792 265.877 281.476 264.733C295.161 263.589 307.94 263.818 321.103 261.759C322.117 261.596 321.541 260.289 320.691 260.452C307.227 262.544 293.68 262.151 280.188 263.491C266.695 264.831 253.861 266.825 240.561 266.89C239.601 266.89 239.601 268.262 240.561 268.262L240.534 268.23Z" fill="currentColor"/>
    <path d="M234.501 248.132C246.869 246.857 259.154 244.472 271.494 242.969C284.767 241.335 298.04 240.158 311.285 238.067C312.3 237.903 311.724 236.596 310.874 236.76C298.04 238.753 285.179 239.962 272.317 241.498C259.456 243.034 247.143 245.452 234.501 246.759C233.541 246.857 233.541 248.23 234.501 248.132Z" fill="currentColor"/>
    <path d="M232.334 258.263C246.073 258.099 260.086 255.648 273.606 252.936C286.303 250.387 299.274 250.125 312.026 247.805C313.04 247.609 312.464 246.335 311.614 246.498C299.301 248.753 286.769 249.014 274.511 251.4C260.662 254.08 246.402 256.759 232.334 256.923C231.375 256.923 231.375 258.295 232.334 258.295V258.263Z" fill="currentColor"/>
    <path d="M272.043 129.767C273.743 134.016 275.772 137.937 278.049 141.793C280.325 145.65 282.135 149.669 284.301 153.558C289.1 162.153 293.844 170.813 298.506 179.538C303.168 188.263 307.803 197.218 313.15 205.453C318.498 213.688 324.503 220.877 328.425 230.093C328.754 230.877 330.289 230.583 329.933 229.734C326.395 221.4 321.13 214.538 316.221 207.348C310.682 199.178 305.938 190.29 301.221 181.433C296.504 172.577 292.062 164.31 287.345 155.878C285.014 151.728 282.957 147.414 280.654 143.264C278.131 138.689 275.526 134.408 273.551 129.408C273.25 128.624 271.714 128.918 272.043 129.767Z" fill="currentColor"/>
    <path d="M277.39 128.526C279.968 131.63 281.778 135.323 283.753 138.95C285.919 142.937 288.716 146.303 291.102 150.094C296.175 158.133 299.932 167.022 304.265 175.584C312.245 191.368 322.611 205.355 331.743 220.191C332.182 220.877 333.608 220.355 333.087 219.505C323.955 204.668 313.589 190.714 305.609 174.898C301.386 166.532 297.711 157.872 292.83 149.996C290.444 146.172 287.592 142.806 285.398 138.82C283.204 134.833 281.449 131.107 278.734 127.839C278.241 127.251 276.787 127.807 277.39 128.526Z" fill="currentColor"/>
    <path d="M9.71417 34.0824C11.8532 26.4682 14.5955 19.1153 16.707 11.501C17.3926 9.08275 17.4749 6.40305 18.2976 4.05014C19.3122 1.07632 21.2867 2.31813 23.2886 3.10243C26.0583 4.18085 31.4881 5.58607 32.6398 9.21348C33.5448 12.1546 32.585 15.9781 32.0365 18.8539C31.4332 22.0564 30.8025 25.259 30.5008 28.5269L32.2559 27.6446C26.8536 25.3571 24.221 29.1805 22.6853 34.9975C22.0271 37.5464 20.5737 41.3372 21.369 44.0496C21.9997 46.2065 24.6049 48.0365 25.8663 49.5397C27.0455 50.945 27.6763 51.3371 26.5519 52.9711C25.7018 54.1802 24.6871 55.422 23.6999 56.5331C21.7529 58.7553 19.4493 60.8468 17.1458 62.5134C15.5004 63.6899 14.239 64.5396 12.2645 64.2128C10.8385 63.984 9.33025 63.3631 7.98652 62.8076C7.21867 62.4808 1.87119 60.2913 2.39223 58.8534C2.85842 57.5135 0.58231 57.0887 0.143542 58.2978C-1.22761 62.1866 7.63002 64.9644 9.46737 65.5853C11.8806 66.4023 14.1567 66.9578 16.4877 65.5853C19.23 63.984 21.7529 61.6638 24.0838 59.3109C25.0985 58.2978 26.0035 57.2194 26.9084 56.043C27.6763 55.0626 29.02 53.9515 29.4588 52.7096C30.3363 50.2587 27.5117 48.0038 26.2503 46.6313C25.4824 45.7816 24.1661 44.932 23.6999 43.7882C22.9869 42.0235 23.9741 39.4092 24.3855 37.6772C25.3727 33.6249 26.4148 27.4812 31.0493 29.442C31.7074 29.7034 32.7221 29.5727 32.8044 28.5596C33.2157 24.0826 34.3401 19.7689 34.9708 15.3245C35.3273 12.6775 35.6015 9.57295 34.2578 7.22004C33.2157 5.38999 31.4332 4.57301 29.7878 3.72335C27.594 2.61225 25.3727 1.59919 23.0966 0.81489C21.6158 0.292021 19.8607 -0.426929 18.3524 0.324695C16.3231 1.33775 15.8295 4.18085 15.3907 6.4684C13.6357 15.7166 10.0432 24.5401 7.4929 33.5269C7.10898 34.9321 9.3851 35.3243 9.7416 34.0824H9.71417Z" fill="currentColor"/>
    <path d="M1.70668 59.4415C2.74876 55.5854 3.87309 51.7946 5.05228 48.0038C5.32651 47.0887 3.81825 46.8273 3.54402 47.6443C2.36483 51.4351 1.24048 55.2586 0.198406 59.0821C-0.0484011 60.0298 1.45987 60.2912 1.70668 59.4415Z" fill="currentColor"/>
    <path d="M3.54402 48.4613C8.56244 49.2129 9.98844 41.1411 9.76905 36.6967C9.71421 35.3569 9.52224 33.9517 8.97378 32.7752C8.72697 32.2523 7.84944 32.0236 7.54778 32.6118C5.21682 37.2523 4.01021 42.4483 2.99556 47.6443C2.8036 48.592 4.33929 48.8534 4.50382 48.0038C5.49105 42.9385 6.64283 37.8078 8.89152 33.2981L7.46552 33.1347C8.58986 35.651 8.37047 39.0823 7.79459 41.7293C7.35582 43.7881 6.23148 47.4809 3.92794 47.1541C3.59887 47.0888 3.10526 47.1541 2.96814 47.6443C2.85845 48.0691 3.18753 48.4286 3.5166 48.494L3.54402 48.4613Z" fill="currentColor"/>
    <path d="M24.5501 16.4682C27.6763 15.4879 30.5009 13.5598 33.3803 11.8277C34.2852 11.2722 33.298 10.2265 32.585 10.6513C29.8427 12.318 27.1278 14.2134 24.1387 15.1611C23.8096 15.2591 23.4806 15.5532 23.5903 16.0107C23.6999 16.4356 24.221 16.5989 24.5501 16.5009V16.4682Z" fill="currentColor"/>
    <path d="M228.139 83.2975C230.963 85.6177 230.47 87.4151 230.332 90.8137C230.278 91.8595 230.223 92.2516 230.744 93.0032C232.033 94.8986 235.378 95.6502 237.271 96.2712C238.861 96.794 241 97.709 242.481 96.4019C243.962 95.0947 244.209 89.0817 246.539 91.4673C248.569 93.5588 249.556 97.7744 251.229 100.389C254.3 105.193 257.399 109.964 260.69 114.539C263.569 118.591 266.778 122.349 268.917 127.088C269.794 129.016 270.617 131.499 272.728 131.696C274.511 131.826 276.102 129.964 277.418 128.787C279.145 127.218 279.31 126.467 277.884 124.31C274.621 119.343 271.275 114.931 268.78 109.278C266.641 104.408 264.556 99.5718 262.143 94.8986C259.428 89.6699 256.604 84.5066 253.944 79.2125C252.902 77.1537 251.311 74.9316 251.256 72.4806C251.229 70.2584 252.298 67.4153 252.737 65.2585C252.902 64.4415 253.148 62.5788 253.752 62.0559C255.15 60.8468 256.357 62.2846 257.536 62.7422C258.277 63.0363 258.99 63.2977 259.757 63.167C262.143 62.7749 263.048 60.1278 262.006 57.6769C260.717 54.6704 256.823 53.4612 254.437 52.2521C252.545 51.3044 250.598 50.4874 248.706 49.5397C247.39 48.8534 245.936 47.7097 244.428 47.775C241.823 47.8731 241.165 50.5854 241.11 53.2652C241.027 56.2716 240.973 58.1671 239.245 60.6507C237.517 63.1343 234.501 65.9121 231.594 65.2585C231.292 65.1931 230.524 65.3565 230.607 65.9121C231.375 71.4022 230.278 78.1668 227.947 82.9707C227.508 83.8857 228.934 84.4086 229.29 83.6569C231.731 78.6897 232.965 71.6309 232.17 65.9121L231.183 66.5656C235.625 67.5787 240.973 62.7422 242.399 57.8403C243.358 54.5723 241.219 48.0691 246.43 49.8992C249.611 51.0103 252.929 53.0364 255.946 54.6377C257.262 55.324 260.882 56.7292 260.799 58.886C260.608 63.7879 256.412 60.1932 255.013 60.0951C253.258 59.9971 252.271 61.2062 251.668 63.0363C250.845 65.4546 249.858 69.5068 249.721 72.1211C249.556 75.7485 252.408 79.6701 253.889 82.5458C258.715 91.9575 263.487 101.238 267.82 111.01C269.767 115.421 272.345 118.983 274.977 122.872C275.334 123.395 276.184 124.375 276.485 125.029C277.747 127.709 277.171 126.63 276.239 127.839C275.8 128.428 273.853 130.192 273.222 130.29C271.138 130.617 268.889 123.754 267.737 121.99C265.05 117.774 261.924 113.951 259.127 109.833C256.549 106.01 253.752 102.186 251.476 98.1339C250.077 95.6502 249.254 92.3823 247.417 90.2908C243.221 85.487 243.084 95.0947 240.534 95.7483C238.834 96.1731 232.417 93.6895 231.704 91.6634C231.265 90.4215 232.362 87.9706 231.95 86.402C231.484 84.5719 230.415 83.4282 229.153 82.3498C228.55 81.8596 227.261 82.6766 228.056 83.3301L228.139 83.2975Z" fill="currentColor"/>
    <path d="M260.278 57.6769C259.62 56.9906 258.66 56.8272 257.865 57.2194C257.262 57.5135 256.741 58.2324 256.768 59.0494C256.768 59.4743 256.933 59.8991 257.18 60.2259C257.317 60.422 257.481 60.5854 257.673 60.7161C257.893 60.8795 258.112 61.0102 258.359 61.0755C258.743 61.2062 259.181 61.1736 259.538 60.9775C259.73 60.8468 259.895 60.7161 260.032 60.52C260.141 60.3893 260.224 60.2259 260.306 60.0625C260.47 59.7357 260.525 59.3435 260.58 58.9514C260.635 58.5592 260.58 58.1671 260.525 57.7749C260.498 57.5789 260.306 57.4481 260.169 57.3501C260.004 57.252 259.757 57.2194 259.565 57.2847C259.401 57.3501 259.209 57.4154 259.099 57.6115L259.017 57.7749C259.017 57.7749 258.99 58.0037 259.017 58.1344C259.017 58.1671 259.017 58.2324 259.017 58.2651V58.069C259.017 58.3958 259.017 58.7553 258.99 59.0821V58.886C258.99 59.1474 258.907 59.4089 258.798 59.6703L258.88 59.5069C258.88 59.5069 258.743 59.7357 258.66 59.8337L258.77 59.703C258.77 59.703 258.66 59.801 258.606 59.8664L258.77 59.7684C258.77 59.7684 258.688 59.8337 258.633 59.8337L258.825 59.7684C258.825 59.7684 258.743 59.7684 258.688 59.801H258.907C258.907 59.801 258.798 59.801 258.77 59.801H258.99C258.99 59.801 258.852 59.801 258.798 59.801L258.99 59.8664C258.99 59.8664 258.825 59.801 258.743 59.7357L258.907 59.8337C258.907 59.8337 258.66 59.6377 258.551 59.5396L258.66 59.6703C258.66 59.6703 258.468 59.4416 258.414 59.2782L258.496 59.4416C258.496 59.4416 258.386 59.1801 258.386 59.0494V59.2455C258.386 59.2455 258.386 58.9841 258.386 58.8534V59.0494C258.386 59.0494 258.414 58.788 258.468 58.6573L258.386 58.8207C258.386 58.8207 258.523 58.5919 258.606 58.4939L258.496 58.6246C258.496 58.6246 258.66 58.4612 258.743 58.3958L258.578 58.4939C258.578 58.4939 258.743 58.3958 258.825 58.3632L258.633 58.4285C258.633 58.4285 258.798 58.3632 258.907 58.3632H258.688C258.688 58.3632 258.852 58.3632 258.935 58.3632H258.715C258.715 58.3632 258.907 58.3631 258.99 58.3958L258.798 58.3305C258.798 58.3305 258.99 58.4285 259.099 58.4939L258.935 58.3958C258.935 58.3958 259.127 58.5592 259.209 58.6246C259.346 58.7553 259.593 58.8207 259.757 58.8207C259.922 58.8207 260.169 58.7553 260.306 58.6246C260.416 58.4939 260.553 58.3305 260.525 58.1344C260.498 57.9383 260.416 57.7749 260.306 57.6442L260.278 57.6769Z" fill="currentColor"/>
    <path d="M257.893 60.52C258.222 60.5853 258.523 60.5853 258.825 60.4546C259.099 60.3566 259.319 60.1605 259.538 59.9317C259.675 59.7683 259.785 59.5396 259.867 59.3435C259.949 59.1801 259.977 58.9841 260.004 58.788C260.059 58.5265 260.086 58.2651 260.059 57.971C260.059 57.5135 259.62 57.2847 259.291 57.2847C259.099 57.2847 258.88 57.3501 258.743 57.4808C258.633 57.6115 258.496 57.7749 258.523 57.971C258.551 58.1671 258.523 58.3631 258.496 58.5592V58.3632C258.496 58.5919 258.414 58.8207 258.331 59.0494L258.414 58.886C258.414 58.886 258.277 59.1148 258.194 59.2128L258.304 59.0821C258.304 59.0821 258.194 59.1801 258.139 59.2455L258.304 59.1474C258.304 59.1474 258.194 59.2128 258.139 59.2128L258.331 59.1474C258.331 59.1474 258.222 59.1801 258.167 59.1801H258.386C258.386 59.1801 258.277 59.1801 258.222 59.1801H258.441C258.441 59.1801 258.386 59.1801 258.331 59.1801C258.139 59.1475 257.92 59.1801 257.728 59.2455C257.591 59.3108 257.426 59.4743 257.372 59.6703C257.317 59.8664 257.344 60.0625 257.454 60.1932C257.564 60.3566 257.728 60.4546 257.92 60.52H257.893Z" fill="currentColor"/>
    <path d="M241.165 54.507C241.494 55.8795 242.591 56.5984 243.66 56.9906C244.236 57.2194 244.812 57.3828 245.415 57.5462C245.552 57.5788 245.689 57.6442 245.799 57.6769C245.854 57.6769 245.909 57.7096 245.964 57.7422C245.772 57.6769 246.018 57.7422 246.046 57.7422C246.265 57.8403 246.485 57.9383 246.704 58.069C247.033 58.2651 247.554 58.1671 247.774 57.8076C248.02 57.4154 247.774 57.056 247.499 56.8599C246.594 56.2717 245.497 56.1083 244.51 55.7488C244.483 55.7488 244.263 55.6508 244.428 55.7488C244.373 55.7488 244.318 55.7161 244.263 55.6834C244.154 55.6181 244.017 55.5854 243.907 55.52C243.797 55.4547 243.687 55.3893 243.578 55.324C243.578 55.324 243.386 55.1933 243.55 55.324C243.496 55.2913 243.441 55.2586 243.386 55.1933C243.276 55.1279 243.194 55.0298 243.112 54.9318C243.002 54.8338 243.166 55.0298 243.084 54.8991C243.057 54.8338 243.002 54.8011 242.974 54.7357C242.947 54.6704 242.892 54.605 242.865 54.5723C242.783 54.4416 242.892 54.6704 242.865 54.507C242.81 54.3763 242.755 54.2129 242.728 54.0821C242.536 53.2325 241 53.4939 241.219 54.4416L241.165 54.507Z" fill="currentColor"/>
    <path d="M247.636 62.5134C246.841 62.5134 246.046 62.4153 245.251 62.4153C244.538 62.4153 243.77 62.35 243.084 62.5788C242.591 62.7422 241.987 63.1343 242.152 63.8532C242.262 64.3434 242.783 64.6702 243.139 64.8336C243.413 64.9643 243.688 65.0624 243.962 65.1277C244.126 65.1604 244.291 65.1931 244.483 65.1931C244.318 65.1931 244.455 65.1931 244.538 65.1931C244.62 65.1931 244.702 65.1931 244.784 65.2258C245.388 65.3565 245.991 65.5199 246.622 65.6506C247.28 65.7813 247.993 65.8467 248.624 65.6506C249.145 65.4872 249.995 65.1931 250.187 64.5068C250.379 63.8206 249.803 63.2977 249.309 63.0689C248.761 62.7748 248.157 62.6441 247.582 62.6114C247.253 62.6114 246.814 62.8402 246.814 63.2977C246.814 63.7552 247.28 63.984 247.582 63.984C247.636 63.984 247.664 63.984 247.719 63.984C247.527 63.9513 247.883 63.984 247.719 63.984C247.801 63.984 247.911 64.0166 247.993 64.0493C248.075 64.0493 248.157 64.082 248.24 64.1147C248.267 64.1147 248.349 64.18 248.377 64.1473C248.267 64.1147 248.24 64.1147 248.322 64.1473C248.349 64.1473 248.377 64.1474 248.404 64.18C248.487 64.18 248.541 64.2454 248.596 64.2781C248.596 64.2781 248.679 64.3107 248.706 64.3434C248.624 64.2127 248.596 64.2781 248.679 64.3434L248.761 64.4088C248.733 64.4415 248.651 64.2454 248.733 64.3761C248.733 64.4415 248.761 64.4741 248.706 64.2781C248.733 64.3434 248.706 64.4415 248.706 64.2454C248.706 64.3761 248.761 64.0493 248.706 64.18C248.651 64.3108 248.788 64.0166 248.706 64.1147C248.651 64.2127 248.816 64.0493 248.733 64.082C248.733 64.082 248.679 64.1473 248.651 64.1473C248.596 64.1473 248.541 64.2127 248.487 64.2454C248.487 64.2454 248.267 64.3434 248.404 64.2781C248.322 64.2781 248.267 64.3434 248.185 64.3434C248.13 64.3434 248.103 64.3434 248.048 64.3434C247.828 64.4088 247.993 64.3434 248.048 64.3434C247.938 64.3761 247.801 64.3434 247.691 64.3434C247.582 64.3434 247.472 64.3434 247.362 64.3434C247.554 64.3434 247.362 64.3434 247.307 64.3434C247.225 64.3434 247.143 64.3434 247.033 64.3108C246.512 64.2127 246.018 64.082 245.497 63.9513C245.278 63.8859 245.059 63.8532 244.839 63.8206H244.784C244.538 63.7879 244.51 63.7879 244.675 63.8206C244.647 63.8206 244.538 63.8206 244.51 63.8206C244.401 63.8206 244.291 63.7552 244.181 63.7225C244.181 63.7225 244.071 63.7225 244.071 63.6898H244.154C244.154 63.6898 244.099 63.6898 244.071 63.6898C243.989 63.6572 243.907 63.6245 243.825 63.5591C243.797 63.5591 243.77 63.5265 243.742 63.4938C243.66 63.4611 243.879 63.6245 243.797 63.4938C243.797 63.4938 243.742 63.4611 243.715 63.4284C243.578 63.3304 243.797 63.5264 243.715 63.4284C243.633 63.2977 243.77 63.5918 243.715 63.4284C243.688 63.3304 243.715 63.6245 243.715 63.5264C243.715 63.7225 243.688 63.6898 243.715 63.6245C243.66 63.7552 243.715 63.7225 243.578 63.8206C243.66 63.7225 243.578 63.8532 243.523 63.8206C243.523 63.8206 243.578 63.7879 243.605 63.7879C243.441 63.8206 243.77 63.7225 243.605 63.7879C243.742 63.7879 243.852 63.7225 243.989 63.6898C244.209 63.6572 243.825 63.6898 244.044 63.6898C244.126 63.6898 244.209 63.6898 244.291 63.6898C244.647 63.6898 245.031 63.6898 245.388 63.6898C246.156 63.6898 246.923 63.7879 247.691 63.7879C248.02 63.7879 248.459 63.5591 248.459 63.1016C248.459 62.6441 247.993 62.4153 247.691 62.4153L247.636 62.5134Z" fill="currentColor"/>
    <path d="M248.541 57.6768C247.527 57.8076 246.512 57.5788 245.47 57.6768C244.976 57.7095 244.51 57.8076 244.044 58.0363C243.77 58.167 243.468 58.3958 243.358 58.7552C243.139 59.4742 243.825 59.9317 244.263 60.1605C244.812 60.4546 245.415 60.618 245.991 60.7487C246.457 60.8467 246.951 60.8467 247.417 60.9121C248.02 60.9775 248.596 61.0428 249.2 61.0428C249.803 61.0428 250.488 61.0428 251.037 60.716C251.585 60.3892 251.914 59.6049 251.53 58.9513C251.147 58.2978 250.324 58.069 249.693 57.9709C249.062 57.8729 248.432 57.8729 247.801 57.8402C247.472 57.8402 247.033 58.069 247.033 58.5265C247.033 58.984 247.499 59.2128 247.801 59.2128C248.212 59.2128 248.624 59.2128 249.035 59.2454C249.09 59.2454 249.145 59.2454 249.227 59.2454C249.446 59.2454 249.062 59.2454 249.254 59.2454C249.364 59.2454 249.501 59.2781 249.611 59.3108C249.721 59.3435 249.83 59.3762 249.94 59.4088C249.803 59.3108 250.104 59.4415 249.94 59.4088C249.995 59.4415 250.05 59.4742 250.132 59.5069C249.967 59.4415 250.077 59.4742 250.132 59.5069C250.187 59.5722 250.214 59.6376 250.132 59.5069C250.132 59.6049 250.187 59.6049 250.132 59.5069C250.132 59.5396 250.159 59.703 250.132 59.5069C250.132 59.5396 250.132 59.6049 250.132 59.6376C250.132 59.5069 250.132 59.5722 250.132 59.6376C250.077 59.7683 250.214 59.4742 250.132 59.6049C250.077 59.703 250.269 59.4742 250.132 59.6049C250.214 59.5396 250.269 59.4742 250.132 59.6049C249.94 59.6376 250.077 59.6049 250.132 59.6049C250.05 59.6049 249.94 59.6703 249.858 59.6703C249.803 59.6703 249.748 59.6703 249.693 59.6703C249.556 59.6703 249.419 59.6703 249.282 59.6703C248.404 59.6703 247.527 59.5069 246.677 59.4742H246.567C246.457 59.4742 246.375 59.4415 246.265 59.4088C246.018 59.3435 245.772 59.2781 245.525 59.2128C245.47 59.2128 245.415 59.1801 245.36 59.1474C245.552 59.2128 245.36 59.1474 245.333 59.1474C245.223 59.1147 245.141 59.0494 245.031 59.0167C244.976 59.0167 244.702 58.8206 244.894 58.9513C244.867 58.9513 244.839 58.886 244.784 58.886C244.647 58.7879 244.839 58.984 244.784 58.886C244.73 58.8206 244.784 58.7879 244.784 58.9513C244.784 58.886 244.784 59.2128 244.784 59.1474C244.757 59.2454 244.757 59.2455 244.675 59.3108C244.565 59.3108 244.812 59.1801 244.675 59.3108C244.73 59.3108 244.784 59.2454 244.839 59.2454C244.922 59.2454 244.922 59.2454 244.839 59.2454C244.894 59.2454 244.949 59.2454 244.976 59.2128C245.168 59.1474 245.333 59.1147 245.525 59.1147C246.485 59.0494 247.472 59.2454 248.432 59.1147C248.761 59.082 249.2 58.9186 249.2 58.4285C249.2 58.0036 248.733 57.7095 248.432 57.7422L248.541 57.6768Z" fill="currentColor"/>
    <path d="M168.521 259.537C174.746 260.713 177.022 251.335 180.066 246.759L178.832 246.89C180.532 248.557 183.905 249.308 184.728 246.204L183.439 246.498C186.346 249.766 190.569 251.4 194.491 251.857L193.75 250.975C193.284 252.707 193.339 253.687 194.408 255.027C194.737 255.419 195.45 255.55 195.752 255.027C196.355 253.982 200.524 254.014 201.621 253.72C204.089 253.066 206.529 252.315 208.997 251.661C214.619 250.223 220.241 249.439 225.945 248.916C228.056 248.72 230.141 248.361 232.252 248.099C233.568 247.936 234.172 247.576 234.885 248.786C235.378 249.602 235.351 251.302 235.515 252.282C236.091 255.812 236.228 257.642 239.382 257.576L238.614 256.89C238.916 259.21 239.163 261.563 239.382 263.883C239.492 264.864 239.931 266.367 239.574 267.249C239.163 268.262 237.6 268.034 236.612 268.066C232.883 268.23 229.181 268.785 225.479 269.047C217.279 269.635 209.107 267.249 200.908 268.132C198.549 268.393 195.533 268.524 193.586 270.419C192.324 271.661 191.831 273.164 190.213 274.014C188.924 274.668 187.361 274.7 185.962 274.635C183.658 274.537 182.095 273.981 180.477 271.922C179.243 270.321 178.201 268.556 176.912 267.053C175.925 265.942 174.828 265.027 173.731 264.079C171.812 262.478 170.77 260.713 169.261 258.687C168.795 258.066 167.342 258.589 167.918 259.374C168.768 260.517 169.371 261.89 170.276 262.968C171.62 264.57 173.457 265.517 174.911 266.988C177.187 269.275 178.722 273.23 181.382 274.929C184.399 276.857 190.24 276.661 192.873 273.883C194.518 272.151 194.847 270.877 197.425 270.06C199.591 269.373 202.004 269.275 204.253 269.243C208.723 269.21 213.138 269.929 217.581 270.289C222.023 270.648 226.219 270.354 230.552 269.831C233.897 269.439 237.545 269.831 240.781 268.72C241 268.655 241.384 268.426 241.357 268.066C241 264.308 240.644 260.55 240.177 256.825C240.123 256.367 239.766 256.138 239.41 256.138C235.488 256.236 238.203 248.295 235.378 246.531C234.364 245.91 232.883 246.531 231.841 246.694C228.468 247.282 225.067 247.478 221.667 247.838C215.99 248.426 210.369 249.701 204.856 251.302C202.224 252.053 199.756 252.511 197.068 252.805C195.944 252.936 195.066 253.099 194.408 254.276H195.752L195.258 251.269C195.423 250.681 194.874 250.452 194.518 250.387C190.98 249.995 187.169 248.361 184.563 245.452C184.234 245.093 183.412 245.191 183.275 245.746C182.013 246.89 180.889 246.923 179.956 245.844C179.627 245.518 178.997 245.583 178.722 245.975C176.337 249.57 173.814 259.047 168.932 258.132C168.082 257.968 167.506 259.276 168.521 259.439V259.537Z" fill="currentColor"/>
    <path d="M187.361 257.707C185.276 257.544 182.863 257.74 181.053 259.112C180.176 259.766 179.518 260.779 179.38 262.053C179.243 263.361 179.874 264.537 180.752 265.256C182.589 266.727 185.057 266.89 187.169 266.204C189.28 265.517 192.05 263.753 191.447 260.713C190.898 258.001 187.607 257.74 185.743 257.674C185.414 257.674 184.975 257.903 184.975 258.361C184.975 258.818 185.441 259.047 185.743 259.047C186.949 259.08 188.979 259.08 189.746 260.452C190.185 261.269 189.938 262.315 189.472 263.034C188.896 263.851 188.046 264.374 187.223 264.7C185.633 265.354 183.905 265.419 182.342 264.57C181.657 264.178 180.971 263.524 180.944 262.544C180.916 261.563 181.327 260.812 181.958 260.289C183.439 259.014 185.633 258.949 187.388 259.112C187.717 259.112 188.156 258.851 188.156 258.426C188.156 257.936 187.69 257.772 187.388 257.74L187.361 257.707Z" fill="currentColor"/>
    <path d="M214.921 249.57C212.727 250.256 208.943 250.223 207.654 252.936C206.173 256.04 209.793 257.478 211.657 257.772C212.946 257.968 214.208 257.968 215.497 258.099C217.965 258.361 220.433 258.687 222.928 258.72C228.276 258.818 233.897 258.524 239.19 257.642C240.205 257.478 239.629 256.171 238.779 256.334C234.501 257.053 229.976 257.282 225.643 257.38C221.914 257.446 218.266 256.89 214.564 256.694C213.193 256.629 208.696 256.792 208.97 254.112C209.217 251.563 213.796 251.465 215.359 250.975C216.347 250.681 215.798 249.374 214.948 249.668L214.921 249.57Z" fill="currentColor"/>
    <path d="M239.629 261.106C235.186 261.465 230.497 262.936 226.164 261.302C224.738 260.746 223.394 259.962 221.914 259.7C220.268 259.406 218.568 259.537 216.923 259.504C213.659 259.406 210.506 258.687 207.27 259.504C205.515 259.929 203.869 260.844 202.087 261.171C199.811 261.596 197.48 261.465 195.176 261.661C194.216 261.727 194.189 263.099 195.176 263.034C198.823 262.74 202.224 262.838 205.761 261.465C209.518 260.027 213.083 260.812 216.923 260.91C219.116 260.975 221.228 260.812 223.367 261.661C224.848 262.249 226.219 262.968 227.755 263.23C231.704 263.949 235.707 262.838 239.656 262.544C240.616 262.478 240.644 261.106 239.656 261.171L239.629 261.106Z" fill="currentColor"/>
    <path d="M183.247 271.367C186.319 271.726 189.664 270.877 191.639 267.87C192.187 267.021 190.734 266.498 190.295 267.184C188.595 269.766 185.825 270.321 183.247 269.994C182.918 269.962 182.479 270.256 182.479 270.681C182.479 271.171 182.945 271.334 183.247 271.367Z" fill="currentColor"/>
    <path d="M181.739 248.688C181.739 248.688 181.931 248.982 182.013 249.145C182.013 249.145 182.068 249.243 182.068 249.276C182.095 249.341 182.123 249.439 182.15 249.504C182.26 249.831 182.342 250.158 182.397 250.485V250.289C182.424 250.746 182.452 251.171 182.452 251.629C182.452 252.086 182.918 252.315 183.22 252.315C183.521 252.315 183.988 252.086 183.988 251.629C183.988 250.321 183.768 249.014 183.083 248.001C182.836 247.642 182.342 247.576 182.013 247.74C181.711 247.903 181.492 248.328 181.739 248.688Z" fill="currentColor"/>
    <path d="M195.67 259.602C198.385 259.472 201.1 259.406 203.842 259.406C205.076 259.406 206.31 259.374 207.544 259.178C208.778 258.982 210.067 258.753 211.356 258.785C212.316 258.785 212.316 257.413 211.356 257.413C210.149 257.413 208.97 257.576 207.791 257.772C206.474 257.968 205.186 258.034 203.842 258.066C201.127 258.066 198.385 258.132 195.67 258.263C194.71 258.295 194.71 259.668 195.67 259.635V259.602Z" fill="currentColor"/>
    <path d="M309.064 237.675C309.558 240.028 309.942 242.413 310.271 244.799C310.408 245.812 310.38 247.38 311.093 248.132C311.806 248.884 313.205 248.655 314.082 248.589C315.892 248.491 317.702 248.23 319.485 247.871C323.05 247.119 326.533 246.759 330.125 246.465C331.524 246.367 332.977 246.139 334.238 245.387C335.774 244.505 336.185 243.165 337.2 241.661H335.829C337.474 243.59 338.27 245.518 337.063 248.165C336.048 250.387 333.361 249.897 331.606 249.733C327.163 249.276 322.748 247.773 318.333 249.243C317.785 249.439 317.373 250.322 317.757 250.942C319.128 253.132 319.073 256.138 319.183 258.753C319.238 260.125 319.183 261.89 320.445 262.446C321.514 262.903 322.885 262.772 324.01 262.772C325.737 262.772 327.492 262.674 329.22 262.576C333.333 262.38 337.447 262.282 341.588 262.021C343.37 261.923 345.372 261.955 346.798 260.485C347.84 259.406 348.635 257.968 349.513 256.727C349.952 256.106 351.46 253.393 352.255 253.491C351.871 253.459 352.091 253.655 351.926 254.047C351.707 254.57 351.46 255.06 351.213 255.55C350.747 256.433 350.281 257.282 350.144 258.328C349.568 262.74 352.721 266.138 356.067 263.393C359.056 260.942 360.756 256.04 362.073 252.152C362.621 250.518 362.868 248.786 361.826 247.38C361.25 246.596 360.427 246.073 359.687 245.583C358.316 244.668 356.972 243.622 355.738 242.446C354.504 241.269 353.489 239.962 352.338 238.72C351.487 237.805 350.171 237.086 349.458 236.008C348.882 235.126 348.882 233.753 348.416 232.74C347.922 231.564 347.155 230.583 346.332 229.766C344.44 227.871 342.164 226.596 340.244 224.734C337.803 222.381 335.418 220.028 332.675 218.198C332.045 217.773 331.194 218.296 331.222 219.211C331.249 220.126 331.414 220.91 331.77 221.727C332.182 222.675 333.059 223.688 332.428 224.701C331.633 226.041 329.33 226.596 328.041 226.858L329.138 227.381C328.096 224.832 326.889 222.806 325.463 220.518C324.256 218.557 322.885 216.172 321.048 214.962C319.896 214.211 318.059 214.57 317.949 216.466C317.839 218.361 319.677 219.799 320.664 220.877C322.666 223.067 328.342 230.747 324.969 233.786C323.324 235.256 320.637 234.766 318.717 234.962C315.728 235.256 312.711 235.648 309.75 236.237C308.516 236.498 309.037 238.72 310.271 238.459C313.177 237.871 316.139 237.479 319.101 237.25C320.993 237.086 322.995 237.25 324.805 236.465C328.699 234.766 328.233 229.995 326.615 226.4C325.682 224.309 324.476 222.381 323.187 220.616C322.419 219.57 320.198 218.034 319.951 216.662C319.704 216.858 319.732 216.956 320.061 216.956C320.307 217.119 320.527 217.315 320.746 217.544C321.048 217.838 321.35 218.198 321.624 218.557C322.556 219.734 323.351 221.041 324.147 222.315C325.436 224.374 326.478 226.237 327.437 228.557C327.629 229.047 328.123 229.178 328.534 229.08C330.372 228.72 332.785 227.805 333.992 226.041C335.747 223.492 333.169 221.694 333.141 219.211L331.688 220.224C335.774 222.969 339.147 226.858 343.096 229.864C344.961 231.302 346.524 232.773 347.127 235.42C347.566 237.282 348.334 237.969 349.595 239.08C351.597 240.844 353.243 243.132 355.217 244.929C356.232 245.844 357.301 246.694 358.398 247.446C359.084 247.903 360.29 248.426 360.537 249.406C360.921 250.942 359.303 253.753 358.755 255.125C357.904 257.151 356.972 259.308 355.574 260.877C354.97 261.563 354.038 262.413 353.133 262.119C352.146 261.792 351.899 260.093 351.981 259.014C352.146 257.086 353.846 255.779 353.928 253.785C353.983 252.674 353.462 251.498 352.502 251.269C351.542 251.04 350.665 251.89 349.979 252.642C348.965 253.753 348.114 255.093 347.237 256.367C346.634 257.282 345.975 258.459 345.125 259.08C344.028 259.897 342.493 259.668 341.259 259.766C339.915 259.864 338.571 260.06 337.2 260.125C335.472 260.191 333.745 260.125 331.99 260.158C328.671 260.289 325.298 260.714 321.98 260.419C321.733 260.419 321.514 260.354 321.267 260.321C320.828 260.289 321.103 260.125 321.24 260.517C320.883 259.537 321.075 258.034 321.02 256.955C320.911 254.537 320.609 251.792 319.375 249.799L318.799 251.498C321.898 250.485 325.107 251.073 328.233 251.596C330.756 252.021 333.717 252.74 336.24 251.825C338.132 251.139 339.01 249.112 339.449 246.956C340.025 244.047 338.845 242.054 337.173 240.06C336.816 239.668 336.131 239.57 335.801 240.06C334.897 241.4 334.43 242.838 333.004 243.524C331.88 244.047 330.591 244.145 329.385 244.21C326.587 244.341 323.9 244.701 321.158 245.191C319.704 245.452 318.251 245.844 316.77 246.041C315.975 246.139 315.152 246.237 314.329 246.269C313.89 246.269 312.766 246.596 312.355 246.302C312.574 246.465 312.355 246.106 312.3 245.779C312.19 244.864 312.053 243.949 311.916 243.034C311.614 241.008 311.285 239.014 310.874 237.021C310.572 235.583 308.708 236.204 309.009 237.642L309.064 237.675Z" fill="currentColor"/>
    <path d="M351.487 241.858C351.323 241.858 351.131 241.858 350.966 241.858C350.72 241.858 350.445 241.923 350.226 241.988C349.952 242.086 349.678 242.184 349.431 242.413C349.239 242.576 349.047 242.838 348.992 243.099C348.937 243.426 348.965 243.753 349.074 244.047C349.211 244.374 349.403 244.733 349.678 244.929C350.061 245.224 350.555 245.289 350.994 245.093C351.296 244.962 351.515 244.668 351.652 244.341C351.762 244.08 351.817 243.72 351.762 243.426C351.734 243.197 351.707 243.034 351.597 242.838C351.542 242.707 351.487 242.609 351.405 242.478C351.323 242.348 351.241 242.25 351.131 242.152C350.994 242.021 350.747 241.956 350.582 241.956C350.418 241.956 350.171 242.021 350.034 242.152C349.924 242.282 349.787 242.446 349.815 242.642V242.838C349.815 242.838 349.952 243.067 350.034 243.132C350.034 243.132 349.952 243.067 349.924 243.001C350.007 243.099 350.089 243.23 350.144 243.361L350.061 243.197C350.061 243.197 350.171 243.459 350.199 243.622V243.426C350.199 243.426 350.199 243.72 350.199 243.851V243.655C350.199 243.655 350.199 243.884 350.116 243.982L350.199 243.818C350.199 243.818 350.116 243.949 350.089 243.982L350.199 243.851C350.199 243.851 350.144 243.916 350.089 243.949L350.253 243.851C350.253 243.851 350.199 243.884 350.171 243.884L350.363 243.818C350.363 243.818 350.308 243.818 350.281 243.818H350.5C350.5 243.818 350.445 243.818 350.418 243.818H350.637C350.637 243.818 350.583 243.818 350.555 243.818L350.747 243.884C350.747 243.884 350.692 243.884 350.637 243.818L350.802 243.916C350.802 243.916 350.72 243.851 350.665 243.818L350.774 243.949C350.774 243.949 350.583 243.688 350.528 243.524L350.61 243.688C350.61 243.688 350.5 243.459 350.5 243.328V243.524C350.5 243.524 350.5 243.361 350.5 243.295V243.492C350.5 243.492 350.5 243.361 350.528 243.295L350.445 243.459C350.445 243.459 350.5 243.361 350.555 243.328L350.445 243.459C350.445 243.459 350.555 243.361 350.61 243.328L350.445 243.426C350.445 243.426 350.637 243.328 350.747 243.263L350.555 243.328C350.747 243.263 350.939 243.23 351.131 243.197H350.912C351.104 243.197 351.268 243.197 351.46 243.197C351.652 243.197 351.871 243.132 352.009 243.001C352.118 242.903 352.255 242.707 352.228 242.511C352.228 242.054 351.789 241.825 351.46 241.825L351.487 241.858Z" fill="currentColor"/>
    <path d="M337.118 239.766C334.293 235.845 331.496 231.89 329.165 227.511C328.781 226.792 327.355 227.315 327.821 228.198C330.152 232.577 332.977 236.498 335.774 240.452C336.24 241.106 337.694 240.55 337.118 239.766Z" fill="currentColor"/>
    <path d="M265.653 127.088C275.69 141.695 282.738 158.885 292.254 173.983C296.724 181.041 301.221 188.198 305.417 195.486C309.612 202.773 313.561 210.812 318.525 217.577C318.991 218.23 320.445 217.675 319.869 216.891C315.042 210.322 311.23 202.577 307.117 195.388C303.004 188.198 298.205 180.551 293.625 173.296C284.109 158.198 277.089 141.009 267.024 126.401C266.558 125.748 265.105 126.271 265.681 127.088H265.653Z" fill="currentColor"/>
    <path d="M256.549 109.049C257.92 111.728 259.401 114.31 260.69 117.023C261.567 118.885 262.253 120.748 262.938 122.709C263.432 124.147 264.035 125.748 265.187 126.598C266.586 127.611 268.149 126.924 269.355 125.879C269.52 125.715 269.63 125.454 269.547 125.225C268.478 122.055 266.421 119.702 264.447 117.349C262.472 114.996 260.964 112.186 258.715 110.193C258.112 109.67 256.851 110.487 257.618 111.173C259.785 113.068 261.211 115.813 263.103 118.068C264.995 120.323 267.052 122.578 268.067 125.617L268.259 124.964C267.792 125.356 267.162 125.879 266.558 125.781C266.12 125.715 265.79 125.258 265.516 124.866C264.748 123.722 264.364 122.251 263.898 120.911C262.363 116.434 259.949 112.48 257.838 108.362C257.454 107.644 256.028 108.134 256.494 109.049H256.549Z" fill="currentColor"/>
    <path d="M54.3863 25.2916C54.6057 23.723 54.6057 22.1544 54.8251 20.5858C54.9348 19.8342 55.0719 19.0826 55.3461 18.3963C55.5655 17.8081 55.8946 17.0238 56.3608 16.697C56.6624 16.4682 56.9915 16.5662 57.3206 16.6316C57.8416 16.7623 58.4724 16.893 58.9385 17.2198C59.0208 17.2852 59.1031 17.3832 59.0757 17.3506C59.1305 17.4813 59.1579 17.6447 59.2128 17.7754C59.3499 18.2656 59.5693 18.6904 59.8709 19.0499C60.1726 19.442 60.913 19.5728 61.2147 19.0499C61.5712 18.3963 61.8728 17.6773 61.7083 16.8604C61.5712 16.2068 61.1598 15.7493 60.6936 15.3898C59.6515 14.6382 58.3901 14.4421 57.2109 14.1153L57.7868 14.7689V14.8669C57.5674 14.965 57.348 15.0957 57.1286 15.1937C58.774 15.2591 61.0775 15.8146 60.7485 18.3636C60.5839 19.7688 59.7064 20.8799 59.3773 22.2198C58.966 23.9191 59.1579 25.7818 59.5967 27.4485L60.5565 26.5988C58.2255 25.9779 56.0591 24.638 53.5911 24.6707C53.262 24.6707 52.8232 24.8995 52.8232 25.357C52.8232 25.8145 53.2894 26.0433 53.5911 26.0433C55.8672 26.0433 57.9513 27.3178 60.1452 27.906C60.5565 28.004 61.2695 27.7099 61.105 27.0563C60.5565 25.0956 60.5565 23.0368 61.3792 21.2067C61.9825 19.8015 62.6681 18.2656 62.1745 16.6643C61.7631 15.3898 60.721 14.6382 59.679 14.246C59.0757 14.0173 58.4724 13.9192 57.8416 13.8539C57.2109 13.7885 56.3059 13.7232 56.2511 14.7362C56.2511 15.0957 56.5802 15.3244 56.827 15.3898C57.7045 15.6186 58.6095 15.7493 59.4322 16.2068C59.7064 16.3375 60.0355 16.5662 60.1726 16.893C60.3645 17.3506 60.1177 17.9061 59.8983 18.2983H61.2421C60.913 17.8734 60.8307 17.4813 60.6388 16.9584C60.4468 16.4355 60.0903 16.1087 59.6515 15.9127C59.0208 15.5859 58.3078 15.3571 57.6222 15.2264C56.9915 15.0957 56.3334 15.063 55.73 15.3571C54.3863 16.0434 53.7282 18.0041 53.4539 19.5727C53.1249 21.4355 53.1249 23.3636 52.8781 25.2263C52.7684 26.1086 54.3041 26.1413 54.4412 25.2263L54.3863 25.2916Z" fill="currentColor"/>
    <path d="M56.8818 16.1741C56.8818 16.1741 57.0463 15.9454 57.1286 15.8473L57.0189 15.978C57.1834 15.782 57.3754 15.6186 57.5674 15.4225C57.6496 15.3571 57.7045 15.2918 57.7319 15.1937C57.7867 15.1284 57.8142 15.0303 57.7867 14.9323C57.7867 14.8343 57.7867 14.7362 57.7319 14.6709C57.7045 14.5728 57.6496 14.5075 57.5674 14.4421C57.4028 14.3114 57.2109 14.246 57.0189 14.246H56.7995C56.7995 14.246 56.5527 14.3441 56.443 14.4421C56.3059 14.5728 56.1688 14.7035 56.0591 14.8343C55.8671 15.0303 55.7026 15.2264 55.538 15.4552C55.4832 15.5205 55.4558 15.6186 55.4558 15.7166C55.4558 15.8146 55.4558 15.9127 55.4558 15.978C55.4832 16.0761 55.538 16.1414 55.5929 16.2068C55.6477 16.2721 55.73 16.3375 55.8123 16.3702C56.0042 16.4682 56.2236 16.5009 56.4156 16.4355C56.5801 16.3702 56.7721 16.3048 56.8818 16.1088V16.1741Z" fill="currentColor"/>
    <path d="M205.432 58.2651C205.46 61.1082 204.884 63.8859 204.61 66.729C204.61 66.9904 204.802 67.2519 204.994 67.3172C207.379 68.3303 209.93 69.0819 212.48 69.18C212.754 69.18 213.303 68.9512 213.248 68.4937C213.111 67.3172 213.083 66.1081 213.001 64.9316C212.919 63.8205 212.754 62.7421 212.782 61.631C212.782 59.9971 213.166 57.8402 211.932 56.6965C210.917 55.7488 209.217 55.6834 208.01 55.9122C206.804 56.1409 206.31 57.3827 205.46 58.2977C204.747 59.082 206.008 59.8664 206.557 59.2781C206.995 58.8206 207.352 58.3304 207.708 57.7749C207.928 57.4808 208.038 57.3174 208.284 57.252C208.778 57.1213 209.409 57.1866 209.902 57.252C210.314 57.3174 210.698 57.4154 210.972 57.8402C211.328 58.4285 211.273 59.2781 211.246 59.9644C211.246 60.7814 211.191 61.631 211.219 62.448C211.246 63.4284 211.411 64.3761 211.465 65.3565C211.52 66.4022 211.548 67.448 211.685 68.4937L212.453 67.8074C210.204 67.7094 207.873 67.0231 205.761 66.1081L206.145 66.6963C206.42 63.8859 207.023 61.1082 206.968 58.2324C206.968 57.3174 205.405 57.3174 205.405 58.2324L205.432 58.2651Z" fill="currentColor"/>
    <path d="M206.749 64.8663C207.27 64.0166 207.654 63.1016 207.873 62.0886C208.038 61.2389 208.147 60.3239 208.312 59.4742C208.339 59.3108 208.367 59.1474 208.421 58.984C208.421 58.9187 208.476 58.8533 208.504 58.788C208.504 58.7553 208.504 58.7553 208.504 58.8206C208.504 58.8206 208.531 58.7553 208.559 58.7226C208.586 58.6572 208.641 58.6246 208.668 58.5592C208.586 58.6572 208.613 58.6246 208.668 58.5592C208.586 58.5592 208.805 58.4285 208.668 58.5592C208.696 58.5592 208.751 58.5265 208.778 58.4939C208.559 58.5919 208.751 58.4939 208.778 58.4939C208.833 58.4939 208.86 58.4939 208.915 58.4939C208.668 58.5592 208.915 58.4939 208.97 58.4939C209.025 58.4939 209.08 58.4939 209.134 58.4939C209.464 58.4939 209.82 58.4939 210.149 58.4939C210.478 58.4939 210.917 58.2651 210.917 57.8076C210.917 57.3501 210.451 57.1213 210.149 57.1213C209.518 57.1213 208.805 57.0233 208.175 57.2194C207.544 57.4154 207.105 57.9056 206.886 58.6572C206.776 59.0821 206.721 59.5069 206.639 59.9317C206.557 60.3892 206.502 60.8794 206.42 61.3369C206.228 62.3827 205.926 63.265 205.378 64.1147C204.829 64.9643 206.283 65.4872 206.721 64.801L206.749 64.8663Z" fill="currentColor"/>
    <path d="M206.968 61.1082C207.626 61.435 208.312 61.5984 208.997 61.7618C209.189 61.7945 209.409 61.7618 209.601 61.6964C209.738 61.631 209.902 61.4677 209.957 61.2716C210.067 60.8467 209.738 60.5199 209.409 60.4219C208.943 60.3239 208.476 60.1931 208.01 60.0298L208.202 60.0951C208.038 60.0298 207.9 59.9644 207.763 59.8991C207.571 59.801 207.352 59.7683 207.16 59.8337C206.995 59.8664 206.804 59.9971 206.694 60.1605C206.612 60.3239 206.557 60.52 206.612 60.6834C206.666 60.8467 206.804 61.0101 206.968 61.1082Z" fill="currentColor"/>
    <path d="M180.752 264.21C182.342 264.798 184.097 264.962 185.743 264.733C187.223 264.537 189.033 263.851 189.637 262.021C190.021 260.877 189.774 259.635 189.417 258.524C189.143 257.707 187.607 258.001 187.909 258.883C188.074 259.341 188.211 259.798 188.238 260.289C188.266 260.681 188.238 261.106 188.183 261.4C188.074 261.792 188.046 261.923 187.827 262.217C187.772 262.282 187.745 262.347 187.69 262.38C187.772 262.282 187.635 262.446 187.58 262.478C187.525 262.544 187.47 262.576 187.415 262.642C187.388 262.642 187.169 262.838 187.278 262.74C186.675 263.132 186.209 263.263 185.441 263.361C185.386 263.361 185.331 263.361 185.304 263.361C185.331 263.361 185.441 263.361 185.304 263.361C185.222 263.361 185.139 263.361 185.057 263.361C184.865 263.361 184.646 263.361 184.454 263.361C184.07 263.361 183.713 263.361 183.329 263.295C183.192 263.295 183.439 263.295 183.329 263.295C183.275 263.295 183.22 263.295 183.137 263.295C183.028 263.295 182.945 263.295 182.863 263.263C182.671 263.23 182.479 263.197 182.26 263.132C181.903 263.034 181.519 262.936 181.163 262.805C180.834 262.674 180.34 262.87 180.203 263.295C180.066 263.753 180.45 264.014 180.752 264.145V264.21Z" fill="currentColor"/>
</svg>
