<svg width="268" height="175" viewBox="0 0 268 175" fill="none"
    xmlns="http://www.w3.org/2000/svg">
    <path d="M262.128 16.9859C262.896 15.2538 263.636 13.4238 263.774 11.463C263.911 9.633 263.362 7.93368 262.375 6.52847C259.962 3.19517 255.958 1.43049 252.393 3.06446C251.927 3.29321 252.146 4.17555 252.612 3.9468C255.876 2.41087 259.441 3.97948 261.717 7.01866C262.677 8.26047 263.143 9.82908 263.006 11.5284C262.869 13.2277 262.156 14.9597 261.47 16.4957C261.223 17.0185 261.909 17.476 262.128 16.9532V16.9859Z" fill="currentColor"/>
    <path d="M13.9224 129.86C10.9333 130.122 8.30068 127.017 6.60045 124.435C4.5163 121.266 4.95507 117.213 7.42314 114.566C7.80707 114.174 7.23118 113.521 6.87468 113.913C4.24207 116.756 3.66619 121.233 5.80518 124.697C7.6151 127.638 10.6316 131.069 13.9224 130.808C14.416 130.775 14.416 129.827 13.9224 129.893V129.86Z" fill="currentColor"/>
    <path d="M261.004 35.0574C261.552 33.4888 262.375 31.5934 262.238 29.8614C262.101 27.9333 260.455 27.5411 259.139 27.5085C257.274 27.4431 255.437 27.3124 253.572 27.3777C251.707 27.4431 249.568 27.5411 247.731 26.6915C247.265 26.4627 247.073 27.3777 247.512 27.5738C250.638 29.0771 254.258 27.9987 257.521 28.3254C258.645 28.4562 261.114 27.9987 261.443 29.796C261.58 30.5476 261.278 31.4953 261.086 32.1816C260.867 32.9986 260.593 33.7829 260.318 34.5999C260.126 35.1554 260.784 35.6129 260.976 35.0574H261.004Z" fill="currentColor"/>
    <path d="M69.1524 92.7692C70.4139 92.7692 70.4139 90.449 69.1524 90.449C67.8909 90.449 67.8909 92.7692 69.1524 92.7692Z" fill="currentColor"/>
    <path d="M213.672 36.1032C213.178 37.9986 210.82 38.5215 209.449 39.1424C207.693 39.9267 206.158 41.0378 204.65 42.4103C201.825 45.0247 199.631 48.3906 198.397 52.4102C195.819 60.6781 197.328 70.0897 197.794 78.619C198.534 91.6581 199.467 104.697 199.933 117.769C200.289 128.063 200.262 139.729 194.366 148.063C191.459 152.18 187.373 155.056 183.452 157.572C179.228 160.317 174.813 162.572 170.371 164.729C161.102 169.173 150.873 173.945 140.726 170.873C136.969 169.729 133.213 167.049 130.306 163.977C127.399 160.906 124.684 158.095 122.161 154.893C116.786 148.063 112.289 140.056 107.462 132.671C104.501 128.128 101.457 123.684 98.6047 119.011C95.9172 114.632 93.1749 109.86 89.3631 106.756C85.7707 103.847 81.383 101.462 77.0227 101.004C75.0757 100.808 73.4852 101.298 71.7301 102.213C69.7556 103.227 67.3698 104.926 65.1486 104.076C63.9694 103.619 63.4483 105.841 64.6275 106.298C68.4119 107.769 71.4559 103.88 74.9934 103.325C79.1069 102.671 83.7688 105.383 87.1967 107.867C91.0633 110.677 93.7782 115.056 96.4108 119.37C99.0434 123.684 101.758 127.932 104.583 132.115C109.601 139.468 114.099 147.376 119.282 154.566C121.914 158.226 125.04 161.298 127.975 164.598C130.552 167.507 133.542 169.925 136.778 171.69C145.635 176.526 156.22 173.585 164.886 169.762C173.552 165.938 183.013 161.559 190.801 154.925C194.284 151.951 197.136 148.357 198.973 143.684C200.81 139.01 201.523 134.337 201.852 129.435C202.236 123.618 201.907 117.736 201.633 111.919C201.331 105.22 200.92 98.5534 200.536 91.8868C200.18 85.8085 199.85 79.7301 199.439 73.6844C199.137 69.1093 198.754 64.5015 199.055 59.9264C199.357 55.3513 200.454 51.201 202.812 47.737C204.211 45.7109 205.911 44.0116 207.776 42.6391C209.284 41.528 210.984 41.0705 212.575 40.2208C213.919 39.5018 215.098 38.5215 215.536 36.7568C215.893 35.3189 214.028 34.7307 213.672 36.1359V36.1032Z" fill="currentColor"/>
    <path d="M189.704 75.1223C189.32 65.5799 188.854 54.7957 192.419 45.9396C193.653 42.8351 195.435 40.1554 197.602 37.9005C198.726 36.7241 199.96 35.7437 201.222 34.7633C203.443 33.064 205.637 30.6784 208.352 30.2862C209.586 30.1228 209.586 27.8026 208.352 27.966C205.719 28.3255 203.608 29.9921 201.469 31.7568C199.96 32.9986 198.397 34.1424 196.971 35.5149C194.531 37.8678 192.474 40.7109 191.02 44.0442C186.962 53.4232 187.346 64.8936 187.757 75.0896C187.812 76.5602 189.759 76.5928 189.704 75.0896V75.1223Z" fill="currentColor"/>
    <path d="M111.795 123.52C114.921 128.128 118.13 132.67 121.284 137.213C124.684 142.115 127.838 147.376 131.567 151.919C134.776 155.84 138.725 160.088 143.167 161.886C147.006 163.422 151.586 161.755 155.261 160.252C159.319 158.585 163.186 156.363 167.19 154.566C169.85 153.356 172.537 152.343 175.142 150.971C179.119 148.912 183.26 146.363 186.77 143.357C190.088 140.514 191.679 136.363 192.117 131.625C192.392 128.716 192.309 125.742 192.254 122.801C192.172 118.88 192.172 114.958 192.035 111.037C191.733 103.161 191.048 95.318 190.472 87.4423C190.362 85.9717 188.415 85.9717 188.525 87.4423C189.457 100.187 190.253 112.867 190.362 125.677C190.417 130.481 190.307 135.84 187.428 139.598C185.783 141.755 183.452 143.062 181.367 144.5C179.612 145.71 177.857 146.853 176.02 147.899C173.634 149.304 171.139 150.35 168.616 151.428C165.16 152.932 161.787 154.729 158.36 156.363C154.493 158.193 150.215 160.252 145.992 160.088C141.494 159.892 137.326 155.285 134.255 151.788C130.196 147.18 126.905 141.657 123.34 136.527C119.775 131.396 116.539 126.756 113.166 121.854C112.371 120.71 111 122.344 111.795 123.488V123.52Z" fill="currentColor"/>
    <path d="M66.8215 93.9783C69.7009 92.2463 72.5529 91.0698 75.8437 91.3313C79.628 91.5927 83.6318 93.292 87.2242 94.7626C88.9519 95.4816 90.6795 96.2659 92.2701 97.377C94.1074 98.6515 95.6431 100.58 97.1239 102.377C100.332 106.266 103.157 110.547 105.982 114.828C106.749 116.004 108.121 114.338 107.353 113.194C104.281 108.521 101.183 103.88 97.6175 99.6972C96.1641 97.9979 94.6559 96.2985 92.8459 95.1221C91.036 93.9456 89.1438 93.096 87.2516 92.3443C83.385 90.8084 79.1893 89.0437 75.0758 88.9784C71.7576 88.913 68.7959 90.2529 65.8617 91.9849C64.7373 92.6385 65.7246 94.6646 66.8489 93.9783H66.8215Z" fill="currentColor"/>
    <path d="M145.827 94.2398C138.642 98.4881 131.019 101.527 123.45 104.73C120.022 106.168 116.567 107.606 113.139 109.076C110.781 110.089 107.545 111.331 105.954 113.782C104.693 115.743 105.077 119.109 106.201 121.069C107.325 123.03 109.409 123.684 111.329 123.52C114.291 123.259 117.143 121.462 119.858 120.22C123.258 118.684 126.659 117.181 130.059 115.677C143.825 109.632 157.564 103.488 171.248 97.2463C175.033 95.5143 178.762 93.6515 182.519 91.7888C185.015 90.547 187.922 89.5993 190.143 87.7039C192.008 86.1353 192.885 83.6843 193.187 81.07C193.434 78.6844 193.159 74.8282 190.691 74.2073C189.567 73.9132 188.388 74.5668 187.373 75.057C185.344 76.0701 183.315 77.0504 181.285 78.0635C177.035 80.155 172.784 82.2791 168.533 84.3706C159.84 88.6516 151.065 92.5078 142.29 96.4946C141.604 96.8214 141.906 98.1613 142.591 97.8345C149.365 94.7626 156.221 91.9195 162.939 88.6189C169.658 85.3183 176.404 81.9523 183.15 78.6517C184.549 77.9655 185.975 77.2792 187.373 76.5929C188.772 75.9067 190.472 74.7302 191.541 76.5929C193.05 79.2726 191.953 84.1092 190.033 86.1353C188.114 88.1614 184.96 89.1418 182.547 90.3509C179.366 91.9195 176.185 93.5535 172.976 95.0241C160.937 100.612 148.816 106.004 136.668 111.331C130.69 113.945 124.684 116.592 118.733 119.272C116.183 120.416 113.386 122.246 110.589 122.148C107.791 122.05 106.311 119.697 106.42 116.429C106.557 112.606 112.344 110.841 114.812 109.828C118.212 108.455 121.585 106.952 124.986 105.547C132.253 102.508 139.547 99.5338 146.431 95.4162C147.116 95.0241 146.513 93.8149 145.855 94.2071L145.827 94.2398Z" fill="currentColor"/>
    <path d="M224.284 36.2012C232.319 32.2797 240.272 28.1621 248.28 24.2079C252.229 22.2799 256.177 20.3518 260.154 18.4237C262.32 17.378 265.721 16.757 266.927 14.0447C268.134 11.3323 267.229 7.60684 266.324 4.95981C265.419 2.31279 263.774 0.25399 261.196 0.0252345C258.618 -0.203521 255.958 1.16901 253.545 2.28011C249.623 4.04479 245.729 5.87483 241.863 7.80291C237.31 10.0578 232.786 12.3453 228.233 14.5675C224.202 16.5283 220.116 18.3257 216.277 20.7766C215.18 21.4956 216.167 23.489 217.264 22.77C223.681 18.6851 230.756 15.842 237.448 12.5087C243.782 9.33884 250.117 6.07091 256.616 3.3912C258.728 2.50886 261.744 1.36509 263.527 3.68532C264.98 5.58072 266.297 10.4499 265.282 12.8682C264.706 14.2081 263.115 14.6329 262.019 15.0904C260.51 15.7113 259.057 16.4629 257.603 17.1819C254.23 18.8158 250.857 20.4498 247.512 22.0838C239.587 25.9726 231.744 30.0575 223.818 33.9137C222.667 34.4692 223.188 36.7241 224.339 36.1359L224.284 36.2012Z" fill="currentColor"/>
    <path d="M58.6768 91.0372C56.9766 90.8084 54.7005 90.5143 53.3019 91.9849C52.4243 92.8999 52.2324 94.2397 51.1903 95.0567C50.1482 95.8737 48.7771 96.2985 47.5979 96.8214C44.9653 98.0306 42.2504 98.8802 39.5629 99.926C36.7109 101.037 33.9686 102.442 31.1441 103.619C25.824 105.841 20.5039 108.128 15.1564 110.253C12.6884 111.233 10.1929 112.148 7.72479 113.161C5.9423 113.88 3.99526 114.599 2.45957 115.939C-3.90257 121.592 3.25484 136.494 10.5768 133.357C15.2935 131.331 19.7909 128.586 24.4803 126.429C30.102 123.847 35.7511 121.364 41.3729 118.684C44.362 117.246 47.3511 115.743 50.395 114.501C52.3146 113.717 54.9473 113.357 56.0442 111.037C56.5378 109.991 56.4281 108.847 56.291 107.704C56.0442 105.743 56.1539 104.305 56.9217 102.54C58.3751 99.2397 58.6494 95.8737 59.2801 92.279C59.5543 90.8411 57.6621 90.2202 57.4153 91.6581C56.8943 94.5012 56.8394 97.573 55.7699 100.253C54.8924 102.442 53.96 104.142 54.1794 106.691C54.2891 107.965 54.8101 109.37 53.9875 110.416C53.3841 111.2 52.1501 111.396 51.3274 111.691C48.8868 112.606 46.501 113.717 44.1152 114.86C34.7639 119.37 25.1933 123.259 16.0065 128.161C14.1144 129.174 12.2222 130.187 10.2751 131.037C7.64252 132.18 5.58579 130.971 3.96784 128.324C1.74657 124.697 0.786764 119.403 4.68083 117.017C8.57491 114.632 12.8255 113.619 16.8018 112.017C21.5734 110.089 26.2902 108.03 31.0618 106.102C33.6944 105.024 36.2722 103.717 38.9048 102.638C41.5374 101.56 44.4991 100.612 47.2414 99.4358C49.1061 98.6188 51.4645 97.9325 53.0002 96.3312C53.9326 95.3508 54.1794 93.7822 55.4134 93.2921C56.4007 92.8999 57.6896 93.194 58.7042 93.3247C59.9382 93.4881 59.9382 91.1679 58.7042 91.0045L58.6768 91.0372Z" fill="currentColor"/>
    <path d="M53.5212 111.233C50.4224 107.867 46.8574 101.364 51.0257 97.2135C51.4097 96.8213 50.8612 96.1677 50.4773 96.5599C45.9525 101.07 49.5449 108.161 52.9728 111.886C53.3293 112.279 53.9051 111.625 53.5212 111.233Z" fill="currentColor"/>
    <path d="M55.8248 102.704C54.152 99.7298 53.1099 95.3181 55.4134 92.4097C55.7699 91.9848 55.2215 91.3312 54.865 91.7561C52.2872 94.9913 53.2744 99.8279 55.1666 103.194C55.4409 103.684 56.1264 103.194 55.8248 102.736V102.704Z" fill="currentColor"/>
    <path d="M58.8139 92.3115C60.3495 91.7233 61.8852 91.0697 63.4758 90.7103C64.271 90.5469 65.3954 90.2527 66.1358 90.7103C67.2601 91.3638 66.3552 93.0959 65.8067 93.8475C64.7646 95.2854 64.0242 96.5599 63.6951 98.4879C63.3935 100.22 63.4758 101.919 63.8323 103.619C64.0242 104.664 64.2985 106.2 65.1486 106.821C65.9987 107.442 67.2327 106.887 68.0554 106.625C68.9878 106.331 70.688 105.383 71.6204 105.906C72.3334 106.298 72.7722 107.769 73.019 108.553C73.3755 109.73 73.6497 110.906 74.1707 111.984L74.3079 111.364C72.5254 112.573 70.6332 113.422 68.741 114.403C67.4521 115.089 66.3003 116.298 64.9566 116.821C62.6805 117.703 62.6257 113.782 62.4337 112.05C62.2417 110.318 61.9949 108.03 60.2947 107.638C58.8413 107.311 57.2782 108.88 55.9344 107.998C53.6857 106.494 55.5231 104.109 56.3732 102.377C57.1685 100.775 57.3879 98.9128 57.6895 97.1154C57.9912 95.318 58.4299 92.8344 60.0205 92.0828C60.4867 91.854 60.2673 90.9717 59.8011 91.2004C56.9217 92.6057 57.1136 97.2134 56.3458 100.187C55.8522 102.083 54.4536 103.488 54.1245 105.416C53.8503 107.05 54.8924 108.749 56.2361 109.141C57.6621 109.534 59.4446 107.769 60.706 108.815C61.5561 109.501 61.6384 111.331 61.7481 112.442C61.9401 114.305 61.9949 117.409 63.9694 117.867C65.4228 118.194 66.9036 116.723 68.0828 115.906C70.1944 114.435 72.5802 113.618 74.7192 112.181C74.9112 112.05 74.966 111.756 74.8563 111.56C73.732 109.305 73.54 104.403 70.4961 104.991C69.2346 105.22 68.0554 105.775 66.8214 106.037C66.0261 106.2 65.5051 106.266 65.0937 105.318C64.7647 104.566 64.6275 103.684 64.4904 102.834C64.1065 100.547 64.271 97.7363 65.4502 95.7756C66.1907 94.5337 67.315 93.6187 67.4521 91.9847C67.6166 89.8606 65.889 89.4358 64.463 89.5992C62.4611 89.7952 60.5689 90.6776 58.6493 91.3965C58.1831 91.5599 58.3751 92.4749 58.8687 92.2789L58.8139 92.3115Z" fill="currentColor"/>
    <path d="M25.7691 142.638C24.1512 141.298 21.7928 138.749 22.4235 136.069C22.8623 134.206 25.0287 132.442 26.2079 131.2C29.0599 128.226 32.3781 125.971 35.6963 123.88C39.5355 121.462 43.4021 119.337 47.4882 117.638C49.2432 116.886 51.108 116.298 52.8082 115.449C53.5761 115.056 54.2617 114.632 54.6456 113.684C55.1666 112.344 55.1118 111.135 56.4006 110.351C57.2508 109.828 58.5122 109.599 59.3898 110.024C60.6512 110.645 60.7883 112.246 61.0626 113.618C61.1997 114.37 61.3642 115.122 61.6933 115.775C62.0224 116.429 62.5708 116.788 62.6257 117.638C62.7079 118.618 62.1869 118.749 61.4739 119.174C60.7335 119.599 59.9382 119.991 59.1704 120.318C56.099 121.625 52.6985 121.756 49.49 122.377C46.0073 123.063 42.9085 125.089 40.0017 127.409C36.848 129.925 33.5847 132.311 30.4859 134.925C29.2793 135.938 27.7436 137.148 26.9483 138.684C26.2079 140.089 26.8935 142.899 24.8093 142.605C24.3157 142.54 24.3157 143.455 24.8093 143.52C25.7691 143.651 26.7563 143.259 27.0854 142.115C27.3048 141.396 27.1677 140.579 27.3597 139.827C27.6887 138.618 28.676 137.736 29.4712 136.952C31.1715 135.285 33.0636 133.978 34.901 132.605C36.7383 131.233 38.5483 129.631 40.3856 128.193C42.2229 126.756 43.978 125.481 45.9525 124.533C48.256 123.455 50.6418 123.128 53.055 122.671C56.291 122.082 59.6091 121.592 62.4886 119.566C63.229 119.043 63.8871 118.324 63.5581 117.181C63.3935 116.592 62.8725 116.135 62.5708 115.645C61.8578 114.435 61.8304 113.03 61.4465 111.658C60.5964 108.521 57.2782 107.9 55.2215 110.056C54.3713 110.939 54.3988 112.017 53.9326 113.096C53.439 114.272 52.4517 114.534 51.4645 114.991C50.0659 115.579 48.6399 116.135 47.2414 116.723C42.9085 118.553 38.7951 120.808 34.7364 123.39C30.3762 126.167 26.3998 129.337 22.8897 133.52C19.9554 137.017 22.5332 141.102 25.3029 143.422C25.7143 143.782 26.0982 142.965 25.6868 142.638H25.7691Z" fill="currentColor"/>
    <path d="M26.2902 141.461C22.1493 133.586 32.2958 127.148 37.0126 124.37C40.5228 122.311 44.17 120.579 47.8173 118.88C50.2031 117.736 52.6437 116.789 55.1392 116.004C57.1685 115.351 59.143 114.632 60.7884 113.063C61.1723 112.704 60.6238 112.05 60.2399 112.41C58.0187 114.501 55.057 114.959 52.4244 115.939C49.5724 116.985 46.8026 118.357 44.0329 119.73C40.7147 121.364 37.3965 122.998 34.2429 125.089C29.5261 128.226 21.7106 134.501 25.632 141.984C25.9063 142.475 26.5644 142.017 26.2902 141.527V141.461Z" fill="currentColor"/>
    <path d="M62.7355 112.442C64.9293 111.2 67.2877 110.351 69.1799 108.455C69.5638 108.063 69.0153 107.409 68.6314 107.802C66.7941 109.632 64.4631 110.481 62.3515 111.658C61.8853 111.919 62.2967 112.703 62.7355 112.442Z" fill="currentColor"/>
    <path d="M68.8233 105.775C68.1651 107.344 68.4942 109.174 69.0975 110.677C69.7008 112.181 70.6058 113.651 71.8398 114.37C72.2786 114.632 72.6899 113.847 72.2238 113.586C71.1543 112.965 70.359 111.658 69.8379 110.416C69.3169 109.174 68.9604 107.54 69.4814 106.266C69.7008 105.743 69.0427 105.253 68.8233 105.808V105.775Z" fill="currentColor"/>
    <path d="M203.223 31.1361C204.677 29.8616 206.377 28.391 208.16 29.7309C208.982 30.3191 209.668 31.2668 210.326 32.0838C210.984 32.9008 211.752 33.7177 212.438 34.5347C213.096 35.2863 213.809 36.038 214.385 36.8876C214.796 37.4759 215.207 38.2275 215.207 39.0118C215.18 40.7765 213.151 41.9529 212.026 42.5738C211.231 43.0313 210.353 43.3908 209.449 43.2928C208.461 43.1947 207.666 42.5085 206.98 41.6588C206.651 41.234 206.103 41.8876 206.432 42.3124C207.776 44.0444 209.531 44.6326 211.423 43.881C212.383 43.4889 213.288 42.9006 214.11 42.2144C214.769 41.6588 215.454 40.9725 215.783 40.0575C216.469 38.1621 215.153 36.3974 214.083 35.1556C213.26 34.1752 212.41 33.1949 211.588 32.2472C210.765 31.2995 209.942 30.2537 209.037 29.3714C208.187 28.5544 207.145 28.0969 206.048 28.3256C204.841 28.5871 203.799 29.5021 202.84 30.3518C202.456 30.7112 202.84 31.4955 203.223 31.1361Z" fill="currentColor"/>
    <path d="M203.416 30.0574C205.308 28.7176 206.651 26.5607 208.708 25.515C210.244 24.7307 211.341 24.6 212.849 25.515C213.891 26.1359 214.878 26.9202 215.866 27.6391C217.703 28.9463 219.54 29.894 221.487 30.8744C223.434 31.8548 223.818 33.358 224.093 35.7109C224.093 35.8743 224.257 36.0051 224.367 36.0377C230.592 38.0965 236.241 31.9201 241.78 29.6979C245.537 28.1947 249.514 27.6718 253.435 27.3124C256.068 27.0509 260.976 25.6457 262.622 29.1424C263.143 30.2535 263.445 34.3711 261.881 34.4038C261.278 34.4038 260.455 33.7829 259.907 33.5541C259.194 33.2927 258.426 33.0966 257.658 33.0312C256.123 32.9005 254.587 33.26 253.079 33.6195C250.83 34.1097 248.581 34.3384 246.333 34.6325C242.877 35.0574 239.449 35.7109 236.378 37.6717C233.307 39.6325 230.729 42.5736 227.548 44.3056C223.928 46.2664 219.897 46.7892 216.441 49.1421C215.591 49.7304 214.741 50.2206 213.836 50.7108C213.589 50.8415 212.849 51.4297 212.63 51.3317L211.45 49.7304C211.45 49.3382 211.478 48.9787 211.533 48.5866C211.533 47.9003 211.56 47.2794 211.341 46.6258C211.149 46.1356 209.668 44.5344 210.299 44.1749C210.765 43.9461 210.354 43.1291 209.915 43.3906C209.394 43.652 209.449 43.6193 209.037 44.0115C208.928 44.1095 208.873 44.4363 208.982 44.567C209.805 45.9069 210.765 46.7239 210.792 48.5539C210.792 49.567 210.6 50.5474 211.121 51.4624C211.889 52.8349 213.068 52.1486 214.083 51.5931C216.579 50.2532 218.772 48.6846 221.432 47.7369C223.846 46.8873 226.286 46.103 228.535 44.7958C230.784 43.4886 232.868 41.4298 235.062 39.7305C237.448 37.9005 239.998 36.724 242.795 36.1358C245.784 35.4822 248.828 35.3515 251.817 34.8286C254.806 34.3057 257.549 33.4561 260.538 34.7959C261.443 35.1881 262.54 35.8417 263.225 34.7306C264.048 33.4561 264.048 30.809 263.609 29.4038C262.32 25.0248 257.357 26.0379 254.395 26.332C249.185 26.8222 243.865 27.4431 239.038 30.0901C236.872 31.2992 234.815 32.7371 232.621 33.8482C231.442 34.4364 230.235 34.992 228.974 35.2861C228.069 35.5149 225.656 36.1031 224.97 35.1554C224.531 34.5345 224.614 33.0639 224.257 32.2796C223.955 31.626 223.517 31.1358 222.996 30.711C222.2 30.1228 221.241 29.8287 220.39 29.4038C218.8 28.6522 217.319 27.5738 215.866 26.5281C213.864 25.0902 211.999 23.3582 209.586 24.2405C206.926 25.2209 205.417 27.7045 203.114 29.3385C202.675 29.6326 203.086 30.4496 203.498 30.1228L203.416 30.0574Z" fill="currentColor"/>
    <path d="M227.191 45.188C226.67 43.8808 225.71 43.0312 224.723 42.2469C223.846 41.5933 222.776 40.9724 222.2 39.894C221.624 38.8155 221.762 37.6391 222.612 36.8221C223.462 36.0051 224.449 35.613 225.217 34.796C225.601 34.4038 225.025 33.7503 224.668 34.1424C223.517 35.3842 221.35 35.9071 221.076 38.0312C220.774 40.4495 222.694 41.7894 224.147 42.9005C225.107 43.6194 226.012 44.4037 226.533 45.6455C226.752 46.1684 227.411 45.7109 227.191 45.188Z" fill="currentColor"/>
    <path d="M209.12 24.7308C211.396 21.757 215.098 21.757 218.087 22.9662C221.076 24.1753 224.147 26.7243 224.943 30.4824C225.409 32.7046 224.806 34.8614 223.654 36.6261C223.352 37.0836 223.901 37.7372 224.202 37.2797C225.327 35.5804 226.04 33.5543 225.848 31.3647C225.683 29.3713 224.833 27.5739 223.709 26.1034C221.241 22.9335 217.319 21.0054 213.699 21.2995C211.752 21.4629 209.915 22.3452 208.571 24.0772C208.242 24.5021 208.79 25.1557 209.12 24.7308Z" fill="currentColor"/>
</svg>
