<svg width="76" height="75" viewBox="0 0 76 75" fill="none"
    xmlns="http://www.w3.org/2000/svg">
    <path d="M19.657 7.06788C23.6608 5.79339 27.6097 4.15942 31.7232 3.44048C33.7251 3.081 35.7544 3.04832 37.7562 2.72153C40.142 2.32937 42.3085 2.29669 44.6943 2.72153C48.3964 3.34243 52.1259 3.7019 55.7458 4.813C59.0091 5.82606 62.1902 7.32932 65.3164 8.83257C68.4426 10.3358 71.0204 12.7214 72.2818 16.7736C73.6256 21.12 73.4336 25.6297 72.0899 29.9107C70.7461 34.1917 68.7168 37.7864 66.6327 41.3812C64.5485 44.9759 62.0805 48.5706 59.4204 51.7732C56.2942 55.4986 52.8389 58.5705 48.9174 61.0215C44.9959 63.4724 40.5534 65.6292 36.4674 68.1782L37.6465 70.0083C42.9118 62.1325 41.9245 50.9562 40.7179 41.6753C39.2919 30.7277 35.6995 19.9435 28.8986 12.1332C27.5 10.5319 26.1014 9.58418 24.2915 8.7672C22.8107 8.08093 20.041 7.39467 19.2457 5.53195L18.8892 7.10057C19.2457 6.80645 19.6296 6.64304 20.041 6.545C21.275 6.34893 21.275 4.0287 20.041 4.22477C19.2457 4.35549 18.615 4.58425 17.902 5.07444C17.4358 5.40123 17.3261 6.08751 17.5455 6.64306C18.3133 8.44042 20.1507 9.25739 21.6315 9.94365C23.7979 10.9894 25.7724 11.741 27.5 13.7018C31.6957 18.5383 34.7123 24.682 36.6319 31.2506C38.3595 37.1982 39.2371 43.6034 39.5936 49.8778C39.9501 56.1522 39.7033 63.211 36.2754 68.3089C35.6172 69.322 36.4125 70.7599 37.4546 70.139C41.5406 67.59 45.8186 65.5312 49.9046 62.9822C53.4422 60.7927 56.6233 58.0803 59.5301 54.8451C65.2067 48.5053 70.5268 40.2701 73.5433 31.7081C76.2033 24.0938 75.7371 13.7671 69.5395 8.7672C66.8795 6.61036 63.479 5.43391 60.4625 4.12674C56.733 2.49277 52.8938 1.54506 48.9448 1.05487C46.5316 0.76076 44.091 0.107175 41.6503 0.00913656C39.2097 -0.0889014 36.5222 0.630044 33.9993 0.82612C28.926 1.21827 24.0447 3.27708 19.1634 4.84569C17.9568 5.23784 18.4778 7.46003 19.6845 7.06788H19.657Z" fill="currentColor"/>
    <path d="M22.2623 2.72156C24.1545 1.77386 26.3209 0.00918955 28.4599 1.47976C31.3393 3.60392 28.5148 5.04181 26.458 5.33592C25.8547 5.33592 20.233 5.69539 20.0411 5.56467C18.7247 4.35554 23.3867 1.64316 24.319 1.15297" fill="#D9D9D9"/>
    <path d="M22.4816 3.11384C23.6333 2.52561 24.7577 1.7413 25.9917 1.44719C26.6499 1.31647 27.308 1.34914 27.9113 1.64325C28.3775 1.87201 29.0631 2.3622 29.2551 2.95043C29.5567 3.80009 28.2404 4.32298 27.7742 4.51905C27.1709 4.74781 26.5676 4.84585 25.9369 4.87853C24.4835 4.94388 23.03 5.04192 21.5766 5.10728C21.275 5.10728 20.9733 5.10728 20.6717 5.10728C20.5894 5.10728 20.2055 5.04192 20.1506 5.10728C20.2055 5.0746 20.2603 5.20531 20.3152 5.17263C20.3152 5.17263 20.2603 5.0746 20.2603 5.10728C20.2603 5.04192 20.2329 5.10728 20.2603 4.97656C20.3152 4.71513 20.5071 4.48637 20.6991 4.2903C21.3024 3.60403 22.0428 3.08115 22.7558 2.62364C23.3591 2.23149 23.9624 1.83933 24.5657 1.54522C25.0319 1.31647 24.6206 0.499489 24.1818 0.760924C23.5237 1.08772 22.8929 1.47986 22.2896 1.9047C21.5218 2.42756 20.7265 2.9831 20.0958 3.73473C19.657 4.22492 19.2457 5.00924 19.657 5.69551C19.9587 6.1857 20.5345 6.05498 21.0007 6.05498C22.6735 6.0223 24.3738 5.89159 26.0466 5.82623C26.8418 5.79355 27.6371 5.63013 28.405 5.27066C29.1728 4.91119 30.2423 4.22492 30.1052 3.04847C30.0229 2.32952 29.5567 1.80665 29.0905 1.4145C28.405 0.826272 27.5823 0.466797 26.7322 0.466797C25.0868 0.466797 23.6059 1.57789 22.1251 2.32952C21.6589 2.55827 22.0702 3.37527 22.509 3.11384H22.4816Z" fill="currentColor"/>
    <path d="M3.58711 15.7607C5.80837 13.5712 8.44098 12.068 11.1284 10.8261C13.3497 9.81309 15.8452 8.04841 18.2859 8.50592C20.9459 8.99611 23.6882 11.4144 25.7449 13.4078C27.8016 15.4013 29.6664 17.7868 31.2569 20.3358C34.5751 25.6625 36.4947 31.9043 38.0579 38.2114C39.621 44.5185 40.4162 50.9237 40.142 57.5249C40.0323 60.3026 39.7855 63.3091 38.3595 65.6294C36.9335 67.9496 34.7122 68.6032 32.5184 69.1587C30.3246 69.7143 28.2678 70.9234 26.074 71.4463C23.6059 72.0345 20.8362 69.1587 18.8617 67.6228C16.7776 65.9888 14.7483 64.1588 13.0755 61.9693C11.101 59.3549 10.3057 56.087 9.23625 52.8844C6.96014 46.0871 4.95826 39.3225 3.23061 32.2965C2.40791 28.8651 1.85945 25.7933 2.07884 22.2312C2.21595 19.7149 2.24338 16.6104 4.0533 14.9764C8.2216 11.1856 13.8433 10.6628 18.3955 7.78697C19.4925 7.10071 18.5327 5.10726 17.4083 5.79353C12.7464 8.70199 7.12468 9.29022 2.84668 13.1464C1.22872 14.6169 0.707687 16.545 0.406033 18.8979C0.0495338 21.8064 -0.197274 24.8782 0.214072 27.7867C0.789955 31.8063 1.94172 35.9565 3.01122 39.8454C4.08072 43.7342 5.42445 47.7864 6.74075 51.708C7.89252 55.1066 8.71521 59.0281 10.58 62.002C12.1705 64.5509 14.2821 66.6097 16.4211 68.4398C18.5601 70.2698 20.9733 72.4267 23.4688 73.4397C26.1837 74.5835 28.4872 72.6881 31.065 71.8711C33.2862 71.1522 35.6172 70.9561 37.6465 69.4855C39.6758 68.015 40.8824 65.662 41.4857 63.0477C42.9117 56.5772 42.281 48.9956 41.047 42.5578C39.6758 35.2703 37.5917 27.6233 34.1912 21.3162C30.7908 15.0091 25.6352 8.57127 19.6296 6.47979C16.5308 5.40138 13.7062 7.16606 10.8542 8.47323C7.75541 9.91112 4.79372 11.5778 2.18853 14.1267C1.22872 15.0744 2.59988 16.7084 3.55968 15.7607H3.58711Z" fill="currentColor"/>
    <path d="M2.92904 16.1528C5.67134 13.6038 8.46849 14.7476 11.1285 16.7737C13.2949 18.4077 15.4339 20.107 17.6004 21.7083C19.9039 23.4403 21.988 25.4011 23.5237 28.1134C24.9223 30.5644 26.0741 33.2441 27.1162 35.9238C30.4892 44.8126 32.5459 54.7471 30.2424 64.3221C29.3648 67.9822 27.5275 72.7861 23.6609 71.4136C22.4542 70.9887 21.9332 73.2109 23.1398 73.6357C31.2022 76.4788 33.2041 62.0346 33.2315 55.4987C33.2589 48.9628 31.5313 42.4597 29.4471 36.5774C28.2679 33.2114 26.8968 29.9435 25.1691 26.9043C23.5512 24.0285 21.4122 21.8717 18.9989 20.009C16.1469 17.8194 13.2675 15.2051 10.2236 13.4404C7.17961 11.6757 4.24535 11.9372 1.53047 14.4535C0.543237 15.3685 1.94181 17.0025 2.90162 16.0875L2.92904 16.1528Z" fill="currentColor"/>
    <path d="M8.52336 14.3553C4.19052 26.7081 6.08271 40.172 10.6898 51.9693C12.5545 56.7404 14.7758 61.5116 17.8746 65.3024C20.9734 69.0932 24.7578 71.054 29.31 71.152C30.5715 71.152 30.5715 68.8645 29.31 68.8318C24.9223 68.7338 21.5767 66.773 18.6425 62.8842C15.8727 59.2241 13.8983 54.7797 12.1706 50.3353C7.89263 39.2243 6.32952 26.5447 10.3607 14.9763C10.8543 13.6037 8.96213 13.0155 8.49594 14.3553H8.52336Z" fill="currentColor"/>
    <path d="M46.2847 64.0934C46.6138 65.6621 47.3542 66.6751 48.7254 66.9366C49.3836 67.0673 50.0417 66.9692 50.6999 67.0673C51.6597 67.198 52.592 67.5574 53.4696 68.0476C55.1972 68.9627 56.6781 69.3548 58.5428 69.6163C60.5996 69.9104 62.6289 70.4659 64.713 70.4006C66.4681 70.3352 68.4426 69.7796 69.7863 68.4071C70.3622 67.8189 70.6638 67.1 70.9381 66.283C71.2946 65.2699 71.8156 64.4202 72.3092 63.5052C73.2416 61.6425 73.1045 59.8125 72.2544 57.9497C71.5139 56.2831 70.609 54.6165 69.704 53.0805C68.9636 51.8387 67.9764 50.1067 66.5229 50.4008C65.8374 50.5315 65.2341 50.989 64.6308 51.3812C63.3693 52.1655 62.9854 51.708 62.6015 50.0087C62.3546 48.8649 60.8464 49.3551 61.0932 50.4989C61.3948 51.8714 61.8885 53.44 63.2048 53.6688C64.2194 53.8648 65.1244 53.1132 66.0019 52.5903C66.6052 52.2309 66.9069 52.0675 67.4279 52.6557C67.9489 53.2439 68.3329 53.9629 68.7168 54.6491C69.4572 56.0217 70.2525 57.4269 70.8832 58.8974C71.8979 61.185 70.9929 62.3615 70.0057 64.2895C69.6492 65.0085 69.5121 65.8908 69.0733 66.5771C68.47 67.5248 67.3182 68.0477 66.3584 68.3418C64.5759 68.8646 62.7111 68.5378 60.9012 68.2437C59.2833 67.9496 57.4733 67.9496 55.9102 67.3614C54.3471 66.7731 52.8937 65.6621 51.1935 65.3353C49.7675 65.0738 48.1495 65.7274 47.7107 63.6359C47.4639 62.4922 45.9557 62.9824 46.2025 64.1261L46.2847 64.0934Z" fill="currentColor"/>
    <path d="M66.3037 56.185C65.7004 56.0869 65.0696 56.283 64.6034 56.7732C64.1921 57.2307 63.9453 57.8843 63.863 58.5379C63.671 60.0085 63.9727 61.6424 64.6857 62.8516C65.0422 63.4398 65.5084 63.93 66.0843 64.1587C66.6602 64.3875 67.3457 64.2568 67.8942 63.8973C68.7443 63.3744 69.4573 62.4594 69.759 61.381C70.0606 60.3679 69.9509 59.2895 69.567 58.3418C69.1557 57.2961 68.3604 56.4464 67.4554 56.0543C66.4134 55.5967 65.289 55.7928 64.3566 56.4137C63.9179 56.7078 64.3018 57.4921 64.7405 57.198C66.1117 56.283 67.7845 56.7405 68.662 58.3091C69.046 58.9627 69.2379 59.8124 69.1282 60.5967C68.9911 61.5771 68.4701 62.3287 67.7845 62.8842C67.5377 63.0803 67.3183 63.211 67.0715 63.2764C66.9344 63.3091 66.907 63.3091 66.7973 63.3418C66.7424 63.3418 66.6876 63.3418 66.6053 63.3418C66.4956 63.3418 66.6053 63.3418 66.4956 63.3418C66.0569 63.2437 65.7552 62.9823 65.4261 62.5248C64.8228 61.6424 64.5212 60.3026 64.576 59.1261C64.576 58.7993 64.6309 58.5706 64.7131 58.2111C64.768 58.0477 64.7405 58.0477 64.8228 57.8843C64.8502 57.8189 64.8777 57.7536 64.9325 57.6882C64.9874 57.5902 64.9325 57.6882 64.9873 57.5902C65.3164 57.1327 65.7004 57.002 66.2762 57.1C66.4956 57.1 66.6602 56.8712 66.6602 56.6425C66.6602 56.381 66.4682 56.2177 66.2762 56.185H66.3037Z" fill="currentColor"/>
    <path d="M64.9051 55.0085C63.9727 55.2046 63.15 55.7928 62.6289 56.7405C62.1628 57.6555 62.0256 58.7666 62.1079 59.8124C62.2724 62.1653 63.2871 64.5509 64.8776 65.9887C65.6181 66.6423 66.523 67.0672 67.428 66.9691C68.5523 66.8711 69.5121 66.1521 70.3074 65.2371C71.322 63.9953 72.0076 62.4921 72.0899 60.7274C72.1722 59.1588 71.7334 57.5575 70.993 56.2503C70.28 55.0412 69.2653 54.0281 68.0587 53.636C66.7698 53.2438 65.4809 53.6686 64.4663 54.6817C64.1646 54.9758 63.9178 55.3026 63.671 55.6621C63.3694 56.1196 63.9178 56.7732 64.2195 56.3157C64.9599 55.2046 65.9746 54.3549 67.236 54.4203C68.3055 54.4856 69.2379 55.2046 69.9509 56.1196C71.5963 58.2764 71.8705 61.6097 70.28 63.93C69.6492 64.845 68.854 65.7273 67.8393 65.9887C67.0989 66.1848 66.3585 65.9887 65.7003 65.5312C64.2469 64.5182 63.3145 62.4594 63.0129 60.5313C62.8483 59.5509 62.8483 58.4398 63.2048 57.5575C63.5888 56.6098 64.2743 56.0869 65.1519 55.9235C65.6455 55.8255 65.4261 54.9431 64.9325 55.0412L64.9051 55.0085Z" fill="currentColor"/>
    <path d="M49.6578 62.5901C51.4128 62.8188 53.9083 61.8057 54.1003 59.4202C54.1003 59.1587 53.9083 58.9626 53.7164 58.9626C53.497 58.9626 53.3599 59.1914 53.3325 59.4202C53.305 59.7796 53.1405 60.1718 52.9211 60.4659C52.6469 60.8254 52.3452 61.0541 51.9887 61.2502C51.2757 61.6424 50.453 61.7731 49.6852 61.675C49.4658 61.675 49.3013 61.9038 49.3013 62.1325C49.3013 62.394 49.4932 62.5574 49.6852 62.5901H49.6578Z" fill="currentColor"/>
    <path d="M59.6123 54.0609C60.2156 54.0282 60.8737 53.8648 61.3948 53.44C61.8609 53.0805 62.2449 52.4596 62.19 51.7734C62.1352 51.2832 61.9706 50.8583 61.7238 50.4662C61.6141 50.2701 61.3948 50.1394 61.2028 50.3028C61.0383 50.4335 60.9286 50.7276 61.0657 50.9237C61.1205 51.0217 61.2028 51.1198 61.2576 51.2505C61.2576 51.3158 61.3125 51.3485 61.3399 51.4139C61.3399 51.4139 61.3948 51.5773 61.3673 51.4792C61.3673 51.5446 61.4222 51.6426 61.4222 51.7407C61.4222 51.7407 61.4222 51.9041 61.4222 51.7734C61.4222 51.806 61.4222 51.8714 61.4222 51.9041V52.0348C61.4222 51.9694 61.4222 51.9367 61.4222 52.0021C61.4222 52.0021 61.4222 52.0348 61.4222 52.0675C61.4222 52.0675 61.4222 52.1328 61.4222 52.1655C61.4222 52.1655 61.4222 52.1982 61.4222 52.2309C61.4222 52.2635 61.4222 52.2635 61.4222 52.2309C61.4222 52.2309 61.3399 52.4269 61.3125 52.4269C61.3125 52.4269 61.3125 52.4269 61.2851 52.4596L61.2302 52.525L61.1754 52.5903C61.1754 52.5903 61.1754 52.5903 61.1205 52.623C61.1754 52.5903 61.1754 52.5903 61.1205 52.623C61.0657 52.6884 60.9834 52.721 60.9286 52.7537C60.8737 52.7864 60.8189 52.8191 60.7366 52.8518C60.7366 52.8518 60.7092 52.8518 60.6818 52.8518C60.7366 52.8518 60.7366 52.8518 60.6818 52.8518C60.6543 52.8518 60.5995 52.8844 60.5721 52.9171C60.4075 52.9825 60.2704 53.0152 60.1059 53.0805C60.051 53.0805 60.0236 53.0805 59.9688 53.0805C59.9688 53.0805 59.8042 53.0805 59.9139 53.0805C59.8316 53.0805 59.7219 53.0805 59.6397 53.0805C59.4477 53.0805 59.2283 53.2766 59.2558 53.538C59.2558 53.7668 59.4203 54.0282 59.6397 53.9955L59.6123 54.0609Z" fill="currentColor"/>
    <path d="M13.6239 17.8194C9.59272 27.329 13.0206 37.3289 16.2565 46.3484C17.9842 51.2176 19.9312 55.9561 22.5364 60.2371C24.4012 63.3416 26.4305 67.0998 29.5293 68.505C29.9955 68.701 30.1874 67.8187 29.7486 67.6226C26.6498 66.2501 24.5931 62.0998 22.7558 59.028C20.4522 55.1718 18.7246 50.8581 17.1615 46.5118C13.9804 37.6884 10.3606 27.6558 14.3095 18.2769C14.5289 17.754 13.8707 17.2638 13.6513 17.8194H13.6239Z" fill="currentColor"/>
    <path d="M12.2528 17.2966C7.45375 24.2573 8.02963 34.682 10.9639 42.4923C14.7208 52.4922 19.8215 62.7209 26.6224 70.1717C26.9789 70.5639 27.5274 69.9103 27.1709 69.5182C20.7813 62.5248 16.3937 53.3746 12.527 44.2244C9.1814 36.2833 7.70055 25.3684 12.8012 17.9502C13.1029 17.4927 12.5819 16.8391 12.2528 17.2966Z" fill="currentColor"/>
    <path d="M16.4484 21.3489C15.5709 24.9763 16.2564 28.7017 16.7775 32.2964C17.4082 36.5447 17.3534 40.9238 18.2309 45.1394C19.0262 49.0609 20.7264 52.2962 22.7831 55.4661C25.1415 59.1261 26.924 63.113 29.0082 67.0019C29.2824 67.4921 29.9405 67.0345 29.6663 66.5443C27.7741 63.0477 26.2384 59.4203 24.1269 56.087C22.0153 52.7537 20.0408 49.6165 19.1084 45.5642C18.2309 41.7407 18.2309 37.7866 17.7647 33.8977C17.2985 30.0089 16.2016 25.6625 17.1888 21.5776C17.3259 20.9894 16.5855 20.7606 16.4484 21.3162V21.3489Z" fill="currentColor"/>
    <path d="M19.7666 24.0612C17.8745 31.1199 20.2603 38.0479 22.3993 44.6165C24.5382 51.185 26.7869 57.917 30.3519 63.7012C30.6536 64.1914 31.3117 63.7012 31.0101 63.2437C27.6096 57.6882 25.4432 51.3811 23.3316 45.0413C21.2201 38.7015 18.56 31.414 20.4796 24.3226C20.6442 23.767 19.8763 23.5056 19.7392 24.0612H19.7666Z" fill="currentColor"/>
    <path d="M23.2494 28.4402C22.3718 38.9956 27.3902 48.9628 31.586 57.7536C31.8328 58.2764 32.5183 57.8189 32.2441 57.296C28.1032 48.636 23.1397 38.8322 24.0172 28.4402C24.072 27.852 23.2768 27.852 23.2494 28.4402Z" fill="currentColor"/>
    <path d="M27.1983 35.9566C27.116 41.6101 28.7614 46.9695 31.5585 51.4792C31.8602 51.9694 32.5183 51.4792 32.2167 51.0217C29.5018 46.6427 27.8838 41.4467 27.9661 35.9566C27.9661 35.3683 27.1983 35.3683 27.1983 35.9566Z" fill="currentColor"/>
    <path d="M20.0135 65.8254C20.7265 63.211 18.5327 60.2699 17.2986 58.4072C16.3388 56.9366 15.2968 55.4987 14.3918 53.9628C13.2126 51.9694 12.6093 49.5184 11.9512 47.1982C10.3332 41.4466 8.41359 35.7604 8.60555 29.584C8.74266 25.1723 9.70247 19.7475 12.4996 16.6103C12.8561 16.1855 12.3077 15.5319 11.9512 15.9567C9.51051 18.7018 8.44101 23.1462 8.00224 26.9697C7.34409 32.7212 8.5507 37.7539 10.0315 43.1459C11.2107 47.4596 12.1431 52.0347 14.5015 55.6948C15.5436 57.2961 16.6679 58.8647 17.6826 60.5313C18.4778 61.8712 19.7393 63.8319 19.2731 65.5966C19.1086 66.1522 19.8764 66.4136 20.0135 65.8581V65.8254Z" fill="currentColor"/>
    <path d="M66.8521 64.028C67.9216 63.309 68.6071 61.9365 68.7991 60.5313C68.9636 59.1915 68.7443 57.6882 67.8119 56.8059C67.236 56.283 66.4956 56.1196 65.7826 56.2176C65.2889 56.283 65.2889 57.198 65.7826 57.1326C66.7424 57.0346 67.6199 57.4595 67.949 58.5705C68.2781 59.6816 68.0861 60.8908 67.6199 61.8711C67.3457 62.4594 66.9618 62.9169 66.4956 63.2437C66.0568 63.5378 66.4407 64.3221 66.8795 64.028H66.8521Z" fill="currentColor"/>
    <path d="M63.1226 58.7013C63.5339 58.8647 63.9179 59.0281 64.3566 59.1262C64.4663 59.1262 64.576 59.1262 64.6583 59.0935C64.7406 59.0281 64.8228 58.9301 64.8502 58.832C64.9051 58.6033 64.7954 58.3092 64.576 58.2765C64.1647 58.1785 63.7533 58.0151 63.342 57.8517C63.15 57.7863 62.9032 57.9497 62.8758 58.1785C62.8209 58.4399 62.9306 58.6687 63.15 58.734L63.1226 58.7013Z" fill="currentColor"/>
    <path d="M63.7807 57.4922C63.7807 57.4922 64.0001 57.5903 64.1372 57.6229C64.192 57.6229 64.2743 57.6229 64.3292 57.6229H64.2195C64.2195 57.6229 64.3017 57.6229 64.3292 57.6229H64.2469C64.3292 57.6883 64.4388 57.6883 64.5485 57.6556C64.6308 57.6556 64.7405 57.5576 64.7679 57.4269C64.8228 57.3288 64.8502 57.1981 64.7953 57.0674C64.7405 56.9367 64.7131 56.8386 64.6034 56.806C64.4937 56.7406 64.384 56.7079 64.2469 56.6752C64.192 56.6752 64.1098 56.6752 64.0549 56.6752H64.1646C64.1646 56.6752 64.0823 56.6752 64.0549 56.6752H64.1372C64.0549 56.6099 63.9452 56.6099 63.8355 56.6426C63.7533 56.6426 63.6436 56.7406 63.6162 56.8713C63.5613 56.9693 63.5339 57.1001 63.5887 57.2308C63.6436 57.3615 63.671 57.4595 63.7807 57.4922Z" fill="currentColor"/>
    <path d="M64.6581 56.1524C64.6581 56.1524 64.6581 56.1851 64.6855 56.2178L64.6307 56.1197C64.6307 56.1197 64.7404 56.2831 64.7678 56.3811V56.2831C64.7678 56.2831 64.7952 56.5445 64.8227 56.6753C64.8227 56.7733 64.9049 56.904 65.0146 56.9367C65.1243 56.9694 65.234 57.0347 65.3163 56.9694C65.3985 56.904 65.5082 56.8713 65.5357 56.7406C65.5631 56.6099 65.5905 56.5119 65.5631 56.3811C65.5357 56.2504 65.5082 56.1197 65.4534 55.989C65.426 55.891 65.3985 55.7929 65.3437 55.6949C65.2888 55.5968 65.234 55.4988 65.1792 55.4334C65.1243 55.3354 64.9872 55.3027 64.9049 55.3027C64.8227 55.3027 64.6855 55.3681 64.6307 55.4334C64.5758 55.4988 64.521 55.6295 64.521 55.7602V55.891C64.521 55.891 64.5758 56.0217 64.6307 56.087L64.6581 56.1524Z" fill="currentColor"/>
    <path d="M66.2213 55.3026C66.2761 55.5313 66.3309 55.76 66.3584 56.0215V55.8908C66.3584 55.8908 66.3584 56.1849 66.3584 56.3483C66.3584 56.577 66.5503 56.8385 66.7423 56.8058C66.9617 56.8058 67.1262 56.6097 67.1262 56.3483C67.1262 55.9235 67.0714 55.466 66.9617 55.0738C66.9617 54.9758 66.8794 54.845 66.7697 54.8124C66.66 54.7797 66.5503 54.7143 66.4681 54.7797C66.2761 54.845 66.139 55.1065 66.1938 55.3352L66.2213 55.3026Z" fill="currentColor"/>
    <path d="M67.9216 55.5968C67.8941 55.8255 67.8667 56.0216 67.7845 56.2504V56.1523C67.7845 56.1523 67.7845 56.2177 67.7845 56.2504C67.7296 56.3484 67.7296 56.4791 67.757 56.6098C67.757 56.7079 67.8393 56.8386 67.949 56.8713C68.0313 56.9366 68.1409 56.9693 68.2506 56.904C68.3603 56.8386 68.4426 56.8059 68.47 56.6752C68.5797 56.4138 68.6346 56.1196 68.6894 55.8255C68.6894 55.6948 68.6894 55.5641 68.662 55.4661C68.6071 55.368 68.5249 55.27 68.4426 55.2373C68.3329 55.2373 68.2232 55.2373 68.141 55.27C68.0587 55.3353 67.9764 55.4334 67.949 55.5314L67.9216 55.5968Z" fill="currentColor"/>
    <path d="M69.1007 57.1981C69.1007 57.1981 69.0732 57.2308 69.0458 57.2635L69.1281 57.1981C69.1281 57.1981 68.9635 57.3289 68.8813 57.3942C68.7716 57.4923 68.6619 57.5903 68.5796 57.721C68.5248 57.8191 68.5248 57.9498 68.5522 58.0805C68.5522 58.1785 68.6345 58.3092 68.7442 58.3419C68.8264 58.4073 68.9361 58.4399 69.0458 58.3746C69.1555 58.3092 69.2378 58.2766 69.2652 58.1458L69.2103 58.2439L69.2652 58.1785L69.1829 58.2439C69.1829 58.2439 69.2926 58.1459 69.3749 58.1132C69.4846 58.0478 69.5668 57.9498 69.6491 57.8844C69.6765 57.8517 69.704 57.7864 69.7314 57.721C69.7314 57.6557 69.7588 57.5903 69.7588 57.5576C69.7588 57.4922 69.7588 57.4269 69.7314 57.3942C69.7314 57.3289 69.6765 57.2962 69.6491 57.2308C69.5668 57.1655 69.4846 57.1001 69.3749 57.1001H69.2652C69.2652 57.1001 69.1555 57.1655 69.1007 57.2308V57.1981Z" fill="currentColor"/>
    <path d="M70.1153 59.0935C70.1153 59.0935 70.1153 59.0935 70.1153 59.1262L70.1701 59.0282C70.1701 59.0282 70.1427 59.0608 70.1153 59.0935L70.1976 59.0282C70.1976 59.0282 70.1153 59.0935 70.0604 59.1262H70.1427C70.1427 59.1262 70.0056 59.1262 69.9507 59.1262C69.8685 59.1262 69.7588 59.2242 69.7314 59.3549C69.7039 59.4203 69.6765 59.453 69.6765 59.5183C69.6765 59.5837 69.6765 59.6491 69.6765 59.7144C69.7039 59.8125 69.7588 59.9432 69.8685 59.9759C69.9782 60.0085 70.0604 60.0412 70.1701 60.0085C70.4169 59.9432 70.6637 59.8125 70.8009 59.551C70.8557 59.453 70.8557 59.3223 70.8283 59.1915C70.8283 59.0935 70.746 58.9628 70.6363 58.9301C70.5541 58.8648 70.4444 58.8321 70.3347 58.8974C70.225 58.9628 70.1427 58.9955 70.1153 59.1262V59.0935Z" fill="currentColor"/>
    <path d="M70.1976 60.5966C70.1976 60.5966 70.1976 60.5966 70.1701 60.6293L70.2524 60.5639C70.2524 60.5639 70.1701 60.6293 70.1153 60.6619H70.1976C70.1976 60.6619 70.1153 60.6619 70.0604 60.6619H70.1701C70.1701 60.6619 70.0879 60.6619 70.0604 60.6619H70.1701C70.1701 60.6619 70.0604 60.6619 70.0056 60.6293H70.0879C70.0879 60.6293 70.033 60.6293 70.0056 60.6293C69.9233 60.5639 69.8136 60.5639 69.7039 60.5966C69.6217 60.5966 69.512 60.6946 69.4846 60.8253C69.4297 60.9234 69.4023 61.0541 69.4571 61.1848C69.512 61.3155 69.5394 61.4136 69.6491 61.4462C69.7039 61.4789 69.7588 61.5116 69.8411 61.5443C69.8685 61.5443 69.8959 61.5443 69.9508 61.577C70.0056 61.577 70.0879 61.577 70.1427 61.577C70.1976 61.577 70.2524 61.577 70.3347 61.577C70.4169 61.577 70.4992 61.5116 70.5815 61.4789C70.6638 61.4136 70.746 61.3482 70.8009 61.2828C70.8557 61.2175 70.9106 61.0541 70.9106 60.956C70.9106 60.858 70.8557 60.6946 70.8009 60.6293C70.746 60.5639 70.6363 60.4985 70.5266 60.4985H70.4169C70.4169 60.4985 70.3073 60.5639 70.2524 60.6293L70.1976 60.5966Z" fill="currentColor"/>
    <path d="M70.0879 62.5248C70.0879 62.5248 70.0605 62.4268 70.033 62.3614C70.033 62.3614 70.033 62.3288 70.0056 62.2961C69.9782 62.2307 69.9508 62.198 69.8959 62.1654C69.8411 62.1327 69.8137 62.0673 69.7588 62.0346C69.704 61.9693 69.6217 61.9366 69.5394 61.9039C69.4297 61.8712 69.2926 61.9039 69.1829 61.9039C69.1007 61.9039 68.991 62.0346 68.9635 62.1327C68.9361 62.198 68.9087 62.2307 68.9087 62.2961C68.9087 62.3614 68.9087 62.4268 68.9087 62.4922C68.9361 62.5902 68.991 62.7209 69.1007 62.7536C69.2103 62.7863 69.2926 62.8189 69.4023 62.7863C69.4023 62.7863 69.4023 62.7863 69.4297 62.7863H69.32C69.32 62.7863 69.3749 62.7863 69.4023 62.7863H69.2926C69.2926 62.7863 69.3475 62.7863 69.3749 62.7863H69.2926C69.2926 62.7863 69.3475 62.7863 69.3749 62.7863L69.2926 62.7209C69.2926 62.7209 69.3475 62.7863 69.3749 62.8189L69.32 62.7209C69.32 62.7209 69.3475 62.7863 69.3749 62.8189V62.7209H69.3475C69.3475 62.8189 69.4297 62.9497 69.5394 62.9824C69.5943 63.015 69.6217 63.0477 69.6765 63.0477C69.7314 63.0477 69.7862 63.0477 69.8411 63.0477C69.9233 63.015 70.033 62.9497 70.0605 62.8189C70.0879 62.6882 70.1153 62.5902 70.0879 62.4595V62.5248Z" fill="currentColor"/>
    <path d="M69.0184 63.6686C69.0184 63.6686 68.9361 63.6686 68.9087 63.6359H68.991C68.991 63.6359 68.7442 63.5379 68.6345 63.4398L68.7168 63.5052C68.7168 63.5052 68.4974 63.2764 68.4151 63.1457L68.47 63.2438C68.47 63.2438 68.4151 63.1457 68.3877 63.113C68.3328 63.015 68.2506 62.917 68.1683 62.8843C68.086 62.8843 67.9489 62.8843 67.8666 62.9169C67.7844 62.9496 67.7021 63.0803 67.6747 63.1784C67.6473 63.2764 67.6747 63.4398 67.7021 63.5379C67.8118 63.7666 67.9489 63.9627 68.1135 64.1261C68.2231 64.2241 68.3054 64.3222 68.4151 64.3875C68.5248 64.4529 68.6619 64.5182 68.7716 64.5836C68.8539 64.6163 68.991 64.5836 69.0733 64.5509C69.1555 64.5182 69.2378 64.3875 69.2652 64.2895C69.2652 64.1588 69.2652 64.0281 69.2378 63.93C69.2104 63.832 69.1007 63.7666 69.0184 63.7013V63.6686Z" fill="currentColor"/>
    <path d="M67.4278 64.9758C67.4552 64.8124 67.4826 64.6163 67.4278 64.4529C67.373 64.2895 67.373 64.1261 67.3455 63.9627C67.3455 63.8647 67.2633 63.734 67.1536 63.7013C67.0439 63.6686 66.9342 63.6032 66.8519 63.6686C66.7696 63.7339 66.66 63.7666 66.6325 63.8973C66.6051 64.0281 66.5777 64.1261 66.6051 64.2568C66.6325 64.3875 66.66 64.5183 66.6874 64.649V64.5183C66.6874 64.5183 66.6874 64.747 66.6874 64.845V64.7143V64.7797C66.6874 64.9104 66.6874 65.0411 66.7148 65.1391C66.7696 65.2372 66.8519 65.3352 66.9342 65.3679C67.0439 65.3679 67.1536 65.3679 67.2358 65.3352C67.3181 65.2699 67.4004 65.1718 67.4278 65.0738V64.9758Z" fill="currentColor"/>
    <path d="M65.6181 64.6163C65.7827 64.4529 65.9198 64.2242 66.0295 64.0281C66.0843 63.9301 66.0843 63.7993 66.0569 63.6686C66.0569 63.5706 65.9746 63.4399 65.8649 63.4072C65.7827 63.3418 65.673 63.3091 65.5633 63.3745C65.4536 63.4398 65.3713 63.4725 65.3439 63.6032C65.289 63.7013 65.2616 63.7993 65.2068 63.8647L65.2616 63.7667C65.2616 63.7667 65.1519 63.93 65.0697 63.9954C65.0422 64.0281 65.0148 64.0935 64.9874 64.1588C64.9874 64.2242 64.96 64.2895 64.96 64.3222C64.96 64.3876 64.96 64.4529 64.9874 64.4856C64.9874 64.551 65.0422 64.5836 65.0697 64.649C65.1519 64.7144 65.2342 64.7797 65.3439 64.7797H65.4536C65.4536 64.7797 65.5633 64.7144 65.6181 64.649V64.6163Z" fill="currentColor"/>
    <path d="M64.4663 63.4399C64.4663 63.4399 64.6583 63.3092 64.768 63.2438H64.6857C64.8777 63.1784 65.0971 63.1131 65.289 63.0477C65.3713 63.0477 65.481 62.9497 65.5084 62.8189C65.5358 62.6882 65.5907 62.5575 65.5358 62.4595C65.481 62.2307 65.2616 62.0673 65.0697 62.1327C64.7132 62.2307 64.3567 62.3614 64.055 62.5902C63.9727 62.6556 63.8905 62.7536 63.863 62.8516C63.863 62.9497 63.863 63.1131 63.8905 63.2111C63.9179 63.3091 64.0276 63.4072 64.1098 63.4399C64.1921 63.4725 64.3292 63.4399 64.4115 63.4072L64.4663 63.4399Z" fill="currentColor"/>
    <path d="M63.8081 61.9038L64.3291 61.7403C64.3291 61.7403 64.5211 61.6423 64.5485 61.5116C64.5759 61.4462 64.6033 61.4136 64.6033 61.3482C64.6033 61.2829 64.6033 61.2175 64.6033 61.1521C64.5759 61.0541 64.5211 60.9234 64.4114 60.8907C64.3017 60.858 64.2194 60.8253 64.1097 60.858L63.5887 61.0214C63.5887 61.0214 63.3967 61.1195 63.3693 61.2502C63.3419 61.3155 63.3145 61.3482 63.3145 61.4136C63.3145 61.4789 63.3145 61.5443 63.3145 61.6097C63.3419 61.7077 63.3967 61.8384 63.5064 61.8711C63.6161 61.9037 63.6984 61.9364 63.8081 61.9038Z" fill="currentColor"/>
    <path d="M63.2597 60.4007C63.3969 60.4333 63.5614 60.466 63.6985 60.4007C63.8356 60.3353 63.9727 60.3353 64.1099 60.3026C64.1921 60.3026 64.3018 60.2046 64.3292 60.0739C64.3567 59.9432 64.4115 59.8124 64.3567 59.7144C64.3018 59.6164 64.2744 59.4856 64.1647 59.453C64.055 59.4203 63.9727 59.3876 63.863 59.4203C63.7534 59.453 63.6437 59.4856 63.534 59.5183H63.6437C63.6437 59.5183 63.4517 59.5183 63.3694 59.5183H63.4791H63.4243C63.3146 59.5183 63.2049 59.5183 63.1226 59.551C63.0404 59.6164 62.9581 59.7144 62.9307 59.8124C62.9307 59.9432 62.9307 60.0739 62.9581 60.1719C63.0129 60.2699 63.0952 60.368 63.1775 60.4007H63.2597Z" fill="currentColor"/>
</svg>
