<svg width="100%" height="100%" viewBox="0 0 86 131" fill="none"
    xmlns="http://www.w3.org/2000/svg">
    <path d="M9.41992 96.9667C15.3707 101.738 22.1716 104.646 28.7532 107.914C34.7588 110.888 41.0935 115.79 47.8396 115.463C54.5856 115.136 59.7412 108.274 64.1015 102.882C66.597 99.8098 69.0102 96.6399 71.6153 93.6661C73.6995 91.2805 76.195 89.1236 77.7855 86.2478C81.1037 80.2675 73.9189 75.431 70.1345 73.4703C63.8272 70.2023 56.7795 70.4638 50.3899 67.588C47.2637 66.1828 44.1375 64.3527 40.7919 63.8625C38.3512 63.5031 35.9106 64.2874 33.7167 65.4965C28.7532 68.2742 24.8042 73.3395 21.0473 77.9473C19.0454 80.3983 17.071 82.9145 14.8223 85.0714C13.2043 86.6073 11.4218 87.9145 9.83125 89.4831C8.56979 90.7249 6.78731 92.4896 6.67762 94.6137C6.5405 97.2281 9.11824 97.8163 10.7636 98.0451C11.9977 98.2085 11.9977 95.8883 10.7636 95.7249C10.3523 95.6595 8.76176 95.5288 8.59722 94.8425C8.46011 94.2543 9.28281 93.3066 9.55704 92.9471C10.6814 91.4765 12.0525 90.2674 13.4237 89.1236C16.6322 86.4113 19.3745 83.3394 22.1168 79.9734C25.4624 75.8558 28.8629 71.5095 33.0312 68.5684C35.0056 67.1958 37.172 66.1501 39.503 66.0847C42.3824 66.0193 45.3441 67.686 47.9493 68.9278C50.911 70.3004 53.763 71.3134 56.8892 71.9343C59.7686 72.4899 62.648 73.0454 65.4726 73.9604C68.5166 74.9735 71.396 76.4768 73.9463 78.7316C75.8659 80.431 77.6484 82.4898 76.0305 85.2675C74.4948 87.8818 72.1638 89.8426 70.2716 92.0321C68.0504 94.6138 65.9388 97.3262 63.7724 99.9732C61.6059 102.62 59.6041 105.136 57.328 107.489C54.9422 109.973 52.4192 112.391 49.2107 113.012C42.4098 114.319 35.5541 108.829 29.5484 105.823C23.0217 102.588 16.3305 99.7117 10.4072 94.9732C9.36508 94.1235 8.40527 96.1497 9.41992 96.9667Z" fill="currentColor"/>
    <path d="M6.51318 95.2019C6.89711 99.0254 7.44556 102.98 9.11836 106.313C10.5169 109.091 12.6559 111.117 14.9869 112.718C18.4696 115.071 22.254 116.77 25.7916 118.992C29.9325 121.574 33.9362 124.385 38.2416 126.541C42.2454 128.535 46.7428 130.234 51.103 130.005C54.5583 129.842 57.2732 128.012 59.5767 125.005C61.0027 123.143 62.1819 121.084 63.6628 119.287C65.3082 117.326 67.2003 115.725 69.1474 114.221C72.7946 111.444 76.5516 108.993 79.8149 105.529C82.6669 102.489 86.2319 98.0777 85.2173 93.0778C84.2026 88.0779 80.2811 84.7446 78.1421 80.5616C77.484 79.2871 75.8112 80.4636 76.4693 81.7381C78.2793 85.3001 81.049 88.0778 82.6944 91.7706C84.7237 96.2803 81.6797 100.333 78.9922 103.306C73.206 109.744 65.4453 112.816 60.3994 120.3C58.3975 123.241 56.3408 126.476 53.0775 127.391C49.1834 128.47 44.7134 126.966 41.0662 125.398C37.0076 123.666 33.2506 121.149 29.4662 118.698C25.9561 116.444 22.3637 114.515 18.7712 112.457C16.1935 110.986 13.4786 109.319 11.6413 106.607C9.50228 103.437 8.87153 99.1888 8.4876 95.2346C8.35049 93.764 6.40348 93.764 6.54059 95.2346L6.51318 95.2019Z" fill="currentColor"/>
    <path d="M16.9888 83.5354C9.11835 71.6402 8.21341 55.0064 7.19876 40.4968C6.86969 35.7583 6.5406 31.1178 5.77275 26.4447C5.00491 21.7716 4.12736 16.9023 4.04509 12.0658C3.99024 8.69979 4.15477 3.24237 7.6375 2.39271C11.1202 1.54305 14.4658 4.61486 15.9467 8.27495C17.7566 12.7193 18.0308 18.0134 18.1131 22.8826C18.1954 28.0459 17.8937 33.242 17.6195 38.4053C17.3178 43.9935 17.3178 49.5163 17.976 55.0718C18.8261 62.3919 21.7055 68.1435 26.3674 72.9474C27.2998 73.9277 28.6984 72.2938 27.7386 71.3134C25.4076 68.9278 23.2961 66.2154 21.8975 62.9475C20.636 60.0064 20.0601 56.7384 19.7585 53.4705C19.2649 48.1764 19.3197 42.9477 19.6214 37.6537C19.923 32.3596 20.2247 26.6734 20.0327 21.1833C19.8682 16.1834 19.3746 10.8239 17.3178 6.37954C15.5353 2.52338 12.2172 -0.156314 8.4602 0.00708304C4.70324 0.17048 2.89332 3.47109 2.37228 7.45797C1.0834 16.8696 4.29189 26.412 4.97746 35.7256C6.18408 52.4248 6.56802 71.4441 15.6725 85.2021C16.4403 86.3786 17.8115 84.7119 17.0436 83.5681L16.9888 83.5354Z" fill="currentColor"/>
    <path d="M14.3013 86.2806C12.2172 81.3133 9.33772 76.7709 8.02142 71.4115C6.40346 64.8429 6.48573 57.7842 6.34861 50.9869C6.2115 44.1896 5.49853 38.0132 4.23707 31.4773C2.97561 24.9415 1.79641 18.4056 1.57703 11.739C1.52218 9.77826 1.60445 7.71943 2.72879 6.1835C3.96283 4.4515 5.93728 3.53647 7.61009 2.65413C8.51505 2.16394 7.74722 0.595362 6.81484 1.05287C4.01769 2.52344 0.946285 4.25544 0.233286 8.14428C-0.178059 10.2358 0.041325 12.4252 0.233286 14.5494C0.507517 18.1114 0.946288 21.6082 1.52217 25.1049C2.72879 32.4577 4.42902 39.5818 4.70325 47.098C4.97748 54.6143 4.78551 61.673 5.93728 68.8951C7.00678 75.7251 10.4073 81.1499 12.985 87.2282C13.4238 88.3066 14.7675 87.359 14.3287 86.2806H14.3013Z" fill="currentColor"/>
    <path d="M21.8701 92.2608C24.6124 95.3 27.7935 97.6202 31.1391 99.6136C34.0185 101.313 37.1173 102.587 39.9144 104.483C41.5873 105.627 43.3149 106.738 45.1248 107.587C46.5508 108.274 48.4979 109.091 50.0061 108.274C51.7064 107.326 51.5418 104.842 51.1579 103.045C50.582 100.398 48.5253 98.7313 46.6605 97.3588C42.218 94.0908 37.2544 92.1954 33.0587 88.4373C30.9471 86.5419 27.9306 83.5354 25.106 84.8099C22.7202 85.8883 21.1023 90.3327 22.5831 92.947C23.1316 93.9274 24.4753 93.0124 23.9268 91.9993C22.5557 89.5811 24.9963 85.7903 27.2998 86.4765C29.6034 87.1628 31.6327 89.483 33.5523 91.117C36.9802 94.0581 41.0936 95.6594 44.7409 98.1104C46.3314 99.1888 48.5527 100.529 49.4028 102.587C49.869 103.699 50.4723 106.378 48.9641 106.705C47.4558 107.032 45.7281 105.921 44.4667 105.234C43.0955 104.483 41.7792 103.601 40.4629 102.718C37.8851 100.953 35.0057 99.777 32.3457 98.2411C28.9727 96.2803 25.7093 94.0254 22.967 90.9536C22.2266 90.1366 21.1297 91.4438 21.8701 92.2608Z" fill="currentColor"/>
    <path d="M24.9689 93.9601C29.2195 91.0517 33.9911 93.666 37.7206 96.5418C41.6695 99.5483 45.0974 103.372 48.9092 106.574C49.3205 106.901 49.7045 106.117 49.2931 105.79C45.0974 102.293 41.3679 98.045 36.9527 94.9405C33.1958 92.2935 28.6436 90.4308 24.5575 93.2085C24.1188 93.5026 24.5027 94.3196 24.9414 93.9928L24.9689 93.9601Z" fill="currentColor"/>
    <path d="M40.3257 75.6598C45.7006 77.5552 50.6642 80.7904 56.0391 82.7839C57.52 83.3394 58.946 84.0911 60.2897 85.0061C61.4415 85.7904 62.8949 86.7381 63.6079 88.1433C64.3209 89.5485 62.511 89.9733 61.6609 90.2021C59.2751 90.8557 56.9715 90.1367 54.8325 88.7968C52.6935 87.457 50.8287 85.6923 48.9365 83.9277C47.7025 82.7839 46.4959 81.5747 45.0973 80.7578C43.5891 79.8754 41.9711 79.2218 40.5177 78.2088C40.1886 77.98 39.2837 77.4572 39.2288 76.9343C39.174 76.4114 40.0515 75.9539 40.3532 75.7578C41.2307 75.2023 40.4628 73.601 39.5579 74.1565C38.3513 74.9408 37.0898 76.346 37.9673 78.0454C38.7626 79.5486 40.5177 80.3329 41.8066 81.0519C43.3149 81.8688 44.8231 82.5878 46.1668 83.7642C48.3333 85.6596 50.39 87.7838 52.6661 89.4831C54.8325 91.0844 57.3006 92.3916 59.8784 92.3589C61.4963 92.3262 64.2112 91.8687 65.1162 89.9406C66.7067 86.4766 61.0027 83.274 59.1379 82.261C56.6424 80.9211 53.9824 80.1368 51.4321 78.895C47.8671 77.163 44.4118 75.1696 40.7371 73.8624C39.7773 73.5356 39.3659 75.3003 40.3257 75.6598Z" fill="currentColor"/>
    <path d="M40.2161 79.1891C41.9986 78.699 43.7537 79.9734 45.2071 81.0192C46.6605 82.0649 47.922 83.3067 49.4028 84.1564C53.3243 86.4112 57.1909 88.9276 61.2495 90.823C61.7157 91.0517 61.9077 90.1367 61.4689 89.9406C59.1654 88.8622 56.9441 87.5223 54.7228 86.2152C52.8306 85.0714 50.8014 84.1237 48.964 82.8492C46.3588 81.0192 43.3149 77.4244 40.0241 78.3068C39.5305 78.4375 39.7499 79.3199 40.2435 79.1891H40.2161Z" fill="currentColor"/>
    <path d="M9.25555 7.85016C7.36336 9.09197 5.85508 11.2161 5.69054 13.8305C5.55343 15.8566 6.37612 17.9807 7.96666 18.8957C9.96854 20.0395 12.4915 19.0265 14.0546 17.3271C15.6177 15.6278 15.9467 12.8828 14.6578 10.7586C13.2044 8.34034 10.517 7.32728 8.18605 8.4057C7.71986 8.63445 7.91178 9.51681 8.4054 9.28805C10.2153 8.47107 12.2172 8.9939 13.5883 10.6279C14.8224 12.1311 15.1515 14.3533 13.9997 16.0526C12.848 17.752 10.5444 18.8957 8.7345 18.2422C7.33593 17.7193 6.54064 16.118 6.48579 14.4187C6.40352 11.8697 7.88438 9.77822 9.66687 8.60177C10.1056 8.30765 9.72172 7.52333 9.28295 7.81745L9.25555 7.85016Z" fill="currentColor"/>
    <path d="M7.61018 11.5428C8.73452 10.4644 10.3525 9.64742 11.8059 10.2683C12.5737 10.5951 13.177 11.3794 13.5061 12.2618C13.8626 13.1768 13.7255 14.1572 13.369 15.0395C12.9028 16.1833 12.2721 17.2291 11.8608 18.3728C11.6688 18.9284 12.3269 19.3859 12.5189 18.8303C13.2867 16.7389 15.0967 14.582 14.3014 12.1311C13.9449 11.0527 13.2593 10.0396 12.3544 9.51672C11.5591 9.05921 10.6816 8.99383 9.80403 9.18991C8.76195 9.41866 7.82954 10.0396 7.03428 10.8239C6.65035 11.1833 7.19885 11.837 7.58277 11.4775L7.61018 11.5428Z" fill="currentColor"/>
</svg>
