<svg width="145" height="78" viewBox="0 0 145 78" fill="none"
    xmlns="http://www.w3.org/2000/svg">
    <path d="M25.968 27.3007C25.968 27.3007 25.9131 27.3007 25.8857 27.3007C25.8034 27.3007 25.6938 27.3007 25.6115 27.3007C25.5292 27.3007 25.4469 27.3007 25.3372 27.3007C25.3372 27.3007 25.2824 27.3007 25.255 27.3007C25.1453 27.3333 25.0356 27.366 24.9533 27.4314C24.8711 27.4967 24.7888 27.5294 24.7065 27.6275C24.6517 27.6928 24.5694 27.7582 24.5146 27.8562C24.4323 28.0196 24.4049 28.085 24.3774 28.3137C24.3774 28.4118 24.3774 28.5098 24.4049 28.6078C24.4049 28.6732 24.4597 28.7386 24.4871 28.8039C24.5146 28.8693 24.5694 28.902 24.6243 28.9673C24.6243 28.9673 24.6517 28.9673 24.6791 29C24.7339 29.0327 24.8162 29.098 24.8985 29.1307C25.0082 29.1634 25.1179 29.2287 25.2276 29.2287C25.3098 29.2287 25.3921 29.2287 25.5018 29.2287C25.6115 29.2287 25.6938 29.2287 25.776 29.2287C25.776 29.2287 25.8034 29.2287 25.8309 29.2287C25.9131 29.2287 25.9954 29.1634 26.0777 29.1307C26.2422 29.0654 26.4067 28.902 26.5164 28.7386C26.6261 28.5752 26.681 28.3791 26.681 28.183C26.681 28.085 26.681 27.9543 26.6536 27.8562C26.6536 27.7909 26.6536 27.7582 26.5987 27.7255C26.5439 27.6275 26.5164 27.5294 26.4342 27.4314C26.3519 27.3333 26.2696 27.2353 26.1874 27.17C26.1051 27.1046 26.0228 27.0392 25.9406 27.0392C25.8583 27.0066 25.7486 26.9739 25.6389 26.9739C25.5292 26.9739 25.4469 26.9739 25.3372 27.0392C25.255 27.0392 25.1727 27.1046 25.0904 27.17C24.9808 27.3007 24.8436 27.4641 24.8711 27.6601V27.8562C24.8711 27.8562 25.0082 28.085 25.0904 28.1503C25.1179 28.1503 25.1727 28.2157 25.2001 28.2484L25.0904 28.1176C25.0904 28.1176 25.1453 28.2157 25.1727 28.2484L25.0904 28.085C25.0904 28.085 25.1453 28.183 25.1453 28.2484V28.0523C25.1453 28.0523 25.1453 28.1503 25.1453 28.2157V28.0196C25.1453 28.0196 25.1453 28.1177 25.1453 28.1503L25.2276 27.9869C25.2276 27.9869 25.2001 28.0523 25.1727 28.085L25.2824 27.9543C25.2824 27.9543 25.2276 27.9869 25.2001 28.0196L25.3647 27.9216C25.3647 27.9216 25.3098 27.9216 25.2824 27.9543L25.4744 27.8889C25.4744 27.8889 25.4195 27.8889 25.3921 27.8889H25.6115C25.6115 27.8889 25.5292 27.8889 25.5018 27.8889H25.7212C25.7212 27.8889 25.6389 27.8889 25.5841 27.8889L25.776 27.9543C25.776 27.9543 25.7212 27.9543 25.6938 27.9216L25.8583 28.0196C25.8583 28.0196 25.8309 28.0196 25.8035 27.9869L25.9131 28.1176C25.9131 28.1176 25.9131 28.085 25.8857 28.0523L25.968 28.2157C25.968 28.2157 25.968 28.183 25.968 28.1503V28.3464C25.968 28.3464 25.968 28.2811 25.9954 28.2811V28.4771C25.9954 28.4771 25.9954 28.4118 25.9954 28.3791L25.9131 28.5425C25.9131 28.5425 25.9406 28.4771 25.968 28.4444L25.8583 28.5752C25.8583 28.5752 25.9131 28.5098 25.9406 28.4771L25.776 28.5752C25.776 28.5752 25.8309 28.5425 25.8857 28.5098L25.6938 28.5752C25.6938 28.5752 25.7486 28.5752 25.8035 28.5752H25.5841C25.5841 28.5752 25.6389 28.5752 25.6938 28.5752H25.4744C25.4744 28.5752 25.5292 28.5752 25.5566 28.5752C25.6663 28.5752 25.776 28.5752 25.8583 28.5752C25.968 28.5752 26.0503 28.5752 26.1599 28.5098C26.2422 28.4771 26.3245 28.4118 26.3793 28.3464C26.4342 28.281 26.489 28.2157 26.5164 28.1176V27.9216C26.5164 27.9216 26.5164 27.6928 26.4342 27.5621L26.3245 27.4314C26.3245 27.4314 26.1051 27.268 25.968 27.268V27.3007Z" fill="currentColor"/>
    <path d="M2.30199 12.5295C4.16676 9.81716 6.25089 7.30086 8.80124 5.50349C11.5435 3.57541 14.3681 3.05254 17.5218 3.21594C24.2404 3.54273 30.7397 6.05904 37.2115 7.95444C43.6833 9.84984 50.594 10.8629 57.2578 12.4969C63.9216 14.1308 70.5579 15.7975 77.3314 16.6471C83.6113 17.4314 90.0008 17.9216 96.3081 17.9216C99.4618 17.9216 102.615 17.7582 105.769 17.268C108.923 16.7779 112.104 15.8955 115.34 15.6668C118.576 15.438 121.866 15.536 125.13 15.7975C128.146 16.0262 130.998 16.4511 133.713 18.1831C136.154 19.719 138.375 21.9412 139.966 24.6536C140.898 26.2875 141.803 28.1503 141.666 30.2091C141.474 33.3136 139.17 35.6665 137.168 37.3005C134.234 39.7187 130.916 41.4507 127.598 42.954C121.674 45.6664 115.449 47.4637 109.691 50.6663C103.932 53.8689 97.981 56.3852 92.3592 59.8819C90.0283 61.3525 87.8619 62.9211 85.9148 65.0452C84.1597 66.9406 82.5418 68.9994 80.7319 70.8294C79.0042 72.5615 76.9475 74.2608 74.6165 74.2935C73.7116 74.2935 72.834 73.9994 71.9565 73.6726C71.7097 73.5745 70.7499 72.9209 70.5305 72.9536C70.6128 72.9536 70.4208 73.5092 70.7499 73.4438C70.8322 73.4438 71.1064 73.0516 71.1612 72.9536C72.3678 71.287 72.2033 68.9341 70.366 68.0517C69.5433 67.6596 68.6383 67.5615 67.7882 67.3328C66.3896 66.9733 65.0733 66.2217 63.8119 65.4047C61.0421 63.6073 58.4095 61.5812 55.5575 59.9472C52.7055 58.3133 49.9358 56.8754 47.1661 55.2087C41.3798 51.7447 36.6905 46.8755 31.6172 42.2024C29.1217 39.9148 26.5714 38.0521 23.7742 36.3855C20.8125 34.6208 18.701 31.9737 16.2055 29.4574C15.136 28.379 14.231 27.3333 13.4906 25.8954C12.7502 24.4575 12.092 22.8235 11.1596 21.4837C9.67877 19.3268 7.37524 18.1177 5.67501 16.255C4.16675 14.621 2.19229 12.2028 4.30386 10.1766C5.67501 8.86946 3.72799 6.58191 2.38426 7.88908C-2.00343 12.1047 2.65848 17.6929 5.75728 20.4706C6.74451 21.353 7.89629 22.1046 8.77383 23.1503C9.9256 24.5229 10.5289 26.4509 11.4064 28.0522C13.1067 31.1894 15.9587 33.7711 18.3445 36.1567C20.7303 38.5423 23.6645 39.7187 26.2697 41.6795C29.2588 43.9344 31.9463 46.7121 34.716 49.3591C37.3212 51.8754 39.9812 54.261 42.9155 56.2545C45.8498 58.2479 48.9486 59.8819 52.0199 61.5812C55.0913 63.2805 58.0804 65.1432 60.9873 67.2347C63.3457 68.9341 65.6492 70.1105 68.3366 70.7968C68.5286 70.8295 68.9125 71.0255 69.0771 70.9929C69.7901 70.8948 68.8028 71.2543 69.269 70.7314C68.9948 71.0582 68.6932 71.4177 68.4464 71.8098C67.9527 72.6922 67.7882 73.7379 68.227 74.6856C69.0497 76.5483 71.8194 77.2346 73.4099 77.496C78.4283 78.3457 82.4047 73.6399 85.6954 69.8491C87.6425 67.5942 89.5347 65.5681 91.9205 63.9341C94.8821 61.9407 97.9809 60.274 101.08 58.6727C105.467 56.4179 109.828 53.8035 114.325 51.8754C117.616 50.4702 120.989 49.2611 124.28 47.8886C128.064 46.32 131.821 44.6206 135.359 42.3985C138.238 40.5684 141.254 38.2808 143.064 34.9476C148.357 25.1764 136.839 14.6864 129.709 13.1505C126.473 12.4642 123.046 12.3988 119.755 12.3335C116.272 12.3008 112.789 12.5622 109.362 13.2485C102.643 14.6537 96.0887 14.8825 89.2878 14.4249C82.1304 13.9674 75.0005 13.2812 67.9253 11.7452C60.8502 10.2093 53.3362 8.05248 45.9594 6.74531C38.5826 5.43814 32.2205 2.79111 25.2825 1.18982C19.0849 -0.248066 12.5308 -1.13041 6.93647 3.08522C4.38613 5.0133 2.24714 7.52961 0.327529 10.2747C-0.769392 11.876 1.15021 14.1962 2.24713 12.5622L2.30199 12.5295Z" fill="currentColor"/>
    <path d="M3.50864 14.8826C3.59091 13.4774 3.75545 10.2094 5.40083 10.7977C7.04622 11.3859 8.41737 13.3466 9.54172 14.7845C10.8306 16.4512 11.9824 18.2159 13.2438 19.9152C14.8892 22.1374 17.3573 23.2812 18.9204 25.5687C19.8528 26.9412 19.8528 28.7059 18.8381 30.0458C17.8235 31.3856 16.2055 31.6144 15.0537 30.3726C14.3133 29.5556 13.2164 30.8628 13.9568 31.6797C16.4523 34.3921 20.4012 32.6274 21.0868 28.7386C21.8272 24.4903 18.0154 22.2681 15.6845 20.0786C13.902 18.4119 12.6131 16.0264 11.1048 14.0329C9.59656 12.0395 7.92375 9.65388 5.75733 8.93493C2.76822 7.95455 2.08264 12.2682 1.94553 14.8499C1.89068 16.0264 3.42637 16.0264 3.50864 14.8499V14.8826Z" fill="currentColor"/>
    <path d="M20.2365 36.8104C25.1178 39.8823 29.1764 44.5554 33.6463 48.3789C38.1163 52.2024 42.8331 55.7971 47.7966 58.8363C52.7602 61.8755 57.4769 64.8493 62.3308 67.8885C63.4003 68.5747 64.5247 69.2283 65.6764 69.6531C66.4168 69.9146 67.7057 69.9146 68.3091 70.5028C69.0769 71.2871 68.309 72.0387 68.501 72.8884C68.693 73.738 69.4608 74.2282 70.0367 74.5877C70.4755 74.8818 70.8594 74.0648 70.4206 73.8034C69.4883 73.1825 69.4334 72.9537 69.4882 71.7773C69.4882 71.5485 69.5979 71.4178 69.5705 71.1564C69.5156 70.5355 69.1043 70.0126 68.693 69.7185C68.0622 69.261 67.2944 69.1956 66.5814 68.9996C65.2102 68.6074 63.9488 67.8884 62.7147 67.1041C57.8883 64.065 53.0619 61.0258 48.1806 58.052C43.2993 55.0782 38.5825 51.4834 34.0303 47.5946C29.478 43.7058 25.5017 39.1307 20.6204 36.0261C20.1816 35.732 19.7977 36.549 20.2365 36.8104Z" fill="currentColor"/>
    <path d="M12.7226 28.281C11.1321 31.4509 13.2711 35.2417 14.1212 38.3135C14.9713 41.3854 16.0683 44.1304 18.3992 45.9278C19.9623 47.1043 21.7448 47.9539 23.4451 48.8363C25.2824 49.784 27.1472 50.6663 29.0942 51.3199C32.0559 52.333 35.6483 53.4441 38.7197 52.529C39.2133 52.3983 38.9939 51.4833 38.5003 51.6467C35.6483 52.4964 32.2753 51.4179 29.5056 50.5029C26.1325 49.3918 22.8143 47.6925 19.7155 45.7644C17.2749 44.2612 16.0134 41.9083 15.1085 38.9018C14.6697 37.4312 14.2035 35.9606 13.7373 34.5227C13.134 32.6927 12.5033 30.6339 13.4082 28.7712C13.655 28.2483 12.9969 27.7908 12.7501 28.3137L12.7226 28.281Z" fill="currentColor"/>
    <path d="M12.7227 28.9346C11.187 36.3201 13.7923 44.5553 19.4414 48.3461C22.787 50.5683 26.7085 52.3003 30.3832 53.6075C34.0579 54.9147 37.7874 55.4702 41.6815 54.6532C42.1751 54.5552 41.9557 53.6728 41.4621 53.7709C34.2773 55.2741 26.9279 51.6794 20.5383 47.9866C14.7246 44.6533 11.9275 36.5162 13.4632 29.196C13.5729 28.6078 12.8324 28.379 12.7227 28.9346Z" fill="currentColor"/>
    <path d="M9.78852 25.3726C8.71902 30.3725 8.41738 35.83 9.65142 40.8299C10.2547 43.2808 11.2419 45.6011 12.6131 47.5618C14.0939 49.6533 16.0684 50.601 18.1251 51.7121C20.3738 52.9539 22.3483 54.7186 24.6518 55.8624C27.1747 57.1369 29.8348 57.2676 32.5222 57.431C36.2792 57.6598 41.517 60.1761 44.9448 57.3003C46.3708 56.0911 44.9997 53.2807 43.5737 54.4899C42.1477 55.699 40.0635 55.3722 38.3907 55.0781C36.6357 54.784 34.908 54.3591 33.1255 54.2284C30.6849 54.0323 28.2168 54.065 25.9133 52.9866C23.8291 52.0062 22.0192 50.3396 20.0173 49.1631C18.2348 48.1174 16.2878 47.4311 14.8892 45.6664C13.5729 44.0325 12.7228 41.8103 12.2292 39.6535C11.2145 35.2744 11.4887 30.5686 12.4211 26.1896C12.8599 24.1634 10.2273 23.3138 9.78852 25.3399V25.3726Z" fill="currentColor"/>
    <path d="M68.3641 70.2086C65.4024 70.7968 62.4133 70.7315 59.479 71.0909C55.7495 71.4504 52.1571 71.4831 48.4275 71.4177C43.7382 71.1236 35.2645 77.9209 32.8238 70.0779C31.9189 67.1694 31.5898 63.7054 32.1931 60.6336C32.9884 56.6467 33.29 52.0389 33.7562 47.954L37.9245 51.3526C36.5808 56.1565 32.8513 67.1694 38.0068 70.6661C40.4749 72.3328 43.1898 70.0125 45.603 69.3589C48.9212 68.4439 52.1571 69.9145 55.4752 69.7511C58.5466 69.5223 61.4261 69.3589 64.3329 68.542L68.3367 70.2413L68.3641 70.2086Z" fill="currentColor"/>
    <path d="M68.0076 68.64C65.1831 69.1629 62.3311 69.1956 59.4791 69.457C56.6271 69.7185 53.8573 69.8165 51.0602 69.8165C49.1406 69.8165 47.3032 69.7185 45.411 70.2086C43.7931 70.6335 42.23 71.2544 40.612 71.7119C39.2134 72.104 37.5132 72.5942 36.0872 72.006C34.195 71.2217 33.7014 68.444 33.4272 66.3525C32.9884 63.0846 33.7837 60.0781 34.195 56.8755C34.579 53.9017 34.8257 50.8952 35.1274 47.9213L33.0707 49.3266L37.239 52.7252L36.6082 50.8952C35.4016 55.1435 33.9756 59.5225 34.0031 64.0976C34.0305 68.6727 36.2792 73.2478 40.5297 72.823C43.3817 72.5289 45.7127 70.5681 48.7018 70.6988C51.6909 70.8296 54.4607 71.4831 57.4223 71.2217C59.0129 71.091 60.6034 70.9276 62.194 70.6335C63.0989 70.4701 63.7571 70.1106 64.4152 70.274C65.6218 70.5681 66.801 71.2871 67.9528 71.7773C69.5982 72.4962 70.3112 69.359 68.6658 68.64L65.5944 67.3329C63.8667 66.6139 62.3311 67.3655 60.5486 67.627C57.8337 68.0191 55.0639 68.2479 52.3491 67.8884C49.6342 67.5289 47.0839 67.0387 44.4787 67.9865C42.4494 68.7381 39.8168 70.7315 37.9246 68.542C36.7728 67.2022 36.6357 65.1434 36.6905 63.346C36.8276 59.3264 38.1439 55.4703 39.186 51.7121C39.378 50.9932 39.0489 50.2743 38.5553 49.8821L34.387 46.4835C33.4272 45.6992 32.4674 46.7776 32.3303 47.8887C31.9463 51.5161 31.6995 55.2088 31.0688 58.8036C30.5478 61.8754 30.2735 64.7512 30.822 67.8557C31.6721 72.823 34.195 75.9275 38.5827 75.372C40.5023 75.1432 42.3397 74.457 44.177 73.8687C46.1789 73.2151 47.934 73.0191 49.9907 73.0191C56.1334 73.0844 62.5504 72.823 68.6383 71.7119C70.366 71.3851 69.6256 68.2806 67.9254 68.5747L68.0076 68.64Z" fill="currentColor"/>
    <path d="M37.321 69.7511C41.6813 69.0648 45.6028 66.6139 50.1825 66.189C52.294 66.091 54.2411 66.81 56.3526 66.8426C57.7238 66.8426 59.0675 66.189 60.3564 65.6989" fill="currentColor"/>
    <path d="M37.4034 70.176C41.2426 69.5224 44.8076 67.5616 48.6194 66.8427C50.6761 66.4505 52.6232 66.8427 54.6525 67.1368C56.6818 67.4309 58.4094 66.8754 60.4113 66.1237C60.8775 65.9603 60.6855 65.0453 60.1919 65.2414C59.1498 65.6335 58.1352 66.091 57.0657 66.2871C55.8865 66.4832 54.7073 66.2544 53.5281 66.0584C51.7731 65.7643 50.1277 65.6335 48.4 65.9603C44.5882 66.6793 41.0232 68.64 37.184 69.2936C36.6904 69.3917 36.9098 70.274 37.4034 70.176Z" fill="currentColor"/>
    <path d="M13.0518 7.49706C14.8891 12.7258 19.1945 16.6473 22.7047 20.242C26.8455 24.4903 31.672 27.4968 35.8951 31.6144C40.1183 35.732 44.6979 40.013 49.4421 43.8038C52.7603 46.4508 56.1607 49.0325 59.5886 51.5161C62.2761 53.4442 65.3749 55.6337 68.5834 55.9605C72.1484 56.32 73.2727 52.7906 74.0406 49.1959C74.6713 46.2547 75.0278 43.1829 76.399 40.5685C77.8798 37.7581 80.0188 35.5359 82.3772 33.8366C84.7356 32.1373 87.5327 31.0589 90.1927 29.9478C93.0722 28.7713 95.9516 27.6275 98.8584 26.6145C105.522 24.2942 112.186 22.8563 119.097 22.2681C126.007 21.6799 133 20.9936 139.856 23.0851C140.349 23.2485 140.541 22.3335 140.075 22.2028C134.563 20.5361 128.942 20.5361 123.292 20.9936C117.643 21.4511 112.021 21.974 106.482 23.3792C100.943 24.7844 95.1837 26.9086 89.6717 29.1961C85.2292 31.0589 80.8415 32.9869 77.5782 37.2352C76.1247 39.098 75.0278 41.2221 74.3971 43.6731C73.6292 46.5815 73.3824 49.6861 72.3129 52.4638C70.5578 56.9409 66.1702 54.6207 63.3456 52.9867C60.521 51.3527 58.1078 49.2612 55.5026 47.3658C50.4842 43.7711 45.4932 39.8496 40.941 35.4379C38.6923 33.2811 36.5259 30.9608 34.2223 28.8693C31.9188 26.7779 29.2039 25.0459 26.7633 22.9217C24.3226 20.7975 21.882 18.2159 19.6059 15.6669C17.3298 13.1179 14.9988 10.7323 13.7922 7.26831C13.6002 6.71276 12.8598 6.97419 13.0518 7.52974V7.49706Z" fill="currentColor"/>
    <path d="M12.9695 5.07878C11.5983 4.65395 10.1449 4.62128 9.18506 5.63434C10.1997 6.81079 13.2162 7.98725 14.0115 6.09185C13.4631 5.27486 12.8323 4.85003 11.9274 4.78467" fill="currentColor"/>
    <path d="M13.134 4.39247C11.6532 3.93496 10.0078 3.86961 8.80119 5.11142C8.55439 5.34018 8.58181 5.86305 8.80119 6.0918C9.54162 6.94146 10.6385 7.497 11.6532 7.69308C12.7501 7.88916 14.0116 7.69308 14.56 6.41859C14.6971 6.12448 14.6423 5.83037 14.4778 5.56893C13.847 4.62123 12.9969 4.13103 11.9823 4.06567C11.6806 4.06567 11.4064 4.39248 11.4064 4.75195C11.4064 5.1441 11.6806 5.40553 11.9823 5.43821C12.2839 5.47089 12.6404 5.56893 12.8872 5.73233C13.1889 5.9284 13.4083 6.18984 13.6551 6.54931L13.5728 5.69964C13.5728 5.69964 13.518 5.79769 13.4905 5.86305C13.4905 5.86305 13.4631 5.9284 13.4357 5.96108C13.4631 5.89572 13.4905 5.89572 13.4357 5.96108C13.4083 5.99376 13.3809 6.05912 13.3534 6.0918C13.3534 6.0918 13.1889 6.22251 13.2986 6.12447C13.2163 6.18983 13.134 6.22251 13.0518 6.28787C13.1615 6.22251 13.0518 6.28787 13.0243 6.28787C12.9695 6.28787 12.9421 6.32056 12.8872 6.32056C12.8324 6.32056 12.805 6.32055 12.7501 6.35323C12.6953 6.38591 12.613 6.35323 12.6953 6.35323C12.5856 6.35323 12.4759 6.35323 12.3662 6.35323C12.2565 6.35323 12.1468 6.35323 12.0097 6.35323C11.8726 6.35323 12.092 6.35323 11.9548 6.35323C11.9 6.35323 11.8452 6.35323 11.7903 6.32056C11.5709 6.2552 11.3515 6.18983 11.1321 6.12447C11.0225 6.0918 10.9128 6.02644 10.7757 5.96108C10.7757 5.96108 10.7208 5.96109 10.6934 5.92841C10.7482 5.92841 10.7482 5.92841 10.6934 5.92841C10.6385 5.92841 10.5837 5.86304 10.5289 5.83036C10.3369 5.73232 10.1723 5.6016 9.98038 5.47089C9.95296 5.47089 9.73359 5.24214 9.84328 5.34018C9.76101 5.27482 9.67874 5.17678 9.62389 5.11142V6.0918C10.474 5.24214 11.7903 5.40553 12.8324 5.73233C13.5454 5.96108 13.8745 4.62123 13.134 4.39247Z" fill="currentColor"/>
    <path d="M28.957 23.6406C26.3244 21.5165 24.5419 26.1569 27.5036 26.8759C30.7944 27.6928 30.3008 23.4119 27.4762 22.9543" fill="currentColor"/>
    <path d="M29.2313 23.0197C28.7377 22.6275 28.1344 22.3334 27.5037 22.3661C26.9552 22.3661 26.4616 22.6602 26.0502 23.085C25.3373 23.8693 25.1179 25.2745 25.6663 26.2876C25.9954 26.8758 26.5164 27.268 27.0649 27.464C27.6682 27.6601 28.3538 27.7582 28.9571 27.5621C29.4233 27.4314 29.8895 27.0719 30.1089 26.5163C30.3283 25.9608 30.3557 25.4052 30.246 24.8497C29.9443 23.4118 28.7651 22.4641 27.5859 22.268C27.2843 22.2027 26.9552 22.3661 26.8729 22.7582C26.8181 23.085 26.9552 23.5425 27.2843 23.6079C27.5311 23.6406 27.7779 23.7386 28.0247 23.8366C28.107 23.8693 27.9973 23.8366 27.9699 23.8366C27.9973 23.8366 28.0247 23.8693 28.0521 23.902C28.107 23.902 28.1618 23.9674 28.1892 24C28.2715 24.0654 28.3812 24.1308 28.4635 24.1961C28.4635 24.1961 28.5458 24.2288 28.5458 24.2615C28.5458 24.2615 28.4361 24.1308 28.4909 24.2288C28.5183 24.2615 28.5732 24.2942 28.6006 24.3595C28.6829 24.4575 28.7651 24.5229 28.82 24.6209C28.82 24.6209 28.82 24.6536 28.8474 24.6863C28.9297 24.7843 28.7651 24.5556 28.8474 24.6536C28.8474 24.6863 28.9023 24.719 28.9297 24.7843C28.9845 24.8824 29.0119 24.9804 29.0668 25.0784C29.0119 24.915 29.1216 25.2418 29.0668 25.0784C29.0668 25.1111 29.0942 25.1765 29.0942 25.2092C29.0942 25.2418 29.0942 25.3072 29.1216 25.3399C29.1216 25.4052 29.1216 25.6013 29.1216 25.3399C29.1216 25.4379 29.1216 25.5033 29.1216 25.6013C29.1216 25.634 29.1216 25.6667 29.1216 25.732C29.1216 25.8628 29.1491 25.536 29.1216 25.6667V25.732C29.1216 25.7647 29.1216 25.8301 29.0942 25.8628C29.0394 26.0262 29.1216 25.7974 29.0942 25.8628C29.0942 25.8954 29.0668 25.9281 29.0394 25.9935C29.0394 25.9935 29.0394 25.9935 29.0394 26.0261C29.0119 26.0915 28.9571 26.1242 29.0394 25.9935C28.9845 26.0588 28.9297 26.1242 28.8748 26.1895C28.82 26.2549 29.0119 26.0915 28.9297 26.1242C28.9297 26.1242 28.9297 26.1242 28.9022 26.1242C28.8474 26.1242 28.82 26.1895 28.7651 26.2222C28.628 26.3203 28.9022 26.1569 28.7651 26.2222C28.7103 26.2222 28.6829 26.2549 28.628 26.2876C28.5732 26.2876 28.5457 26.2876 28.4909 26.3203C28.4909 26.3203 28.4635 26.3203 28.4361 26.3203C28.3264 26.3203 28.6006 26.3203 28.4361 26.3203C28.3264 26.3203 28.2167 26.3203 28.107 26.3203C28.0521 26.3203 27.9699 26.3203 27.915 26.3203H27.8053H27.8876C27.8876 26.3203 27.8327 26.3203 27.8053 26.3203C27.6682 26.3203 27.5311 26.2549 27.394 26.2222C27.3391 26.2222 27.2843 26.1895 27.2294 26.1569H27.1746C27.0649 26.1242 27.3117 26.2222 27.1746 26.1569C27.0923 26.0915 26.9826 26.0588 26.9004 25.9935L26.8181 25.9281C26.8181 25.9281 26.9278 26.0588 26.8729 25.9608C26.8181 25.9281 26.7907 25.8628 26.7358 25.8301C26.7084 25.7974 26.681 25.7647 26.6536 25.6994C26.5987 25.634 26.681 25.7647 26.7084 25.7647C26.7084 25.7647 26.681 25.6994 26.6536 25.6994C26.6536 25.6667 26.5987 25.6013 26.5987 25.5686C26.5987 25.5686 26.5987 25.536 26.5987 25.5033C26.5439 25.4052 26.5987 25.5033 26.5987 25.5686C26.5987 25.4706 26.5439 25.3726 26.5164 25.2745C26.5164 25.2745 26.5164 25.2092 26.5164 25.1765C26.5164 25.1765 26.5164 25.3726 26.5164 25.2745C26.5164 25.2092 26.5164 25.1438 26.5164 25.1111C26.5164 25.0785 26.5164 25.0131 26.5164 24.9804C26.489 25.1438 26.5164 24.817 26.5164 24.9804C26.5164 24.8824 26.5439 24.7843 26.5713 24.6863C26.5713 24.6863 26.5713 24.6209 26.5713 24.5883C26.5713 24.4902 26.5439 24.6863 26.5439 24.6863C26.5439 24.6536 26.5713 24.5883 26.5987 24.5556C26.6261 24.5229 26.6261 24.4575 26.6536 24.4249C26.6536 24.4249 26.6536 24.3922 26.681 24.3595C26.7084 24.2942 26.7907 24.2615 26.681 24.3595C26.7358 24.2942 26.7907 24.1961 26.8729 24.1308C26.8729 24.1308 26.9004 24.0981 26.9278 24.0654C27.0101 24 26.8181 24.1634 26.9004 24.0981C26.9552 24.0654 26.9826 24.0327 27.0375 24C27.0923 24 27.1198 23.9347 27.1746 23.9347C27.2294 23.902 27.2294 23.9347 27.1197 23.9347C27.1197 23.9347 27.1746 23.9347 27.202 23.902C27.2569 23.902 27.3117 23.8693 27.3666 23.8366C27.3666 23.8366 27.394 23.8366 27.4214 23.8366C27.4214 23.8366 27.4488 23.8366 27.4763 23.8366C27.5311 23.8366 27.5037 23.8366 27.394 23.8366C27.4762 23.8366 27.6134 23.8366 27.7231 23.8366C27.7231 23.8366 27.7779 23.8366 27.8053 23.8366C27.6408 23.804 27.8327 23.8366 27.8053 23.8366C27.8602 23.8366 27.915 23.8366 27.9699 23.8693C28.0247 23.902 28.0796 23.902 28.1618 23.9347C28.1893 23.9347 28.2441 23.9673 28.2715 23.9673C28.1618 23.902 28.2167 23.9673 28.2715 23.9673C28.4086 24.0654 28.5457 24.1634 28.6829 24.2615C28.9297 24.4575 29.341 24.3268 29.4781 24C29.6427 23.6406 29.533 23.2811 29.2587 23.0523L29.2313 23.0197Z" fill="currentColor"/>
    <path d="M51.0327 42.5945C50.1826 42.3331 47.8791 40.3069 46.9741 41.0912C45.0271 42.4311 47.1386 46.1565 48.4549 46.7775C52.4587 48.4768 52.6781 41.8102 48.5372 40.6991" fill="currentColor"/>
    <path d="M51.1972 41.9409C51.1972 41.9409 51.0875 41.9083 51.0327 41.8756C50.8956 41.8429 51.1424 41.9409 51.0327 41.8756C51.0327 41.8756 50.9778 41.8756 50.9504 41.8429C50.7859 41.7449 50.5939 41.6468 50.4294 41.5488C50.0454 41.32 49.6615 41.0586 49.2776 40.8625C48.5372 40.4704 47.6322 39.9802 46.837 40.4377C46.0417 40.8952 45.5755 41.8429 45.6303 42.8886C45.6852 43.9344 46.0417 44.8821 46.5353 45.6664C47.0015 46.418 47.5774 47.1696 48.3452 47.5291C49.0308 47.8232 49.8261 47.9539 50.5391 47.6598C51.828 47.1369 52.3216 45.5357 52.1022 43.9997C51.8005 41.9736 50.3197 40.5357 48.7292 40.0782C48.4275 39.9802 48.0984 40.1762 48.0161 40.5684C47.9339 40.9279 48.1258 41.3527 48.4275 41.4181C48.592 41.4507 48.784 41.5161 48.9485 41.5815C48.976 41.5815 49.0308 41.5815 49.0582 41.6141C49.0582 41.6141 49.2227 41.6795 49.1405 41.6468C49.0582 41.6141 49.2227 41.7122 49.2227 41.6795C49.2776 41.6795 49.305 41.7122 49.3325 41.7449C49.4696 41.8429 49.6067 41.9409 49.7438 42.039C49.7438 42.039 49.9358 42.2024 49.8535 42.137C49.9084 42.2024 49.9906 42.2677 50.0454 42.3331C50.1551 42.4638 50.2648 42.5618 50.3471 42.6926C50.3745 42.7252 50.4842 42.8886 50.402 42.7579C50.4568 42.8233 50.4842 42.9213 50.5391 42.9867C50.6213 43.1174 50.6762 43.2481 50.731 43.4115C50.731 43.4115 50.8133 43.6403 50.7859 43.5749C50.7585 43.4769 50.7859 43.6403 50.7859 43.6403C50.7859 43.6729 50.8133 43.7383 50.8407 43.771C50.8682 43.9017 50.923 44.0324 50.923 44.1958C50.923 44.2612 50.923 44.3265 50.9504 44.4246C50.923 44.2285 50.9504 44.4572 50.9504 44.5226C50.9504 44.6533 50.9504 44.8167 50.9504 44.9474C50.9504 45.0128 50.9504 45.1435 50.9504 44.9801C50.9504 45.0455 50.9504 45.1435 50.923 45.2089C50.923 45.3396 50.8682 45.4376 50.8407 45.5683C50.8956 45.3723 50.8407 45.5683 50.8133 45.6337C50.7859 45.6991 50.7584 45.7644 50.731 45.8298C50.6488 45.9605 50.7859 45.7971 50.731 45.8298C50.6762 45.8951 50.6488 45.9278 50.6213 45.9932C50.5939 46.0258 50.5391 46.0585 50.5116 46.0912C50.6487 45.9605 50.5116 46.0912 50.4568 46.1239C50.4019 46.1566 50.3471 46.1892 50.3197 46.2219C50.21 46.2873 50.4294 46.2219 50.2648 46.2219C50.21 46.2219 50.1551 46.2546 50.1003 46.2873C50.0729 46.2873 49.8809 46.32 49.9632 46.32C50.0454 46.32 49.8535 46.32 49.8261 46.32C49.7438 46.32 49.6889 46.32 49.6067 46.32C49.5244 46.32 49.4695 46.32 49.3873 46.32C49.5244 46.32 49.2776 46.32 49.2227 46.2873C49.0582 46.2546 48.8937 46.1892 48.7292 46.1239C48.6195 46.0585 48.7017 46.1239 48.7292 46.1239C48.7292 46.1239 48.6743 46.1239 48.6469 46.0912C48.592 46.0585 48.5097 45.9932 48.4549 45.9605C48.4549 45.9605 48.2355 45.7644 48.3452 45.8624C48.2904 45.7971 48.2355 45.7644 48.1807 45.6991C48.0436 45.5683 47.9065 45.4049 47.7968 45.2415C47.3854 44.686 47.0289 43.9671 46.8644 43.2154C46.8644 43.1174 46.837 43.0194 46.8095 42.9213C46.8095 43.052 46.8095 42.856 46.8095 42.7906C46.8095 42.6926 46.8095 42.5945 46.8095 42.4965C46.8095 42.3658 46.8095 42.4638 46.8095 42.4965C46.8095 42.4311 46.8095 42.3658 46.837 42.3331C46.8918 42.1043 47.0015 41.8756 47.1935 41.7449C47.2483 41.6795 47.3306 41.6468 47.3854 41.5815C47.2757 41.6468 47.3306 41.5815 47.3854 41.5815C47.3854 41.5815 47.55 41.5488 47.4403 41.5815C47.358 41.5815 47.5774 41.5815 47.6048 41.5815C47.6322 41.5815 47.7419 41.5815 47.6048 41.5815C47.6596 41.5815 47.7145 41.5815 47.7693 41.6141C48.1807 41.7122 48.4549 41.8756 48.784 42.039C49.4696 42.4311 50.1277 42.9867 50.8681 43.2154C51.6086 43.4442 51.9102 42.1043 51.1698 41.8756L51.1972 41.9409Z" fill="currentColor"/>
    <path d="M70.5854 56.6468C68.3641 55.9278 68.1173 61.9735 69.9546 62.7578C72.313 63.7055 73.026 57.2023 70.4208 56.5814" fill="currentColor"/>
    <path d="M70.7224 55.9604C69.4609 55.5683 68.5834 56.7448 68.2817 58.0846C67.9801 59.4245 68.0623 61.0257 68.6382 62.2349C69.2141 63.444 70.5579 63.9669 71.5177 63.0192C72.3678 62.2022 72.642 60.699 72.6146 59.4898C72.5597 57.9539 71.929 56.2546 70.5304 55.9278C70.2288 55.8624 69.8997 56.0258 69.8174 56.418C69.7352 56.7774 69.9271 57.2023 70.2288 57.2676C70.3385 57.2676 70.4482 57.333 70.5304 57.3657C70.5853 57.3657 70.503 57.3657 70.4756 57.3657C70.4756 57.3657 70.5304 57.3657 70.5578 57.3983C70.6127 57.431 70.6676 57.4637 70.7224 57.4964C70.8321 57.5617 70.695 57.431 70.7498 57.4964C70.7772 57.5291 70.8321 57.5617 70.8595 57.5944C70.8869 57.6271 70.9144 57.6925 70.9692 57.7251C71.0789 57.8558 70.9692 57.6598 71.024 57.7905C71.0789 57.8885 71.1337 57.9866 71.1886 58.1173C71.1886 58.1826 71.2434 58.2153 71.2434 58.2807C71.2708 58.346 71.2434 58.248 71.2434 58.248C71.2434 58.2807 71.2708 58.346 71.2983 58.3787C71.3805 58.6402 71.4354 58.9016 71.4628 59.163C71.4628 59.0323 71.4628 59.163 71.4628 59.2284C71.4628 59.2937 71.4628 59.3591 71.4628 59.4245C71.4628 59.5552 71.4628 59.7186 71.4628 59.8493C71.4628 59.98 71.4628 60.1107 71.4628 60.2741C71.4628 60.3395 71.4628 60.2414 71.4628 60.2088C71.4628 60.2414 71.4628 60.2741 71.4628 60.3068C71.4628 60.3722 71.4628 60.4702 71.4354 60.5356C71.4354 60.6663 71.3805 60.7643 71.3531 60.895C71.3531 60.9604 71.3257 61.0257 71.2983 61.0584C71.2983 61.0911 71.216 61.2872 71.2434 61.2218C71.2708 61.1238 71.216 61.2872 71.216 61.3199C71.216 61.3852 71.1612 61.4179 71.1337 61.4833C71.1337 61.5159 71.0789 61.5813 71.0515 61.614C71.0515 61.6466 70.9143 61.81 71.024 61.6793C70.9692 61.7447 70.9143 61.8427 70.8595 61.9081C70.8595 61.9081 70.7224 62.0388 70.8047 61.9734C70.8869 61.9081 70.7498 62.0061 70.7224 62.0388C70.695 62.0388 70.6401 62.0715 70.6127 62.1042C70.5578 62.1368 70.7224 62.0715 70.6675 62.1042C70.6675 62.1042 70.6401 62.1042 70.6127 62.1042C70.5853 62.1042 70.5304 62.1042 70.4756 62.1368C70.3933 62.1368 70.5853 62.1368 70.4756 62.1368C70.4207 62.1368 70.3659 62.1368 70.3384 62.1368C70.2562 62.1368 70.4481 62.1695 70.3384 62.1368C70.2836 62.1368 70.2562 62.1368 70.2014 62.1042C70.0368 62.0388 70.2562 62.1695 70.1465 62.1042C70.1191 62.1042 70.0643 62.0388 70.0368 62.0388C70.0368 62.0388 70.0094 62.0061 69.982 61.9734C69.982 61.9734 70.0643 62.0715 70.0368 62.0061C70.0094 61.9734 69.9545 61.9408 69.9271 61.8754C69.9271 61.8754 69.8174 61.712 69.8723 61.7774C69.9271 61.8754 69.8449 61.712 69.8174 61.6793C69.79 61.614 69.7626 61.5813 69.7352 61.5159C69.7352 61.4506 69.6803 61.4179 69.6803 61.3525C69.6803 61.3525 69.6803 61.2872 69.6529 61.2545C69.6254 61.1565 69.7077 61.4179 69.6529 61.2545C69.5706 60.9931 69.5158 60.7316 69.4609 60.4702C69.4609 60.4048 69.4609 60.3395 69.4335 60.2741C69.4335 60.1761 69.4335 60.4048 69.4335 60.2741C69.4335 60.2741 69.4335 60.2088 69.4335 60.1761C69.4335 60.0127 69.4335 59.882 69.4335 59.7186C69.4335 59.5879 69.4335 59.4245 69.4335 59.2937C69.4335 59.2284 69.4335 59.163 69.4335 59.0977C69.4335 59.065 69.4335 59.0323 69.4335 58.9996C69.4335 58.9996 69.4335 58.8362 69.4335 58.9343C69.4335 58.9996 69.4335 58.8362 69.4335 58.7709C69.4335 58.7055 69.4335 58.6075 69.4883 58.5421C69.5158 58.4114 69.5432 58.248 69.5981 58.1173C69.5981 58.1173 69.5981 58.0846 69.5981 58.0519C69.5706 58.15 69.6529 57.8885 69.5981 58.0519C69.5981 57.9866 69.6529 57.9212 69.6803 57.8559C69.6803 57.7905 69.7352 57.7578 69.7626 57.6925C69.7626 57.6925 69.79 57.6271 69.8174 57.6271C69.7626 57.6925 69.8723 57.5291 69.8174 57.6271C69.8997 57.5291 69.9546 57.4637 70.0368 57.3657C69.9546 57.4637 70.0094 57.3657 70.0368 57.3657C70.0368 57.3657 70.0916 57.3657 70.0916 57.333C70.1739 57.2676 70.0094 57.333 70.0642 57.333C70.1191 57.333 70.1739 57.333 70.2288 57.2676C70.1191 57.2676 70.2836 57.2676 70.2288 57.2676C70.2836 57.2676 70.3385 57.2676 70.3933 57.2676C70.503 57.2676 70.3933 57.2676 70.3659 57.2676C70.3933 57.2676 70.4481 57.2676 70.4756 57.2676C71.216 57.4964 71.5176 56.1565 70.7772 55.9278L70.7224 55.9604Z" fill="currentColor"/>
    <path d="M135.77 28.281C132.123 28.2156 131.849 34.4574 135.112 33.7384C137.772 33.2809 137.361 28.5751 134.7 28.1503" fill="currentColor"/>
    <path d="M135.77 27.5621C134.536 27.5621 133.329 28.2157 132.699 29.5228C132.178 30.6013 132.068 31.9738 132.561 33.0849C133.137 34.3594 134.399 34.6208 135.496 34.294C136.757 33.9345 137.552 32.5293 137.47 30.9934C137.388 29.2287 136.318 27.6928 134.838 27.4314C134.536 27.366 134.207 27.5294 134.125 27.9216C134.042 28.2484 134.207 28.7385 134.536 28.7712C134.673 28.7712 134.81 28.8366 134.92 28.8692C134.975 28.8692 135.03 28.9019 135.112 28.9346C135.139 28.9346 135.194 28.9673 135.221 29C135.331 29.0653 135.413 29.1307 135.523 29.1961C135.523 29.1961 135.578 29.2287 135.605 29.2614C135.496 29.1634 135.578 29.2614 135.605 29.2614C135.66 29.3268 135.715 29.3921 135.77 29.4575C135.825 29.5228 135.852 29.5555 135.88 29.6209C135.88 29.6209 135.907 29.6862 135.934 29.6862C135.934 29.6862 135.88 29.5882 135.934 29.6536C136.017 29.7843 136.072 29.8823 136.126 30.013C136.126 30.0784 136.181 30.1437 136.209 30.2091C136.154 30.0457 136.209 30.2418 136.209 30.2745C136.236 30.4052 136.291 30.5359 136.318 30.6993C136.318 30.6993 136.346 30.9281 136.318 30.83C136.291 30.732 136.318 30.8954 136.318 30.9281C136.318 31.0914 136.318 31.2222 136.318 31.3856C136.318 31.4182 136.318 31.4509 136.318 31.4836C136.318 31.4836 136.318 31.3202 136.318 31.4509C136.318 31.5163 136.318 31.549 136.291 31.6143C136.291 31.745 136.236 31.8758 136.181 32.0065C136.236 31.8431 136.181 32.0065 136.181 32.0718C136.181 32.1372 136.126 32.1699 136.099 32.2352C136.099 32.2679 135.989 32.4313 136.099 32.3006C136.072 32.3659 136.017 32.3986 135.989 32.464C135.962 32.4967 135.907 32.562 135.88 32.5947C135.797 32.6927 135.934 32.5947 135.852 32.5947C135.743 32.6927 135.633 32.7581 135.496 32.8235C135.605 32.7581 135.441 32.8235 135.413 32.8235C135.359 32.8235 135.304 32.8561 135.249 32.8888C135.194 32.8888 135.112 32.9215 135.057 32.9215C135.029 32.9215 135.002 32.9215 134.947 32.9215C134.865 32.9215 135.057 32.9215 134.947 32.9215C134.838 32.9215 134.728 32.9215 134.591 32.9215C134.536 32.9215 134.481 32.9215 134.426 32.9215C134.563 32.9215 134.426 32.9215 134.371 32.9215C134.289 32.9215 134.207 32.8561 134.125 32.8235C134.152 32.8235 134.262 32.8561 134.125 32.8235C134.07 32.8235 134.015 32.7581 133.987 32.7254C133.987 32.6927 133.933 32.6601 133.878 32.6274C133.85 32.5947 133.823 32.562 133.795 32.5293C133.686 32.3986 133.795 32.5947 133.795 32.5293C133.741 32.4313 133.713 32.3659 133.658 32.2679C133.604 32.0718 133.658 32.2025 133.658 32.2679C133.658 32.2025 133.631 32.1699 133.604 32.1045C133.604 32.0065 133.549 31.9084 133.549 31.8104C133.521 31.6143 133.549 31.9084 133.549 31.8104C133.549 31.745 133.549 31.6797 133.549 31.6143C133.549 31.5163 133.549 31.4182 133.549 31.2875C133.549 31.2875 133.549 31.0588 133.549 31.1895C133.549 31.3202 133.549 31.0914 133.549 31.0588C133.549 30.9281 133.603 30.83 133.631 30.732C133.631 30.6666 133.658 30.6339 133.686 30.5686C133.741 30.4052 133.658 30.6339 133.686 30.5032C133.741 30.3725 133.795 30.2745 133.85 30.1438C133.878 30.0784 133.905 30.013 133.933 29.9803C134.015 29.817 133.878 30.0457 133.96 29.915C134.042 29.7843 134.125 29.6862 134.207 29.5882C134.207 29.5882 134.371 29.4248 134.289 29.4902C134.234 29.5555 134.371 29.4248 134.399 29.3921C134.508 29.2941 134.618 29.2287 134.728 29.1634C134.728 29.1634 134.783 29.1634 134.81 29.1307C134.865 29.1307 134.947 29.0653 135.002 29.0653C135.084 29.0653 135.139 29.0326 135.221 29C135.249 29 135.276 29 135.304 29C135.304 29 135.441 29 135.359 29C135.413 29 135.468 29 135.496 29C135.578 29 135.66 29 135.77 29C136.51 29 136.51 27.6274 135.77 27.5948V27.5621Z" fill="currentColor"/>
</svg>
