<svg width="100%" height="100%" viewBox="0 0 216 310" fill="currentColor"
    xmlns="http://www.w3.org/2000/svg">
    <path d="M99.5634 140.114C103.814 142.826 105.213 148.284 104.527 153.741C103.896 158.643 101.757 164.068 98.1648 166.813C96.7662 167.891 95.0934 168.382 93.5029 167.728C91.3913 166.878 89.8282 164.525 88.8409 162.205C86.5374 156.878 86.6197 149.918 88.7038 144.526C89.6636 141.977 91.2542 139.428 93.5577 138.513C96.4371 137.336 99.3714 139.101 101.62 141.127C102.169 141.617 103.457 140.702 102.772 140.081C100.441 138.022 97.6163 136.421 94.6547 136.911C92.2689 137.304 90.2396 138.97 88.7861 141.225C85.4679 146.454 84.8098 154.199 86.51 160.342C87.936 165.538 91.8026 170.898 96.8485 169.002C101.373 167.303 104.28 161.584 105.542 156.454C107.105 149.983 106.063 142.532 100.715 139.101C100.139 138.709 98.8229 139.656 99.5634 140.147V140.114Z" fill="currentColor"/>
    <path d="M94.5449 144.624C98.1922 146.552 100.057 152.205 98.96 156.682C98.6583 157.892 98.1099 158.937 97.4243 159.852C96.9581 160.506 96.3274 161.258 95.5595 161.323C94.1884 161.454 92.7898 159.885 91.7752 158.97C90.2395 157.597 88.6215 156.258 86.6196 156.225C86.2906 156.225 85.7695 156.356 85.6324 156.748C85.4953 157.107 85.7421 157.369 86.0712 157.369C89.7184 157.369 91.7477 162.957 95.4773 162.434C97.5614 162.14 99.2891 159.852 100.084 157.696C100.989 155.31 100.962 152.532 100.276 150.049C99.5084 147.336 97.9454 144.885 95.7241 143.709C95.395 143.545 94.9563 143.611 94.6546 143.839C94.4626 144.003 94.1884 144.428 94.5449 144.624Z" fill="currentColor"/>
    <path d="M96.4645 144.297C94.874 142.859 92.7076 142.598 90.788 142.565C88.7039 142.5 86.6471 142.761 84.5904 142.924C84.3161 142.924 83.7403 143.055 83.5757 143.349C83.4112 143.643 83.7129 143.676 83.9322 143.676C85.8244 143.545 87.7441 143.284 89.6362 143.317C91.5284 143.349 93.5303 143.545 95.0386 144.918C95.3677 145.212 96.6839 144.526 96.4645 144.297Z" fill="currentColor"/>
    <path d="M70.1109 141.911C71.2353 139.297 72.8258 136.487 75.1842 135.277C77.1038 134.297 79.188 135.081 80.806 136.421C81.1624 136.715 82.4787 135.996 82.2045 135.8C80.0107 134.003 77.4055 133.545 74.8826 134.657C71.9757 135.931 69.9739 139.003 68.6027 142.205C68.4656 142.532 69.1237 142.467 69.206 142.434C69.4802 142.369 69.9464 142.238 70.0835 141.911H70.1109Z" fill="currentColor"/>
    <path d="M78.1186 134.526C80.998 137.173 84.0694 140.081 85.6325 144.101C87.1956 148.12 86.8391 153.055 85.4679 157.205C84.0968 161.356 81.4368 166.159 77.4604 166.846C73.0453 167.597 69.3158 163.218 68.1366 158.545C67.9172 157.728 66.4364 158.186 66.6283 159.035C68.6576 167.074 76.6651 171.225 82.3417 165.408C87.3053 160.343 89.9379 150.441 86.9762 143.219C85.3034 139.166 82.232 136.192 79.2978 133.513C78.7493 133.023 77.4604 133.938 78.146 134.559L78.1186 134.526Z" fill="currentColor"/>
    <path d="M75.0197 142.467C76.528 143.611 77.7894 145.179 78.3105 147.271C78.7492 149.003 78.6121 150.833 78.0637 152.467C77.049 155.571 74.5261 158.676 71.5644 158.709C69.8642 158.709 68.2462 157.793 67.0122 156.421C65.6959 154.983 64.5441 153.153 64.2425 151.029C63.7488 147.401 66.1072 144.297 68.7673 142.957C72.1403 141.258 76.1166 142.402 78.0088 146.29C78.2282 146.748 79.6542 146.094 79.5171 145.8C77.5426 141.715 73.5937 140.768 69.9739 141.813C66.7928 142.761 63.2004 145.441 62.7342 149.656C62.4874 151.846 63.2553 153.839 64.407 155.506C65.7233 157.401 67.3687 158.905 69.4529 159.297C72.9904 159.983 76.6651 157.695 78.6395 154.231C79.709 152.369 80.285 150.048 80.0381 147.794C79.7365 145.212 78.2831 143.153 76.4731 141.781C76.2263 141.585 75.7601 141.781 75.5133 141.879C75.431 141.911 74.8278 142.238 75.0746 142.402L75.0197 142.467Z" fill="currentColor"/>
    <path d="M69.919 143.382C71.9209 144.558 73.0178 146.977 73.0452 149.591C73.0726 151.944 72.2774 154.558 70.6594 156.029C69.8093 156.78 68.8769 156.976 67.8348 156.748C67.5058 156.682 67.0395 156.813 66.7653 157.075C66.5459 157.336 66.5733 157.597 66.9024 157.663C69.4253 158.251 71.9483 156.878 73.3194 154.33C74.5809 151.944 74.9648 148.741 74.005 146.127C73.4291 144.526 72.387 143.284 71.0981 142.532C70.6868 142.271 69.2883 143.022 69.8916 143.382H69.919Z" fill="currentColor"/>
    <path d="M174.84 86.716C169.794 74.5919 164.529 63.0561 156.686 53.0889C148.843 43.1217 139.738 35.9976 129.866 30.0173C120.844 24.5599 111.026 21.1939 100.825 22.1416C90.6235 23.0893 79.38 28.1546 69.7271 33.2526C60.0742 38.3505 50.2842 44.4615 42.5509 52.9255C35.2564 60.8992 30.0459 71.3567 25.5486 81.7487C15.7311 104.428 7.31228 127.696 5.91371 153.48C5.20071 166.552 5.17327 179.885 8.98507 192.336C10.987 198.904 13.647 205.146 15.4843 211.812C17.3217 218.479 18.6928 224.786 21.4351 230.701C26.097 240.799 34.4885 247.433 42.2492 253.805C46.8837 257.596 51.4085 261.452 55.6591 265.799C59.1418 269.328 62.5148 273.021 66.3266 276.027C74.0051 282.073 82.5611 282.727 91.4736 283.576C100.386 284.426 110.231 285.014 119.527 283.74C127.672 282.629 134.775 279.818 141.301 273.805C149.309 266.42 156.165 257.204 162.554 247.89C176.54 227.531 188.03 203.185 190.251 176.584C191.348 163.382 189.703 150.343 186.604 137.63C185.014 131.127 183.176 124.689 181.476 118.251C179.666 111.454 178.459 104.592 177.198 97.6635C175.936 90.7355 174.346 84.6245 171.521 78.6768C170.946 77.5004 168.066 78.6768 168.505 79.6245C173.798 90.8009 174.456 103.546 177.527 115.637C180.598 127.728 184.41 139.558 186.302 151.977C190.388 178.741 183.396 205.048 171.85 227.923C166.997 237.498 161.018 246.322 154.848 254.72C148.678 263.119 141.521 272.89 132.965 277.857C125.176 282.367 115.578 282.596 107.105 282.465C98.631 282.334 90.7606 281.615 82.6982 280.504C72.3597 279.099 65.2572 271.256 57.6335 263.609C50.0099 255.962 41.8927 250.57 34.4885 243.283C30.567 239.459 26.8923 235.08 24.4243 229.753C21.9562 224.427 20.5302 218.544 18.9945 212.793C15.8408 200.996 10.3288 190.081 9.06734 177.597C6.54442 152.728 10.795 126.585 19.4881 103.971C27.4956 83.1212 35.3386 60.5398 51.8198 47.2393C60.7323 40.0172 70.5498 34.3963 80.6689 30.05C91.3364 25.4749 102.114 22.2396 113.439 25.3768C123.805 28.2526 133.403 35.0173 142.096 42.1414C150.79 49.2654 158.331 59.1346 163.898 69.8207C166.887 75.5396 169.328 81.5853 171.85 87.5983C172.344 88.8074 175.278 87.6636 174.867 86.6506L174.84 86.716Z" fill="currentColor"/>
    <path d="M146.841 30.867C141.713 25.9978 136.502 21.0959 130.469 17.8933C125.149 15.0829 119.198 14.3966 113.439 14.0698C101.154 13.3509 89.5265 15.0502 77.9266 20.1482C55.4123 30.05 37.8615 50.6706 26.0696 75.2455C22.8063 82.0428 19.9817 89.1016 17.4862 96.3237C14.6891 104.428 11.6725 112.794 9.83517 121.291C9.3964 123.317 13.2356 122.761 13.6196 120.899C15.2101 113.676 17.7604 106.585 20.0639 99.6243C22.0384 93.6767 24.2323 87.8598 26.6729 82.1736C31.6913 70.5397 37.8341 59.5594 45.348 49.9844C61.4727 29.4291 83.6031 16.6842 107.379 17.011C113.494 17.109 120.158 17.2397 125.972 19.6907C132.663 22.5011 138.394 28.1546 143.879 33.3506C145.086 34.4944 148.431 32.4356 146.786 30.867H146.841Z" fill="currentColor"/>
    <path d="M190.909 164.82C196.86 137.663 189.127 109.886 180.077 85.0166C175.964 73.6769 171.768 62.5332 165.488 52.5987C159.208 42.6642 150.981 33.8735 141.932 27.0435C140.808 26.1938 137.38 28.1219 138.97 29.2983C147.992 36.0956 155.945 44.6903 162.335 54.9189C168.724 65.1475 172.673 76.0951 176.759 87.4022C185.534 111.716 192.966 138.839 187.152 165.342C186.769 167.074 190.553 166.453 190.909 164.82Z" fill="currentColor"/>
    <path d="M67.5058 37.2395C55.4671 53.5792 39.5891 65.213 31.1428 85.1147C26.6729 95.6701 23.7386 107.043 21.298 118.48C18.6654 130.833 16.1973 143.022 16.499 155.898C16.8006 168.774 18.8025 180.277 20.0091 192.466C21.1334 203.643 24.4242 213.675 29.3329 223.25C34.2416 232.825 39.9182 242.335 45.9239 250.995C51.3262 258.773 57.6883 265.733 64.8183 271.223C80.7237 283.446 99.8101 287.073 117.992 280.668C119.802 280.014 119.308 277.727 117.471 278.38C100.688 284.263 83.2466 281.093 68.4107 270.21C53.5749 259.328 43.4558 242.596 34.1594 225.701C29.1135 216.518 24.8629 206.584 23.4095 195.636C21.9561 184.689 20.4479 172.663 19.7349 161.192C18.9396 148.447 20.5301 136.781 22.9982 124.428C25.3017 112.925 27.8795 101.454 31.9107 90.6048C35.9419 79.7553 41.7281 70.4417 48.9952 62.1085C56.2623 53.7752 63.5569 46.8799 69.9464 38.1872C71.1805 36.5205 68.301 36.0957 67.4509 37.2395H67.5058Z" fill="currentColor"/>
    <path d="M211.175 128.709C212.601 136.29 213.095 143.937 212.711 151.715C212.327 159.493 211.148 167.14 210.654 174.917C210.106 183.545 210.023 192.237 208.515 200.734C207.199 208.087 205.06 215.244 202.208 221.976C196.943 234.394 189.374 245.08 182.189 255.962C175.388 266.223 169.245 276.321 160.415 284.328C142.672 300.373 119.637 309.131 97.3421 307.988C91.9671 307.726 86.4551 307.04 81.3544 304.948C75.2665 302.465 69.6174 298.543 64.2973 294.328C54.7267 286.713 45.4029 278.053 36.8469 268.838C28.949 260.341 22.3127 250.537 17.733 239.034C12.6323 226.224 9.61578 211.943 7.31225 198.087C4.84418 183.349 3.50043 168.316 3.69239 153.284C3.88435 138.251 6.0508 124.362 8.82052 110.114C11.5902 95.8661 15.1004 81.2585 20.2285 67.7292C25.3566 54.2 33.1447 43.7426 42.5234 34.2983C46.9385 29.8539 51.4908 25.6709 55.9607 21.3246C60.4307 16.9782 64.6812 12.3704 69.398 8.645C76.0344 3.44898 84.2613 2.30522 92.022 1.91306C99.0971 1.55359 106.337 1.32485 113.412 1.61896C138.23 2.69738 160.799 19.9194 177.335 41.0302C185.507 51.4549 193.542 63.3175 199.246 75.8991C204.95 88.4806 207.391 103.35 209.393 117.696C210.407 125.147 211.394 132.598 212.683 139.983C212.848 140.898 215.864 140.016 215.7 139.036C212.958 123.415 211.806 107.369 208.021 92.01C204.237 76.6507 197.272 64.7554 189.374 52.6641C173.989 29.1676 153.148 8.4816 128.166 2.0111C122.27 0.475169 116.291 -0.113061 110.286 0.0176568C102.991 0.213733 95.6693 -0.113064 88.4022 0.70392C82.5611 1.35751 76.4457 2.56666 71.0982 5.67119C65.7507 8.77573 61.3905 13.841 56.7286 18.22C47.4047 26.9454 37.6147 35.5728 29.5523 46.0302C20.8592 57.3046 15.786 70.9972 11.8096 85.3761C3.66498 114.657 -0.969509 145.179 1.52599 176.029C2.81487 191.943 5.50231 207.727 9.47865 223.021C12.9065 236.224 17.6507 248.544 25.1372 259.165C32.6237 269.785 42.0298 278.249 51.1891 286.648C60.8694 295.537 71.7564 305.21 83.9871 308.053C104.774 312.89 127.343 307.53 146.21 296.648C155.863 291.092 164.885 283.772 172.344 274.589C176.43 269.589 179.748 263.871 183.341 258.348C186.933 252.825 190.937 247.041 194.612 241.256C202.043 229.492 208.159 216.91 211.148 202.466C212.875 194.133 213.15 185.538 213.588 177.009C214.027 168.48 215.234 160.473 215.727 152.14C216.221 143.807 215.782 135.833 214.274 127.761C214.109 126.846 211.093 127.728 211.257 128.709H211.175Z" fill="currentColor"/>
    <path d="M78.4201 274.982C77.8168 267.563 78.0088 260.113 77.8717 252.662C77.7346 245.211 76.8022 238.511 75.1842 231.485C73.5663 224.459 71.5644 217.237 70.7965 209.852C70.0287 202.466 69.5899 194.787 68.9044 187.238C67.5606 172.368 66.1072 157.336 63.1181 142.794C60.129 128.251 55.4945 113.546 53.1361 98.5459C50.9149 84.4611 49.434 70.0822 43.3735 57.4026C43.1541 56.9778 41.7556 57.6314 41.8653 57.8928C47.1579 68.9711 49.1872 81.716 50.9423 94.1342C53.0264 108.873 57.0576 122.957 60.3209 137.336C63.5843 151.715 65.3668 166.682 66.7928 181.551C68.2188 196.42 68.7672 211.649 72.2774 226.289C74.0873 233.904 75.9246 241.485 76.2537 249.459C76.5828 258.152 76.1714 266.812 76.8844 275.472C76.8844 275.799 78.4201 275.472 78.3927 274.982H78.4201Z" fill="currentColor"/>
    <path d="M153.203 246.845C147.252 242.041 144.29 232.466 141.905 224.753C139.162 215.897 135.981 207.531 131.813 199.492C129.4 194.852 126.685 190.44 124.299 185.767C121.776 180.8 119.719 175.538 117.58 170.342C115.688 165.767 113.714 161.29 111.136 157.173C108.339 152.728 105.322 148.545 103.293 143.48C102.991 142.728 101.51 143.251 101.785 143.97C103.54 148.349 105.953 152.107 108.448 155.931C111.273 160.277 113.522 164.787 115.606 169.721C117.8 174.917 119.829 180.244 122.297 185.277C124.765 190.309 127.809 195.211 130.442 200.277C134.994 209.035 138.065 218.185 141.192 227.695C143.55 234.884 146.484 243.381 152.051 247.858C152.572 248.283 153.916 247.4 153.203 246.845Z" fill="currentColor"/>
    <path d="M31.0058 215.146C36.9566 204.982 45.019 196.747 52.4506 188.185C55.9334 184.166 59.2515 179.983 62.4874 175.702C66.025 171.061 69.6997 166.127 74.3616 163.088C75.2666 162.499 74.4439 161.682 73.7309 162.14C69.3706 164.983 65.833 169.329 62.4874 173.676C58.9499 178.251 55.4671 182.826 51.7376 187.14C44.0592 196.028 35.75 204.492 29.5798 215.015C29.141 215.767 30.6767 215.734 31.0058 215.146Z" fill="currentColor"/>
    <path d="M25.576 200.015C31.801 191.322 42.496 188.708 51.1069 184.983C55.4671 183.087 59.416 180.898 63.173 177.63C67.9446 173.48 72.3049 168.643 77.433 165.081C78.3105 164.46 76.9942 164.166 76.5006 164.525C71.1257 168.284 66.5735 173.414 61.5276 177.728C57.277 181.323 52.5328 183.447 47.6241 185.473C39.4521 188.839 30.0185 191.845 24.2049 199.982C23.7661 200.571 25.2743 200.505 25.6034 200.048L25.576 200.015Z" fill="currentColor"/>
    <path d="M22.5046 184.002C35.9419 180.277 49.3792 176.29 63.1181 174.525C74.6084 173.055 86.5923 173.316 96.9582 166.388C97.8357 165.8 96.492 165.735 96.0532 165.996C84.6452 173.578 70.7966 172.368 58.2369 174.427C45.6771 176.486 34.2417 179.95 22.3401 183.251C21.4351 183.512 21.5996 184.231 22.5046 183.97V184.002Z" fill="currentColor"/>
    <path d="M16.7732 165.31C33.4739 156.65 50.6955 150.179 67.9995 143.578C68.877 143.251 68.685 142.205 67.7801 142.565C50.339 149.232 32.9803 155.735 16.1425 164.46C15.1827 164.95 16.0602 165.669 16.7732 165.31Z" fill="currentColor"/>
    <path d="M16.9103 145.735C32.9254 145.866 48.913 143.611 64.8732 145.833C65.3394 145.898 66.6283 144.983 65.8056 144.852C49.7083 142.598 33.6384 144.852 17.5136 144.722C16.9378 144.722 15.9231 145.735 16.9377 145.735H16.9103Z" fill="currentColor"/>
    <path d="M67.588 143.415C53.1361 132.696 37.0662 123.905 24.5064 109.918C24.2322 109.591 22.861 110.278 23.0804 110.539C35.6402 124.493 51.7101 133.284 66.162 144.035C66.5185 144.297 67.78 143.578 67.588 143.415Z" fill="currentColor"/>
    <path d="M79.8736 137.075C62.5422 126.094 48.2548 110.114 33.5012 94.9511C33.227 94.657 31.9107 95.3433 32.0752 95.5393C46.8288 110.703 61.1162 126.683 78.4476 137.663C78.8041 137.892 79.9833 137.14 79.8736 137.075Z" fill="currentColor"/>
    <path d="M98.6309 138.513C86.8116 131.911 75.7875 123.513 65.9427 113.317C56.0978 103.121 47.9257 92.0754 39.9456 80.3435C39.5891 79.788 38.1357 80.4742 38.547 81.0951C54.9734 105.278 73.5662 126.193 97.4243 139.46C97.9179 139.755 99.289 138.905 98.6035 138.513H98.6309Z" fill="currentColor"/>
    <path d="M84.3435 134.232C81.135 125.833 82.7804 116.879 82.3417 107.99C81.9029 99.1014 79.709 89.6897 77.3506 81.2258C72.6065 64.2325 65.9701 48.6772 67.0396 30.246C67.0944 29.4291 65.5588 29.7232 65.5313 30.4421C64.4893 48.3831 70.6046 63.8404 75.4585 80.3435C78.146 89.461 80.6414 99.8857 80.8608 109.624C81.0802 118.153 79.7913 126.748 82.8627 134.787C83.1369 135.506 84.6178 134.951 84.371 134.297L84.3435 134.232Z" fill="currentColor"/>
    <path d="M80.7511 132.238C73.6211 101.226 61.9115 72.2717 50.9423 42.991C50.668 42.272 49.1872 42.7949 49.434 43.4812C60.4032 72.7292 72.0854 101.716 79.2428 132.728C79.4074 133.48 80.9156 132.99 80.7511 132.238Z" fill="currentColor"/>
    <path d="M73.7308 134.428C73.2646 134.755 72.8258 135.081 72.387 135.441C72.0305 135.735 71.674 136.029 71.4272 136.454C71.3724 136.552 71.4821 136.617 71.5643 136.65C71.7014 136.683 71.8934 136.65 72.0306 136.65C72.2225 136.617 72.4145 136.552 72.6064 136.421C72.7161 136.356 72.8532 136.291 72.9081 136.127C72.9081 136.127 72.9081 136.127 72.9081 136.094C72.8532 136.192 72.9081 136.062 72.9081 136.094C72.9081 136.094 72.9629 136.029 72.9903 135.996C73.0452 135.931 73.1 135.866 73.1823 135.8C73.2097 135.768 73.2371 135.735 73.292 135.702C73.292 135.702 73.3468 135.67 73.3468 135.637C73.2646 135.702 73.3468 135.67 73.3468 135.637C73.4291 135.572 73.5114 135.474 73.6211 135.408C74.0324 135.049 74.4712 134.755 74.9099 134.428C74.9648 134.395 75.1019 134.264 75.0745 134.166C75.0471 134.068 74.8825 134.036 74.8003 134.036C74.4438 134.036 74.0324 134.166 73.7308 134.362V134.428Z" fill="currentColor"/>
    <path d="M77.8717 104.624C83.3288 78.0232 92.0768 52.2719 94.1884 24.8213C94.2432 24.2657 92.735 24.6252 92.7075 25.1154C90.6234 52.566 81.848 78.3173 76.3908 104.918C76.2811 105.408 77.7894 105.114 77.8717 104.624Z" fill="currentColor"/>
    <path d="M107.79 29.3637C103.978 50.1478 100.688 71.0299 96.5468 91.7159C94.5723 101.618 92.214 111.454 90.788 121.519C89.4442 131.029 88.9506 140.604 89.0878 150.245C89.0878 151.16 90.6234 150.898 90.596 150.114C90.4863 140.702 90.9251 131.356 92.214 122.075C93.64 111.781 96.0258 101.748 98.0551 91.5851C102.196 70.8991 105.487 49.9844 109.299 29.233C109.463 28.3834 107.927 28.5794 107.79 29.3637Z" fill="currentColor"/>
    <path d="M93.4206 136.813C94.161 117.761 99.4537 99.4282 104.362 81.4546C106.721 72.8926 108.64 64.1019 111.355 55.6706C114.372 46.3897 118.156 37.4682 120.871 28.0566C120.981 27.6644 119.527 27.8605 119.39 28.3507C116.675 37.7623 112.864 46.6838 109.874 55.9647C106.885 65.2456 104.966 74.1017 102.498 83.1212C97.6712 100.735 92.6528 118.644 91.9124 137.304C91.9124 137.63 93.3932 137.402 93.4206 136.813Z" fill="currentColor"/>
    <path d="M137.517 39.0695C133.321 64.2652 127.974 89.3303 120.515 113.48C117.964 121.748 113.467 128.84 109.737 136.421C106.858 142.271 103.156 149.493 103.841 156.584C103.896 157.271 105.404 156.878 105.35 156.094C104.582 148.088 109.518 139.689 112.836 133.186C116.428 126.193 120.131 119.591 122.462 111.846C129.619 88.1211 134.912 63.6116 139.025 38.8734C139.162 38.0891 137.626 38.3505 137.517 39.0695Z" fill="currentColor"/>
    <path d="M94.9014 279.132C94.7917 268.511 97.4518 258.446 98.6858 248.021C99.9198 237.596 98.6583 226.747 98.3018 216.224C97.5888 194.558 101.318 173.741 103.896 152.434C104.006 151.519 102.47 151.715 102.36 152.565C99.7827 173.904 96.0531 194.688 96.7661 216.355C97.1226 226.878 98.3841 237.662 97.1501 248.152C95.916 258.642 93.256 268.642 93.3657 279.263C93.3657 280.21 94.9014 279.949 94.9014 279.132Z" fill="currentColor"/>
    <path d="M54.617 257.367C61.747 242.629 63.9683 225.897 66.7928 209.459C68.1914 201.257 69.7819 193.218 72.5242 185.506C75.5408 177.009 79.0784 168.774 81.7932 160.114C81.8755 159.82 80.4495 159.983 80.3124 160.441C77.6798 168.872 74.2519 176.878 71.2628 185.146C68.2737 193.414 66.7106 201.322 65.2846 209.786C62.46 226.224 60.2387 242.956 53.1087 257.694C53.0265 257.89 54.3702 257.825 54.5896 257.367H54.617Z" fill="currentColor"/>
    <path d="M36.9017 230.407C37.313 223.283 40.1102 216.845 42.7428 210.571C45.3754 204.296 47.2128 197.826 49.1598 191.126C53.1087 177.466 57.8803 164.068 64.2699 151.78C64.6813 150.996 63.173 151.029 62.8439 151.65C56.6189 163.61 51.9021 176.649 48.0355 189.95C45.8691 197.401 43.7849 204.525 40.8506 211.616C38.3551 217.629 35.8048 223.806 35.4209 230.603C35.366 231.453 36.9017 231.159 36.9291 230.44L36.9017 230.407Z" fill="currentColor"/>
    <path d="M67.0944 264.59C70.0287 226.126 78.7492 188.708 86.9487 151.486C87.0583 151.029 85.5775 151.29 85.4678 151.78C77.2683 189.002 68.5478 226.42 65.6135 264.884C65.5861 265.407 67.067 265.08 67.0944 264.59Z" fill="currentColor"/>
    <path d="M107.379 275.112C104.637 255.995 104.691 236.485 101.675 217.401C98.6584 198.316 92.5979 179.721 91.8026 159.82C91.8026 159.395 90.2669 159.689 90.2943 160.31C91.0896 180.211 97.0952 198.512 100.167 217.891C103.238 237.27 103.128 256.485 105.871 275.602C105.953 276.093 107.461 275.668 107.379 275.112Z" fill="currentColor"/>
    <path d="M125.368 273.968C116.867 254.492 111.602 233.413 107.845 211.976C106.09 202.009 103.375 193.316 99.3439 184.296C95.5595 175.767 91.5558 167.303 89.9653 157.761C89.883 157.172 88.3747 157.63 88.457 158.251C89.9927 167.597 93.8593 175.898 97.5614 184.198C101.675 193.414 104.499 202.237 106.309 212.466C110.066 233.904 115.332 254.982 123.833 274.459C124.08 275.047 125.533 274.459 125.341 273.968H125.368Z" fill="currentColor"/>
    <path d="M137.599 262.204C124.079 249.851 116.62 230.864 106.035 215.407C100.359 207.107 95.4498 198.512 90.8702 189.264C86.2905 180.015 81.5463 170.146 75.6778 161.552C75.2116 160.898 73.813 161.617 74.3066 162.369C80.3123 171.159 85.0016 180.963 89.8007 190.702C94.5997 200.44 99.5907 208.675 105.322 217.205C115.633 232.564 123.12 251.093 136.447 263.282C136.996 263.805 138.285 262.858 137.599 262.204Z" fill="currentColor"/>
    <path d="M162.911 232.074C156.384 226.355 151.914 218.054 146.895 210.603C141.877 203.152 136.283 196.486 130.524 189.917C124.162 182.662 118.266 174.885 111.821 167.695C105.377 160.506 98.4664 153.61 91.4461 147.042C91.1444 146.748 89.8282 147.467 90.0201 147.63C97.0404 154.199 103.869 161.029 110.395 168.284C116.922 175.538 122.736 183.251 129.098 190.505C135.46 197.76 141.383 204.917 146.704 213.087C151.228 219.982 155.479 227.433 161.485 232.662C161.814 232.956 163.103 232.237 162.911 232.074Z" fill="currentColor"/>
    <path d="M174.73 208.381C147.855 188.414 119.774 170.996 90.8702 155.637C90.4862 155.441 89.1151 156.127 89.6635 156.421C118.513 171.748 146.539 189.133 173.331 209.035C173.743 209.329 175.031 208.61 174.73 208.381Z" fill="currentColor"/>
    <path d="M180.489 186.388C174.428 183.022 167.435 183.676 160.909 182.793C152.545 181.649 144.373 179.1 136.255 176.453C121.803 171.715 107.214 166.519 92.214 165.016C91.8575 164.983 90.4863 165.702 91.2542 165.767C106.172 167.238 120.679 172.467 135.049 177.14C142.179 179.46 149.336 181.682 156.631 182.989C163.925 184.296 172.289 183.218 179.063 186.976C179.474 187.205 180.681 186.453 180.461 186.355L180.489 186.388Z" fill="currentColor"/>
    <path d="M187.29 158.218C172.234 154.231 158.715 144.591 143.55 141.062C127.562 137.369 111.191 136.617 95.1482 133.251C94.4352 133.088 93.6125 134.33 94.6272 134.526C110.258 137.794 126.191 138.676 141.822 142.075C157.453 145.473 171.055 155.343 186.412 159.395C187.043 159.558 188.195 158.447 187.29 158.218Z" fill="currentColor"/>
    <path d="M183.725 132.336C152.133 135.016 120.432 133.807 88.786 133.415C88.1827 133.415 87.1955 134.493 88.2101 134.493C119.993 134.885 151.804 136.094 183.533 133.415C184.3 133.349 184.767 132.238 183.725 132.336Z" fill="currentColor"/>
    <path d="M177.801 110.539C151.009 130.081 124.683 151.192 95.3676 165.081C94.4078 165.538 95.2579 166.519 96.0258 166.159C125.451 152.205 151.914 130.996 178.788 111.389C179.639 110.768 178.405 110.114 177.801 110.572V110.539Z" fill="currentColor"/>
    <path d="M170.287 86.1277C161.183 102.043 145.113 110.735 131.127 119.166C123.997 123.447 116.785 127.728 110.121 132.99C103.457 138.251 96.9307 145.049 91.0896 152.107C90.4863 152.826 91.9672 152.761 92.2962 152.369C98.5761 144.787 105.267 137.826 112.836 132.108C119.829 126.813 127.343 122.5 134.72 118.055C148.047 110.016 163.02 101.324 171.686 86.1604C172.042 85.5068 170.562 85.7029 170.287 86.1604V86.1277Z" fill="currentColor"/>
    <path d="M159.784 66.2587C139.683 96.5198 112.315 118.252 90.8154 146.944C90.1847 147.761 91.6382 148.022 92.0769 147.434C113.604 118.742 140.945 97.01 161.046 66.7489C161.622 65.8666 160.196 65.6378 159.784 66.2587Z" fill="currentColor"/>
    <path d="M147.279 51.5203C135.158 66.5855 118.513 74.4285 105.404 88.0558C92.2962 101.683 85.7147 122.827 72.3871 136.813C71.7289 137.5 73.2098 137.5 73.5937 137.107C86.9213 123.121 93.2012 102.271 106.611 88.3499C120.021 74.4285 136.338 66.8796 148.486 51.8144C149.089 51.0628 147.636 51.0628 147.279 51.5203Z" fill="currentColor"/>
    <path d="M103.128 137.14C101.812 117.598 94.3255 99.9837 89.4442 81.5526C84.8371 64.0692 85.1113 44.6249 77.7071 28.2526C77.4329 27.6317 75.9795 28.2526 76.336 29.0042C83.8499 45.638 83.4934 65.6051 88.2924 83.35C93.0914 101.095 100.331 118.546 101.62 137.63C101.675 138.349 103.183 137.957 103.128 137.14Z" fill="currentColor"/>
    <path d="M201.22 74.5919C197.381 72.3697 193.734 69.7227 190.114 67.0104C189.73 66.7162 188.332 67.4025 188.908 67.86C192.527 70.5397 196.175 73.2194 200.014 75.4416C200.315 75.605 200.809 75.4416 201.083 75.2782C201.275 75.1475 201.55 74.788 201.22 74.6246V74.5919Z" fill="currentColor"/>
    <path d="M201.193 80.0821C198.177 78.6115 194.995 77.5331 191.814 76.6181C191.458 76.52 190.992 76.6181 190.745 76.9449C190.526 77.2063 190.58 77.5331 190.909 77.6312C193.981 78.5135 197.08 79.5592 199.986 80.9971C200.316 81.1605 200.754 81.0951 201.056 80.8337C201.248 80.6703 201.522 80.2455 201.166 80.0821H201.193Z" fill="currentColor"/>
    <path d="M206.266 92.827C203.579 89.363 199.465 88.7094 195.9 90.5721C195.599 90.7355 195.352 91.1277 195.544 91.5198C195.736 91.912 196.284 91.8139 196.559 91.6505C199.411 90.1473 202.729 90.8662 204.868 93.6113C205.334 94.2322 206.76 93.4806 206.239 92.827H206.266Z" fill="currentColor"/>
    <path d="M205.636 99.2322C204.347 98.2845 202.948 97.5655 201.44 97.3368C199.932 97.108 198.314 97.3368 196.833 97.9577C196.531 98.0884 196.12 98.3825 196.23 98.84C196.312 99.2648 196.833 99.3629 197.135 99.2322C198.369 98.7093 199.657 98.4805 200.946 98.6766C202.235 98.8727 203.414 99.4936 204.484 100.278C204.813 100.507 205.252 100.474 205.553 100.18C205.8 99.9511 205.965 99.4609 205.636 99.2322Z" fill="currentColor"/>
    <path d="M209.118 113.578C205.882 111.193 201.879 110.572 198.341 112.435C198.039 112.598 197.793 113.023 197.985 113.382C198.204 113.774 198.725 113.676 198.999 113.546C201.933 112.01 205.279 112.696 207.939 114.657C208.268 114.886 208.707 114.853 209.009 114.559C209.255 114.33 209.42 113.84 209.091 113.611L209.118 113.578Z" fill="currentColor"/>
    <path d="M211.861 124.689C208.872 123.219 205.471 123.317 202.893 125.833C202.674 126.062 202.482 126.421 202.784 126.65C203.058 126.879 203.606 126.748 203.853 126.519C204.84 125.572 205.937 124.983 207.226 124.885C208.515 124.787 209.777 125.212 210.956 125.8C211.532 126.062 212.711 125.114 211.833 124.689H211.861Z" fill="currentColor"/>
    <path d="M211.175 136.65C209.036 134.428 206.212 132.794 203.332 133.055C203.03 133.055 202.537 133.186 202.345 133.513C202.153 133.84 202.509 133.938 202.729 133.938C205.361 133.709 207.884 135.31 209.804 137.304C210.16 137.663 211.532 136.977 211.203 136.65H211.175Z" fill="currentColor"/>
    <path d="M213.369 147.957C210.709 146.029 207.637 146.683 204.868 147.957C204.703 148.022 204.264 148.284 204.456 148.578C204.648 148.872 205.252 148.643 205.444 148.545C206.431 148.088 207.473 147.696 208.542 147.63C209.749 147.532 210.928 147.892 211.97 148.643C212.245 148.839 212.656 148.741 212.958 148.611C213.04 148.578 213.643 148.186 213.369 147.99V147.957Z" fill="currentColor"/>
    <path d="M212.519 157.597C210.572 156.846 208.597 156.061 206.513 156.094C206.184 156.094 205.718 156.388 205.69 156.846C205.663 157.303 206.074 157.499 206.403 157.467C208.213 157.434 209.968 158.186 211.669 158.839C212.025 158.97 212.491 158.839 212.738 158.512C212.958 158.186 212.875 157.728 212.519 157.597Z" fill="currentColor"/>
    <path d="M212.107 169.1C211.367 168.218 210.544 167.401 209.639 166.813C208.652 166.192 207.555 165.8 206.431 165.669C206.102 165.636 205.608 165.8 205.444 166.192C205.279 166.584 205.608 166.78 205.882 166.846C207.775 167.074 209.42 168.251 210.736 169.885C210.983 170.179 211.449 170.114 211.751 169.95C211.943 169.852 212.382 169.46 212.135 169.133L212.107 169.1Z" fill="currentColor"/>
    <path d="M210.873 179.264C208.981 176.584 206.458 174.493 203.551 173.839C203.195 173.774 202.756 173.872 202.482 174.166C202.263 174.427 202.317 174.754 202.619 174.819C205.361 175.44 207.72 177.434 209.475 179.95C209.831 180.44 211.257 179.787 210.873 179.231V179.264Z" fill="currentColor"/>
    <path d="M210.764 191.584C209.941 190.277 208.871 189.264 207.61 188.61C206.266 187.924 204.813 187.695 203.359 187.662C203.03 187.662 202.564 187.956 202.537 188.381C202.482 188.871 202.948 188.97 203.222 188.97C204.429 188.97 205.636 189.231 206.733 189.819C207.829 190.407 208.68 191.257 209.393 192.368C209.804 193.022 211.23 192.335 210.764 191.584Z" fill="currentColor"/>
    <path d="M208.57 202.401C206.212 199.296 203.305 196.224 199.822 195.179C199.465 195.081 198.999 195.179 198.752 195.505C198.533 195.8 198.588 196.224 198.944 196.322C202.235 197.303 204.978 200.244 207.199 203.152C207.638 203.708 209.064 203.022 208.57 202.401Z" fill="currentColor"/>
    <path d="M206.184 210.342C205.032 208.839 203.661 207.531 202.016 206.845C200.37 206.159 198.561 206.192 196.833 206.649C196.641 206.714 196.092 206.943 196.175 207.303C196.257 207.662 196.833 207.499 197.025 207.466C198.396 207.107 199.822 207.205 201.138 207.826C202.564 208.512 203.743 209.688 204.786 211.028C205.115 211.453 206.541 210.799 206.184 210.342Z" fill="currentColor"/>
    <path d="M205.142 222.008C203.085 220.799 201.193 219.198 199.109 218.087C197.025 216.976 194.749 216.616 192.473 217.204C192.253 217.27 191.732 217.531 191.814 217.891C191.897 218.25 192.473 218.152 192.664 218.087C196.888 216.976 200.425 220.799 203.963 222.858C204.264 223.054 204.758 222.891 205.032 222.695C205.224 222.531 205.498 222.204 205.169 222.008H205.142Z" fill="currentColor"/>
    <path d="M192.363 236.649C189.785 233.446 187.152 229.917 183.45 228.61C183.094 228.479 182.628 228.61 182.381 228.936C182.161 229.263 182.244 229.721 182.573 229.819C186.056 231.06 188.524 234.426 190.964 237.433C191.239 237.76 191.65 237.76 191.979 237.564C192.226 237.433 192.61 236.943 192.335 236.616L192.363 236.649Z" fill="currentColor"/>
    <path d="M186.275 249.459C184.767 247.041 182.957 244.917 180.79 243.315C180.516 243.119 180.105 243.217 179.803 243.348C179.693 243.381 179.118 243.773 179.392 243.969C181.531 245.57 183.368 247.694 184.876 250.113C185.123 250.537 186.577 249.949 186.275 249.459Z" fill="currentColor"/>
    <path d="M179.172 260.701C178.185 259.263 176.869 258.282 175.58 257.302C175.278 257.073 174.785 257.171 174.511 257.433C174.291 257.629 174.099 258.054 174.428 258.282C175.69 259.23 176.896 260.145 177.829 261.452C178.048 261.779 178.542 261.714 178.843 261.55C179.063 261.42 179.447 261.027 179.2 260.701H179.172Z" fill="currentColor"/>
    <path d="M172.399 268.152C171.412 266.714 170.424 265.308 169.437 263.871C169.355 263.773 169.136 263.74 169.053 263.74C168.861 263.74 168.642 263.805 168.477 263.871C168.313 263.936 167.847 264.23 168.066 264.524C169.053 265.962 170.041 267.367 171.028 268.805C171.11 268.903 171.329 268.936 171.412 268.936C171.604 268.936 171.823 268.871 171.988 268.805C172.152 268.74 172.618 268.446 172.399 268.152Z" fill="currentColor"/>
    <path d="M166.092 277.955C164.995 276.387 163.514 275.341 162.088 274.263C161.951 274.165 161.731 274.197 161.594 274.197C161.402 274.197 161.183 274.295 161.018 274.426C160.799 274.589 160.58 274.884 160.881 275.112C162.252 276.125 163.651 277.138 164.693 278.642C165.022 279.099 166.448 278.478 166.092 277.955Z" fill="currentColor"/>
    <path d="M152.737 288.772C152.737 288.772 152.654 288.707 152.682 288.707C152.654 288.707 152.6 288.642 152.572 288.609C152.517 288.543 152.435 288.511 152.38 288.445C152.243 288.315 152.106 288.184 151.969 288.053C151.695 287.759 151.448 287.465 151.201 287.171C150.762 286.615 150.406 286.027 150.077 285.374C150.022 285.243 149.775 285.243 149.665 285.243C149.473 285.243 149.254 285.308 149.089 285.374C148.952 285.439 148.788 285.537 148.678 285.7C148.596 285.831 148.596 285.929 148.678 286.027C149.418 287.465 150.406 288.674 151.585 289.589C151.695 289.687 151.941 289.655 152.078 289.622C152.27 289.622 152.49 289.524 152.654 289.393C152.764 289.295 152.901 289.197 152.956 289.034C152.983 288.903 152.901 288.805 152.819 288.74L152.737 288.772Z" fill="currentColor"/>
    <path d="M141 294.524C140.862 294.426 140.725 294.328 140.588 294.197L140.698 294.295C140.287 293.903 139.985 293.413 139.711 292.89C139.656 292.759 139.409 292.726 139.299 292.694C139.107 292.694 138.888 292.726 138.696 292.824C138.559 292.922 138.367 293.02 138.285 293.184L138.23 293.315C138.23 293.315 138.23 293.511 138.285 293.576C138.504 294.001 138.751 294.426 139.053 294.752C139.272 295.014 139.546 295.21 139.793 295.406C139.93 295.504 140.149 295.504 140.287 295.504C140.479 295.504 140.698 295.406 140.862 295.275C140.972 295.177 141.137 295.047 141.137 294.883C141.137 294.72 141.082 294.622 140.972 294.524H141Z" fill="currentColor"/>
    <path d="M131.511 298.576L130.25 297.628C130.25 297.628 129.976 297.563 129.866 297.563C129.674 297.563 129.455 297.628 129.29 297.726L129.125 297.824C129.125 297.824 128.961 297.922 128.879 298.02C128.824 298.086 128.769 298.217 128.879 298.282L130.14 299.23C130.14 299.23 130.414 299.295 130.524 299.295C130.716 299.295 130.935 299.23 131.1 299.132L131.264 299.034C131.264 299.034 131.429 298.935 131.511 298.837C131.566 298.772 131.621 298.641 131.511 298.576Z" fill="currentColor"/>
    <path d="M121.2 302.89C121.858 302.89 122.763 301.713 121.749 301.713C121.09 301.713 120.185 302.89 121.2 302.89Z" fill="currentColor"/>
    <path d="M106.803 158.055C109.189 152.467 108.695 145.408 105.021 140.735C103.211 138.447 100.523 136.487 97.9454 135.67C95.5047 134.885 92.7076 135.343 90.6782 137.173C88.8958 138.774 86.4825 141.715 86.5648 144.591C86.5648 145.473 88.1005 145.179 88.0731 144.428C88.0182 142.14 89.6636 139.951 91.0074 138.513C92.7898 136.617 95.1756 136.062 97.4517 136.911C102.031 138.643 105.816 142.99 106.611 148.741C107.05 151.846 106.556 155.048 105.377 157.859C104.993 158.741 106.529 158.676 106.803 158.022V158.055Z" fill="currentColor"/>
    <path d="M105.651 157.859C104.582 160.669 103.567 163.741 101.757 166.029C100.825 167.205 99.5359 167.859 98.2196 168.284C96.821 168.741 95.7242 168.022 94.4353 167.499C94.1336 167.369 93.6674 167.565 93.3932 167.728C93.2561 167.826 92.8996 168.055 93.2012 168.153C93.9417 168.447 94.6547 168.872 95.4225 169.035C96.1355 169.199 96.8759 169.133 97.5889 168.97C99.152 168.578 100.88 167.891 102.196 166.813C103.403 165.8 104.308 164.166 105.021 162.663C105.816 160.996 106.447 159.231 107.132 157.499C107.214 157.271 105.816 157.369 105.651 157.826V157.859Z" fill="currentColor"/>
    <path d="M75.1568 168.022C78.2008 167.532 81.4367 168.218 83.7677 165.31C85.0291 163.741 86.0438 161.715 87.1407 159.95C88.1553 158.284 89.1151 156.486 89.4991 154.46C90.1846 150.996 89.2523 147.14 88.1279 143.937C87.0036 140.735 85.3582 137.402 82.9724 135.277C80.4495 133.023 77.4329 132.696 74.5535 134.199C73.5937 134.689 74.4713 135.277 75.1568 134.918C81.9577 131.323 86.6471 142.598 87.8263 148.839C88.2102 150.833 88.4022 152.892 87.9634 154.918C87.4698 157.238 86.2357 159.166 85.0566 161.029C83.8774 162.891 82.753 165.702 80.7511 166.454C79.0509 167.074 77.1313 166.748 75.3762 167.042C74.6632 167.172 74.1148 168.185 75.1568 168.022Z" fill="currentColor"/>
</svg>
